<svg width="24" height="24" viewBox="0 0 24 24" fill="none" xmlns="http://www.w3.org/2000/svg">
<path d="M9.86865 5.19317C9.89154 5.74698 10.0494 6.28681 10.3286 6.76567L11.1104 6.28822C10.9176 5.95372 10.8058 5.57868 10.7841 5.19317C10.7935 4.95162 10.8524 4.71458 10.9571 4.49672C11.0931 4.19932 11.1676 3.8775 11.1761 3.55059C11.1455 3.00788 10.996 2.47854 10.7381 2L9.93436 2.43802C10.1206 2.78207 10.2339 3.1608 10.2673 3.55059C10.2558 3.76132 10.2021 3.9676 10.1096 4.15725C9.96002 4.48271 9.87807 4.83513 9.86865 5.19317Z" fill="#EF7D00"/>
<path d="M7.55139 5.19317C7.57428 5.74698 7.73216 6.28681 8.01131 6.76567L8.79318 6.28822C8.60032 5.95372 8.48856 5.57868 8.46685 5.19317C8.47623 4.95162 8.53512 4.71458 8.63987 4.49672C8.77588 4.19932 8.85037 3.8775 8.85888 3.55059C8.82823 3.00788 8.67869 2.47854 8.42086 2L7.61709 2.43802C7.80139 2.78228 7.91179 3.16122 7.94123 3.55059C7.92973 3.76132 7.87611 3.9676 7.78354 4.15725C7.63702 4.48335 7.55805 4.83573 7.55139 5.19317Z" fill="#EF7D00"/>
<path d="M12.1858 5.19317C12.2087 5.74698 12.3666 6.28681 12.6457 6.76567L13.4276 6.28822C13.2347 5.95372 13.123 5.57868 13.1013 5.19317C13.1106 4.95162 13.1695 4.71458 13.2743 4.49672C13.4103 4.19932 13.4848 3.8775 13.4933 3.55059C13.4626 3.00788 13.3131 2.47854 13.0553 2L12.2515 2.43802C12.4377 2.78207 12.551 3.1608 12.5844 3.55059C12.5729 3.76132 12.5193 3.9676 12.4267 4.15725C12.2772 4.48271 12.1952 4.83513 12.1858 5.19317Z" fill="#EF7D00"/>
<path d="M18.7473 11.7109H16.0447V8.68854L15.587 8.2308H5.45773L5 8.68854V21.5423L5.45773 22H15.5892L16.0447 21.5423V18.5199H18.7451L19.2028 18.0622V12.1686L18.7473 11.7109ZM15.1314 21.0845H5.91546V9.15284H15.1314V21.0911V21.0845ZM18.2896 17.6045H16.0447V12.6263H18.2874L18.2896 17.6045Z" fill="#EF7D00"/>
</svg>
