<svg width="24" height="24" viewBox="0 0 24 24" fill="none" xmlns="http://www.w3.org/2000/svg">
<path d="M17.0077 10.9958L17.2764 10.8637L21.9912 6.14887V5.48822L18.492 2H17.8313L13.1782 6.66197L13.0482 6.93063L12.7245 9.17023L11.6631 10.2339L3.57234 2.14314L2.84343 2.24884C2.36368 3.13964 2.18263 4.16093 2.32694 5.16235C2.47125 6.16377 2.93328 7.0924 3.64501 7.8115L8.86413 13.0306L2 19.8969V20.5576L3.44241 22H4.10306L11.6631 14.418L19.2297 21.9846H19.8903L21.3349 20.5422V19.8815L13.7573 12.3281L14.8166 11.2689L17.0077 10.9958ZM3.76833 21.0244L2.97556 20.2317L9.70095 13.4975L10.8945 13.8895L3.76833 21.0244ZM20.3484 20.2317L19.5556 21.0244L11.8128 13.275L11.6322 13.1627L9.6503 12.5021L4.28804 7.16186C3.7948 6.65875 3.4512 6.02838 3.29564 5.3412C3.14009 4.65403 3.1787 3.93713 3.40718 3.27065L20.3484 20.2317ZM14.277 10.5069L13.0967 11.6785L12.3127 10.8945L13.4843 9.72297L13.6142 9.46311L13.9379 7.21471L18.1616 2.96675L18.6769 3.48205L14.9267 7.24774L15.5873 7.90839L19.331 4.16472L19.8463 4.68003L16.1026 8.42369L16.7633 9.08434L20.5202 5.32746L21.0244 5.82955L16.7368 10.1017L14.5347 10.3748L14.277 10.5069Z" fill="#EF7D00"/>
</svg>
