<svg width="24" height="24" viewBox="0 0 24 24" fill="none" xmlns="http://www.w3.org/2000/svg">
<path d="M17.9743 2C17.2705 2.00015 16.5889 2.24661 16.0478 2.69664C15.5067 3.14666 15.1401 3.77188 15.0116 4.46387L13.6293 11.9581L13.7436 12.3683L15.0652 13.8648V21.5035L15.5547 21.9907H17.9743L18.4615 21.5035V2.48718L17.9743 2ZM17.4871 21.0257H16.0419V13.69L15.9184 13.366L14.6247 11.9021L15.9603 4.64103C16.0321 4.25553 16.2134 3.89887 16.4825 3.61365C16.7516 3.32843 17.0972 3.12672 17.4778 3.03264L17.4871 21.0257Z" fill="#EF7D00"/>
<path d="M6.48719 2.16547L6.00001 2.65265V8.62002C5.99858 9.13571 6.12571 9.64362 6.3699 10.0978C6.6141 10.552 6.96766 10.9382 7.39861 11.2214V21.5128L7.88579 22H10.317L10.8042 21.5128V11.2214C11.2376 10.9399 11.5937 10.5543 11.84 10.1C12.0863 9.64562 12.2151 9.13685 12.2145 8.62002V2.65265L11.725 2.16547H6.48719ZM11.2378 8.62002C11.2384 9.01001 11.1317 9.39265 10.9295 9.72608C10.7272 10.0595 10.4371 10.3309 10.0909 10.5105L9.82985 10.9417V21.0256H8.38463V10.9417L8.12123 10.5105C7.77539 10.3305 7.48558 10.059 7.28336 9.72567C7.08114 9.39233 6.97426 9.0099 6.97437 8.62002V3.14216H7.74593V7.92771H8.72029V3.14216H9.49186V7.90673H10.4662V3.14216H11.2378V8.62002Z" fill="#EF7D00"/>
</svg>
