<svg width="24" height="24" viewBox="0 0 24 24" fill="none" xmlns="http://www.w3.org/2000/svg">
<path d="M17.9418 14.7403L16.3243 13.0311C15.8718 12.5541 15.6198 11.9215 15.6203 11.2641V7.73594C15.7785 8.4691 16.2054 9.11652 16.8169 9.55086L17.3016 8.87276C17.0617 8.70332 16.8588 8.48689 16.7052 8.2366C16.5516 7.98631 16.4505 7.70741 16.4081 7.41683H17.9298L18.3466 7V5.29079L17.9298 4.87395H13.5321L13.221 5.01356L11.9904 6.39569L11.9166 6.83845L12.7004 8.67132V9.9637L12.6326 10.0056L11.9864 11.296C11.8867 11.4954 11.801 11.6949 11.7212 11.9083C11.7072 11.8943 11.6972 11.8803 11.6853 11.8664L10.0678 10.1592C9.6161 9.681 9.36485 9.04789 9.36578 8.39011V4.86398C9.51994 5.59576 9.9426 6.24326 10.5505 6.6789L11.0351 5.9988C10.7964 5.82822 10.595 5.6108 10.4431 5.3598C10.2912 5.1088 10.192 4.82948 10.1516 4.53889H11.6733L12.0901 4.12206V2.41883L11.6733 2H7.27363L6.9625 2.1416L5.73195 3.52373L5.66015 3.9645L6.44396 5.79737V7.09174L6.37615 7.13363L5.73195 8.41404C5.2521 9.37612 5.00158 10.4363 5 11.5114V18.7092L5.41683 19.126H11.2565V21.5812L11.6733 22H18.4543L18.8712 21.5812V17.0818C18.8736 16.2109 18.5408 15.3725 17.9418 14.7403ZM7.27762 6.13043H8.53011V6.90227H7.27762V6.13043ZM7.46111 2.82968H11.2505V3.69924H9.56522C9.29069 3.69924 9.02741 3.8083 8.83329 4.00242C8.63917 4.19654 8.53011 4.45982 8.53011 4.73434V5.28879H7.13402L6.5357 3.87475L7.46111 2.82968ZM11.2505 14.3973V18.3043H5.83367V11.5233C5.83534 10.5777 6.05582 9.64523 6.47786 8.79896L7.00638 7.73993H8.53011V8.3941C8.52981 9.26415 8.86399 10.101 9.4635 10.7316L11.079 12.4408C11.2108 12.5798 11.326 12.7337 11.422 12.8995C11.3129 13.3913 11.2574 13.8935 11.2565 14.3973H11.2505ZM13.5321 9.01237H14.7846V9.7862H13.5321V9.01237ZM13.7156 5.71759H17.505V6.58716H15.8217C15.5484 6.58767 15.2863 6.69608 15.0925 6.88879C14.8986 7.0815 14.7887 7.34295 14.7866 7.61627V8.17272H13.3905L12.7922 6.75668L13.7156 5.71759ZM18.0395 21.1783H12.0901V14.3973C12.0909 13.4502 12.3114 12.5163 12.7343 11.6689L13.2629 10.6079H14.7866V11.2621C14.7879 12.1329 15.1243 12.9699 15.726 13.5995L17.3434 15.3067C17.7957 15.7847 18.0476 16.4178 18.0475 17.0758L18.0395 21.1783Z" fill="#EF7D00"/>
</svg>
