<svg width="24" height="24" viewBox="0 0 24 24" fill="none" xmlns="http://www.w3.org/2000/svg">
<path d="M10.9223 14.2287H19.8112L20.3095 13.7304V11.6393L21.6543 11.2673L22 10.645L21.2442 8.08898C21.1291 7.71117 20.9371 7.36127 20.6802 7.0613C20.4234 6.76133 20.1072 6.51779 19.7516 6.34601C19.3264 6.13992 18.8635 6.02322 18.3915 6.00313C17.9194 5.98303 17.4483 6.05997 17.0072 6.22918L2.3052 11.7418L2 12.3427L2.90129 15.5735V17.8315L3.39962 18.3298H21.0248L21.5231 17.8315V15.9478L21.0248 15.4495H8.73104V14.8319L10.9223 14.2287ZM19.3128 13.232H14.5441L19.3128 11.9135V13.232ZM20.5265 16.4581V17.3451H3.89318V13.9545H7.73438V15.9478L8.23271 16.4581H20.5265ZM8.23271 12.9578H3.39962L3.2494 13.12L3.0825 12.5239L17.3648 7.15908C17.6768 7.03854 18.0101 6.98313 18.3443 6.99626C18.6785 7.00938 19.0065 7.09075 19.3081 7.23538C19.5409 7.34604 19.7482 7.50384 19.9169 7.6988C20.0856 7.89376 20.212 8.12161 20.288 8.36795L20.9008 10.4352L8.74058 13.7947V13.4562L8.23271 12.9578Z" fill="#EF7D00"/>
<path d="M5.80067 14.8677C5.66994 14.8672 5.54201 14.9055 5.43309 14.9778C5.32416 15.0501 5.23913 15.1531 5.18878 15.2737C5.13842 15.3944 5.125 15.5273 5.15022 15.6555C5.17543 15.7838 5.23815 15.9017 5.33042 15.9943C5.42269 16.0869 5.54037 16.1501 5.66855 16.1757C5.79674 16.2014 5.92966 16.1885 6.05048 16.1386C6.1713 16.0886 6.2746 16.004 6.34728 15.8953C6.41996 15.7867 6.45875 15.6589 6.45875 15.5281C6.45875 15.3534 6.3895 15.1858 6.26615 15.062C6.1428 14.9382 5.97542 14.8683 5.80067 14.8677ZM5.80067 15.8667C5.73361 15.8672 5.66791 15.8477 5.61192 15.8108C5.55593 15.7739 5.51216 15.7212 5.48617 15.6594C5.46018 15.5976 5.45313 15.5294 5.46592 15.4636C5.47872 15.3977 5.51077 15.3372 5.55803 15.2896C5.60528 15.242 5.66561 15.2095 5.73135 15.1963C5.79709 15.183 5.86529 15.1896 5.9273 15.2151C5.9893 15.2407 6.04232 15.2841 6.07963 15.3398C6.11694 15.3955 6.13686 15.4611 6.13686 15.5281C6.13687 15.6175 6.10152 15.7033 6.03854 15.7667C5.97556 15.8301 5.89005 15.8661 5.80067 15.8667Z" fill="#EF7D00"/>
</svg>
