<svg width="24" height="24" viewBox="0 0 24 24" fill="none" xmlns="http://www.w3.org/2000/svg">
<path d="M20.3139 6.79596L12.0045 2H11.5448L7.84753 4.1278L3.22422 6.79596L3 7.20179V16.7982L3.22422 17.204L11.5448 22H12.0134L20.3229 17.204L20.5471 16.7982V7.20179L20.3139 6.79596ZM11.7691 2.94619L19.1457 7.20628L16.2309 8.91256L8.78924 4.66592L11.7691 2.94619ZM7.84977 5.20852L15.287 9.4574L11.8587 11.4596L4.40134 7.19955L7.84977 5.20852ZM3.92152 8.00897L11.3856 12.2691V20.8341L3.92152 16.5269V8.00897ZM19.6031 16.5291L12.3296 20.7309V12.2691L19.6099 8.00897L19.6031 16.5291Z" fill="#EF7D00"/>
</svg>
