<svg width="24" height="24" viewBox="0 0 24 24" fill="none" xmlns="http://www.w3.org/2000/svg">
<path d="M21.6791 12.9843L17.1562 10.3696V5.1359L16.9408 4.74607L12.1702 2H11.7286L6.96446 4.74607L6.73832 5.1359V10.3696L2.21538 12.9843L2 13.3741V18.8641L2.21538 19.2539L6.97093 22H7.42107L11.944 19.3853L16.4669 22H16.9171L21.6726 19.2539L21.888 18.8641V13.3741L21.6791 12.9843ZM20.5591 13.3763L19.2475 14.1409L15.3707 11.9225L16.7103 11.1493L20.5591 13.3763ZM16.7491 15.599L12.8486 13.372L14.4553 12.4437L18.3472 14.6664L16.7491 15.599ZM7.63644 5.91126L11.5456 8.14258V12.6203L7.63644 10.3653V5.91126ZM14.9162 8.33857V6.69739L16.2516 5.91988V10.3653L12.4458 12.56V8.13827L14.0159 7.22292V8.33857H14.9162ZM11.944 2.91105L15.8014 5.13806L14.4898 5.90265L10.613 3.68426L11.944 2.91105ZM9.70192 4.20332L13.5916 6.42817L11.9935 7.36076L8.09305 5.13375L9.70192 4.20332ZM7.18846 11.1493L11.048 13.3763L9.73638 14.1409L5.85957 11.9225L7.18846 11.1493ZM4.94637 12.4415L8.83825 14.6664L7.23799 15.599L3.33965 13.372L4.94637 12.4415ZM2.8852 14.1538L6.79216 16.3808V20.8607L2.8852 18.6035V14.1538ZM7.69244 16.3786L9.26039 15.4611V16.5682H10.1628V14.9356L11.4939 14.1538V18.5992L7.69244 20.796V16.3786ZM12.3941 14.1538L16.3011 16.3808V20.8607L12.3941 18.6035V14.1538ZM21.0093 18.6078L17.2078 20.8047V16.3786L18.778 15.4611V16.5682H19.6782V14.9356L21.0028 14.1538L21.0093 18.6078Z" fill="#EF7D00"/>
</svg>
