<svg width="24" height="24" viewBox="0 0 24 24" fill="none" xmlns="http://www.w3.org/2000/svg">
<path d="M19.1196 4.38412H16.3461V3.65753L15.9379 3.24931H13.8695C13.7789 2.89216 13.5719 2.57539 13.2811 2.34912C12.9903 2.12285 12.6324 2 12.2639 2C11.8955 2 11.5376 2.12285 11.2468 2.34912C10.956 2.57539 10.7489 2.89216 10.6584 3.24931H8.58997L8.18176 3.65753V4.38412H5.40822L5 4.79234V21.5898L5.40822 22H19.1196L19.5279 21.5898V4.79234L19.1196 4.38412ZM8.99819 4.07161H11.0158L11.4241 3.66339C11.4241 3.44064 11.5125 3.22702 11.6701 3.06951C11.8276 2.912 12.0412 2.82352 12.2639 2.82352C12.4867 2.82352 12.7003 2.912 12.8578 3.06951C13.0153 3.22702 13.1038 3.44064 13.1038 3.66339L13.512 4.07161H15.5297V5.51307H8.99819V4.07161ZM18.7095 21.1816H5.81839V5.1947H8.18176V5.91738L8.58997 6.3256H15.9379L16.3461 5.91738V5.1947H18.7095V21.1816Z" fill="#EF7D00"/>
<path d="M12.2835 8.48584C11.3509 8.48584 10.4393 8.76251 9.66404 9.28082C8.88877 9.79913 8.28469 10.5358 7.92826 11.3976C7.57183 12.2593 7.47907 13.2075 7.66171 14.122C7.84436 15.0365 8.29421 15.8763 8.95432 16.535C9.61443 17.1937 10.4551 17.6418 11.37 17.8226C12.2849 18.0033 13.2328 17.9086 14.0939 17.5504C14.9549 17.1922 15.6903 16.5866 16.207 15.8102C16.7237 15.0339 16.9985 14.1217 16.9965 13.1891C16.9924 11.9413 16.4942 10.7459 15.611 9.86452C14.7277 8.98309 13.5313 8.48738 12.2835 8.48584ZM12.2835 17.0799C11.5136 17.078 10.7616 16.848 10.1223 16.4191C9.48302 15.9902 8.9851 15.3816 8.69139 14.6699C8.39767 13.9583 8.32133 13.1757 8.47199 12.4207C8.62265 11.6657 8.99357 10.9723 9.53794 10.428C10.0823 9.88359 10.7757 9.51268 11.5307 9.36201C12.2856 9.21135 13.0683 9.28769 13.7799 9.58141C14.4915 9.87512 15.1002 10.373 15.5291 11.0123C15.958 11.6516 16.1879 12.4037 16.1899 13.1735C16.1899 14.2096 15.7783 15.2032 15.0457 15.9357C14.3131 16.6683 13.3195 17.0799 12.2835 17.0799Z" fill="#EF7D00"/>
<path d="M11.6565 14.1833L10.6525 13.1774L10.0764 13.7556L11.3694 15.0486H11.9456L14.9261 12.068L14.3499 11.4899L11.6565 14.1833Z" fill="#EF7D00"/>
</svg>
