<svg width="24" height="24" viewBox="0 0 24 24" fill="none" xmlns="http://www.w3.org/2000/svg">
<path d="M18.2836 4.77682C17.4135 5.22241 16.7537 5.06751 15.9313 4.87053C15.109 4.67355 14.1624 4.45362 12.9212 4.87053V3.99656L12.5215 3.59686H10.9113V2.39969L10.5116 2H7.40964L7.00994 2.39969V3.59686H5.39969L5 3.99656V20.0034L5.39969 20.4031H7.00994V21.6003L7.40964 22H10.5116L10.9113 21.6003V20.4031H12.5215L12.9212 20.0034V19.4584C14.0801 18.988 14.891 19.1792 15.7478 19.3819C16.2031 19.5077 16.6717 19.5796 17.1438 19.5961C17.6685 19.5928 18.1845 19.4615 18.647 19.2136L18.865 18.8579V5.13253L18.2836 4.77682ZM7.80933 2.79939H10.1042V3.59686H7.80933V2.79939ZM10.1042 21.2006H7.80933V20.4031H10.1042V21.2006ZM12.1237 19.6037H5.79939V4.39625H12.1237V19.6037ZM18.0675 18.6131C17.3025 18.9306 16.6906 18.7852 15.9333 18.6131C15.0975 18.4219 14.1662 18.1962 12.9231 18.6131V5.72729C14.0706 5.25492 14.8929 5.44617 15.7497 5.64888C16.4649 5.81909 17.1993 5.9912 18.0675 5.72729V18.6131Z" fill="#EF7D00"/>
<path d="M7.80921 8.39508H7.00983V18.1063H7.80921V8.39508Z" fill="#EF7D00"/>
<path d="M7.80921 5.57239H7.00983V7.30503H7.80921V5.57239Z" fill="#EF7D00"/>
</svg>
