<svg width="24" height="24" viewBox="0 0 24 24" fill="none" xmlns="http://www.w3.org/2000/svg">
<path d="M20.6482 4.56104C19.3553 3.89836 18.3338 4.14001 17.3473 4.37419C16.3607 4.60837 15.424 4.82511 14.0613 4.21973C13.6428 2.92925 11.4255 2 8.58047 2C5.3991 2 3 3.14599 3 4.66567V19.3343C3 20.854 5.39412 22 8.56552 22C11.1714 22 13.2466 21.2277 13.9093 20.1116C14.504 20.3476 15.1379 20.4693 15.7778 20.4704C16.3885 20.4609 16.9959 20.3773 17.5864 20.2212C18.5007 20.007 19.2232 19.8351 20.1749 20.3234L20.9223 19.8575V5.02441L20.6482 4.56104ZM8.5705 3.03139C11.3333 3.03139 13.0972 3.99302 13.0972 4.6557C13.0972 5.31839 11.3333 6.28002 8.5705 6.28002C5.80767 6.28002 4.04634 5.32835 4.04634 4.66567C4.04634 4.00299 5.81016 3.03139 8.5705 3.03139ZM8.5705 20.9487C7.82945 20.9522 7.0902 20.8754 6.36572 20.7195V10.8839H5.32437V20.4131C4.50723 20.0867 4.04634 19.6657 4.04634 19.3343V6.25511C4.44405 6.51127 4.87375 6.71398 5.32437 6.858V9.78525H6.36572V7.12955C7.09233 7.26865 7.8307 7.33706 8.5705 7.33383C10.4813 7.33383 12.1031 6.9153 13.0972 6.25511V19.3343C13.0972 19.997 11.3333 20.9686 8.5705 20.9686V20.9487ZM19.8909 19.0727C18.9417 18.8087 18.147 19.0005 17.3473 19.1849C16.3782 19.4141 15.4589 19.6283 14.1385 19.0678V5.36572C15.566 5.86398 16.6298 5.61485 17.5864 5.38316C18.4086 5.18884 19.0812 5.03189 19.8909 5.35326V19.0727Z" fill="#EF7D00"/>
<path d="M8.57043 5.11657C9.76874 5.11657 10.7403 4.88738 10.7403 4.61832C10.7403 4.34926 9.76874 4.12006 8.57043 4.12006C7.37212 4.12006 6.40302 4.34926 6.40302 4.61832C6.40302 4.88738 7.37461 5.11657 8.57043 5.11657Z" fill="#EF7D00"/>
</svg>
