<svg width="24" height="24" viewBox="0 0 24 24" fill="none" xmlns="http://www.w3.org/2000/svg">
<path d="M22 15.4965L21.6974 14.6939H16.5157C16.9861 13.2198 16.9849 11.6357 16.512 10.1623C16.0392 8.68897 15.1184 7.39988 13.8781 6.4748C12.6377 5.54971 11.1396 5.03475 9.59256 5.0017C8.04556 4.96865 6.5268 5.41917 5.24805 6.29043C3.9693 7.1617 2.9943 8.41029 2.459 9.86211C1.9237 11.3139 1.85478 12.8966 2.26186 14.3894C2.66893 15.8823 3.5317 17.2109 4.72987 18.19C5.92805 19.1692 7.4019 19.75 8.94592 19.8516L8.96346 19.8691H21.6974L22 19.0665L19.9804 17.2815L22 15.4965ZM2.92213 12.4265C2.92213 11.1375 3.30441 9.87735 4.02063 8.80556C4.73684 7.73377 5.75481 6.89845 6.9458 6.40524C8.13679 5.91204 9.44729 5.7831 10.7116 6.03475C11.9758 6.28639 13.1371 6.90731 14.0484 7.81897C14.9598 8.73063 15.5803 9.89209 15.8315 11.1564C16.0827 12.4208 15.9534 13.7312 15.4598 14.9221C14.9662 16.1129 14.1305 17.1306 13.0585 17.8464C11.9864 18.5623 10.7262 18.9441 9.43712 18.9437C7.70881 18.9425 6.05159 18.2556 4.82928 17.0337C3.60698 15.8118 2.91949 14.1548 2.91775 12.4265H2.92213ZM20.4913 18.9437H13.0049C14.378 18.1868 15.4787 17.0179 16.1516 15.6018H20.4869L18.9848 16.9175V17.6061L20.4913 18.9437Z" fill="#EF7D00"/>
<path d="M13.2921 12.4265C13.2925 11.6631 13.0666 10.9167 12.6427 10.2817C12.2189 9.64676 11.6163 9.15174 10.9111 8.85929C10.206 8.56685 9.42988 8.4901 8.68108 8.63877C7.93228 8.78744 7.24439 9.15484 6.70442 9.69451C6.16445 10.2342 5.79666 10.9219 5.64756 11.6706C5.49847 12.4193 5.57477 13.1954 5.86682 13.9007C6.15886 14.6061 6.65353 15.209 7.28826 15.6332C7.92299 16.0573 8.66926 16.2837 9.43267 16.2837C10.4555 16.2826 11.4362 15.8759 12.1596 15.1528C12.8831 14.4298 13.2904 13.4494 13.2921 12.4265ZM6.49424 12.4265C6.49381 11.8442 6.66615 11.2748 6.98944 10.7905C7.31273 10.3062 7.77244 9.92866 8.31039 9.70572C8.84833 9.48278 9.44033 9.42444 10.0114 9.5381C10.5826 9.65176 11.1071 9.93229 11.5187 10.3442C11.9303 10.7561 12.2105 11.2809 12.3237 11.8521C12.4369 12.4233 12.3782 13.0152 12.1548 13.553C11.9315 14.0908 11.5536 14.5502 11.069 14.8732C10.5845 15.1961 10.015 15.368 9.43267 15.3671C8.65295 15.3665 7.90533 15.0565 7.35398 14.5052C6.80263 13.9538 6.49263 13.2062 6.49205 12.4265H6.49424Z" fill="#EF7D00"/>
</svg>
