<svg width="24" height="24" viewBox="0 0 24 24" fill="none" xmlns="http://www.w3.org/2000/svg">
<path d="M21.6661 15.2615H16.6282C17.7658 13.9339 18.3503 12.2203 18.2611 10.4742C18.1718 8.72822 17.4157 7.08307 16.1488 5.87834C14.8818 4.67361 13.2007 4.00124 11.4524 4C9.70407 3.99876 8.022 4.66874 6.75333 5.87167L3.79784 8.82715C2.90151 9.80327 2.30876 11.0192 2.09195 12.3266C1.87515 13.634 2.04367 14.9762 2.57693 16.1894C3.1102 17.4026 3.98515 18.4342 5.09497 19.1585C6.20478 19.8827 7.50145 20.2682 8.82667 20.2678C8.92143 20.2678 9.01393 20.2678 9.10869 20.2678H17.6051L17.939 20.1302L22 16.0692L21.6661 15.2615ZM17.3321 10.8215C17.3318 12.3214 16.757 13.7641 15.7258 14.8532L15.4438 15.1329C15.5865 14.5795 15.6585 14.0102 15.6581 13.4386C15.6581 12.3976 15.42 11.3704 14.962 10.4355C14.5041 9.50063 13.8384 8.68287 13.0159 8.04476C12.1934 7.40665 11.2358 6.96509 10.2165 6.75386C9.19712 6.54262 8.14296 6.5673 7.1346 6.826C7.9375 5.95708 8.98386 5.3506 10.1369 5.08582C11.29 4.82104 12.4961 4.91028 13.5976 5.34188C14.6992 5.77347 15.6449 6.52735 16.3111 7.50497C16.9774 8.48259 17.3332 9.63847 17.3321 10.8215ZM8.82893 19.3225C7.66502 19.3234 6.52698 18.9791 5.55879 18.3331C4.59059 17.6871 3.83574 16.7685 3.38971 15.6934C2.94368 14.6183 2.82652 13.4351 3.05304 12.2935C3.27956 11.1518 3.83959 10.103 4.66229 9.27967C5.48498 8.45634 6.53338 7.8955 7.67487 7.66811C8.81635 7.44071 9.99964 7.55697 11.075 8.00217C12.1504 8.44738 13.0696 9.20153 13.7164 10.1692C14.3631 11.1369 14.7083 12.2747 14.7083 13.4386C14.7065 14.9978 14.0867 16.4926 12.9846 17.5956C11.8825 18.6985 10.3881 19.3195 8.82893 19.3225ZM17.4021 19.3225H12.2875C12.6984 19.0798 13.0832 18.7956 13.4359 18.4742L13.481 18.4291C13.5961 18.3208 13.7066 18.2035 13.8172 18.0929L15.7055 16.2046H20.5245L17.4021 19.3225Z" fill="#EF7D00"/>
<path d="M8.82898 9.7251C8.09452 9.7251 7.37654 9.94289 6.76585 10.3509C6.15517 10.759 5.67919 11.339 5.39813 12.0175C5.11706 12.6961 5.04352 13.4427 5.1868 14.1631C5.33009 14.8834 5.68377 15.5451 6.20312 16.0645C6.72246 16.5838 7.38415 16.9375 8.10451 17.0808C8.82486 17.2241 9.57153 17.1505 10.2501 16.8695C10.9286 16.5884 11.5086 16.1124 11.9167 15.5017C12.3247 14.8911 12.5425 14.1731 12.5425 13.4386C12.5407 12.4543 12.1489 11.5108 11.4529 10.8147C10.7568 10.1187 9.81332 9.72689 8.82898 9.7251ZM8.82898 16.2091C8.28103 16.2091 7.74539 16.0466 7.28978 15.7422C6.83418 15.4378 6.47908 15.0051 6.26939 14.4988C6.0597 13.9926 6.00483 13.4355 6.11173 12.8981C6.21863 12.3607 6.48249 11.8671 6.86995 11.4796C7.25741 11.0921 7.75107 10.8283 8.28849 10.7214C8.82591 10.6145 9.38296 10.6693 9.8892 10.879C10.3954 11.0887 10.8281 11.4438 11.1326 11.8994C11.437 12.355 11.5995 12.8907 11.5995 13.4386C11.5983 14.173 11.306 14.877 10.7867 15.3963C10.2674 15.9156 9.56339 16.2079 8.82898 16.2091Z" fill="#EF7D00"/>
</svg>
