<svg width="24" height="24" viewBox="0 0 24 24" fill="none" xmlns="http://www.w3.org/2000/svg">
<path d="M6.84457 2L6.45318 2.39139V3.72659H5.39139L5 4.11798V7.05056L5.29026 7.42509L12.0094 9.22285V9.56554H11.2434L10.8521 9.95693V11.8127L8.51123 12.5824L8.24719 12.9551V19.6629L8.63483 20.0524H10.8577V21.6067L11.2434 22H13.5131L13.9045 21.6086V20.0524H14.367L14.7584 19.661V18.2921L15.0637 17.9925V17.1648L15.1592 17.2566L15.4288 17.3633H16.6835L17.0749 16.9719V12.6423L16.8408 12.2846L13.9045 10.9869V9.95506L13.5131 9.56554H12.7921V8.92884L12.5019 8.55431L5.78277 6.75655V4.50936H6.45318V5.72472L6.84457 6.11611H18.9682L19.3595 5.72472V2.39139L18.9682 2H6.84457ZM13.1161 21.2172H11.6404V20.0524H13.1161V21.2172ZM13.97 19.2715H9.02622V13.236L10.8165 12.6404V13.3464H14.7697V14.2472H10.8165V15.03H14.5262V15.9251H10.8165V16.7004H14.2809V17.5955H10.8165V18.3783H13.9757L13.97 19.2715ZM16.2996 12.8989V16.5805H15.5861L15.3052 16.3071V14.8764L15.5506 14.6311V12.9457L15.161 12.5618H13.9045V11.8427L16.2996 12.8989ZM13.1161 12.5618H11.6404V10.3464H13.1161V12.5618ZM18.5712 5.32959H7.23595V2.78277H18.5768L18.5712 5.32959Z" fill="#EF7D00"/>
</svg>
