<svg width="24" height="24" viewBox="0 0 24 24" fill="none" xmlns="http://www.w3.org/2000/svg">
<path d="M14.9168 11.8791L18.1766 8.6168L19.6891 8.67546L20.1814 8.39489L22.1173 4.75765L22.023 4.13019L20.0539 2.16108L19.4264 2.06671L15.7891 4.00266L15.5086 4.49493L15.5723 6.13756L12.3815 9.32588L10.9608 7.90771C11.2221 7.04861 11.2249 6.13159 10.9688 5.2709C10.7127 4.41021 10.2091 3.6439 9.52055 3.06742C8.83205 2.49094 7.98914 2.12979 7.09684 2.02895C6.20453 1.92811 5.30228 2.09204 4.50249 2.50032L4.36475 3.35224L6.96897 5.95646L5.94871 6.97672L3.34704 4.37505L2.49512 4.51024C2.09014 5.30875 1.92819 6.20848 2.02928 7.09809C2.13038 7.98771 2.4901 8.82815 3.06392 9.51544C3.63774 10.2027 4.40048 10.7067 5.25776 10.9649C6.11504 11.2232 7.02923 11.2244 7.88721 10.9685L8.8335 11.9199L2.27576 18.4802V19.2454L5.01517 21.9771H5.78037L12.3101 15.4296L18.1102 21.2706C18.3067 21.4916 18.5462 21.6702 18.814 21.7954C19.0818 21.9207 19.3724 21.9899 19.6679 21.999C19.9635 22.008 20.2578 21.9567 20.5328 21.8481C20.8078 21.7395 21.0577 21.5759 21.2673 21.3673C21.4769 21.1588 21.6417 20.9096 21.7517 20.6352C21.8617 20.3607 21.9145 20.0667 21.9069 19.7711C21.8994 19.4756 21.8315 19.1846 21.7076 18.9162C21.5837 18.6477 21.4064 18.4074 21.1863 18.2098L14.9168 11.8791ZM8.40754 9.98395L7.83875 9.86152C7.23658 10.0943 6.5819 10.1567 5.94662 10.0417C5.31133 9.92671 4.72003 9.63885 4.23768 9.20973C3.75532 8.78062 3.40057 8.22686 3.2124 7.60929C3.02423 6.99171 3.00992 6.33422 3.17104 5.70905L5.56866 8.10667H6.33386L8.11932 6.3212V5.55601L5.7217 3.15584C6.34674 2.99569 7.00381 3.01069 7.62089 3.19918C8.23797 3.38768 8.79127 3.7424 9.22013 4.22448C9.64899 4.70656 9.93688 5.29739 10.0522 5.93222C10.1676 6.56706 10.106 7.2214 9.87417 7.82354L9.9711 8.41785L11.6265 10.086L11.0169 10.6981C10.9574 10.6943 10.8978 10.6943 10.8383 10.6981C10.3749 10.6983 9.92866 10.8732 9.5885 11.1879L8.40754 9.98395ZM12.4886 13.5549C12.4622 13.6885 12.4005 13.8127 12.3101 13.9145C12.2979 13.9326 12.2842 13.9497 12.2692 13.9655L12.1085 14.1262L11.9377 14.2971L11.5627 14.6746L5.39011 20.8447L3.40315 18.8577L9.5834 12.68L9.96089 12.3025L10.1241 12.1393L10.2848 11.9786C10.3027 11.9607 10.3256 11.948 10.3435 11.9327C10.4437 11.8506 10.563 11.7953 10.6904 11.772C10.8161 11.7526 10.9446 11.762 11.0661 11.7996C11.1876 11.8371 11.299 11.9018 11.3918 11.9888L12.2718 12.8713C12.2975 12.897 12.3205 12.9252 12.3407 12.9555C12.4443 13.089 12.5008 13.2532 12.5014 13.4222C12.5005 13.4659 12.4962 13.5094 12.4886 13.5523V13.5549ZM12.1443 11.2236C12.1192 11.1976 12.0928 11.1729 12.0652 11.1496L12.3789 10.8359L12.7564 10.4584L13.1339 10.0809L16.4906 6.72676L16.6462 6.32886L16.5875 4.79846L19.5794 3.2043L20.9823 4.60461L19.3881 7.59653L17.9776 7.54297L17.5797 7.69856L14.1644 11.1215L13.7869 11.499L13.4094 11.8765L13.1008 12.1877C13.0752 12.1597 13.0523 12.1316 13.0268 12.1061L12.1443 11.2236ZM20.4364 20.5156C20.2289 20.7226 19.9478 20.8389 19.6547 20.8389C19.3616 20.8389 19.0804 20.7226 18.8729 20.5156L13.0752 14.6746C13.4036 14.3313 13.5864 13.8743 13.5854 13.3993C13.5854 13.3398 13.5854 13.2811 13.5854 13.2233L14.1873 12.6213L20.462 18.9368C20.5649 19.0419 20.6459 19.1663 20.7004 19.303C20.7549 19.4396 20.7817 19.5857 20.7794 19.7328C20.777 19.8799 20.7454 20.025 20.6866 20.1598C20.6277 20.2946 20.5427 20.4164 20.4364 20.5182V20.5156Z" fill="#EF7D00"/>
</svg>
