<svg width="24" height="24" viewBox="0 0 24 24" fill="none" xmlns="http://www.w3.org/2000/svg">
<path d="M18.0331 14.0525C17.6277 14.0523 17.2247 14.1151 16.8386 14.2387L9.55869 6.96094C9.77395 6.23711 9.7722 5.46604 9.55365 4.7432C9.33509 4.02036 8.90933 3.37749 8.32909 2.89419C7.74884 2.41088 7.03959 2.10837 6.28914 2.02411C5.5387 1.93985 4.78002 2.07753 4.10704 2.42012L3.98959 3.1603L6.16803 5.34096L5.33255 6.17644L3.15633 4.00021L2.41615 4.11988C2.07559 4.79266 1.93952 5.55044 2.02473 6.29967C2.10995 7.0489 2.41272 7.75677 2.89567 8.33588C3.37861 8.91499 4.02059 9.33999 4.74232 9.55839C5.46406 9.7768 6.23396 9.77905 6.95697 9.56488L14.2458 16.8648C14.0038 17.6625 14.0196 18.5163 14.2909 19.3045C14.5622 20.0928 15.0752 20.7754 15.757 21.2552C16.4387 21.735 17.2544 21.9876 18.0879 21.977C18.9215 21.9664 19.7305 21.6932 20.3998 21.1962C21.0691 20.6992 21.5646 20.0038 21.8158 19.2089C22.067 18.414 22.0611 17.5601 21.799 16.7688C21.5368 15.9774 21.0317 15.2889 20.3556 14.8013C19.6795 14.3136 18.8668 14.0516 18.0331 14.0525ZM18.0331 21.0532C17.538 21.0536 17.0503 20.9329 16.6126 20.7015C16.1749 20.4701 15.8005 20.135 15.522 19.7257C15.2435 19.3163 15.0695 18.845 15.0151 18.3528C14.9607 17.8607 15.0275 17.3628 15.2098 16.9024L15.099 16.406L7.40905 8.70724L6.91486 8.60308C6.41391 8.79654 5.86948 8.84882 5.34088 8.75421C4.81227 8.6596 4.31977 8.42173 3.91703 8.06653C3.51428 7.71133 3.21674 7.25241 3.05681 6.73977C2.89689 6.22713 2.88072 5.68043 3.01006 5.15924L5.00457 7.15374H5.6694L7.16085 5.6623V4.99746L5.16635 3.00296C5.68793 2.87577 6.23441 2.89402 6.74635 3.05572C7.25829 3.21742 7.71611 3.51638 8.07001 3.92009C8.42392 4.3238 8.66037 4.81681 8.75365 5.34552C8.84693 5.87422 8.79348 6.41839 8.59911 6.91884L8.70327 7.41303L16.391 15.0919L16.894 15.1938C17.3092 15.0258 17.7564 14.9518 18.2035 14.977C18.6507 15.0022 19.0867 15.126 19.4803 15.3396C19.874 15.5531 20.2156 15.8511 20.4805 16.2122C20.7454 16.5732 20.9272 16.9885 21.0128 17.4281C21.0984 17.8677 21.0857 18.3207 20.9755 18.7548C20.8654 19.1889 20.6606 19.5933 20.3758 19.9389C20.091 20.2846 19.7333 20.5629 19.3283 20.754C18.9233 20.9452 18.481 21.0443 18.0331 21.0444V21.0532Z" fill="#EF7D00"/>
<path d="M18.0331 16.1046C17.6549 16.1046 17.2851 16.2168 16.9706 16.4269C16.6561 16.6371 16.4109 16.9358 16.2662 17.2852C16.1214 17.6347 16.0836 18.0192 16.1574 18.3902C16.2311 18.7612 16.4133 19.102 16.6808 19.3695C16.9482 19.6369 17.289 19.8191 17.66 19.8929C18.031 19.9667 18.4155 19.9288 18.765 19.7841C19.1145 19.6393 19.4132 19.3942 19.6233 19.0797C19.8335 18.7651 19.9456 18.3954 19.9456 18.0171C19.945 17.5101 19.7434 17.024 19.3848 16.6654C19.0263 16.3069 18.5402 16.1052 18.0331 16.1046ZM18.0331 19.0011C17.838 19.0011 17.6472 18.9432 17.485 18.8347C17.3228 18.7263 17.1964 18.5721 17.1218 18.3918C17.0472 18.2115 17.0278 18.0131 17.0661 17.8217C17.1043 17.6303 17.1984 17.4546 17.3366 17.3168C17.4747 17.179 17.6506 17.0852 17.8421 17.0474C18.0335 17.0096 18.2319 17.0295 18.412 17.1044C18.5922 17.1794 18.7461 17.3062 18.8542 17.4686C18.9623 17.6311 19.0197 17.822 19.0193 18.0171C19.0193 18.1465 18.9938 18.2747 18.9442 18.3942C18.8946 18.5137 18.8219 18.6223 18.7303 18.7137C18.6387 18.8051 18.53 18.8775 18.4103 18.9268C18.2907 18.9761 18.1625 19.0014 18.0331 19.0011Z" fill="#EF7D00"/>
</svg>
