<svg width="24" height="24" viewBox="0 0 24 24" fill="none" xmlns="http://www.w3.org/2000/svg">
<path d="M18.3868 13.8942V6.86197C18.3868 6.43306 18.2166 6.02169 17.9136 5.71818C17.6105 5.41467 17.1994 5.24384 16.7705 5.24321C16.5594 5.24276 16.3504 5.2844 16.1556 5.3657V4.58754C16.1412 4.32466 16.0627 4.0693 15.9271 3.84365C15.7914 3.618 15.6027 3.4289 15.3774 3.29278C15.152 3.15667 14.8968 3.07766 14.634 3.06263C14.3711 3.04761 14.1086 3.09701 13.8692 3.20655C13.7698 2.82721 13.5358 2.49696 13.211 2.27732C12.8861 2.05768 12.4924 1.96364 12.1034 2.01271C11.7143 2.06178 11.3564 2.25063 11.0962 2.54406C10.836 2.83749 10.6914 3.21549 10.6893 3.60764C10.4437 3.50723 10.1771 3.46877 9.91308 3.49562C9.64906 3.52247 9.39569 3.61383 9.17528 3.76163C8.95488 3.90944 8.77419 4.10917 8.64913 4.34324C8.52407 4.57731 8.45848 4.83853 8.45812 5.10391V9.13639L8.21795 8.62483C8.04083 8.24775 7.72136 7.95633 7.32964 7.8145C6.93792 7.67267 6.50593 7.69201 6.12846 7.86829L6.04199 7.90671C5.6337 8.09645 5.2086 8.29339 5.05249 8.7233C5.0092 8.85203 4.99242 8.98818 5.00315 9.12357C5.01388 9.25895 5.0519 9.39076 5.11493 9.51106L7.80245 15.2296L7.8745 15.3376L9.09698 16.8003L8.47013 21.4308L8.96729 22H17.8849L18.382 21.426L17.6951 16.745L17.9113 16.2407C18.2269 15.4987 18.3887 14.7005 18.3868 13.8942ZM17.3829 13.8942C17.3796 14.5636 17.2407 15.2254 16.9746 15.8396L16.7032 16.476L16.6696 16.745L17.294 20.9817H9.5413L10.1225 16.7018L10.0096 16.3199L8.68388 14.7444L6.02038 9.08356V9.05954C6.16338 8.96611 6.3145 8.88572 6.4719 8.81937L6.56076 8.77614C6.69779 8.71302 6.85422 8.70663 6.99594 8.75837C7.13766 8.81011 7.25318 8.91578 7.31731 9.05233L8.51817 11.5813L9.47885 11.3652V5.10391C9.48862 4.9478 9.55753 4.80128 9.67153 4.69419C9.78554 4.58709 9.93608 4.52748 10.0925 4.52748C10.2489 4.52748 10.3994 4.58709 10.5135 4.69419C10.6275 4.80128 10.6964 4.9478 10.7061 5.10391V9.02832H10.7229V10.6903H11.7293L11.6908 3.61724C11.7006 3.46113 11.7695 3.31462 11.8835 3.20752C11.9975 3.10043 12.1481 3.04081 12.3045 3.04081C12.4609 3.04081 12.6114 3.10043 12.7254 3.20752C12.8394 3.31462 12.9083 3.46113 12.9181 3.61724V10.6159H13.9244V8.79535V4.6764C13.927 4.51542 13.9925 4.36185 14.107 4.24868C14.2215 4.13551 14.3759 4.07178 14.5369 4.07117C14.6858 4.06745 14.8309 4.11881 14.9444 4.21542C15.0578 4.31203 15.1317 4.44709 15.1517 4.59474V10.6231H16.1556V8.8602V6.86197C16.1504 6.77815 16.1624 6.69415 16.1908 6.61515C16.2193 6.53614 16.2636 6.46381 16.3211 6.4026C16.3786 6.34139 16.4481 6.29261 16.5251 6.25927C16.6022 6.22592 16.6853 6.20872 16.7693 6.20872C16.8532 6.20872 16.9363 6.22592 17.0134 6.25927C17.0905 6.29261 17.1599 6.34139 17.2174 6.4026C17.2749 6.46381 17.3192 6.53614 17.3477 6.61515C17.3762 6.69415 17.3882 6.77815 17.3829 6.86197V13.8942Z" fill="#EF7D00"/>
</svg>
