<svg width="24" height="24" viewBox="0 0 24 24" fill="none" xmlns="http://www.w3.org/2000/svg">
<path d="M20.6232 8.34401L18.4733 7.17014C17.1212 3.78549 14.63 2.04643 11.0584 2.00078C7.48678 1.95513 3.24782 3.91375 3.0413 9.557C3.0413 9.657 3.03043 9.757 3.02391 9.85699C3.01304 10.0026 3 10.1505 3 10.3091L3.44998 10.7657H3.85866C3.85866 13.8525 4.66515 15.7655 6.77377 17.7023V22H7.68243V17.5045L7.53026 17.1654C5.50643 15.3481 4.78037 13.6677 4.7695 10.7722L7.20853 10.783L7.10854 10.8526C6.77159 11.1309 6.36944 11.6787 6.36944 12.7004C6.36944 14.3416 7.36505 15.1503 8.43675 15.2698C8.91282 16.185 10.0041 18.1588 10.0541 18.2501L10.2323 18.4284L13.7974 20.3848V22H14.7061V20.4261L18.1233 19.3153L18.4146 19.0284L19.9493 14.4416V14.159L19.3189 12.1873L18.7059 11.9091L18.2168 12.1265L17.8538 10.8352H18.6559H20.395L20.8493 10.3809V8.73965L20.6232 8.34401ZM9.47366 15.2872H9.93886V14.3786H8.72152C8.02372 14.3786 7.2781 13.9438 7.2781 12.7004C7.2781 12.1656 7.41505 11.7787 7.68678 11.5548C8.04328 11.2635 8.58239 11.2743 9.00629 11.3374C10.2106 12.2069 11.5279 13.1634 12.1062 13.5873L10.4562 17.0958C10.1671 16.5654 9.77365 15.8481 9.47366 15.2872ZM19.0385 14.2938L17.6255 18.5219L14.2822 19.6088L11.0997 17.8697L12.9648 13.9047L16.3364 13.8851L16.5147 13.8481L18.6059 12.946L19.0385 14.2938ZM17.3712 12.483L16.2364 12.9721L12.8214 12.9917C12.4192 12.696 11.0823 11.7134 9.79539 10.7939L16.9277 10.8243H16.906L17.3712 12.483ZM19.945 9.92438H18.6668L3.94562 9.85917C3.94562 9.77004 3.95866 9.67874 3.96083 9.58961C3.97388 9.24397 4.00431 8.9179 4.04779 8.60269H13.83V7.69403H4.21734C5.11948 4.21591 8.11719 2.91161 10.9367 2.91161H11.0584C14.3191 2.95074 16.493 4.50068 17.6907 7.64838L17.9081 7.88533L19.9689 9.01137L19.945 9.92438Z" fill="#EF7D00"/>
</svg>
