<svg width="24" height="24" viewBox="0 0 24 24" fill="none" xmlns="http://www.w3.org/2000/svg">
<path fill-rule="evenodd" clip-rule="evenodd" d="M7.86009 20.5371L8.36009 20.0371H12.3207V21.0371H8.86009V22.5674L8.36009 23.0674H4V22.0674H7.86009V20.5371Z" fill="#EF7D00"/>
<path fill-rule="evenodd" clip-rule="evenodd" d="M16.1475 16.4433L16.6475 15.9433H20.7081L21.2081 16.4433V23H20.2081V16.9433H17.1475V23H16.1475V16.4433Z" fill="#EF7D00"/>
<path fill-rule="evenodd" clip-rule="evenodd" d="M11.9871 18.4735L12.4871 17.9735H16.6475V18.9735H12.9871V23H11.9871V18.4735Z" fill="#EF7D00"/>
<path fill-rule="evenodd" clip-rule="evenodd" d="M7.30022 5.67973L7.66114 5.52576H11.5553L11.9116 5.675L13.8615 7.65587H15.5492L16.0492 8.15587V10.2194L15.5492 10.7194H12.9531L12.5996 10.573L11.4562 9.42957V11.2628L14.9114 13.7757L15.1173 14.1801V16.643L14.6173 17.143H12.4872L11.9872 16.643V15.3648L8.03042 12.4527L7.8268 12.05V9.52368L6.99624 10.4448V11.5174L6.49624 12.0174H4.56586L4.06586 11.5174V9.25422L4.20494 8.90819L7.30022 5.67973ZM7.87445 6.52576L5.06586 9.45519V11.0174H5.99624V10.2527L6.1249 9.91789L7.95546 7.88764L8.8268 8.22246V11.7972L12.7835 14.7093L12.9872 15.112V16.143H14.1173V14.4347L10.6621 11.9218L10.4562 11.5174V8.22246L11.3097 7.86891L13.1602 9.71944H15.0492V8.65587H13.6521L13.2957 8.50663L11.3458 6.52576H7.87445Z" fill="#EF7D00"/>
<path fill-rule="evenodd" clip-rule="evenodd" d="M8.32678 11.5499C8.60292 11.5499 8.82678 11.7738 8.82678 12.0499V17.9735H9.82376V13.5143C9.82376 13.2382 10.0476 13.0143 10.3238 13.0143C10.5999 13.0143 10.8238 13.2382 10.8238 13.5143V18.4735L10.3238 18.9735H8.32678L7.82678 18.4735V12.0499C7.82678 11.7738 8.05064 11.5499 8.32678 11.5499Z" fill="#EF7D00"/>
<path fill-rule="evenodd" clip-rule="evenodd" d="M7.3941 2.73074C7.3941 1.4894 8.38344 0.5 9.6248 0.5C10.8661 0.5 11.8555 1.48939 11.8555 2.73074C11.8555 3.9721 10.8661 4.96143 9.6248 4.96143C8.38345 4.96143 7.3941 3.97208 7.3941 2.73074ZM9.6248 1.5C8.93575 1.5 8.3941 2.04166 8.3941 2.73074C8.3941 3.4198 8.93574 3.96143 9.6248 3.96143C10.3139 3.96143 10.8555 3.41978 10.8555 2.73074C10.8555 2.04167 10.3139 1.5 9.6248 1.5Z" fill="#EF7D00"/>
</svg>
