<svg width="24" height="24" viewBox="0 0 24 24" fill="none" xmlns="http://www.w3.org/2000/svg">
<path d="M21.343 8.62583L9.91202 2H9.52969L2.19488 6.23348L2 6.56941V15.0382L2.1856 15.3742L13.624 22H14.0137L21.3467 17.7647L21.5323 17.4287V8.96177L21.343 8.62583ZM9.72643 2.78322L20.3797 8.96362L13.8931 12.7424L3.16555 6.56941L9.72643 2.78322ZM4.35709 8.15071L5.22569 8.65924V9.9343L4.35709 9.42947V8.15071ZM4.35709 10.3185L6.9072 11.8033L6.88493 14.539L4.35709 13.0542V10.3185ZM6.00148 10.3779V9.09911L6.9072 9.62064V10.905L6.00148 10.3779ZM2.7758 7.24128L3.58129 7.70341V15.2814L2.7758 14.8137V7.24128ZM4.35709 13.9543L5.22569 14.4647V16.2353L4.35709 15.7305V13.9543ZM6.00148 14.9195L6.9072 15.4503V17.2116L6.00148 16.6863V14.9195ZM7.68485 10.0679L8.56644 10.5765V18.173L7.68485 17.6607V10.0679ZM9.3441 11.0238L10.2498 11.5453V19.1548L9.3441 18.6295V11.0238ZM11.0256 12L11.8942 12.4993V20.1088L11.0256 19.5984V12ZM12.67 12.9465L13.5052 13.4272V21.0386L12.67 20.5523V12.9465ZM14.281 13.4272L15.3946 12.7739V20.3074L14.281 20.9532V13.4272ZM16.1759 12.3137L17.1726 11.7309V19.2773L16.1759 19.8526V12.3137ZM17.9484 11.278L19.0063 10.6674V18.2249L17.9577 18.8281L17.9484 11.278ZM20.7602 17.206L19.7728 17.7758V10.2146L20.7602 9.63734V17.206Z" fill="#EF7D00"/>
</svg>
