<svg width="24" height="24" viewBox="0 0 24 24" fill="none" xmlns="http://www.w3.org/2000/svg">
<path d="M21.7161 7.57831L16.4217 2.28392L15.7235 2H8.26018L7.56202 2.28392L2.28392 7.57831L2 8.27647V15.7398L2.28392 16.438L7.57831 21.7161L8.27647 22H15.7398L16.438 21.7161L21.7161 16.4217L22 15.7235V8.26018L21.7161 7.57831ZM21.0179 15.7445L15.7398 21.0272H8.26018L2.97277 15.7398V8.26018L8.26018 2.97277H15.7398L21.0272 8.26018L21.0179 15.7445Z" fill="#EF7D00"/>
<path d="M10.6152 14.8112L10.1381 15.2976V18.0693L10.6245 18.5557H13.3962L13.8617 18.0693V15.2976L13.3962 14.8112H10.6152ZM12.8982 17.5852H11.1016V15.784H12.8982V17.5852Z" fill="#EF7D00"/>
<path d="M10.6152 5.03235L10.1381 5.51873V12.9309L10.6245 13.4173H13.3962L13.8617 12.9309V5.51873L13.3962 5.03235H10.6152ZM12.8982 12.4445H11.1016V6.00512H12.8982V12.4445Z" fill="#EF7D00"/>
</svg>
