<svg width="24" height="24" viewBox="0 0 24 24" fill="none" xmlns="http://www.w3.org/2000/svg">
<path d="M12.2234 2C10.5511 2.00056 8.93079 2.58114 7.63868 3.64275C6.34658 4.70437 5.4627 6.18129 5.13774 7.82171C4.81279 9.46213 5.06688 11.1645 5.85669 12.6385C6.64651 14.1125 7.92314 15.267 9.46893 15.905V17.9606L9.84349 18.3351H14.6033L14.9779 17.9606V15.905C16.5237 15.267 17.8003 14.1125 18.5901 12.6385C19.3799 11.1645 19.634 9.46213 19.3091 7.82171C18.9841 6.18129 18.1003 4.70437 16.8081 3.64275C15.516 2.58114 13.8957 2.00056 12.2234 2ZM14.4743 15.2993L14.2288 15.6577V17.5932H10.218V15.6505L9.97252 15.2921C8.54831 14.7641 7.35508 13.7521 6.60151 12.4333C5.84795 11.1145 5.58203 9.57269 5.85026 8.07762C6.1185 6.58255 6.90381 5.22937 8.06884 4.25475C9.23388 3.28014 10.7045 2.74613 12.2234 2.74613C13.7424 2.74613 15.213 3.28014 16.378 4.25475C17.543 5.22937 18.3283 6.58255 18.5966 8.07762C18.8648 9.57269 18.5989 11.1145 17.8453 12.4333C17.0918 13.7521 15.8985 14.7641 14.4743 15.2921V15.2993Z" fill="#EF7D00"/>
<path d="M14.8094 19.4695H9.63733V20.2186H14.8094V19.4695Z" fill="#EF7D00"/>
<path d="M14.8094 21.2509H9.63733V22H14.8094V21.2509Z" fill="#EF7D00"/>
<path d="M15.8077 7.90861C15.7643 7.78229 15.714 7.65845 15.6571 7.53764L15.9098 7.21685L15.8489 6.22581L15.1768 5.54839L14.184 5.48746L13.8793 5.7276C13.7522 5.66564 13.6218 5.6106 13.4887 5.56273L13.4421 5.18997L12.6983 4.52689H11.7485L11.0048 5.18997L10.9582 5.57169C10.8251 5.61956 10.6947 5.6746 10.5675 5.73656L10.2629 5.49642L9.27003 5.54839L8.59978 6.22043L8.53885 7.21147L8.79154 7.53226C8.73382 7.65479 8.68297 7.78043 8.63921 7.90861L8.22881 7.95879L7.57111 8.7043V9.65233L8.22881 10.3961L8.66788 10.4498C8.71089 10.5645 8.75928 10.6774 8.81125 10.7885L8.53706 11.147L8.59799 12.138L9.26824 12.8082L10.2611 12.8692L10.6195 12.5824C10.7234 12.6314 10.8292 12.6744 10.9367 12.7115L10.994 13.1774L11.7378 13.8351H12.6876L13.4313 13.1774L13.4887 12.7115C13.5962 12.6732 13.7019 12.6302 13.8059 12.5824L14.1643 12.8692L15.1571 12.8082L15.8274 12.138L15.8883 11.147L15.6141 10.7885C15.6661 10.6774 15.7145 10.5645 15.7575 10.4498L16.1966 10.3961L16.8829 9.65233V8.7043L16.2252 7.95879L15.8077 7.90861ZM16.1267 9.65233L15.1983 9.76524C15.1154 10.1542 14.9571 10.5231 14.7324 10.8513L15.3166 11.6004L14.6464 12.2724L13.8883 11.6792C13.5615 11.8935 13.1964 12.0426 12.813 12.1183L12.6983 13.0753H11.7485L11.632 12.1147C11.2487 12.039 10.8836 11.8899 10.5568 11.6756L9.7987 12.2688L9.12845 11.5968L9.71447 10.8513C9.4904 10.523 9.33271 10.1541 9.25032 9.76524L8.322 9.65233V8.7043L9.23598 8.5914C9.30981 8.1904 9.46338 7.8083 9.68759 7.46775L9.13025 6.7509L9.8005 6.08603L10.5048 6.6362C10.8466 6.40063 11.2334 6.23833 11.641 6.1595L11.7485 5.27957H12.6983L12.8059 6.1595C13.2134 6.23833 13.6003 6.40063 13.9421 6.6362L14.6464 6.08603L15.3166 6.75628L14.7593 7.47312C14.9833 7.81314 15.1368 8.19461 15.2109 8.59499L16.1249 8.70789L16.1267 9.65233Z" fill="#EF7D00"/>
<path d="M12.2234 7.24731C11.8488 7.24732 11.4826 7.35849 11.1713 7.56676C10.8599 7.77502 10.6173 8.07101 10.4743 8.41723C10.3313 8.76346 10.2942 9.14434 10.3678 9.51163C10.4414 9.87893 10.6224 10.2161 10.8878 10.4805C11.1532 10.7449 11.491 10.9246 11.8586 10.9968C12.2262 11.069 12.6069 11.0305 12.9526 10.8861C13.2983 10.7418 13.5933 10.4981 13.8004 10.186C14.0075 9.87381 14.1173 9.50722 14.1159 9.13262C14.1135 8.63209 13.9131 8.15285 13.5585 7.79959C13.2039 7.44633 12.7239 7.24778 12.2234 7.24731ZM12.2234 10.2814C11.9974 10.2817 11.7764 10.2151 11.5882 10.0899C11.4001 9.96473 11.2533 9.7866 11.1663 9.57802C11.0793 9.36944 11.0561 9.13977 11.0996 8.91801C11.1431 8.69624 11.2513 8.49234 11.4106 8.33205C11.5699 8.17175 11.7731 8.06226 11.9946 8.01739C12.2161 7.97252 12.4459 7.99429 12.655 8.07996C12.8641 8.16562 13.0432 8.31133 13.1695 8.49868C13.2959 8.68604 13.3639 8.90664 13.365 9.13262C13.3657 9.28307 13.3367 9.43218 13.2797 9.5714C13.2226 9.71063 13.1387 9.83723 13.0326 9.94394C12.9266 10.0507 12.8005 10.1354 12.6616 10.1933C12.5228 10.2512 12.3738 10.2811 12.2234 10.2814Z" fill="#EF7D00"/>
</svg>
