<svg width="24" height="24" viewBox="0 0 24 24" fill="none" xmlns="http://www.w3.org/2000/svg">
<path fill-rule="evenodd" clip-rule="evenodd" d="M11.6852 1.5H12.3148L13.4956 2.46994L14.9681 1.90691L15.1588 2.00228C15.1628 2.00341 15.174 2.00662 15.1982 2.01264C15.2004 2.0132 15.2028 2.01381 15.2055 2.01446C15.2486 2.02514 15.3406 2.0479 15.4363 2.09575L15.5587 2.15694L16.3802 3.43037L17.8515 3.34866L17.9702 3.40804C18.1342 3.49002 18.2297 3.58572 18.3145 3.6707C18.3185 3.67471 18.3225 3.67869 18.3264 3.68265L18.4231 3.7793L18.7908 5.20924L20.3091 5.59962L20.411 5.8035C20.4147 5.81085 20.4166 5.81373 20.417 5.81429C20.4172 5.81473 20.4182 5.81623 20.4215 5.82014C20.4253 5.82476 20.4321 5.83243 20.4451 5.846C20.4587 5.86014 20.4748 5.87624 20.4984 5.8998L20.6564 6.05788L20.5697 7.61982L21.8431 8.44136L21.9042 8.56373C21.9521 8.65944 21.9749 8.75138 21.9855 8.79456C21.9862 8.79718 21.9868 8.79961 21.9874 8.80186C21.9934 8.826 21.9966 8.83725 21.9977 8.84124L22.0931 9.032L21.5301 10.5045L22.5 11.6853V12.3147L21.5301 13.4955L22.0931 14.9681L21.9977 15.1589C21.9966 15.1629 21.9934 15.1741 21.9873 15.1983C21.9868 15.2005 21.9862 15.203 21.9855 15.2056C21.9748 15.2488 21.9521 15.3406 21.9042 15.4363L21.8431 15.5586L20.5697 16.3802L20.6514 17.8515L20.592 17.9703C20.5101 18.1342 20.4143 18.2297 20.3295 18.3143C20.3254 18.3184 20.3214 18.3224 20.3174 18.3264L20.2207 18.4231L18.7908 18.7908L18.4003 20.3091L18.1965 20.411C18.1929 20.4128 18.1904 20.4142 18.1887 20.4151C18.1869 20.4161 18.1861 20.4167 18.1858 20.4169C18.1854 20.4171 18.1839 20.4181 18.1799 20.4214C18.1753 20.4252 18.1676 20.432 18.154 20.4451C18.1399 20.4587 18.1238 20.4748 18.1002 20.4984L17.9421 20.6565L16.3802 20.5696L15.5587 21.8431L15.4363 21.9042C15.3406 21.9521 15.2487 21.9749 15.2055 21.9855C15.2028 21.9862 15.2004 21.9868 15.1982 21.9874C15.174 21.9934 15.1628 21.9966 15.1588 21.9977L14.9681 22.0931L13.4956 21.5301L12.3148 22.5H11.6852L10.5045 21.5301L9.03196 22.0931L8.84121 21.9977C8.83722 21.9966 8.82598 21.9934 8.80187 21.9874C8.79962 21.9868 8.79717 21.9862 8.79455 21.9855C8.75136 21.9749 8.65944 21.9521 8.56373 21.9042L8.44136 21.8431L7.61982 20.5696L6.14857 20.6515L6.02979 20.5921C5.86596 20.5102 5.77036 20.4143 5.68595 20.3297C5.68181 20.3256 5.67769 20.3214 5.6736 20.3174L5.57695 20.2207L5.20925 18.7908L3.69093 18.4004L3.58899 18.1965C3.58531 18.1891 3.58344 18.1863 3.58307 18.1857C3.58276 18.1852 3.58174 18.1837 3.57856 18.1799C3.57471 18.1752 3.56793 18.1676 3.55489 18.154C3.54128 18.1399 3.52521 18.1238 3.50165 18.1002L3.34357 17.9421L3.43035 16.3802L2.15696 15.5586L2.09577 15.4363C2.04794 15.3406 2.02519 15.2487 2.01449 15.2056C2.01384 15.2029 2.01324 15.2005 2.01268 15.1983C2.00664 15.1741 2.00343 15.1629 2.0023 15.1589L1.90691 14.9681L2.46993 13.4955L1.5 12.3147V11.6853L2.46992 10.5045L1.90691 9.032L2.00229 8.84124C2.00342 8.83725 2.00663 8.826 2.01266 8.80187C2.01322 8.79961 2.01383 8.79717 2.01448 8.79455C2.02517 8.75136 2.04792 8.65943 2.09577 8.56373L2.15696 8.44136L3.43035 7.61982L3.34861 6.14851L3.40799 6.02975C3.48995 5.86583 3.5857 5.77029 3.67053 5.68566C3.6746 5.6816 3.67864 5.67757 3.68265 5.67356L3.77931 5.5769L5.20925 5.20924L5.59967 3.69092L5.80355 3.58899C5.81093 3.5853 5.81382 3.58341 5.8144 3.58304C5.81488 3.58272 5.81643 3.58171 5.82026 3.57852C5.82487 3.57468 5.83253 3.56791 5.84608 3.55488C5.86021 3.5413 5.8763 3.52524 5.89984 3.5017L6.05792 3.34362L7.61981 3.43037L8.44136 2.15694L8.56373 2.09575C8.65944 2.0479 8.75137 2.02514 8.79456 2.01446C8.79718 2.01381 8.79962 2.0132 8.80187 2.01264C8.82597 2.00662 8.83721 2.00341 8.84121 2.00228L9.03196 1.90691L10.5045 2.46994L11.6852 1.5ZM12 2.53556L10.6901 3.61155L9.08815 2.999L8.14491 4.46108L6.45825 4.3674L6.03058 6.03059L4.36736 6.45823L4.46106 8.1449L2.99899 9.08817L3.61153 10.6901L2.53558 12L3.61152 13.3099L2.99902 14.9119L4.46106 15.8551L4.36736 17.5418L6.03058 17.9694L6.45828 19.6327L8.14489 19.5389L9.08815 21.001L10.6901 20.3885L12 21.4644L13.3099 20.3885L14.9119 21.001L15.8551 19.5389L17.5417 19.6327L17.9694 17.9694L19.6327 17.5418L19.539 15.8551L21.001 14.9118L20.3885 13.3099L21.4644 12L20.3885 10.6901L21.001 9.08817L19.539 8.1449L19.6327 6.45823L17.9694 6.03059L17.5418 4.3674L15.8551 4.46108L14.9119 2.999L13.3099 3.61155L12 2.53556Z" fill="#EF7D00"/>
<path fill-rule="evenodd" clip-rule="evenodd" d="M11.9548 6.8891C9.15398 6.8891 6.88914 9.15395 6.88914 11.9547C6.88914 14.7555 9.15398 17.0204 11.9548 17.0204C14.7555 17.0204 17.0204 14.7555 17.0204 11.9547C17.0204 9.15395 14.7555 6.8891 11.9548 6.8891ZM5.88914 11.9547C5.88914 8.60167 8.60169 5.8891 11.9548 5.8891C15.3078 5.8891 18.0204 8.60167 18.0204 11.9547C18.0204 15.3078 15.3078 18.0204 11.9548 18.0204C8.60169 18.0204 5.88914 15.3078 5.88914 11.9547Z" fill="#EF7D00"/>
</svg>
