<svg width="24" height="24" viewBox="0 0 24 24" fill="none" xmlns="http://www.w3.org/2000/svg">
<path d="M5.66584 19.8292L10.849 21.9604L11.0446 22H19.5198L20.0371 21.4827V19.1782H20L20.0371 19.1386V17.198L20.5545 16.6807V13.0396L20.0371 12.5223H19.9505V9.83416L19.4332 9.31683H13.4753L14.5941 5.2302C14.7752 4.64659 14.717 4.01495 14.4325 3.47419C14.148 2.93342 13.6603 2.5278 13.0767 2.34653L11.9406 2L11.3045 2.31188L9.13862 8.00495C8.80446 8.37871 7.23268 10.1337 5.7599 11.8837H3.51733L3 12.401V19.2995L3.51733 19.8168L5.66584 19.8292ZM17.953 20.9653H13.5941V20.1807C13.5941 20.0494 13.6462 19.9235 13.7391 19.8306C13.8319 19.7378 13.9578 19.6856 14.0891 19.6856H14.1757V19.646H19.0124V20.9554L17.953 20.9653ZM19.0025 18.6213H13.5941V17.7277C13.5947 17.587 13.6511 17.4523 13.7508 17.353C13.8505 17.2537 13.9855 17.198 14.1262 17.198H19.0025V18.6213ZM19.5297 14.6361V16.1609H13.5891V15.2847C13.5875 15.211 13.6006 15.1378 13.6278 15.0694C13.655 15.001 13.6956 14.9387 13.7473 14.8863C13.7991 14.8339 13.8608 14.7924 13.9289 14.7643C13.9969 14.7362 14.0699 14.7221 14.1436 14.7228H19.4307L19.5297 14.6361ZM4.03465 12.9307H6L6.39604 12.745C8.06931 10.7376 9.95545 8.65841 9.97278 8.63861L10.0743 8.47525L12.099 3.13366L12.7723 3.33663C12.9308 3.38557 13.0781 3.46546 13.2055 3.57168C13.333 3.67789 13.4381 3.80833 13.5149 3.95545C13.5942 4.10653 13.6425 4.27196 13.657 4.44199C13.6714 4.61203 13.6517 4.78324 13.599 4.94554L12.297 9.69802L12.7921 10.354H18.9084V13.698H13.5941V12.901C13.5941 12.7342 13.6603 12.5743 13.7782 12.4564C13.8961 12.3385 14.056 12.2723 14.2228 12.2723H17.854V11.2376H14.2228C13.7816 11.2376 13.3585 11.4129 13.0466 11.7248C12.7347 12.0368 12.5594 12.4598 12.5594 12.901V14.2277L12.8069 14.4752C12.6489 14.7241 12.5632 15.0121 12.5594 15.3069V16.6782L12.7921 16.9109C12.6392 17.1559 12.5586 17.439 12.5594 17.7277V19.1386L12.7921 19.3861C12.64 19.6278 12.5594 19.9075 12.5594 20.1931V20.9777H11.1485L5.96535 18.8317L5.76733 18.7946H4.03465V12.9307Z" fill="#EF7D00"/>
</svg>
