<svg width="24" height="24" viewBox="0 0 24 24" fill="none" xmlns="http://www.w3.org/2000/svg">
<path d="M19.4333 22L19.9644 21.4689V19.2758L19.4333 18.7446H4.53113L4 19.2758V21.4689L4.53113 22H19.4333ZM5.06226 19.8069H18.9022V20.9378H5.06226V19.8069Z" fill="#EF7D00"/>
<path d="M15.8628 12.8463L16.371 12.1881L13.9593 2.40407L13.4511 2H10.5515L10.0432 2.40407L7.6315 12.1881L8.13976 12.8463H15.8628ZM10.9657 3.06226H13.0343L15.1842 11.784H8.83099L10.9657 3.06226Z" fill="#EF7D00"/>
<path d="M17.1944 17.5451L17.7027 16.9022L17.1944 14.4854L16.6862 14.0635H7.32402L6.80306 14.4854L6.2948 16.9022L6.80306 17.5451H17.1944ZM7.7535 15.1258H16.2491L16.5362 16.4829H7.4638L7.7535 15.1258Z" fill="#EF7D00"/>
</svg>
