<svg width="24" height="24" viewBox="0 0 24 24" fill="none" xmlns="http://www.w3.org/2000/svg">
<path d="M18.7449 6.22056L17.7658 8.40101H1.42319L1.16856 9.05192L7.38716 14.7756L6.019 15.1647C5.75289 14.5735 5.27742 14.1017 4.68419 13.8401C4.09095 13.5786 3.42191 13.5458 2.80596 13.7481C2.19 13.9505 1.6707 14.3736 1.34808 14.9359C1.02547 15.4983 0.922377 16.1602 1.05865 16.794C1.19493 17.4279 1.56094 17.9889 2.08618 18.3689C2.61142 18.749 3.25873 18.9213 3.90341 18.8526C4.54809 18.7839 5.14454 18.479 5.57785 17.9967C6.01117 17.5145 6.25071 16.8889 6.25031 16.2406C6.24993 16.1206 6.24094 16.0007 6.22341 15.882L12.035 14.2269L15.6912 18.3798L15.9727 18.5071H17.088L17.4592 18.0768L16.6559 12.692L19.3294 6.74953H23V6H19.0874L18.7449 6.22056ZM5.50078 16.237C5.50287 16.6999 5.33517 17.1475 5.02941 17.4951C4.72366 17.8427 4.30107 18.0661 3.84168 18.123C3.38228 18.1799 2.91795 18.0664 2.53661 17.804C2.15527 17.5416 1.88338 17.1484 1.77243 16.699C1.66147 16.2496 1.71915 15.7751 1.93454 15.3654C2.14993 14.9556 2.50808 14.6391 2.94119 14.4756C3.37429 14.3122 3.85229 14.3133 4.28467 14.4786C4.71705 14.6439 5.07381 14.962 5.2874 15.3727L3.51578 15.8766L3.72199 16.5939L5.49361 16.09C5.49719 16.1402 5.50078 16.1886 5.50078 16.237ZM17.2548 9.15054L15.9996 12.3244L8.08648 14.4062L2.38431 9.15054H17.2548ZM16.1413 17.7576L12.8347 13.992L15.9637 13.0954L16.6559 17.763L16.1413 17.7576Z" fill="#EF7D00"/>
</svg>
