<svg width="24" height="24" viewBox="0 0 24 24" fill="none" xmlns="http://www.w3.org/2000/svg">
<path fill-rule="evenodd" clip-rule="evenodd" d="M6.99987 19.4832C8.47991 20.4722 10.22 21 12 21C13.1819 21 14.3522 20.7672 15.4441 20.3149C16.5361 19.8626 17.5282 19.1997 18.364 18.364C19.1997 17.5282 19.8626 16.5361 20.3149 15.4442C20.7672 14.3522 21 13.1819 21 12C21 10.22 20.4722 8.47991 19.4832 6.99987C18.4943 5.51983 17.0887 4.36628 15.4441 3.68509C13.7996 3.0039 11.99 2.82567 10.2442 3.17294C8.49836 3.5202 6.89471 4.37737 5.63604 5.63604C4.37737 6.89471 3.5202 8.49836 3.17294 10.2442C2.82567 11.99 3.0039 13.7996 3.68509 15.4442C4.36628 17.0887 5.51983 18.4943 6.99987 19.4832ZM6.4443 20.3147C8.08879 21.4135 10.0222 22 12 22C13.3132 22 14.6136 21.7413 15.8268 21.2388C17.0401 20.7362 18.1425 19.9997 19.0711 19.0711C19.9996 18.1425 20.7362 17.0401 21.2388 15.8268C21.7413 14.6136 22 13.3132 22 12C22 10.0222 21.4135 8.08879 20.3147 6.4443C19.2159 4.79981 17.6541 3.51809 15.8268 2.76121C13.9996 2.00433 11.9889 1.8063 10.0491 2.19215C8.10929 2.578 6.32746 3.53041 4.92894 4.92894C3.53041 6.32746 2.578 8.10929 2.19215 10.0491C1.8063 11.9889 2.00433 13.9996 2.76121 15.8268C3.51808 17.6541 4.79981 19.2159 6.4443 20.3147Z" fill="#EF7D00"/>
<path fill-rule="evenodd" clip-rule="evenodd" d="M8.24284 17.6231C9.35498 18.3662 10.6625 18.7628 12.0001 18.7628C12.8882 18.7628 13.7676 18.5879 14.5881 18.248C15.4086 17.9082 16.1541 17.41 16.7821 16.782C17.4101 16.1541 17.9082 15.4085 18.2481 14.588C18.588 13.7675 18.7629 12.8881 18.7629 12C18.7629 10.6624 18.3662 9.35492 17.6231 8.24278C16.88 7.13064 15.8238 6.26384 14.5881 5.75197C13.3523 5.24011 11.9926 5.10619 10.6807 5.36713C9.36885 5.62808 8.16383 6.27217 7.21803 7.21797C6.27223 8.16377 5.62814 9.36879 5.36719 10.6806C5.10625 11.9925 5.24017 13.3523 5.75204 14.588C6.2639 15.8238 7.13071 16.88 8.24284 17.6231ZM7.68727 18.4546C8.96386 19.3075 10.4647 19.7628 12.0001 19.7628C13.0195 19.7628 14.0289 19.562 14.9708 19.1719C15.9126 18.7818 16.7684 18.21 17.4892 17.4891C18.21 16.7683 18.7819 15.9125 19.172 14.9707C19.5621 14.0289 19.7629 13.0194 19.7629 12C19.7629 10.4647 19.3076 8.9638 18.4546 7.68721C17.6016 6.41062 16.3892 5.41564 14.9708 4.8281C13.5523 4.24055 11.9915 4.08682 10.4856 4.38635C8.97978 4.68588 7.59657 5.42521 6.51092 6.51086C5.42527 7.59651 4.68594 8.97972 4.38641 10.4856C4.08688 11.9914 4.24061 13.5522 4.82816 14.9707C5.41571 16.3892 6.41069 17.6016 7.68727 18.4546Z" fill="#EF7D00"/>
<path fill-rule="evenodd" clip-rule="evenodd" d="M13.8954 12.0026C13.8955 11.6279 13.7845 11.2616 13.5765 10.9499C13.3684 10.6381 13.0725 10.395 12.7262 10.2514C12.3799 10.1078 11.9988 10.0701 11.6311 10.1431C11.2634 10.2161 10.9256 10.3965 10.6605 10.6615C10.3953 10.9265 10.2147 11.2642 10.1415 11.6319C10.0683 11.9995 10.1057 12.3807 10.2491 12.727C10.3926 13.0734 10.6355 13.3694 10.9472 13.5777C11.2587 13.7859 11.6249 13.8971 11.9995 13.8972C12.5019 13.8965 12.9836 13.6967 13.3389 13.3415C13.6943 12.9864 13.8944 12.5049 13.8954 12.0026ZM12.0002 14.8972C11.4275 14.8972 10.8677 14.7274 10.3915 14.4092C9.91537 14.091 9.54429 13.6387 9.32521 13.1096C9.10613 12.5805 9.04889 11.9982 9.16073 11.4366C9.27258 10.8749 9.54848 10.3591 9.95355 9.95422C10.3586 9.54938 10.8746 9.27377 11.4364 9.16224C11.9981 9.05072 12.5803 9.10829 13.1093 9.32767C13.6383 9.54705 14.0903 9.91839 14.4082 10.3947C14.7262 10.8711 14.8957 11.431 14.8954 12.0037C14.8941 12.771 14.5886 13.5064 14.0459 14.0488C13.5031 14.5913 12.7675 14.8963 12.0002 14.8972Z" fill="#EF7D00"/>
<path fill-rule="evenodd" clip-rule="evenodd" d="M11.779 7.49252C11.823 7.76514 11.6377 8.0218 11.3651 8.06579C11.3222 8.07271 11.2794 8.08034 11.2366 8.08868C11.1939 8.09702 11.1513 8.10605 11.109 8.11576C10.8398 8.17748 10.5716 8.00933 10.5099 7.74018C10.4482 7.47102 10.6163 7.20279 10.8855 7.14106C10.9384 7.12892 10.9916 7.11762 11.0451 7.10719C11.0985 7.09676 11.1521 7.08722 11.2057 7.07856C11.4784 7.03457 11.735 7.2199 11.779 7.49252ZM13.1284 7.63042C13.2266 7.37234 13.5155 7.24276 13.7736 7.34098C13.8243 7.36031 13.8749 7.38049 13.9251 7.40152C13.9753 7.42254 14.0252 7.44437 14.0746 7.46698C14.3257 7.58187 14.4361 7.87857 14.3212 8.12968C14.2063 8.38078 13.9096 8.4912 13.6585 8.37631C13.619 8.35823 13.5792 8.34079 13.539 8.32397C13.4988 8.30716 13.4584 8.29103 13.4178 8.27558C13.1598 8.17735 13.0302 7.8885 13.1284 7.63042ZM9.31133 8.37528C9.49938 8.5775 9.4879 8.89387 9.28568 9.08192C9.25387 9.11151 9.22251 9.14164 9.19161 9.17232C9.16072 9.203 9.13036 9.23414 9.10055 9.26574C8.91107 9.46661 8.59462 9.47584 8.39375 9.28636C8.19287 9.09687 8.18364 8.78043 8.37313 8.57955C8.41041 8.54003 8.44838 8.50107 8.48703 8.4627C8.52568 8.42433 8.5649 8.38663 8.60469 8.34963C8.80691 8.16158 9.12328 8.17307 9.31133 8.37528ZM15.3665 8.9941C15.5916 8.8341 15.9037 8.88685 16.0637 9.11192C16.0952 9.1562 16.126 9.20105 16.1561 9.24645C16.1862 9.29184 16.2155 9.33767 16.244 9.38392C16.3889 9.61897 16.3159 9.92701 16.0808 10.0719C15.8458 10.2169 15.5377 10.1438 15.3928 9.90879C15.37 9.87181 15.3466 9.83517 15.3225 9.79887C15.2985 9.76258 15.2739 9.72672 15.2487 9.69132C15.0887 9.46625 15.1414 9.1541 15.3665 8.9941ZM7.75012 10.4804C8.01883 10.544 8.18507 10.8134 8.12142 11.0821C8.11141 11.1244 8.10208 11.1669 8.09344 11.2096C8.08479 11.2522 8.07686 11.295 8.06963 11.3378C8.0237 11.6101 7.76572 11.7936 7.49343 11.7477C7.22113 11.7018 7.03763 11.4438 7.08357 11.1715C7.0926 11.1179 7.10253 11.0644 7.11334 11.011C7.12415 10.9577 7.13582 10.9045 7.14834 10.8517C7.21199 10.5829 7.48141 10.4167 7.75012 10.4804ZM16.4696 11.3715C16.7457 11.3635 16.9759 11.5808 16.9839 11.8568C16.9854 11.9111 16.9861 11.9655 16.9859 12.02L16.9859 12.0205C16.9855 12.0932 16.9836 12.1656 16.9801 12.2378C16.9667 12.5137 16.7323 12.7264 16.4564 12.713C16.1806 12.6996 15.9679 12.4652 15.9813 12.1894C15.9841 12.1318 15.9856 12.074 15.9859 12.0161M7.62172 13.098C7.88049 13.0016 8.16841 13.1333 8.2648 13.3921C8.27996 13.4328 8.2958 13.4733 8.31233 13.5135C8.32885 13.5538 8.34602 13.5938 8.36381 13.6334C8.47691 13.8853 8.36438 14.1812 8.11247 14.2944C7.86055 14.4075 7.56464 14.2949 7.45154 14.043C7.42928 13.9934 7.40781 13.9435 7.38714 13.8931C7.36648 13.8427 7.34666 13.792 7.32769 13.7411C7.2313 13.4823 7.36294 13.1944 7.62172 13.098ZM15.6342 14.6744C15.8371 14.8617 15.8497 15.178 15.6624 15.3809C15.6134 15.4341 15.5631 15.4863 15.5115 15.5374C15.46 15.5886 15.4075 15.6385 15.354 15.6872C15.1498 15.873 14.8335 15.8581 14.6477 15.6539C14.4618 15.4497 14.4767 15.1334 14.681 14.9476C14.7237 14.9087 14.7657 14.8687 14.807 14.8278C14.8482 14.7869 14.8884 14.7451 14.9276 14.7026C15.1149 14.4997 15.4313 14.4871 15.6342 14.6744ZM8.96942 15.3458C9.13101 15.1219 9.44354 15.0713 9.66746 15.2329C9.70269 15.2584 9.73836 15.2832 9.77449 15.3075C9.81061 15.3319 9.84708 15.3555 9.8839 15.3786C10.1179 15.5252 10.1888 15.8338 10.0422 16.0678C9.89555 16.3018 9.587 16.3726 9.35298 16.226C9.30694 16.1972 9.26132 16.1676 9.21614 16.1371C9.17096 16.1067 9.12633 16.0756 9.08227 16.0438C8.85835 15.8822 8.80782 15.5697 8.96942 15.3458ZM12.6805 16.4622C12.6919 16.7381 12.4775 16.971 12.2016 16.9824C12.1293 16.9854 12.0569 16.9869 11.9843 16.9867L11.9837 16.9867C11.9292 16.9865 11.8748 16.9854 11.8205 16.9835C11.5446 16.9736 11.3289 16.7418 11.3389 16.4658C11.3488 16.1899 11.5806 15.9742 11.8565 15.9841C11.8999 15.9857 11.9434 15.9866 11.987 15.9867C12.0449 15.9868 12.1026 15.9857 12.1602 15.9833C12.4361 15.9719 12.669 16.1863 12.6805 16.4622Z" fill="#EF7D00"/>
</svg>
