<svg width="24" height="24" viewBox="0 0 24 24" fill="none" xmlns="http://www.w3.org/2000/svg">
<path d="M18.2021 4.17528L6.80477 11.2446L8.75371 14.3867L20.151 7.3174L18.2021 4.17528Z" stroke="#EF7C00" stroke-miterlimit="10" stroke-linecap="square" stroke-linejoin="bevel"/>
<path d="M19.9159 6.62185L22 4L18.7059 4.67227" stroke="#EF7C00" stroke-miterlimit="10" stroke-linecap="square" stroke-linejoin="bevel"/>
<path d="M18.0672 8.60504L16.3529 5.81512" stroke="#EF7C00" stroke-miterlimit="10" stroke-linecap="square" stroke-linejoin="bevel"/>
<path d="M11.0084 12.9748L9.15964 9.98322" stroke="#EF7C00" stroke-miterlimit="10" stroke-linecap="square" stroke-linejoin="bevel"/>
<path d="M7.8151 12.874L2.67227 16.1008L2 15.0252" stroke="#EF7C00" stroke-miterlimit="10" stroke-linecap="square" stroke-linejoin="bevel"/>
<path d="M17.4285 9.27734L17.7311 9.78154C18 10.2185 18.5378 10.3194 18.9748 10.0841C19.4118 9.81515 19.5126 9.27734 19.2773 8.84037L18.9411 8.30255" stroke="#EF7C00" stroke-miterlimit="10" stroke-linecap="square" stroke-linejoin="bevel"/>
<path d="M15.9159 10.2185L16.2185 10.7227C16.4874 11.1597 17.0252 11.2605 17.4622 11.0252C17.8992 10.7563 18 10.2185 17.7647 9.78153L17.4285 9.24371" stroke="#EF7C00" stroke-miterlimit="10" stroke-linecap="square" stroke-linejoin="bevel"/>
<path d="M14.3697 11.1597L14.6722 11.6639C14.9412 12.1009 15.479 12.2017 15.9159 11.9664C16.3529 11.6975 16.4538 11.1597 16.2185 10.7227L15.8823 10.1849" stroke="#EF7C00" stroke-miterlimit="10" stroke-linecap="square" stroke-linejoin="bevel"/>
<path d="M11.0756 13.0756L11.9496 19.563L10.7731 20.9412L9.12604 14.1513" stroke="#EF7C00" stroke-miterlimit="10" stroke-linecap="square" stroke-linejoin="bevel"/>
<path d="M11.8823 15.8319L13.7311 16.4706L14.8739 15.7311L11.3781 13.7815" stroke="#EF7C00" stroke-miterlimit="10" stroke-linecap="square" stroke-linejoin="bevel"/>
</svg>
