<svg width="24" height="24" viewBox="0 0 24 24" fill="none" xmlns="http://www.w3.org/2000/svg">
<path d="M12 22C13.9778 22 15.9112 21.4135 17.5557 20.3147C19.2002 19.2159 20.4819 17.6541 21.2388 15.8268C21.9957 13.9996 22.1937 11.9889 21.8078 10.0491C21.422 8.10929 20.4696 6.32746 19.0711 4.92894C17.6725 3.53041 15.8907 2.578 13.9509 2.19215C12.0111 1.8063 10.0004 2.00433 8.17316 2.76121C6.3459 3.51809 4.78412 4.79981 3.6853 6.4443C2.58649 8.08879 2 10.0222 2 12C2.00306 14.6512 3.05761 17.193 4.93231 19.0677C6.80701 20.9424 9.34877 21.9969 12 22ZM12 2.9764C13.7847 2.9764 15.5293 3.50563 17.0132 4.49715C18.4972 5.48868 19.6537 6.89797 20.3367 8.54682C21.0197 10.1957 21.1984 12.01 20.8502 13.7604C20.502 15.5108 19.6426 17.1187 18.3806 18.3806C17.1187 19.6426 15.5108 20.502 13.7604 20.8502C12.01 21.1984 10.1957 21.0197 8.54682 20.3367C6.89797 19.6537 5.48868 18.4972 4.49715 17.0132C3.50562 15.5293 2.9764 13.7847 2.9764 12C2.98129 9.6083 3.93356 7.31595 5.62475 5.62476C7.31595 3.93356 9.60829 2.9813 12 2.9764Z" fill="#EF7D00"/>
<path d="M9.3947 16.9954L13.888 12.5021V16.3175L14.3716 16.801H16.2087L16.6922 16.3175V8.0227L16.2087 7.53912H7.92778L7.44421 8.0227V9.86212L7.92778 10.3457H11.7871L7.26605 14.8667V15.5609L8.70983 17.0046L9.3947 16.9954ZM13.2957 10.2022L12.9555 9.37624H8.41136V8.50627H15.7251V15.8339H14.8551V11.3337L14.0291 10.9912L9.05226 15.9681L8.29798 15.2092L13.2957 10.2022Z" fill="#EF7D00"/>
</svg>
