<svg width="24" height="24" viewBox="0 0 24 24" fill="none" xmlns="http://www.w3.org/2000/svg">
<path fill-rule="evenodd" clip-rule="evenodd" d="M18.9292 12.566C19.137 12.7479 19.1581 13.0638 18.9763 13.2716L12.3763 20.8144C12.2813 20.9229 12.1442 20.9852 12 20.9852C11.8558 20.9852 11.7186 20.9229 11.6237 20.8144L5.02368 13.2716C4.84184 13.0638 4.8629 12.7479 5.07072 12.566C5.27854 12.3842 5.59442 12.4053 5.77626 12.6131L12 19.7259L18.2237 12.6131C18.4055 12.4053 18.7214 12.3842 18.9292 12.566Z" fill="#EF7D00"/>
<path fill-rule="evenodd" clip-rule="evenodd" d="M12 4.89948C12.2761 4.89948 12.5 5.12333 12.5 5.39948V20.4852C12.5 20.7613 12.2761 20.9852 12 20.9852C11.7239 20.9852 11.5 20.7613 11.5 20.4852L11.5 5.39948C11.5 5.12333 11.7239 4.89948 12 4.89948Z" fill="#EF7D00"/>
</svg>
