<svg width="24" height="24" viewBox="0 0 24 24" fill="none" xmlns="http://www.w3.org/2000/svg">
<path fill-rule="evenodd" clip-rule="evenodd" d="M4.14248 12.3139C3.96907 12.1622 3.9515 11.8986 4.10324 11.7252L11.6132 3.14245C11.6924 3.05191 11.8068 2.99997 11.9271 2.99997C12.0475 2.99997 12.1619 3.05191 12.2411 3.14245L19.751 11.7252C19.9028 11.8986 19.8852 12.1622 19.7118 12.3139C19.5384 12.4657 19.2748 12.4481 19.1231 12.2747L11.9271 4.05077L4.73121 12.2747C4.57948 12.4481 4.31589 12.4657 4.14248 12.3139Z" fill="#EF7D00"/>
<path fill-rule="evenodd" clip-rule="evenodd" d="M11.9271 3.00006C12.1575 3.00006 12.3443 3.18686 12.3443 3.41728V20.5828C12.3443 20.8132 12.1575 21 11.9271 21C11.6967 21 11.5099 20.8132 11.5099 20.5828V3.41728C11.5099 3.18686 11.6967 3.00006 11.9271 3.00006Z" fill="#EF7D00"/>
</svg>
