<svg width="24" height="24" viewBox="0 0 24 24" fill="none" xmlns="http://www.w3.org/2000/svg">
<path d="M16.6884 8.07745L14.0032 7.68023L12.8036 5.24726H12.0568L10.8652 7.68221L8.17998 8.07943L7.94165 8.78648L9.88405 10.6792L9.42527 13.3545L10.0211 13.7934L12.4302 12.5303L14.8314 13.7875L15.4273 13.3486L14.9764 10.6792L16.9188 8.78648L16.6884 8.07745ZM14.2396 10.2383L14.1204 10.6097L14.4739 12.6693L12.6288 11.6941H12.2316L10.3806 12.6653L10.7401 10.6097L10.6209 10.2423L9.12338 8.78251L11.1929 8.48261L11.5047 8.25421L12.4302 6.37536L13.3558 8.25024L13.6676 8.47864L15.7371 8.77854L14.2396 10.2383Z" fill="#EF7D00"/>
<path d="M12.4303 2C10.7442 2.00039 9.1083 2.57411 7.79131 3.62695C6.47431 4.67978 5.55446 6.14915 5.18281 7.79378C4.81115 9.43841 5.00977 11.1605 5.74606 12.6774C6.48235 14.1942 7.71254 15.4156 9.23463 16.141V21.6385L9.84833 22L12.4303 20.5501L15.0122 22L15.6299 21.6385V17.6167H14.7957V20.9374L12.6289 19.712H12.2316L10.0648 20.9374V16.4747C11.0857 16.8169 12.1689 16.9332 13.2392 16.8154C14.3095 16.6976 15.3414 16.3486 16.2635 15.7925C17.1855 15.2364 17.9757 14.4866 18.5793 13.5949C19.1829 12.7032 19.5855 11.691 19.7591 10.6283C19.9328 9.56562 19.8734 8.4779 19.5851 7.44045C19.2967 6.403 18.7864 5.44062 18.0893 4.61994C17.3922 3.79927 16.5251 3.13991 15.5479 2.68753C14.5708 2.23515 13.507 2.00056 12.4303 2V2ZM12.4303 16.0338C11.1245 16.0338 9.84816 15.6466 8.7625 14.9212C7.67684 14.1957 6.83068 13.1647 6.331 11.9584C5.83133 10.7521 5.70059 9.42465 5.95532 8.14403C6.21005 6.86341 6.83881 5.68708 7.76209 4.76381C8.68537 3.84053 9.86169 3.21177 11.1423 2.95704C12.4229 2.70231 13.7503 2.83305 14.9567 3.33272C16.163 3.83239 17.194 4.67856 17.9194 5.76422C18.6449 6.84988 19.032 8.12627 19.032 9.43198C19.0299 11.1822 18.3337 12.8602 17.0961 14.0978C15.8585 15.3354 14.1805 16.0317 12.4303 16.0338V16.0338Z" fill="#EF7D00"/>
</svg>
