<svg width="24" height="24" viewBox="0 0 24 24" fill="none" xmlns="http://www.w3.org/2000/svg">
<path d="M16.8207 4.17231L16.4776 3.82921L14.0134 3.51644L12.0572 2H11.5814L9.62515 3.51644L7.17041 3.82921L6.82731 4.17231L6.51644 6.62705L5 8.58705V9.07232L6.51644 11.0304L6.82921 13.4852L7.17231 13.8283L8.84987 14.0406V21.7138L9.519 22L11.824 19.7898L14.1309 21.9962L14.8 21.71V16.429H14.0077V20.7887L12.0989 18.9557H11.5491L9.64032 20.7831V14.1486L11.5814 15.6518H12.0666L14.0228 14.1353L16.4871 13.8226L16.8302 13.4795L17.1316 11.0266L18.648 9.06852V8.58705L17.1316 6.63084L16.8207 4.17231ZM16.4416 10.6267L16.362 10.8162L16.0738 13.0757L13.8162 13.3639L13.6267 13.4435L11.824 14.8424L10.0251 13.4492L9.83556 13.3695L7.57416 13.0757L7.28604 10.8181L7.20643 10.6286L5.81319 8.82779L7.20643 7.02891L7.28604 6.83935L7.57416 4.58175L9.83177 4.29552L10.0213 4.2159L11.824 2.81698L13.6229 4.21022L13.8124 4.28983L16.07 4.57606L16.3582 6.83367L16.4378 7.02322L17.831 8.8221L16.4416 10.6267Z" fill="#EF7D00"/>
</svg>
