<svg width="24" height="24" viewBox="0 0 24 24" fill="none" xmlns="http://www.w3.org/2000/svg">
<path d="M21.5053 10.9401H18.6973L13.7079 5.95069C13.881 5.64944 13.9714 5.30775 13.9698 4.96029C13.9682 4.61284 13.8747 4.272 13.6988 3.97236C13.5229 3.67272 13.2708 3.42495 12.9682 3.2542C12.6656 3.08346 12.3232 2.99581 11.9758 3.00015C11.6284 3.0045 11.2883 3.10069 10.99 3.27895C10.6918 3.45721 10.446 3.71121 10.2777 4.01515C10.1093 4.3191 10.0244 4.66217 10.0315 5.00956C10.0385 5.35694 10.1374 5.69627 10.318 5.99309L5.37103 10.9401H2.4947L2 11.4324V20.0449L2.4947 20.5373H21.5053L22 20.0449V11.4324L21.5053 10.9401ZM12 3.9978C12.195 3.99733 12.3857 4.05475 12.5479 4.16277C12.7102 4.27079 12.8368 4.42455 12.9116 4.60457C12.9865 4.7846 13.0062 4.98278 12.9682 5.17401C12.9303 5.36524 12.8365 5.54091 12.6986 5.67876C12.5608 5.81662 12.3851 5.91045 12.1939 5.94837C12.0026 5.98629 11.8045 5.96659 11.6244 5.89177C11.4444 5.81695 11.2907 5.69037 11.1826 5.52808C11.0746 5.36579 11.0172 5.17508 11.0177 4.98013C11.0177 4.7196 11.1212 4.46974 11.3054 4.28552C11.4896 4.10129 11.7395 3.9978 12 3.9978ZM11.0224 6.68096C11.3199 6.85179 11.6569 6.94192 12 6.94244C12.3592 6.9423 12.7114 6.84284 13.0177 6.65504L17.3051 10.9401H6.76325L11.0224 6.68096ZM21.013 19.5455H2.98704V11.9248H21.013V19.5455Z" fill="#EF7D00"/>
</svg>
