<svg width="24" height="24" viewBox="0 0 24 24" fill="none" xmlns="http://www.w3.org/2000/svg">
<path d="M19.6169 3.41277L19.1448 3H4.84607L4.374 3.41277L2 20.9726L2.47206 21.5131H4.75257L5.22463 21.1003L5.68073 17.894H6.65222L7.08552 21.1003L7.55986 21.5131H9.84036L10.3124 20.9703L9.87685 17.9031H14.114L13.6876 20.9795L14.1596 21.5222H16.4401L16.9145 21.1095L17.3478 17.9031H18.3193L18.7754 21.1095L19.2474 21.5222H21.5279L22 20.9817L19.6169 3.41277ZM9.28392 20.569H7.96579L7.60547 17.9031H8.91448L9.28392 20.569ZM16.0251 20.569H14.707L15.1334 17.4926L14.6613 16.9498H5.25656L4.78449 17.3603L4.32839 20.569H3.0171L5.2634 3.95325H18.2623L16.0251 20.569ZM19.6534 20.569L19.1973 17.3603L18.7252 16.9498H17.4686L18.9738 5.82098L20.9669 20.569H19.6534Z" fill="#EF7D00"/>
<path d="M8.60891 5.51312L8.13685 5.92361L7.82898 8.09009L8.30104 8.63285H13.5781L14.0479 8.22464L14.3558 6.05588L13.8837 5.51312H8.60891ZM13.1699 7.6796H8.85064L9.0308 6.46637H13.3364L13.1699 7.6796Z" fill="#EF7D00"/>
</svg>
