<svg width="24" height="24" viewBox="0 0 24 24" fill="none" xmlns="http://www.w3.org/2000/svg">
<path d="M17.733 12.9121L15.6941 12.899L12.4532 10.4428V5.44342L11.9989 5H3.45212L3 5.50211L3.61732 11.3275L3.00217 16.679V19.0461L3.46081 19.5004L8.35805 19.4635L8.65149 19.3526L9.45357 18.6549L12.6858 19.5678L12.8119 19.5852L20.5479 19.5461L21 19.0896V17.2398C21 15.6226 21 12.9121 17.733 12.9121ZM11.5446 5.90859V7.34537H10.4035V8.25395H11.5446V9.45164H10.4035V10.3602H11.5446V10.6689L11.725 11.0319L12.1858 11.3818L11.4881 12.3274L12.2163 12.8643L12.9053 11.9296L13.8052 12.6143L13.1401 13.5207L13.8704 14.0598L14.5225 13.1642L15.2594 13.7142L15.5311 13.8076L17.7308 13.8228C19.661 13.8228 20.0219 14.9227 20.0784 16.553H13.0162L9.33619 15.4661L9.20795 15.4487H4.05857L4.5259 11.3927V11.2927L3.95641 5.90859H11.5446ZM12.8684 18.6723L9.46226 17.7093L9.04057 17.8028L8.17111 18.5527L3.90859 18.594V16.7573L3.95641 16.3465H9.14056L12.8184 17.4333L12.9488 17.4528H20.0892V18.6244L12.8684 18.6723Z" fill="#EF7D00"/>
</svg>
