<svg width="24" height="24" viewBox="0 0 24 24" fill="none" xmlns="http://www.w3.org/2000/svg">
<path d="M18.711 13.0192H17.5529L13.1317 10.2756L11.9559 5.28612L11.4091 5L7.75231 6.42471L4.14643 7.79652L3.78389 6.65596L3 6.90484L4.13468 10.4794L3.57812 15.3728V15.4923L4.04061 18.04L4.44431 18.3751H9.01045L9.32205 18.232L10.0217 17.4109L15.9714 18.3496L16.1673 18.332L20.7276 16.7054L21 16.3134V15.314C20.9995 14.7065 20.7583 14.124 20.3294 13.6939C19.9004 13.2639 19.3185 13.0212 18.711 13.0192ZM12.144 9.66021L11.3386 9.16048L9.97659 6.43451L11.2622 5.93283L12.144 9.66021ZM9.21426 6.74219L10.6586 9.63081L10.8095 9.79543L11.5561 10.2599L10.8134 11.4357L11.5052 11.8825L12.2518 10.7067L12.9848 11.1535L12.2361 12.3411L12.9279 12.7781L13.6824 11.5847L14.4232 12.0452L13.6746 13.2543L14.3664 13.6913L15.1267 12.4704L15.8675 12.931L15.1052 14.1401L15.797 14.5771L16.5652 13.3621L17.2197 13.7697L17.4353 13.8305H18.711C18.9317 13.8304 19.1495 13.88 19.3484 13.9757C19.5472 14.0713 19.7219 14.2106 19.8594 14.3831L15.94 15.7099L9.30637 14.4556L9.09668 14.4713L6.80185 15.265L4.47567 14.6555L4.96168 10.4911L4.94992 10.3148L4.39924 8.57844L9.21426 6.74219ZM20.1887 16.0371L15.9988 17.5324L9.92368 16.5663L9.54741 16.7054L8.81644 17.5657H4.77942L4.40316 15.4825L6.71366 16.0881H6.95079L9.2613 15.2807L15.9008 16.5427L16.1085 16.5271L20.1769 15.1553C20.1798 15.2107 20.1798 15.2663 20.1769 15.3218L20.1887 16.0371Z" fill="#EF7D00"/>
</svg>
