<svg width="24" height="24" viewBox="0 0 24 24" fill="none" xmlns="http://www.w3.org/2000/svg">
<path d="M17.733 13.462L15.7137 13.449L12.4532 10.4254V5.45429L11.9989 5H3.45212L3 5.50211L3.61732 11.3275L3.00217 16.679V19.0461L3.46081 19.5004L9.34271 19.4635L9.79483 19.0092V18.7462L12.6858 19.5635L12.8119 19.5808L20.5479 19.5417L21 19.0853V17.0072C21 14.964 19.6263 13.4729 17.733 13.462ZM11.5446 5.90859V7.7388H9.98611V7.16496H9.07753V9.22123H9.98611V8.64739H11.5446V10.3341L10.5708 10.8276L10.3122 10.3167L9.50139 10.7276L10.4317 12.56L11.2425 12.1491L10.9816 11.6383L11.9141 11.1645L13.4357 12.5665L12.6749 13.399L12.2511 13.0121L11.6294 13.6837L13.1509 15.0705L13.7639 14.3989L13.3292 14.012L14.0834 13.1838L15.2246 14.2467L15.5311 14.3663L17.7287 14.3815C18.9546 14.3815 19.8784 15.2835 20.0566 16.5551H13.0162L9.33619 15.4683L9.20795 15.4509H4.05857L4.5259 11.3949V11.2949L3.95641 5.90859H11.5446ZM12.8684 18.6723L9.46226 17.7093L8.88407 18.1441V18.5527L3.90859 18.594V16.7573L3.95641 16.3465H9.14056L12.8184 17.4333L12.9488 17.4528H20.0892V18.6244L12.8684 18.6723Z" fill="#EF7D00"/>
</svg>
