<svg width="24" height="24" viewBox="0 0 24 24" fill="none" xmlns="http://www.w3.org/2000/svg">
<path d="M17.733 13.6946L15.7354 13.6816L12.4532 10.0972V5.45429L11.9989 5H3.45212L3 5.50211L3.61732 11.3275L3.00217 16.679V19.0461L3.46081 19.5004L9.34271 19.4635L9.79483 19.0092V18.7462L12.6858 19.5635L12.8119 19.5808L20.5479 19.5417L21 19.0853V17.2398C21 15.1966 19.6263 13.7055 17.733 13.6946ZM11.5446 5.90859V7.541H10.4035V8.44958H11.5446V9.70595H10.4035V10.6167H11.7076L12.3315 11.2971L11.4207 12.1317L12.0359 12.8012L12.9466 11.9687L13.7835 12.8838L12.9336 13.6533L13.5466 14.325L14.3899 13.5555L15.2007 14.4423L15.5333 14.5901L17.7308 14.6032C18.8807 14.6032 19.7654 15.3987 20.0175 16.5595H13.0162L9.64485 15.5509C9.46444 13.6272 7.81029 11.0862 4.4846 10.8906L3.95641 5.90859H11.5446ZM4.47808 11.7992C7.3147 11.9839 8.48629 14.1011 8.71018 15.4379H4.05857L4.47808 11.7992ZM12.8684 18.6723L9.46226 17.7093L8.88625 18.1441V18.5527L3.90859 18.5853V16.7573L3.95641 16.3465H9.14056L12.8184 17.4333L12.9488 17.4528H20.0892V18.6244L12.8684 18.6723Z" fill="#EF7D00"/>
</svg>
