<svg width="24" height="24" viewBox="0 0 24 24" fill="none" xmlns="http://www.w3.org/2000/svg">
<path d="M21.4972 4H2.51745L2 4.51013V19.9605L2.51013 20.4706H21.4899L22 19.9605V4.51013L21.4972 4ZM10.577 5.02026H13.4376V8.78155H10.577V5.02026ZM20.9871 19.4503H3.02758V5.02026H9.56651V9.29168L10.0669 9.79449H13.96L14.4481 9.29168V5.02026H20.9773L20.9871 19.4503Z" fill="#EF7D00"/>
<path d="M19.3248 16.8338H15.1828V17.8541H19.3248V16.8338Z" fill="#EF7D00"/>
<path d="M16.7425 12.5819V15.6817H17.7628V12.5819L18.9612 13.7803L19.6837 13.0578L17.6139 10.988H16.8914L14.8216 13.0578L15.5416 13.7803L16.7425 12.5819Z" fill="#EF7D00"/>
</svg>
