<svg width="24" height="24" viewBox="0 0 24 24" fill="none" xmlns="http://www.w3.org/2000/svg">
<path d="M20.3139 6.79596L12.0045 2H11.5448L3.22422 6.79596L3 7.20179V16.7982L3.22422 17.204L11.5448 22H12.0134L20.3229 17.204L20.5471 16.7982V7.20179L20.3139 6.79596ZM11.7691 2.94619L19.1457 7.20628L17.4708 8.18834L10.0448 3.9417L11.7691 2.94619ZM15.2108 10.5874L17.0986 9.4843V11.7265L15.2108 12.8969V10.5874ZM9.10538 4.4843L16.5359 8.7287L14.7691 9.75785L7.3296 5.49776L9.10538 4.4843ZM6.38789 6.05157L13.8341 10.3117L11.8587 11.4596L4.40134 7.19955L6.38789 6.05157ZM3.92152 8.00897L11.3856 12.2691V20.8341L3.92152 16.5269V8.00897ZM19.6031 16.5291L12.3296 20.7309V12.2691L14.2735 11.1345V13.7265L14.9865 14.1278L17.8229 12.3991L18.0471 12V8.93722L19.6166 8.01794L19.6031 16.5291Z" fill="#EF7D00"/>
</svg>
