<svg width="24" height="24" viewBox="0 0 24 24" fill="none" xmlns="http://www.w3.org/2000/svg">
<path fill-rule="evenodd" clip-rule="evenodd" d="M6.81429 8C6.75907 8 6.71429 8.04477 6.71429 8.1V17.1857C6.71429 17.2409 6.75907 17.2857 6.81429 17.2857H17.1857C17.241 17.2857 17.2857 17.2409 17.2857 17.1857V8.1C17.2857 8.04477 17.241 8 17.1857 8H6.81429ZM5.71429 8.1C5.71429 7.49249 6.20678 7 6.81429 7H17.1857C17.7932 7 18.2857 7.49249 18.2857 8.1V17.1857C18.2857 17.7932 17.7932 18.2857 17.1857 18.2857H6.81429C6.20678 18.2857 5.71429 17.7932 5.71429 17.1857V8.1Z" fill="#EF7D00"/>
<path fill-rule="evenodd" clip-rule="evenodd" d="M8.78572 5.07141C9.06187 5.07141 9.28572 5.29527 9.28572 5.57141V8.7857C9.28572 9.06184 9.06187 9.2857 8.78572 9.2857C8.50958 9.2857 8.28572 9.06184 8.28572 8.7857V5.57141C8.28572 5.29527 8.50958 5.07141 8.78572 5.07141ZM15.2143 5.07141C15.4904 5.07141 15.7143 5.29527 15.7143 5.57141V8.7857C15.7143 9.06184 15.4904 9.2857 15.2143 9.2857C14.9382 9.2857 14.7143 9.06184 14.7143 8.7857V5.57141C14.7143 5.29527 14.9382 5.07141 15.2143 5.07141ZM5.71429 11.3571C5.71429 11.081 5.93815 10.8571 6.21429 10.8571H17.7857C18.0619 10.8571 18.2857 11.081 18.2857 11.3571C18.2857 11.6333 18.0619 11.8571 17.7857 11.8571H6.21429C5.93815 11.8571 5.71429 11.6333 5.71429 11.3571Z" fill="#EF7D00"/>
</svg>
