<svg width="18" height="17" viewBox="0 0 18 17" fill="none" xmlns="http://www.w3.org/2000/svg">
<path fill-rule="evenodd" clip-rule="evenodd" d="M0.142883 1.28571C0.142883 1.00956 0.366741 0.785706 0.642883 0.785706H2.16171C2.88751 0.785706 3.5092 1.30537 3.63793 2.01967L3.89911 3.46894H17.3572C17.5058 3.46894 17.6468 3.53508 17.7418 3.64941C17.8367 3.76375 17.8759 3.91442 17.8487 4.06056L16.6924 10.2642C16.6482 10.5009 16.4416 10.6726 16.2008 10.6726H5.24717L5.47377 11.8943H16.2429C16.519 11.8943 16.7429 12.1181 16.7429 12.3943C16.7429 12.6704 16.519 12.8943 16.2429 12.8943H5.05798C4.817 12.8943 4.61031 12.7224 4.56636 12.4855L4.15449 10.2648L4.15429 10.2637L2.98907 4.05762L2.65378 2.19703C2.61087 1.95893 2.40364 1.78571 2.16171 1.78571H0.642883C0.366741 1.78571 0.142883 1.56185 0.142883 1.28571ZM5.06076 9.67256H15.7854L16.7554 4.46894H4.08377L5.06076 9.67256ZM5.84576 14.5469C6.3784 13.9885 7.26963 13.9885 7.80227 14.5469C8.30051 15.0692 8.30051 15.8908 7.80227 16.4131C7.26963 16.9715 6.3784 16.9715 5.84576 16.4131C5.34752 15.8908 5.34752 15.0692 5.84576 14.5469ZM7.07867 15.2371C6.94002 15.0917 6.70801 15.0917 6.56936 15.2371C6.43966 15.3731 6.43966 15.5869 6.56936 15.7229C6.70801 15.8683 6.94002 15.8683 7.07867 15.7229C7.20837 15.5869 7.20837 15.3731 7.07867 15.2371ZM13.2043 14.5469C13.7369 13.9885 14.6281 13.9885 15.1608 14.5469C15.659 15.0692 15.659 15.8908 15.1608 16.4131C14.6281 16.9715 13.7369 16.9715 13.2043 16.4131C12.706 15.8908 12.706 15.0692 13.2043 14.5469ZM14.4372 15.2371C14.2985 15.0917 14.0665 15.0917 13.9278 15.2371C13.7981 15.3731 13.7981 15.5869 13.9278 15.7229C14.0665 15.8683 14.2985 15.8683 14.4372 15.7229C14.5669 15.5869 14.5669 15.3731 14.4372 15.2371Z" fill="#EF7D00"/>
</svg>
