<svg width="24" height="24" viewBox="0 0 24 24" fill="none" xmlns="http://www.w3.org/2000/svg">
<path fill-rule="evenodd" clip-rule="evenodd" d="M6.94781 19.3362L4.10468 2.08128L5.09137 1.9187L7.93451 19.1736L6.94781 19.3362Z" fill="#EF7D00"/>
<path fill-rule="evenodd" clip-rule="evenodd" d="M4.25859 1.63286L4.59801 1.5H18.4706L18.9639 1.91871L21.8071 19.1736L21.3137 19.7549H21.2414L19.2048 22.3115L18.8137 22.5H4.89213L4.39875 22.0811L1.50659 4.48306L1.66054 4.03484L4.25859 1.63286ZM20.7246 18.7549H7.44115V19.7549H19.9629L18.5728 21.5H5.31667L2.53699 4.58643L4.79373 2.5H18.0462L20.7246 18.7549Z" fill="#EF7D00"/>
<path fill-rule="evenodd" clip-rule="evenodd" d="M4.72412 21.4122L7.07706 18.9122L7.80526 19.5976L5.45232 22.0976L4.72412 21.4122Z" fill="#EF7D00"/>
<path fill-rule="evenodd" clip-rule="evenodd" d="M16.1667 7.89215H8.12744V6.89215H16.1667V7.89215Z" fill="#EF7D00"/>
<path fill-rule="evenodd" clip-rule="evenodd" d="M15.1863 5.39215H7.14703V4.39215H15.1863V5.39215Z" fill="#EF7D00"/>
</svg>
