<svg width="24" height="24" viewBox="0 0 24 24" fill="none" xmlns="http://www.w3.org/2000/svg">
<path fill-rule="evenodd" clip-rule="evenodd" d="M9.51764 3L10.0176 2.5H22L22.5 3V21.5462L22 22.0462H10.0176L9.51764 21.5462V3ZM10.5176 3.5V21.0462H21.5V3.5H10.5176Z" fill="#EF7D00"/>
<path fill-rule="evenodd" clip-rule="evenodd" d="M1.5 9.91626L2 9.41626H9.97357L10.4736 9.91626V13.0881L9.97357 13.5881H2L1.5 13.0881V9.91626ZM2.5 10.4163V12.5881H9.47357V10.4163H2.5Z" fill="#EF7D00"/>
<path fill-rule="evenodd" clip-rule="evenodd" d="M1.5 14.1454L2 13.6454H9.97357L10.4736 14.1454V17.3172L9.97357 17.8172H2L1.5 17.3172V14.1454ZM2.5 14.6454V16.8172H9.47357V14.6454H2.5Z" fill="#EF7D00"/>
<path fill-rule="evenodd" clip-rule="evenodd" d="M1.5 18.3745L2 17.8745H9.97357L10.4736 18.3745V21.5463L9.97357 22.0463H2L1.5 21.5463V18.3745ZM2.5 18.8745V21.0463H9.47357V18.8745H2.5Z" fill="#EF7D00"/>
<path fill-rule="evenodd" clip-rule="evenodd" d="M19.2247 7.02423H12.793V6.02423H19.2247V7.02423Z" fill="#EF7D00"/>
<path fill-rule="evenodd" clip-rule="evenodd" d="M19.2247 9.13873H12.793V8.13873H19.2247V9.13873Z" fill="#EF7D00"/>
</svg>
