<svg width="24" height="24" viewBox="0 0 24 24" fill="none" xmlns="http://www.w3.org/2000/svg">
<path d="M14.4739 7.11607C14.2253 6.98965 13.9673 6.88248 13.7023 6.79549L13.6205 6.11231L12.7029 5.3009H11.2968L10.3793 6.11231L10.2975 6.79549C10.0324 6.88248 9.77449 6.98965 9.52585 7.11607L8.98196 6.69378L7.75933 6.76895L6.76662 7.76166L6.69366 8.98209L7.13585 9.55029C7.01858 9.78964 6.91883 10.0372 6.83737 10.291L6.1144 10.3794L5.30078 11.2969V12.7031L6.11219 13.6206L6.87496 13.7135C6.95737 13.9505 7.05561 14.1816 7.16901 14.4055L6.69366 15.0179L6.76883 16.2405L7.76154 17.2332L8.98418 17.3084L9.61871 16.811C9.83373 16.9164 10.0553 17.008 10.282 17.0851L10.3793 17.8877L11.2968 18.6991H12.7029L13.6205 17.8877L13.7178 17.0851C13.9445 17.008 14.166 16.9164 14.381 16.811L15.0178 17.3062L16.2404 17.231L17.2331 16.2383L17.3061 15.0179L16.8285 14.4055C16.9419 14.1816 17.0402 13.9505 17.1226 13.7135L17.8853 13.6206L18.6968 12.7031V11.2969L17.8853 10.3794L17.1624 10.291C17.0809 10.0372 16.9812 9.78964 16.8639 9.55029L17.3061 8.98209L17.2309 7.75945L16.2382 6.76674L15.0178 6.69378L14.4739 7.11607ZM16.5809 8.41388L15.7584 9.46849C16.0901 9.97191 16.3158 10.5376 16.4217 11.1311L17.7748 11.2969V12.7031L16.3996 12.8711C16.2792 13.4471 16.0454 13.9935 15.712 14.4784L16.5809 15.5839L15.586 16.5788L14.465 15.6944C13.9852 16.0133 13.4485 16.237 12.8842 16.3533L12.7118 17.7749H11.2968L11.1155 16.3533C10.5488 16.2408 10.0091 16.0201 9.52585 15.7033L8.40491 16.5877L7.41 15.5927L8.27889 14.4873C7.94635 14.0019 7.7127 13.4557 7.5913 12.8799L6.2161 12.7119V11.2969L7.57803 11.1311C7.68495 10.5379 7.91055 9.97239 8.24131 9.46849L7.41442 8.41388L8.40934 7.41897L9.4551 8.24143C9.96138 7.89296 10.5342 7.65284 11.1376 7.53614L11.2968 6.2317H12.7029L12.8621 7.53614C13.4656 7.65284 14.0384 7.89296 14.5446 8.24143L15.586 7.4256L16.5809 8.41388Z" fill="#EF7D00"/>
<path d="M12 9.14789C11.4359 9.14789 10.8845 9.31516 10.4154 9.62855C9.94642 9.94194 9.58086 10.3874 9.36499 10.9085C9.14912 11.4297 9.09264 12.0031 9.20269 12.5564C9.31274 13.1096 9.58438 13.6178 9.98325 14.0167C10.3821 14.4156 10.8903 14.6872 11.4436 14.7973C11.9968 14.9073 12.5703 14.8508 13.0914 14.635C13.6126 14.4191 14.058 14.0535 14.3714 13.5845C14.6848 13.1155 14.8521 12.5641 14.8521 12C14.8509 11.2439 14.55 10.5192 14.0154 9.98454C13.4808 9.44992 12.756 9.14906 12 9.14789ZM12 13.9279C11.6187 13.9279 11.2459 13.8148 10.9289 13.603C10.6118 13.3911 10.3647 13.09 10.2188 12.7378C10.0729 12.3855 10.0347 11.9978 10.1091 11.6239C10.1835 11.2499 10.3671 10.9064 10.6367 10.6367C10.9064 10.3671 11.2499 10.1835 11.6239 10.1091C11.9978 10.0347 12.3855 10.0729 12.7378 10.2188C13.09 10.3647 13.3911 10.6118 13.603 10.9289C13.8148 11.2459 13.9279 11.6187 13.9279 12C13.9282 12.2532 13.8785 12.5041 13.7817 12.7381C13.685 12.9721 13.543 13.1848 13.3639 13.3639C13.1848 13.543 12.9721 13.685 12.7381 13.7817C12.5041 13.8785 12.2532 13.9282 12 13.9279Z" fill="#EF7D00"/>
<path d="M21.7281 7.57816L16.4218 2.27194L15.7586 2H8.24143L7.57816 2.27194L2.27194 7.57816L2 8.24143V15.7586L2.27194 16.4218L7.57816 21.7281L8.24143 22H15.7586L16.4218 21.7281L21.7281 16.4218L22 15.7586V8.24143L21.7281 7.57816ZM21.0648 15.7586L15.7586 21.0825H8.24143L2.91753 15.7586V8.24143L8.24143 2.91753H15.7586L21.0825 8.24143L21.0648 15.7586Z" fill="#EF7D00"/>
</svg>
