<svg width="24" height="24" viewBox="0 0 24 24" fill="none" xmlns="http://www.w3.org/2000/svg">
<path d="M11.9937 16.1859C11.1478 16.1859 10.3209 15.9351 9.61763 15.4651C8.91433 14.9952 8.36617 14.3272 8.04247 13.5458C7.71877 12.7643 7.63408 11.9044 7.7991 11.0748C7.96412 10.2452 8.37144 9.48313 8.96955 8.88502C9.56766 8.2869 10.3297 7.87958 11.1593 7.71456C11.9889 7.54954 12.8488 7.63424 13.6303 7.95794C14.4118 8.28163 15.0797 8.82979 15.5497 9.5331C16.0196 10.2364 16.2704 11.0633 16.2704 11.9091C16.2691 13.043 15.818 14.13 15.0163 14.9318C14.2145 15.7335 13.1275 16.1845 11.9937 16.1859ZM11.9937 8.7035C11.3597 8.7035 10.7399 8.8915 10.2127 9.24374C9.68555 9.59598 9.27467 10.0966 9.03204 10.6824C8.78942 11.2681 8.72593 11.9127 8.84962 12.5345C8.97331 13.1564 9.27862 13.7275 9.72694 14.1759C10.1753 14.6242 10.7464 14.9295 11.3683 15.0532C11.9901 15.1769 12.6347 15.1134 13.2204 14.8708C13.8062 14.6281 14.3068 14.2173 14.6591 13.6901C15.0113 13.1629 15.1993 12.5431 15.1993 11.9091C15.1986 11.0592 14.8607 10.2442 14.2596 9.64315C13.6586 9.04213 12.8436 8.70417 11.9937 8.7035Z" fill="#EF7D00"/>
<path d="M13.0801 3.07623L13.3363 5.09289C14.2694 5.2733 15.1549 5.64497 15.9372 6.1845L17.549 4.92377L19.0865 6.46124L17.8053 8.09097C18.3147 8.86804 18.6633 9.73936 18.8302 10.6534L20.9212 10.9097V13.0826L18.7944 13.3389C18.612 14.238 18.2523 15.0917 17.7361 15.8501L19.0762 17.5644L17.5388 19.1019L15.804 17.7438C15.0587 18.2349 14.2249 18.5761 13.3491 18.7482L13.0801 20.9494H10.9071L10.6381 18.7482C9.76227 18.5761 8.92845 18.2349 8.18322 17.7438L6.44843 19.1019L4.91095 17.5644L6.25112 15.8501C5.73714 15.0996 5.3766 14.2549 5.19026 13.3645L3.06342 13.1083V10.9199L5.15439 10.6637C5.32137 9.74961 5.6699 8.87829 6.17937 8.10122L4.89814 6.47149L6.43562 4.93402L8.04741 6.19475C8.83227 5.64816 9.72243 5.27115 10.6611 5.08776L10.9174 3.07111H13.0903L13.0801 3.07623ZM13.0903 2H10.9071L9.84369 2.94299L9.68738 4.22422C9.14684 4.38522 8.62532 4.60431 8.13197 4.87764L7.10698 4.07559L5.68994 4.16272L4.15247 5.70019L4.06534 7.11723L4.89046 8.17297C4.63671 8.66011 4.43323 9.17183 4.28315 9.70019L2.9353 9.86419L2 10.9199V13.0929L2.94299 14.1563L4.34721 14.328C4.50295 14.8252 4.70723 15.3058 4.95708 15.763L4.07559 16.893L4.16272 18.3101L5.70019 19.8475L7.11723 19.9347L8.27803 19.0275C8.72435 19.2619 9.19198 19.4532 9.67457 19.599L9.85394 21.0673L10.9071 22H13.0801L14.1435 21.057L14.3229 19.5887C14.8055 19.443 15.2731 19.2517 15.7194 19.0173L16.8802 19.9244L18.2972 19.8373L19.8347 18.2998L19.9218 16.8828L19.0404 15.7527C19.2902 15.2956 19.4945 14.8149 19.6502 14.3177L21.0545 14.1461L21.9872 13.0929V10.9199L21.0442 9.8565L19.704 9.70019C19.5525 9.17524 19.3482 8.66699 19.0942 8.18322L19.9193 7.12748L19.8322 5.71044L18.2947 4.17297L16.8776 4.08584L15.8527 4.88789C15.3603 4.61296 14.8397 4.39216 14.2998 4.22934L14.1435 2.94811L13.0801 2.01281L13.0903 2Z" fill="#EF7D00"/>
</svg>
