<svg width="24" height="24" viewBox="0 0 24 24" fill="none" xmlns="http://www.w3.org/2000/svg">
<path d="M21.611 8.77615L9.81651 2H9.43303L2.18349 6.18532L2 6.51743V14.8899L2.18349 15.2239L13.978 22H14.3615L21.611 17.8147L21.7945 17.4826V9.11009L21.611 8.77615ZM9.62569 2.77431L20.655 9.11193L14.2477 12.8532L3.14495 6.5156L9.62569 2.77431ZM14.633 13.5156L15.7853 12.8422V20.2917L14.633 20.9578V13.5156ZM16.5523 12.3945L17.5376 11.8165V19.2771L16.5523 19.8459V12.3945ZM18.3046 11.3725L19.3413 10.767V18.2385L18.3046 18.8367V11.3725ZM2.7578 7.17982L13.8661 13.5174V21.0514L2.7578 14.6679V7.17982ZM20.1083 17.7963V10.3193L21.0367 9.76881V17.2514L20.1083 17.7963Z" fill="#EF7D00"/>
<path d="M7.433 11.5377L4.80548 10.0367L4.233 10.3707V13.3707L4.41649 13.7028L7.01465 15.2037L7.5908 14.8753L7.62016 11.8734L7.433 11.5377ZM6.83667 14.2019L5.00181 13.1413V11.0312L6.85685 12.0918L6.83667 14.2019Z" fill="#EF7D00"/>
</svg>
