<svg width="24" height="24" viewBox="0 0 24 24" fill="none" xmlns="http://www.w3.org/2000/svg">
<path d="M21.3411 8.62583L9.91202 2H9.52227L2.19488 6.23348L2 6.56941V15.0382L2.19488 15.3742L13.624 22H14.0137L21.3467 17.7647L21.5323 17.4287V8.96177L21.3411 8.62583ZM9.72643 2.78322L20.3797 8.96362L13.8931 12.7424L3.16555 6.56941L9.72643 2.78322ZM4.35709 8.15071L5.22569 8.65924V9.9343L4.35709 9.42947V8.15071ZM4.35709 10.3185L6.9072 11.8033L6.88493 14.539L4.35709 13.0542V10.3185ZM6.00148 10.3779V9.09911L6.90906 9.62064V10.905L6.00148 10.3779ZM2.7758 7.24128L3.58129 7.70341V15.2814L2.7758 14.8137V7.24128ZM4.35709 13.9543L5.22569 14.4647V16.2353L4.35709 15.7305V13.9543ZM6.00148 14.9195L6.90906 15.4503V17.2116L6.00148 16.6845V14.9195ZM7.68485 10.0679L8.56644 10.5765V18.173L7.68485 17.6607V10.0679ZM9.3441 11.0238L10.2498 11.5453V19.1548L9.3441 18.6295V11.0238ZM11.0256 12L11.8942 12.4993V20.1088L11.0256 19.5984V12ZM12.67 12.9465L13.5052 13.4272V21.0386L12.67 20.5523V12.9465ZM20.7602 17.2153L14.281 20.9458V13.4198L20.7602 9.63734V17.2153Z" fill="#EF7D00"/>
</svg>
