<svg width="24" height="24" viewBox="0 0 24 24" fill="none" xmlns="http://www.w3.org/2000/svg">
<path d="M21.611 8.77615L9.81651 2H9.43303L2.18349 6.18532L2 6.51743V14.8899L2.18349 15.2239L13.978 22H14.3615L21.611 17.8147L21.7945 17.4826V9.11009L21.611 8.77615ZM9.62569 2.77431L20.655 9.11193L14.2477 12.8532L3.14495 6.5156L9.62569 2.77431ZM2.7578 7.17798L13.8661 13.5174V21.0514L2.7578 14.6679V7.17798ZM14.633 20.956V13.5156L21.0367 9.77798V17.2606L14.633 20.956Z" fill="#EF7D00"/>
<path d="M7.43302 11.5377L4.80549 10.0367L4.23302 10.3707V13.3707L4.4165 13.7028L7.01467 15.2037L7.59081 14.8753L7.62017 11.8734L7.43302 11.5377ZM6.83669 14.2019L5.00182 13.1413V11.0312L6.85687 12.0918L6.83669 14.2019Z" fill="#EF7D00"/>
</svg>
