<svg width="24" height="24" viewBox="0 0 24 24" fill="none" xmlns="http://www.w3.org/2000/svg">
<path fill-rule="evenodd" clip-rule="evenodd" d="M20.3541 3.93215C20.5493 4.12741 20.5493 4.444 20.3541 4.63926L18.6303 6.36304C19.463 7.25771 19.9291 8.43696 19.9291 9.6647C19.9291 10.9648 19.4067 12.2104 18.4793 13.1216L12.3509 19.1424C12.1585 19.3315 11.8507 19.3337 11.6554 19.1475L8.68192 16.3114L6.21123 18.7821C6.01597 18.9774 5.69938 18.9774 5.50412 18.7821C5.30886 18.5869 5.30886 18.2703 5.50412 18.075L7.96756 15.6116L5.49327 13.1232C4.58294 12.2076 4.07196 10.969 4.07196 9.67794V9.32111C4.07196 8.23847 4.50698 7.20124 5.27927 6.44251C6.03389 5.70112 7.04948 5.28571 8.10736 5.28571H8.17017C9.26832 5.28571 10.3225 5.71693 11.1059 6.48653L12.0005 7.36548L12.898 6.4838C13.6795 5.71594 14.7313 5.28571 15.827 5.28571H16.5191C17.0082 5.28571 17.4826 5.42927 17.8859 5.69319L19.647 3.93215C19.8422 3.73689 20.1588 3.73689 20.3541 3.93215ZM17.1527 6.42648C16.9561 6.33462 16.7401 6.28571 16.5191 6.28571H15.827C14.9935 6.28571 14.1933 6.613 13.5988 7.19713L12.3509 8.42308C12.1564 8.61418 11.8446 8.61418 11.6501 8.42308L10.4051 7.19986C9.80872 6.61398 9.00616 6.28571 8.17017 6.28571H8.10736C7.31163 6.28571 6.54771 6.59818 5.98009 7.15585C5.39918 7.72656 5.07196 8.50676 5.07196 9.32111V9.67794C5.07196 10.7048 5.47837 11.6899 6.20239 12.4181L8.67467 14.9045L17.1527 6.42648ZM9.38923 15.6041L11.9954 18.0898L17.7785 12.4082C18.5145 11.6851 18.9291 10.6965 18.9291 9.6647C18.9291 8.70244 18.5682 7.77755 17.9226 7.07072L9.38923 15.6041Z" fill="#EF7D00"/>
</svg>
