<svg width="24" height="24" viewBox="0 0 24 24" fill="none" xmlns="http://www.w3.org/2000/svg">
<path d="M14.7742 2.01791L14.1724 2.467V21.4521L14.6417 21.9214H16.7255L17.1948 21.4521V14.4912L18.1581 12.5849L18.2075 12.3738V6.6143C18.2038 5.58127 17.868 4.5768 17.2498 3.74916C16.6316 2.92152 15.7637 2.31457 14.7742 2.01791ZM17.2689 12.266L16.3056 14.1724L16.2562 14.3835V20.985H15.111V3.1541C15.7567 3.47335 16.3007 3.96624 16.6818 4.57745C17.063 5.18865 17.2663 5.89399 17.2689 6.6143V12.266Z" fill="#EF7D00"/>
<path d="M5.46929 2L5 2.46929V10.5528L5.09206 10.8313L6.48198 12.677V21.5307L6.95127 22H9.03278L9.50432 21.5307V12.6882L10.8853 10.9121L10.9841 10.6247V2.46929L10.5148 2H5.46929ZM10.0455 10.463L8.66229 12.2391L8.56349 12.5288V21.0614H7.42057V12.5288L7.33749 12.2459L5.94981 10.3934V2.93859H6.69305V9.96003H7.63164V2.93859H8.37487V9.96003H9.31346V2.93859H10.0567L10.0455 10.463Z" fill="#EF7D00"/>
</svg>
