<svg width="24" height="24" viewBox="0 0 24 24" fill="none" xmlns="http://www.w3.org/2000/svg">
<path fill-rule="evenodd" clip-rule="evenodd" d="M10.9555 1.5H13.077L13.5732 1.99615V3.48311C14.8775 3.72631 15.8788 4.2712 16.6038 5.00135C17.4046 5.80789 17.842 6.81371 17.9981 7.81746L18.0371 8.06834L17.8576 8.24787C17.8454 8.26005 17.8345 8.27349 17.8024 8.31627L17.7986 8.32138C17.7692 8.3606 17.7205 8.4256 17.6544 8.49176L17.5079 8.63821H15.2316L15.126 8.58542C14.9712 8.50803 14.8803 8.4169 14.8042 8.34059C14.8004 8.33674 14.7966 8.33292 14.7928 8.32915L14.7172 8.25353L14.6791 8.15359C14.5468 7.80626 14.3222 7.46376 13.9154 7.20195C13.5037 6.93703 12.8632 6.72763 11.8537 6.72763C11.0494 6.72763 10.4514 6.98553 10.0622 7.30513C9.65763 7.6373 9.50812 8.00525 9.50812 8.21951C9.50812 8.45234 9.54975 8.61961 9.62334 8.75496C9.69722 8.89086 9.82309 9.03089 10.0483 9.17759C10.5211 9.48556 11.3361 9.76485 12.7015 10.0909L12.7035 10.0914C14.999 10.6498 16.4515 11.3923 17.326 12.3296C18.2197 13.2876 18.4512 14.3848 18.4512 15.4959C18.4512 16.8098 18.0142 18.0093 17.1067 18.9226C16.2838 19.7507 15.109 20.3087 13.6138 20.5312V22.0039L13.1177 22.5H10.9961L10.7559 22.2598L10.7552 22.2591L10.7545 22.2584L10.7538 22.2576L10.7531 22.2569L10.7524 22.2562L10.5 22.0039V20.5236C9.0609 20.2838 7.94083 19.7286 7.11903 18.9479C6.21595 18.09 5.70516 16.9902 5.50705 15.8236L5.46381 15.5689L5.64644 15.3863C5.68957 15.3432 5.70613 15.3262 5.72197 15.3078C5.73561 15.2918 5.75396 15.2685 5.78722 15.2186L5.93565 14.9959H8.27249L8.37807 15.0487C8.53285 15.1261 8.62374 15.2172 8.69984 15.2935C8.70369 15.2974 8.70749 15.3012 8.71127 15.305L8.79908 15.3928L8.8356 15.5115C9.04522 16.1927 9.39242 16.6054 9.89429 16.8664C10.4232 17.1414 11.1707 17.2724 12.2195 17.2724C13.3272 17.2724 14.0249 17.014 14.4358 16.6822C14.8356 16.3593 15.0122 15.9289 15.0122 15.4553C15.0122 15.126 14.8931 14.7562 14.4217 14.3675C13.9276 13.96 13.0473 13.5358 11.5352 13.1776L11.5327 13.177C9.57586 12.7033 8.19618 12.1096 7.30456 11.2975C6.38333 10.4584 6.02844 9.42914 6.02844 8.21951C6.02844 6.98474 6.44643 5.85872 7.2892 4.99863C8.04694 4.22532 9.11778 3.6973 10.4593 3.47496V1.99615L10.6565 1.79897C10.6579 1.79755 10.657 1.79853 10.6565 1.79897L10.7769 1.67856C10.7763 1.67919 10.7761 1.67942 10.7778 1.67772L10.9555 1.5ZM11.4593 2.5V4.35807L11.0146 4.40749C9.63874 4.56036 8.6475 5.04123 8.00346 5.69851C7.36249 6.35265 7.02844 7.21852 7.02844 8.21951C7.02844 9.20502 7.30364 9.94403 7.97794 10.5582C8.68172 11.1992 9.86271 11.7437 11.767 12.2048C13.3435 12.5784 14.3938 13.0483 15.0579 13.5959C15.7451 14.1625 16.0122 14.8089 16.0122 15.4553C16.0122 16.2012 15.7213 16.9294 15.0642 17.4601C14.4181 17.9819 13.4695 18.2724 12.2195 18.2724C11.1139 18.2724 10.1744 18.1391 9.43293 17.7536C8.71953 17.3826 8.23194 16.8008 7.94315 15.9959H6.56174C6.76312 16.8482 7.16872 17.6158 7.80778 18.2229C8.5297 18.9087 9.58167 19.4203 11.058 19.5928L11.5 19.6445V21.5H12.6138V19.637L13.0641 19.5919C14.6051 19.4378 15.6955 18.924 16.3974 18.2177C17.0956 17.5151 17.4512 16.5804 17.4512 15.4959C17.4512 14.5339 17.2559 13.7205 16.5948 13.0118C15.9145 12.2826 14.6843 11.6025 12.4682 11.0633C11.1105 10.7391 10.1372 10.429 9.5025 10.0155C9.17384 9.80143 8.91607 9.54766 8.74478 9.2326C8.57319 8.91698 8.50812 8.57612 8.50812 8.21951C8.50812 7.62076 8.86674 6.99278 9.42762 6.53226C10.0038 6.05917 10.8286 5.72763 11.8537 5.72763C12.9986 5.72763 13.8418 5.96539 14.4566 6.36104C15.0114 6.71812 15.3457 7.18164 15.548 7.63821H16.9454C16.7805 6.93171 16.4409 6.25653 15.8942 5.70595C15.2651 5.07239 14.3353 4.57694 13.0094 4.40647L12.5732 4.35038V2.5H11.4593Z" fill="#EF7C00"/>
</svg>
