<svg width="24" height="24" viewBox="0 0 24 24" fill="none" xmlns="http://www.w3.org/2000/svg">
<path fill-rule="evenodd" clip-rule="evenodd" d="M6.60302 6.24561C7.22024 3.53206 9.62779 1.5 12.5226 1.5C15.863 1.5 18.5976 4.19569 18.5976 7.57491C18.5976 7.76515 18.5881 7.95521 18.5692 8.14503C20.7828 8.37941 22.5 10.2456 22.5 12.5227C22.5 13.7011 22.0288 14.8037 21.2386 15.594L20.885 15.7404H14.0557V14.7404H20.669C21.19 14.1499 21.5 13.3633 21.5 12.5227C21.5 10.6385 19.9817 9.12021 18.0976 9.12021H17.9934L17.5027 8.52215C17.5661 8.20537 17.5976 7.88977 17.5976 7.57491C17.5976 4.75204 15.3147 2.5 12.5226 2.5C9.98877 2.5 7.89275 4.36911 7.51146 6.8157L7.01742 7.23871H6.87846C4.46934 7.23871 2.5 9.17746 2.5 11.6168C2.5 12.8621 3.03556 13.9988 3.89939 14.8101H9.83972V15.8101H3.70732L3.37985 15.688C2.23218 14.6933 1.5 13.2345 1.5 11.6168C1.5 8.71397 3.77263 6.38788 6.60302 6.24561Z" fill="#EF7D00"/>
<path fill-rule="evenodd" clip-rule="evenodd" d="M12 20.4952L15.0281 17.4983L15.7315 18.209L12.3517 21.554H11.6483L8.26849 18.209L8.97193 17.4983L12 20.4952Z" fill="#EF7D00"/>
<path fill-rule="evenodd" clip-rule="evenodd" d="M12.4651 9.31708V15.2404H11.4651V9.31708H12.4651Z" fill="#EF7D00"/>
<path fill-rule="evenodd" clip-rule="evenodd" d="M12.4651 15.2404V20.9895H11.4651V15.2404H12.4651Z" fill="#EF7D00"/>
</svg>
