<svg width="24" height="24" viewBox="0 0 24 24" fill="none" xmlns="http://www.w3.org/2000/svg">
<path d="M22.2133 4.96478H20.2099L18.4095 3.43836L18.0793 3.31849H15.1267V2.51125L14.6155 2H3.55382L3.22114 2.12231L1.18102 3.85421L1 4.24315V6.83366L1.17857 7.2226L3.22114 8.96918L3.55382 9.09393H6.9002L5.29795 15.9677H3.36791L2.85665 16.479V21.4887L3.36791 22H13.8327L14.3439 21.4887V17.4525L13.9623 16.9633L10.2564 15.9848L10.1389 15.9677H9.82094L11.4232 9.09393H14.6155L15.1267 8.57534V7.63112H18.0793L18.4095 7.50881L20.2099 5.98728H22.2133V4.96478ZM13.319 17.8464V20.9775H3.87916V16.9902H10.0607L13.319 17.8464ZM8.7593 15.9677H6.34736L7.94961 9.09393H10.3591L8.7593 15.9677ZM14.1042 8.07143H3.74217L2.02984 6.60372V4.48043L3.74217 3.01272H14.1042V8.07143ZM17.8933 6.6184H15.1267V4.34589H17.8933L19.2314 5.47603L17.8933 6.6184Z" fill="#EF7D00"/>
</svg>
