<svg width="24" height="24" viewBox="0 0 24 24" fill="none" xmlns="http://www.w3.org/2000/svg">
<path fill-rule="evenodd" clip-rule="evenodd" d="M14.3143 3.78571C14.4485 3.78571 14.577 3.83965 14.6711 3.93541L16.9853 6.29255C17.1763 6.48705 17.1763 6.79865 16.9853 6.99314L7.7282 16.4217C7.63418 16.5175 7.50562 16.5714 7.37142 16.5714H5.05713C4.78099 16.5714 4.55713 16.3476 4.55713 16.0714V13.7143C4.55713 13.5833 4.60856 13.4575 4.70035 13.364L13.9575 3.93541C14.0515 3.83965 14.1801 3.78571 14.3143 3.78571ZM14.3143 4.99939L13.3189 6.01317L14.9325 7.65662L15.9279 6.64285L14.3143 4.99939ZM14.2318 8.37031L12.6182 6.72685L5.55713 13.9187V15.5714H7.16162L14.2318 8.37031ZM3.78571 18.4286C3.78571 18.1524 4.00956 17.9286 4.28571 17.9286H19.7143C19.9904 17.9286 20.2143 18.1524 20.2143 18.4286C20.2143 18.7047 19.9904 18.9286 19.7143 18.9286H4.28571C4.00956 18.9286 3.78571 18.7047 3.78571 18.4286Z" fill="#EF7D00"/>
</svg>
