<svg width="24" height="24" viewBox="0 0 24 24" fill="none" xmlns="http://www.w3.org/2000/svg">
<path fill-rule="evenodd" clip-rule="evenodd" d="M5.07141 6.57141C5.07141 5.74299 5.74298 5.07141 6.57141 5.07141H10.3928V6.07141H6.57141C6.29527 6.07141 6.07141 6.29527 6.07141 6.57141V9.42855H5.07141V6.57141ZM17.4286 6.07141H13.6071V5.07141H17.4286C18.257 5.07141 18.9286 5.74298 18.9286 6.57141V10.3928H17.9286V6.57141C17.9286 6.29527 17.7047 6.07141 17.4286 6.07141ZM6.07141 13.6071V17.4286C6.07141 17.7047 6.29527 17.9286 6.57141 17.9286H10.3928V18.9286H6.57141C5.74298 18.9286 5.07141 18.257 5.07141 17.4286V13.6071H6.07141ZM17.9286 17.4286V13.6071H18.9286V17.4286C18.9286 18.257 18.257 18.9286 17.4286 18.9286H13.6071V17.9286H17.4286C17.7047 17.9286 17.9286 17.7047 17.9286 17.4286Z" fill="#EF7D00"/>
</svg>
