<svg width="24" height="24" viewBox="0 0 24 24" fill="none" xmlns="http://www.w3.org/2000/svg">
<path d="M9.56402 12.825C9.53913 12.9173 9.49409 13.0029 9.43215 13.0757C9.37021 13.1484 9.2929 13.2066 9.20579 13.2459C9.15564 13.2683 9.10132 13.2799 9.04638 13.2799C8.99144 13.2799 8.93712 13.2683 8.88697 13.2459C8.72577 13.1599 8.70786 13.0901 8.75263 12.4094C8.80347 11.8603 8.80827 11.3079 8.76696 10.758C8.64517 9.27314 7.51316 8.0265 5.79903 7.50528L5.49274 8.18054C5.49274 8.18054 5.98531 8.5119 5.98531 9.33942C5.98531 10.1168 5.2581 10.8207 4.41805 11.6339C3.28425 12.7319 2 13.9767 2 15.8896C2 18.4187 3.99534 20.1633 5.87067 20.518L6.2289 19.9126C5.12018 18.5692 5.08436 17.2061 5.54289 16.0777C5.5611 16.417 5.65602 16.7477 5.82052 17.0449C6.08561 17.5106 6.5137 17.8115 6.90954 17.8115C7.57048 17.8115 8.00752 17.5447 8.28156 16.95C8.44826 17.4363 8.4822 17.9582 8.37987 18.462C8.27754 18.9658 8.04265 19.4331 7.69944 19.8158L8.11319 20.4123C8.95753 20.0897 9.69508 19.5379 10.2428 18.819C10.7906 18.1 11.1268 17.2425 11.2137 16.3428C11.3086 15.4472 11.3194 14.3493 10.2267 12.7408L9.56402 12.825ZM10.4686 16.264C10.3554 17.3544 9.82295 18.3582 8.98369 19.0636C9.41178 17.8259 9.1234 16.5201 8.43202 15.7678L7.7872 15.9577C7.59197 17.0664 7.2409 17.0664 6.90238 17.0664C6.80572 17.0373 6.71648 16.9876 6.64075 16.9209C6.56502 16.8541 6.50458 16.7718 6.46354 16.6795C6.30413 16.4001 6.01755 15.6156 6.77879 14.3313L6.20204 13.8656C4.16192 15.7464 4.21744 17.8671 5.0163 19.4397C3.87533 18.8468 2.73974 17.6306 2.73974 15.8861C2.73974 14.2902 3.85384 13.2119 4.93032 12.1694C5.85276 11.2739 6.72147 10.4302 6.72147 9.33583C6.72203 9.12587 6.69738 8.9166 6.64803 8.71251C7.44151 9.22836 7.93945 9.97706 8.00752 10.8153C8.04668 11.3265 8.04189 11.84 7.99319 12.3503C7.94483 13.0041 7.90184 13.5701 8.51978 13.9015C8.6647 13.9752 8.82363 14.0174 8.98605 14.0251C9.14847 14.0328 9.31067 14.0059 9.46193 13.9462C9.63023 13.881 9.78282 13.7809 9.90972 13.6525C10.3967 14.4304 10.5945 15.3549 10.4686 16.264Z" fill="#EF7D00"/>
<path d="M21.665 16.7154L21.2871 16.3768H21.194V10.4428C21.1927 9.35412 20.7826 8.30566 20.0448 7.50516C19.307 6.70466 18.2954 6.21054 17.2105 6.12072C17.1235 5.82551 16.9439 5.56612 16.698 5.38096C16.4522 5.19579 16.1533 5.09469 15.8456 5.0926C15.5568 5.09194 15.2748 5.18011 15.0378 5.34515L14.8981 5.25022L14.8193 5.20903L11.6615 4L11.3946 4.69855L14.513 5.89145L14.556 5.9219L14.5345 5.96668H11.434V6.71538H14.4413C14.4759 6.94662 14.5671 7.16574 14.7068 7.35323C14.8464 7.54073 15.0303 7.69079 15.242 7.79007C14.5565 7.93215 13.9408 8.30611 13.4988 8.84897C13.0567 9.39184 12.8152 10.0705 12.815 10.7705V20.063L13.1893 20.4374H18.5037L18.878 20.063V10.7705C18.8757 10.072 18.6333 9.39548 18.1914 8.85445C17.7495 8.31343 17.135 7.94079 16.451 7.79903C16.6386 7.70962 16.8044 7.58048 16.9371 7.42058C17.0698 7.26068 17.1661 7.07384 17.2194 6.873C18.103 6.96422 18.9215 7.37954 19.5169 8.03878C20.1123 8.69802 20.4424 9.55445 20.4435 10.4428V16.3768H20.345L19.9724 16.7136L19.6428 20.0272L20.0154 20.4392H21.6274L22 20.0254L21.665 16.7154ZM18.1347 19.6887H13.5637V11.487H18.1293L18.1347 19.6887ZM18.1347 10.7329H13.5655C13.5821 10.139 13.8297 9.57504 14.2557 9.16085C14.6816 8.74665 15.2524 8.51493 15.8465 8.51493C16.4406 8.51493 17.0113 8.74665 17.4373 9.16085C17.8633 9.57504 18.1109 10.139 18.1275 10.7329H18.1347ZM15.8456 7.18645C15.7128 7.18645 15.5829 7.14706 15.4724 7.07325C15.362 6.99945 15.2759 6.89455 15.225 6.77181C15.1742 6.64908 15.1609 6.51403 15.1868 6.38373C15.2127 6.25344 15.2767 6.13376 15.3706 6.03982C15.4646 5.94589 15.5843 5.88191 15.7146 5.856C15.8449 5.83008 15.9799 5.84338 16.1026 5.89422C16.2254 5.94506 16.3303 6.03115 16.4041 6.14161C16.4779 6.25206 16.5173 6.38193 16.5173 6.51477C16.5173 6.69291 16.4465 6.86376 16.3205 6.98972C16.1946 7.11569 16.0237 7.18645 15.8456 7.18645ZM20.4309 19.6905L20.6853 17.1273H20.9486L21.2083 19.6905H20.4309Z" fill="#EF7D00"/>
</svg>
