<svg width="24" height="24" viewBox="0 0 24 24" fill="none" xmlns="http://www.w3.org/2000/svg">
<path fill-rule="evenodd" clip-rule="evenodd" d="M4.84324 8.73462C6.17486 11.3344 8.88027 13.1121 12 13.1121C15.1196 13.1121 17.825 11.3344 19.1567 8.73463C17.825 6.13487 15.1196 4.35712 12 4.35712C8.88027 4.35712 6.17486 6.13487 4.84324 8.73462ZM3.8341 8.52008C5.28372 5.46855 8.39476 3.35712 12 3.35712C15.6051 3.35712 18.7162 5.46856 20.1658 8.52008L20.2677 8.73463L20.1658 8.94917C18.7162 12.0007 15.6051 14.1121 12 14.1121C8.39476 14.1121 5.28372 12.0007 3.8341 8.94917L3.73218 8.73462L3.8341 8.52008Z" fill="#EF7D00"/>
<path fill-rule="evenodd" clip-rule="evenodd" d="M12 6.66241C10.856 6.66241 9.92859 7.58982 9.92859 8.73384C9.92859 9.87786 10.856 10.8053 12 10.8053C13.144 10.8053 14.0714 9.87786 14.0714 8.73384C14.0714 7.58982 13.144 6.66241 12 6.66241ZM8.92859 8.73384C8.92859 7.03754 10.3037 5.66241 12 5.66241C13.6963 5.66241 15.0714 7.03754 15.0714 8.73384C15.0714 10.4301 13.6963 11.8053 12 11.8053C10.3037 11.8053 8.92859 10.4301 8.92859 8.73384Z" fill="#EF7D00"/>
</svg>
