<svg width="24" height="24" viewBox="0 0 24 24" fill="none" xmlns="http://www.w3.org/2000/svg">
<path fill-rule="evenodd" clip-rule="evenodd" d="M5.76514 6.63744C5.84904 6.46589 6.02333 6.35712 6.2143 6.35712H17.7857C17.9767 6.35712 18.151 6.46589 18.2349 6.63744C18.3188 6.80899 18.2976 7.01335 18.1804 7.16409L13.7857 12.8144V17.7857C13.7857 17.9751 13.6787 18.1482 13.5093 18.2329L10.9379 19.5186C10.7829 19.5961 10.5988 19.5878 10.4514 19.4967C10.304 19.4056 10.2143 19.2447 10.2143 19.0714V12.8144L5.81962 7.16409C5.70238 7.01335 5.68124 6.80899 5.76514 6.63744ZM7.23662 7.35712L11.109 12.3359C11.1772 12.4236 11.2143 12.5316 11.2143 12.6428V18.2624L12.7857 17.4767V12.6428C12.7857 12.5316 12.8228 12.4236 12.8911 12.3359L16.7634 7.35712H7.23662Z" fill="#EF7D00"/>
</svg>
