<svg width="24" height="24" viewBox="0 0 24 24" fill="none" xmlns="http://www.w3.org/2000/svg">
<path d="M19.0136 7.59097V7.61048V7.59984C19.0144 7.59849 19.0148 7.59696 19.0148 7.59541C19.0148 7.59385 19.0144 7.59232 19.0136 7.59097Z" fill="#EF7D00"/>
<path d="M19.7638 7.59986C19.7631 7.45164 19.7185 7.30696 19.6357 7.18406C19.5528 7.06116 19.4354 6.96557 19.2983 6.90933C19.1611 6.8531 19.0104 6.83875 18.8651 6.86809C18.7199 6.89743 18.5865 6.96916 18.482 7.07421C18.3774 7.17926 18.3063 7.31293 18.2776 7.45835C18.249 7.60377 18.264 7.75442 18.3209 7.89129C18.3778 8.02816 18.474 8.14511 18.5972 8.22738C18.7205 8.30966 18.8654 8.35356 19.0136 8.35357C19.1124 8.35333 19.2101 8.33365 19.3013 8.29565C19.3924 8.25765 19.4752 8.20206 19.5448 8.13208C19.6145 8.06209 19.6697 7.97906 19.7073 7.88775C19.7448 7.79643 19.764 7.6986 19.7638 7.59986ZM19.0136 7.59986V7.6105V7.59986Z" fill="#EF7D00"/>
<path d="M21.6294 5.17557H12.8083L12.4377 5.54621V10.4675H13.179V5.91863H21.2587V10.4302H20.2142L18.9249 8.92991L18.6447 8.80045H15.5837L15.2645 8.9778L14.3654 10.5065L15.0038 10.8825L15.7948 9.54175H17.3377L16.1991 11.4766L16.153 11.6042L15.7735 13.9576H13.4326V14.6989H16.0927L16.4545 14.3832L16.8393 12.0068L16.9156 12.0529L19.0206 16.3872L19.6875 16.0626L17.6587 11.888L18.8096 9.93722L19.7619 11.0474L20.0421 11.1751H21.2587V17.7102H12.8083V18.4514H21.6294L22 18.0808V5.54621L21.6294 5.17557Z" fill="#EF7D00"/>
<path d="M8.86078 9.14273C8.01663 8.3234 7.28598 7.61758 7.28598 6.83727C7.28598 6.00908 7.76658 5.67922 7.78431 5.66858L7.47928 5C5.76615 5.52139 4.62584 6.77343 4.50524 8.26133C4.46302 8.81284 4.46717 9.36691 4.51766 9.91772C4.56909 10.604 4.54426 10.675 4.3811 10.7619C4.33003 10.7846 4.27474 10.7964 4.21883 10.7964C4.16293 10.7964 4.10764 10.7846 4.05657 10.7619C3.96676 10.7226 3.88679 10.6639 3.82239 10.59C3.758 10.5161 3.71078 10.4288 3.68415 10.3345L3.02798 10.2529C1.93377 11.8685 1.94441 12.9645 2.04018 13.8671C2.12825 14.7697 2.4666 15.6298 3.01712 16.3504C3.56764 17.0711 4.30844 17.6237 5.15609 17.946L5.56575 17.3555C5.21916 16.969 4.98242 16.4967 4.88013 15.9877C4.77783 15.4787 4.81372 14.9516 4.98407 14.4612C5.25718 15.066 5.69344 15.3338 6.36202 15.3338C6.7575 15.3338 7.18489 15.0341 7.45091 14.5676C7.6189 14.2636 7.71477 13.925 7.73111 13.5781C8.19929 14.7148 8.16915 16.0946 7.05011 17.453L7.4048 18.0524C9.2864 17.6942 11.2904 15.9456 11.2904 13.4096C11.2904 11.4907 9.99755 10.2423 8.86078 9.14273ZM8.24186 16.9795C9.05231 15.4012 9.11261 13.2677 7.06075 11.3755L6.48971 11.8383C7.25406 13.1294 6.96676 13.9186 6.80715 14.1988C6.76476 14.2918 6.70319 14.3748 6.62648 14.4423C6.54976 14.5099 6.45964 14.5604 6.36202 14.5907C6.03571 14.5907 5.66506 14.5907 5.47531 13.4734L4.83687 13.2855C4.14169 14.0427 3.85262 15.3604 4.28888 16.6053C3.43646 15.9002 2.89407 14.8893 2.77792 13.7891C2.70167 13.0797 2.68925 12.2941 3.33833 11.1591C3.46564 11.2901 3.61996 11.3918 3.79055 11.4571C3.94116 11.5165 4.10266 11.5433 4.26438 11.5356C4.42611 11.528 4.58437 11.4861 4.72869 11.4127C5.34585 11.0829 5.30329 10.5154 5.26072 9.86097C5.21256 9.34858 5.20781 8.83304 5.24654 8.31986C5.31747 7.47216 5.82113 6.72377 6.62449 6.19174C6.57322 6.40006 6.54761 6.61387 6.54823 6.8284C6.54823 7.92438 7.42253 8.77918 8.34826 9.66589C9.43005 10.714 10.5473 11.794 10.5473 13.4007C10.5438 15.1688 9.39281 16.3961 8.24186 16.9795Z" fill="#EF7D00"/>
</svg>
