<svg width="24" height="24" viewBox="0 0 24 24" fill="none" xmlns="http://www.w3.org/2000/svg">
<path d="M17.7292 8.54385C17.7292 8.41462 17.6909 8.28829 17.6191 8.18084C17.5473 8.07338 17.4453 7.98963 17.3259 7.94018C17.2065 7.89072 17.0751 7.87779 16.9484 7.903C16.8216 7.92821 16.7052 7.99044 16.6138 8.08182C16.5224 8.1732 16.4602 8.28963 16.435 8.41638C16.4098 8.54313 16.4227 8.67451 16.4722 8.7939C16.5216 8.91329 16.6054 9.01534 16.7128 9.08714C16.8203 9.15894 16.9466 9.19726 17.0758 9.19726C17.249 9.19684 17.415 9.12787 17.5374 9.00542C17.6599 8.88297 17.7288 8.71702 17.7292 8.54385ZM17.3994 8.54385H17.0837H17.3994Z" fill="#EF7D00"/>
<path d="M12.6977 7.31597H18.7299V10.643H18.0086L17.0458 9.52083L16.7949 9.40562H14.4732L14.1892 9.56818L13.5073 10.7282L14.0755 11.0628L14.6611 10.0653H15.6743L14.871 11.4321L14.8299 11.5458L14.5474 13.2914H12.8129V13.9511H14.8284L15.1535 13.6733L15.4707 11.7162L15.4613 11.9593L17.0679 15.261L17.6614 14.9722L16.132 11.8299L16.9559 10.4299L17.6061 11.1875L17.8571 11.3027H18.7299V16.1638H12.3662V16.8235H19.0597L19.3896 16.4937V6.98611L19.0597 6.65625H12.3662L12.0364 6.98611V10.7187H12.6977V7.31597Z" fill="#EF7D00"/>
<path d="M6.54393 16.4369L6.90852 15.9113C6.66327 15.6394 6.49115 15.3096 6.40833 14.9529C6.32551 14.5962 6.3347 14.2243 6.43503 13.8722C6.53118 14.061 6.68076 14.2173 6.86515 14.3217C7.04954 14.4262 7.26058 14.474 7.47197 14.4593C7.78762 14.4593 8.13011 14.221 8.34002 13.8532C8.44501 13.6635 8.51353 13.4558 8.54204 13.2408C8.89873 14.2699 8.54204 15.2689 7.95492 15.9871L8.27058 16.5205C9.7226 16.2491 11.2614 14.9028 11.2614 12.952C11.2614 11.4747 10.275 10.5215 9.40536 9.67866C8.77405 9.06471 8.22638 8.53598 8.22638 7.96307C8.22638 7.36332 8.57045 7.125 8.57992 7.11869L8.30846 6.52209C6.99059 6.92456 6.11148 7.88889 6.01836 9.04735C5.98692 9.46777 5.99009 9.89007 6.02783 10.31C6.06729 10.8213 6.0452 10.8529 5.9505 10.905C5.91786 10.9191 5.88268 10.9264 5.84712 10.9264C5.81156 10.9264 5.77638 10.9191 5.74374 10.905C5.68235 10.8774 5.62777 10.8367 5.58386 10.7857C5.53995 10.7347 5.50778 10.6747 5.48964 10.6098L4.90725 10.5357C4.06603 11.7683 4.07392 12.619 4.1481 13.304C4.21634 13.9974 4.47674 14.658 4.90001 15.2115C5.32327 15.765 5.8926 16.1894 6.54393 16.4369ZM5.19292 11.3232C5.2858 11.4058 5.3927 11.471 5.50858 11.5158C5.63003 11.5634 5.76017 11.5848 5.89046 11.5785C6.02075 11.5722 6.14825 11.5385 6.26458 11.4795C6.76016 11.2128 6.72701 10.7693 6.68756 10.2547C6.6516 9.86849 6.64843 9.4799 6.67809 9.09312C6.7108 8.78941 6.81061 8.49678 6.97029 8.23637C7.12997 7.97597 7.34554 7.75431 7.60138 7.58744C7.57848 7.71132 7.56738 7.83709 7.56824 7.96307C7.56824 8.81534 8.23901 9.46559 8.94766 10.1521C9.76205 10.9413 10.6017 11.7541 10.6017 12.952C10.6017 14.1989 9.82834 15.0874 9.01395 15.5467C9.5695 14.3551 9.55846 12.7768 8.03857 11.3722L7.53194 11.7841C8.0875 12.7311 7.89179 13.3008 7.78131 13.506C7.753 13.573 7.71141 13.6335 7.65906 13.684C7.6067 13.7344 7.54467 13.7737 7.4767 13.7996C7.23522 13.7996 6.98743 13.7996 6.84539 12.9915L6.2772 12.8242C5.769 13.3782 5.54172 14.3157 5.80372 15.2279C5.24163 14.7054 4.8869 13.9976 4.80466 13.2345C4.71054 12.5717 4.84765 11.8968 5.19292 11.3232Z" fill="#EF7D00"/>
<path d="M21.6701 4H2.32986L2 4.32986V19.0079L2.32986 19.3378H21.6701L22 19.0079V4.32986L21.6701 4ZM21.3403 18.678H2.65972V4.65972H21.3403V18.678Z" fill="#EF7D00"/>
</svg>
