<svg width="24" height="24" viewBox="0 0 24 24" fill="none" xmlns="http://www.w3.org/2000/svg">
<path d="M12.2377 2C10.2261 2.00888 8.2865 2.75034 6.78191 4.08569C5.27731 5.42104 4.31074 7.2588 4.063 9.25519C3.81526 11.2516 4.30333 13.2699 5.4359 14.9325C6.56847 16.5951 8.26796 17.7881 10.2165 18.2884V21.5059L10.7106 22H13.7649L14.259 21.5059V18.2884C16.2075 17.7881 17.907 16.5951 19.0396 14.9325C20.1722 13.2699 20.6602 11.2516 20.4125 9.25519C20.1647 7.2588 19.1982 5.42104 17.6936 4.08569C16.189 2.75034 14.2494 2.00888 12.2377 2ZM13.2708 21.0118H11.2046V18.4728C11.8905 18.5611 12.5849 18.5611 13.2708 18.4728V21.0118ZM17.7153 15.0591L16.1952 13.539L15.8453 13.8913L15.4954 14.2411L17.0155 15.7589C15.9946 16.6507 14.7447 17.2395 13.4069 17.4587C12.0692 17.6778 10.6967 17.5187 9.4446 16.9992C8.19247 16.4797 7.11048 15.6206 6.32076 14.5187C5.53103 13.4169 5.06503 12.1162 4.97533 10.7636H7.12427V9.77541H4.97533C5.08325 8.18661 5.71039 6.67733 6.7602 5.4799L8.2803 7L8.98952 6.29078L7.46942 4.77305C8.66464 3.73735 10.1655 3.12055 11.7437 3.01655V5.16548H12.7318V3.01655C14.3155 3.12383 15.8203 3.74751 17.0155 4.79196L15.4954 6.30969L15.8453 6.65957L16.1952 7.00946L17.7153 5.48936C18.7651 6.68678 19.3922 8.19607 19.5001 9.78487H17.3512V10.773H19.5001C19.3902 12.3585 18.7632 13.8642 17.7153 15.0591Z" fill="#EF7D00"/>
<path d="M12.2378 8.24819C11.8802 8.24725 11.5288 8.3414 11.2196 8.521C10.9104 8.70059 10.6546 8.95917 10.4782 9.27024C10.3019 9.5813 10.2114 9.93365 10.2161 10.2912C10.2208 10.6487 10.3205 10.9986 10.5049 11.3049L8.21887 13.6004L8.56875 13.9503L8.91864 14.3002L11.2023 12C11.4695 12.1612 11.7704 12.2584 12.0814 12.2839C12.3925 12.3095 12.7052 12.2626 12.9951 12.1471C13.285 12.0316 13.5442 11.8505 13.7524 11.618C13.9606 11.3855 14.1122 11.108 14.1952 10.8072C14.2782 10.5064 14.2905 10.1904 14.231 9.88405C14.1715 9.5777 14.0418 9.28928 13.8522 9.04141C13.6626 8.79353 13.4182 8.59293 13.1381 8.45531C12.858 8.31769 12.5499 8.2468 12.2378 8.24819ZM12.2378 11.3026C12.0335 11.3026 11.8337 11.242 11.6638 11.1284C11.4939 11.0149 11.3615 10.8536 11.2833 10.6648C11.2051 10.476 11.1847 10.2683 11.2245 10.0679C11.2644 9.86751 11.3628 9.68343 11.5073 9.53895C11.6518 9.39447 11.8358 9.29608 12.0362 9.25622C12.2366 9.21635 12.4444 9.23681 12.6331 9.31501C12.8219 9.3932 12.9833 9.52561 13.0968 9.6955C13.2103 9.8654 13.2709 10.0651 13.2709 10.2695C13.2709 10.4051 13.2442 10.5395 13.1922 10.6648C13.1403 10.7901 13.0642 10.904 12.9683 11C12.8724 11.0959 12.7585 11.172 12.6331 11.2239C12.5078 11.2758 12.3735 11.3026 12.2378 11.3026Z" fill="#EF7D00"/>
</svg>
