<svg width="24" height="24" viewBox="0 0 24 24" fill="none" xmlns="http://www.w3.org/2000/svg">
<path d="M12 2C10.0222 2 8.08879 2.58649 6.4443 3.6853C4.79981 4.78412 3.51808 6.3459 2.76121 8.17316C2.00433 10.0004 1.8063 12.0111 2.19215 13.9509C2.578 15.8907 3.53041 17.6725 4.92893 19.0711C6.32746 20.4696 8.10929 21.422 10.0491 21.8078C11.9889 22.1937 13.9996 21.9957 15.8268 21.2388C17.6541 20.4819 19.2159 19.2002 20.3147 17.5557C21.4135 15.9112 22 13.9778 22 12C21.997 9.34875 20.9425 6.80695 19.0678 4.93224C17.193 3.05753 14.6512 2.003 12 2ZM12 21.0539C10.2093 21.0539 8.45884 20.5229 6.96994 19.528C5.48104 18.5332 4.32058 17.1191 3.63532 15.4648C2.95005 13.8104 2.77076 11.99 3.1201 10.2337C3.46945 8.4774 4.33174 6.86415 5.59795 5.59795C6.86416 4.33174 8.4774 3.46944 10.2337 3.1201C11.99 2.77075 13.8104 2.95005 15.4648 3.63531C17.1191 4.32058 18.5332 5.48104 19.528 6.96994C20.5229 8.45884 21.0539 10.2093 21.0539 12C21.0539 13.189 20.8197 14.3663 20.3647 15.4648C19.9097 16.5632 19.2428 17.5613 18.402 18.402C17.5613 19.2428 16.5632 19.9097 15.4648 20.3647C14.3663 20.8197 13.189 21.0539 12 21.0539Z" fill="#EF7D00"/>
<path d="M11.7545 4.24533C10.5415 4.24677 9.34569 4.53242 8.263 5.07936C7.18032 5.62631 6.24085 6.41934 5.51994 7.39486C4.79902 8.37039 4.31672 9.50126 4.1117 10.6968C3.90668 11.8924 3.98465 13.1193 4.33935 14.2793L4.79205 14.6143H18.7169L19.1696 14.2793C19.5243 13.1193 19.6023 11.8924 19.3972 10.6968C19.1922 9.50126 18.7099 8.37039 17.989 7.39486C17.2681 6.41934 16.3286 5.62631 15.2459 5.07936C14.1633 4.53242 12.9675 4.24677 11.7545 4.24533ZM12.8862 13.6681H10.6227C10.7239 13.4509 10.885 13.2671 11.0871 13.1383C11.2892 13.0095 11.5239 12.9411 11.7635 12.9411C12.0032 12.9411 12.2378 13.0095 12.4399 13.1383C12.642 13.2671 12.8031 13.4509 12.9043 13.6681H12.8862ZM12.8183 12.2738L13.7622 9.60975L12.8862 9.29513L11.9174 12C11.8631 12 11.8088 12 11.7545 12C11.2626 12.0009 10.7851 12.1659 10.3976 12.4689C10.0102 12.7719 9.73493 13.1955 9.61549 13.6727H8.08086C7.80234 13.0583 7.68234 12.3839 7.73185 11.7112C7.78137 11.0384 7.99881 10.3888 8.36429 9.82187C8.72976 9.2549 9.2316 8.78865 9.82386 8.46577C10.4161 8.1429 11.0799 7.97372 11.7545 7.97372C12.429 7.97372 13.0928 8.1429 13.6851 8.46577C14.2773 8.78865 14.7792 9.2549 15.1447 9.82187C15.5101 10.3888 15.7276 11.0384 15.7771 11.7112C15.8266 12.3839 15.7066 13.0583 15.4281 13.6727H13.8934C13.8205 13.3791 13.6883 13.1036 13.505 12.8631C13.3216 12.6225 13.091 12.422 12.8274 12.2738H12.8183ZM6.86538 11.0493L5.05461 10.7551C5.1981 9.98187 5.47538 9.23965 5.87398 8.56176L7.38598 9.59843C7.13741 10.0518 6.96173 10.5414 6.86538 11.0493ZM12.2275 7.04298V5.20957C13.0084 5.26093 13.7743 5.44782 14.491 5.76185L13.6603 7.39381C13.2028 7.20639 12.7199 7.08814 12.2275 7.04298ZM11.2814 7.04298C10.7929 7.08925 10.3139 7.20747 9.85995 7.39381L9.03831 5.76185C9.74867 5.4501 10.5075 5.26326 11.2814 5.20957V7.04298ZM16.1162 9.59843L17.6395 8.56176C18.0381 9.23965 18.3154 9.98187 18.4589 10.7551L16.6481 11.0493C16.5472 10.541 16.3677 10.0515 16.1162 9.59843ZM17.0917 7.78766L15.582 8.82432C15.2661 8.44562 14.8962 8.1154 14.4842 7.84424L15.3194 6.20776C15.9974 6.62483 16.5972 7.15722 17.0917 7.78087V7.78766ZM8.18951 6.20323L9.02473 7.83972C8.61228 8.11024 8.24232 8.44054 7.92695 8.8198L6.41495 7.78313C6.91012 7.15671 7.51062 6.62132 8.18951 6.20097V6.20323ZM4.94596 12C4.94596 11.8981 4.94596 11.7985 4.94596 11.6967L6.77484 12C6.7765 12.5684 6.87446 13.1324 7.06457 13.6681H5.15194C5.01418 13.1228 4.94499 12.5624 4.94596 12ZM18.357 13.6681H16.4466C16.636 13.1323 16.7332 12.5683 16.7341 12L18.5449 11.7035C18.5449 11.8053 18.5449 11.9049 18.5449 12.0068C18.5512 12.5662 18.4881 13.1243 18.357 13.6681Z" fill="#EF7D00"/>
</svg>
