<svg width="24" height="24" viewBox="0 0 24 24" fill="none" xmlns="http://www.w3.org/2000/svg">
<path d="M16.2703 16.1454H16.0044L15.4946 15.6356H13.9285V14.1598C15.3749 13.7656 16.6291 12.8598 17.4581 11.6107C18.287 10.3615 18.6343 8.8539 18.4355 7.36796C18.2367 5.88202 17.5052 4.51877 16.377 3.53148C15.2488 2.5442 13.8006 2 12.3014 2C10.8022 2 9.35402 2.5442 8.22582 3.53148C7.09763 4.51877 6.36617 5.88202 6.16734 7.36796C5.96851 8.8539 6.31582 10.3615 7.14476 11.6107C7.9737 12.8598 9.2279 13.7656 10.6743 14.1598V15.6429H9.10825L8.59841 16.1454H8.33252C6.91884 16.1474 5.56362 16.7098 4.564 17.7094C3.56438 18.7091 3.00194 20.0643 3 21.478L3.51959 22H6.91279L7.42263 21.4877C7.42327 21.2466 7.51934 21.0155 7.68984 20.845C7.86034 20.6745 8.0914 20.5785 8.33252 20.5778H8.59841V20.6047L9.10825 21.1145H15.4946L16.0044 20.6047V20.5778H16.2703C16.511 20.5785 16.7417 20.6742 16.9121 20.8442C17.0826 21.0142 17.1789 21.2446 17.1802 21.4853L17.69 21.9976H21.1052L21.615 21.4853C21.615 20.7836 21.4768 20.0889 21.2081 19.4407C20.9394 18.7925 20.5457 18.2036 20.0493 17.7077C19.5529 17.2118 18.9637 16.8186 18.3153 16.5505C17.6669 16.2825 16.972 16.1448 16.2703 16.1454ZM8.59841 19.5606H8.33252C7.90966 19.561 7.4986 19.7 7.16238 19.9565C6.82617 20.2129 6.58338 20.5726 6.47126 20.9803H4.04894C4.17416 19.9318 4.6791 18.9654 5.46835 18.2638C6.25761 17.5622 7.2765 17.1739 8.33252 17.1724H8.59841V19.5606ZM9.04726 12.2058L9.97423 11.2667L9.24241 10.5348L8.313 11.4642C7.65455 10.6743 7.2491 9.70444 7.14941 8.6809H8.55694V7.6783H7.15917C7.25955 6.66199 7.65943 5.69837 8.30813 4.90959L9.30584 5.89998L9.66687 5.53895L10.0279 5.17792L9.03263 4.19241C9.95954 3.43282 11.1221 3.01976 12.3204 3.02421C13.5188 3.02866 14.6782 3.45034 15.5995 4.2168L14.6237 5.19256L15.3555 5.92438L16.3313 4.94862C16.9681 5.73018 17.3601 6.68227 17.4583 7.68562H16.0361V8.70773H17.4437C17.3389 9.74032 16.9248 10.7172 16.2557 11.5106L15.297 10.5519L14.5652 11.2837L15.5141 12.2327C14.7365 12.8572 13.794 13.242 12.8015 13.3401V11.9985H11.7916V13.3255C10.7863 13.2279 9.83196 12.8368 9.04726 12.2009V12.2058ZM11.6964 14.3525C11.894 14.372 12.0965 14.3842 12.3014 14.3842C12.5063 14.3842 12.7088 14.372 12.9064 14.3525V15.6478H11.6867L11.6964 14.3525ZM14.9848 20.0924H9.61808V16.6626H14.9848V20.0924ZM18.1316 20.9755C18.0186 20.5686 17.7754 20.21 17.4392 19.9545C17.1031 19.699 16.6925 19.5607 16.2703 19.5606H16.0044V17.1724H16.2703C17.3256 17.1738 18.3439 17.5613 19.133 18.2619C19.9222 18.9625 20.4276 19.9278 20.5539 20.9755H18.1316Z" fill="#EF7D00"/>
<path d="M13.9285 8.19053C13.9283 7.84837 13.8202 7.51497 13.6196 7.23776C13.419 6.96054 13.1362 6.75361 12.8112 6.6464V4.38751H11.7916V6.6464C11.5078 6.74069 11.2555 6.9115 11.0625 7.14C10.8696 7.36849 10.7435 7.64581 10.698 7.9414C10.6526 8.23699 10.6897 8.53939 10.8051 8.81527C10.9206 9.09116 11.1099 9.32982 11.3523 9.50498C11.5947 9.68014 11.8807 9.78499 12.1789 9.80799C12.4771 9.83098 12.7758 9.77123 13.0422 9.63531C13.3086 9.49939 13.5323 9.29258 13.6887 9.03765C13.8451 8.78273 13.928 8.4896 13.9285 8.19053ZM11.6964 8.19053C11.6964 8.07088 11.7319 7.95392 11.7984 7.85443C11.8649 7.75494 11.9593 7.6774 12.0699 7.63161C12.1804 7.58583 12.3021 7.57385 12.4194 7.59719C12.5368 7.62053 12.6446 7.67815 12.7292 7.76276C12.8138 7.84736 12.8714 7.95516 12.8947 8.07251C12.9181 8.18986 12.9061 8.3115 12.8603 8.42205C12.8145 8.53259 12.737 8.62707 12.6375 8.69355C12.538 8.76003 12.421 8.79551 12.3014 8.79551C12.1411 8.79486 11.9876 8.73092 11.8743 8.6176C11.761 8.50429 11.6971 8.35079 11.6964 8.19053Z" fill="#EF7D00"/>
</svg>
