<svg width="24" height="24" viewBox="0 0 24 24" fill="none" xmlns="http://www.w3.org/2000/svg">
<path d="M12.3063 2H8.375L7.98125 2.24792L7.575 3.08125H7.19584L6.81667 2.24792L6.42084 2H4.43958L4 2.4375V6.93125L4.43958 7.36667H6.425L6.80625 7.13958L7.35625 6.14167H7.56459L8.00417 7.11042L8.39792 7.36667H9.28334V10.6896C9.08157 10.8294 8.91692 11.0163 8.80366 11.2342C8.6904 11.452 8.63194 11.6941 8.63334 11.9396V21.5625L9.075 22H12.1479L12.5833 21.5646V11.9292C12.5832 11.6943 12.5281 11.4627 12.4225 11.2529C12.3168 11.0431 12.1636 10.8609 11.975 10.7208V7.36667H12.7208L13.1271 7.08958L13.7729 5.44792C15.1643 5.51317 16.4747 6.12125 17.4229 7.14167L17.9813 7.20833L18.8833 6.65417L19.0542 6.10625C17.8542 3.41458 14.7542 2 12.3063 2ZM11.7146 21.125H9.51042V11.9292C9.51097 11.7597 9.57853 11.5973 9.69836 11.4775C9.81818 11.3577 9.98055 11.2901 10.15 11.2896H11.0771C11.2464 11.2901 11.4085 11.3578 11.528 11.4776C11.6475 11.5975 11.7146 11.7599 11.7146 11.9292V21.125ZM11.1063 10.4208H10.1604V7.36667H11.1063V10.4208ZM17.8104 6.29167C16.6463 5.17634 15.0934 4.55835 13.4813 4.56875L13.0771 4.84583L12.4271 6.49583H8.67709L8.23959 5.525L7.85 5.27083H7.09167L6.71042 5.49583L6.1625 6.49583H4.87292V2.87292H6.14167L6.52084 3.70625L6.91667 3.95833H7.85L8.24167 3.71458L8.65834 2.88125H12.3063C14.3646 2.88125 16.9396 3.99583 18.0813 6.13333L17.8104 6.29167Z" fill="#EF7D00"/>
</svg>
