<svg width="24" height="24" viewBox="0 0 24 24" fill="none" xmlns="http://www.w3.org/2000/svg">
<path fill-rule="evenodd" clip-rule="evenodd" d="M5.07987 6.17367C5.83679 5.46544 6.83462 5.07141 7.87121 5.07141H8.02231C9.15599 5.07141 10.2473 5.50235 11.0751 6.27691L12 7.14231L12.9249 6.27691C13.7527 5.50235 14.844 5.07141 15.9777 5.07141H16.1288C17.1654 5.07141 18.1632 5.46544 18.9201 6.17367C19.7457 6.94617 20.2143 8.02626 20.2143 9.15691V9.406C20.2143 10.6956 19.6799 11.9274 18.7382 12.8085L12.3416 18.7937C12.1494 18.9735 11.8506 18.9735 11.6584 18.7937L5.26175 12.8085C4.32011 11.9274 3.78571 10.6956 3.78571 9.406V9.15691C3.78571 8.02626 4.25426 6.94617 5.07987 6.17367ZM7.87121 6.07141C7.08834 6.07141 6.33475 6.36899 5.7631 6.90387C5.13958 7.48729 4.78571 8.30301 4.78571 9.15691V9.406C4.78571 10.4188 5.20543 11.3863 5.94498 12.0783L12 17.7438L18.055 12.0783C18.7946 11.3863 19.2143 10.4188 19.2143 9.406V9.15691C19.2143 8.30301 18.8604 7.48729 18.2369 6.90387C17.6652 6.36899 16.9116 6.07141 16.1288 6.07141H15.9777C15.0977 6.07141 14.2507 6.4059 13.6081 7.00711L12.3416 8.19215C12.1494 8.37202 11.8506 8.37202 11.6584 8.19215L10.3919 7.00711C9.74932 6.4059 8.90227 6.07141 8.02231 6.07141H7.87121Z" fill="#EF7D00"/>
</svg>
