<svg width="24" height="24" viewBox="0 0 24 24" fill="none" xmlns="http://www.w3.org/2000/svg">
<path fill-rule="evenodd" clip-rule="evenodd" d="M20.652 9.77423C19.829 6.41562 17.1517 3.83959 13.7765 3.16455L13.5804 4.14513C16.6907 4.7672 19.137 7.21154 19.76 10.371L20.2506 10.7742H21.5V12.9421H18.1702V13.9421H22L22.5 13.4421V10.2742L22 9.77423H20.652Z" fill="#EF7C00"/>
<path fill-rule="evenodd" clip-rule="evenodd" d="M3.3914 9.72702C4.17815 6.40578 6.90114 3.79126 10.2707 3.11734L10.4669 4.09792C7.35412 4.72047 4.86499 7.21296 4.28828 10.3183L3.79669 10.727H2.5V12.8948H14.8132V13.8948H2L1.5 13.3948V10.227L2 9.72702H3.3914Z" fill="#EF7C00"/>
<path fill-rule="evenodd" clip-rule="evenodd" d="M9.8688 2L10.3688 1.5H13.6785L14.1785 2V9.5178H13.1785V2.5H10.8688V9.5178H9.8688V2Z" fill="#EF7C00"/>
<path d="M16.7518 12.4964L17.8393 13.5839L10.9835 20.4397L7.3428 16.7991L8.43027 15.7116L11.0307 18.3121L16.7518 12.4964ZM17.7447 11.5036H15.7589L10.9835 16.2789L9.3759 14.6714H7.39008L6.30261 15.7589V17.7447L9.94327 21.3854H9.99056H10.9362H11.9291H11.9764L18.8322 14.5296V12.5438L17.7447 11.5036Z" fill="#EF7C00"/>
</svg>
