<svg width="24" height="24" viewBox="0 0 24 24" fill="none" xmlns="http://www.w3.org/2000/svg">
<path d="M15.895 6.83833H15.7266H8.14038V6.3L7.79195 5.95167H6.18785V5.34833L5.83605 5H2.40566L2.05218 5.34833V11.035L2.40566 11.3833H5.83605L6.18785 11.035V10.4317H7.79195L8.14375 10.0833V9.545H10.8083C10.1442 10.5345 9.78998 11.6961 9.78998 12.8842C9.78998 14.0722 10.1442 15.2338 10.8083 16.2233H8.80188V15.62L8.44673 15.275H6.68776L6.33597 15.6233V15.885H2.35179L2 16.2333V18.9267L2.35179 19.275H6.33597V19.5383L6.68776 19.8867H8.44673L8.80188 19.535V18.9283H15.895C17.5141 18.9283 19.067 18.2915 20.2119 17.1578C21.3568 16.0241 22 14.4866 22 12.8833C22 11.2801 21.3568 9.74253 20.2119 8.60887C19.067 7.47522 17.5141 6.83833 15.895 6.83833ZM2.76586 5.69667H5.48426V6.75667H2.76418L2.76586 5.69667ZM2.76586 7.45333H5.48426V8.90167H2.76418L2.76586 7.45333ZM5.48594 10.6867H2.76418V9.59833H5.48426V10.6867H5.48594ZM7.43848 9.735H6.18785V6.64833H7.43679L7.43848 9.735ZM2.70359 16.5783H3.44252V18.5783H2.70359V16.5783ZM4.1461 16.5783H4.8884V18.5783H4.1461V16.5783ZM6.33429 18.5783H5.59199V16.5783H6.33597L6.33429 18.5783ZM8.09325 19.19H7.03956V15.9683H8.09493L8.09325 19.19ZM8.1387 8.85667V7.53667H13.0537C12.4131 7.87087 11.8375 8.31498 11.3536 8.84833L8.1387 8.85667ZM15.8933 18.24H8.80188V16.92H15.895C16.8722 16.9207 17.8173 16.5741 18.5583 15.9431C19.2993 15.3122 19.7869 14.4389 19.9325 13.482C20.0782 12.5251 19.8721 11.5483 19.3518 10.7292C18.8315 9.91003 18.0316 9.30301 17.0975 9.01853C16.1634 8.73405 15.1572 8.791 14.2619 9.17901C13.3666 9.56703 12.6418 10.2603 12.2191 11.1328C11.7965 12.0053 11.7042 12.9991 11.959 13.9333C12.2137 14.8675 12.7987 15.6801 13.6075 16.2233H11.6802C10.9144 15.2783 10.4956 14.1036 10.4925 12.892C10.4893 11.6804 10.9021 10.5036 11.663 9.55469C12.4239 8.60578 13.4878 7.94101 14.6804 7.66938C15.8729 7.39775 17.1233 7.53537 18.2264 8.05969C19.3296 8.58401 20.2201 9.46391 20.752 10.5551C21.2839 11.6463 21.4256 12.8841 21.1538 14.0655C20.882 15.2469 20.2129 16.3018 19.2562 17.0572C18.2995 17.8127 17.1119 18.2238 15.8882 18.2233L15.8933 18.24ZM15.8933 16.24C15.2275 16.24 14.5766 16.0445 14.023 15.6782C13.4694 15.312 13.0379 14.7914 12.7831 14.1823C12.5283 13.5732 12.4616 12.903 12.5915 12.2564C12.7214 11.6098 13.042 11.0158 13.5129 10.5496C13.9837 10.0835 14.5835 9.766 15.2365 9.63738C15.8895 9.50877 16.5664 9.57478 17.1816 9.82707C17.7967 10.0794 18.3225 10.5066 18.6924 11.0548C19.0623 11.6029 19.2597 12.2474 19.2597 12.9067C19.2531 13.7869 18.896 14.6289 18.266 15.2499C17.6359 15.8709 16.7839 16.2207 15.895 16.2233L15.8933 16.24Z" fill="#EF7D00"/>
</svg>
