<svg width="24" height="24" viewBox="0 0 24 24" fill="none" xmlns="http://www.w3.org/2000/svg">
<path d="M15.1633 4.62182C15.1004 4.62182 15.0392 4.62182 14.9763 4.62182H6.55087V3.36701L6.18387 3H4.39777L4.03251 3.36701V4.15345H2.36526L2 4.51871V7.77632L2.36526 8.14158H4.03251V8.93326L4.39777 9.29852H6.18387L6.55087 8.93326V7.67321H9.41352C8.63333 8.82219 8.21621 10.179 8.21621 11.5678C8.21621 12.9567 8.63333 14.3135 9.41352 15.4625H6.55087V14.1762L6.18387 13.8109H4.39777L4.03251 14.1762V14.9644H2.36526L2 15.3297V18.5873L2.36526 18.9525H4.03251V19.739L4.39777 20.106H6.18387L6.55087 19.739V18.5156H15.1633C16.9864 18.4867 18.7251 17.7422 20.0041 16.4427C21.2831 15.1432 22 13.3929 22 11.5696C22 9.74624 21.2831 7.99599 20.0041 6.6965C18.7251 5.39701 16.9864 4.65248 15.1633 4.62356V4.62182ZM4.03251 7.41805H2.73052V4.88396H4.03251V7.41805ZM5.81861 8.5715H4.77002V3.73226H5.81861V8.5715ZM4.03251 18.2255H2.73052V15.6984H4.03251V18.2255ZM5.81861 19.3772H4.77002V14.545H5.81861V19.3772ZM6.55087 6.94269V5.35233H12.0665C11.2794 5.74707 10.5739 6.28661 9.98675 6.94269H6.55087ZM15.1633 17.7781H6.55087V16.1877H15.1633C16.2785 16.1894 17.3568 15.7887 18.2004 15.0592C19.0439 14.3298 19.5961 13.3205 19.7554 12.2168C19.9148 11.113 19.6707 9.98882 19.0679 9.05056C18.4651 8.1123 17.5441 7.42294 16.474 7.10904C15.4039 6.79514 14.2565 6.87777 13.2424 7.34175C12.2283 7.80572 11.4156 8.61992 10.9535 9.63486C10.4913 10.6498 10.4108 11.7974 10.7266 12.8669C11.0425 13.9364 11.7335 14.8562 12.6729 15.4572H10.324C9.44206 14.3595 8.95927 12.9946 8.95485 11.5865C8.95043 10.1783 9.42465 8.81041 10.2997 7.70716C11.1748 6.6039 12.3988 5.83075 13.771 5.5145C15.1432 5.19824 16.5822 5.35766 17.8519 5.9666C19.1216 6.57554 20.1467 7.59787 20.759 8.86591C21.3714 10.134 21.5347 11.5725 21.2222 12.9455C20.9096 14.3186 20.1398 15.5447 19.0389 16.4227C17.938 17.3008 16.5715 17.7787 15.1633 17.7781ZM15.1633 15.4572C14.3927 15.4576 13.6394 15.2294 12.9986 14.8016C12.3577 14.3737 11.8582 13.7655 11.5631 13.0537C11.2679 12.3419 11.1906 11.5586 11.3407 10.8028C11.4908 10.0471 11.8617 9.35278 12.4064 8.8078C12.9511 8.26283 13.6452 7.89165 14.4009 7.7412C15.1566 7.59075 15.94 7.66779 16.6519 7.96258C17.3638 8.25737 17.9723 8.75667 18.4004 9.39732C18.8285 10.038 19.057 10.7912 19.057 11.5617C19.057 12.5951 18.647 13.5862 17.917 14.3175C17.187 15.0488 16.1966 15.4606 15.1633 15.4625V15.4572Z" fill="#EF7D00"/>
</svg>
