<svg width="24" height="24" viewBox="0 0 24 24" fill="none" xmlns="http://www.w3.org/2000/svg">
<path d="M13.1057 14.4178L12.6412 14.7227L12 16.2059L11.3588 14.7227L10.8943 14.4178H2.0024V15.4292H10.5628L11.5354 17.6818H12.4645L13.4372 15.4292H22V14.4178H13.1057Z" fill="#EF7D00"/>
<path d="M21.9976 19.015H2V20.0264H21.9976V19.015Z" fill="#EF7D00"/>
<path d="M12.6775 8.49722C12.7175 9.42084 12.9833 10.3206 13.4517 11.1176L14.3131 10.5901C13.9454 9.95068 13.7333 9.23376 13.6937 8.49722C13.7078 8.03333 13.8165 7.57721 14.0131 7.15679C14.241 6.66793 14.367 6.13775 14.3832 5.5986C14.3832 4.38882 13.6574 3.05565 13.6356 3L12.7476 3.48391C12.7476 3.48391 13.3719 4.64288 13.3719 5.59618C13.3527 6.00649 13.2516 6.40881 13.0743 6.77934C12.8257 7.31873 12.6906 7.90346 12.6775 8.49722Z" fill="#EF7D00"/>
<path d="M9.21994 8.49722C9.25821 9.42014 9.52152 10.3197 9.98694 11.1176L10.8507 10.5901C10.4831 9.95068 10.2709 9.23376 10.2313 8.49722C10.2447 8.0335 10.3525 7.57738 10.5483 7.15679C10.7762 6.66793 10.9022 6.13775 10.9185 5.5986C10.9185 4.38882 10.1926 3.05565 10.1708 3L9.28285 3.48391C9.28285 3.48391 9.9071 4.64288 9.9071 5.59618C9.88797 6.00649 9.78677 6.40881 9.60949 6.77934C9.3634 7.31926 9.23081 7.90397 9.21994 8.49722Z" fill="#EF7D00"/>
</svg>
