<svg width="24" height="24" viewBox="0 0 24 24" fill="none" xmlns="http://www.w3.org/2000/svg">
<path fill-rule="evenodd" clip-rule="evenodd" d="M21.1984 11.2807C21.1813 11.412 21.1136 11.5308 21.0099 11.6114L15.3111 16.0413C15.2068 16.1223 15.0747 16.1581 14.9438 16.1406L12.4265 15.8049C12.3005 15.7881 12.1854 15.7233 12.1047 15.6238L11.0509 14.3247C10.8763 14.1094 10.9068 13.793 11.1189 13.6179C11.3311 13.4428 11.6447 13.4753 11.8193 13.6906L12.7475 14.8348L14.8642 15.1171L20.2383 10.9396L20.5163 8.80062L19.2226 7.09263L17.1141 6.81142L15.5951 7.97941C15.3771 8.14706 15.0647 8.10372 14.8975 7.88262C14.7302 7.66151 14.7714 7.34636 14.9894 7.17871L16.6707 5.88591C16.7747 5.80595 16.906 5.77083 17.036 5.78817L19.5532 6.12389C19.6849 6.14146 19.8045 6.2114 19.8854 6.31817L21.431 8.35873C21.5114 8.46486 21.5469 8.59864 21.5298 8.73066L21.1984 11.2807Z" fill="#EF7D00"/>
<path fill-rule="evenodd" clip-rule="evenodd" d="M5.52894 14.1605C5.54599 14.0293 5.61372 13.9104 5.71738 13.8298L11.4162 9.39996C11.5205 9.3189 11.6526 9.28317 11.7835 9.30063L14.3008 9.63635C14.4269 9.65317 14.5422 9.71808 14.6228 9.81775L15.6767 11.1194C15.8511 11.3348 15.8203 11.6512 15.608 11.8262C15.3956 12.0011 15.0821 11.9682 14.9077 11.7528L13.9795 10.6063L11.8631 10.3241L6.489 14.5016L6.21101 16.6406L7.50473 18.3486L9.61348 18.6298L11.1326 17.464C11.3508 17.2966 11.6631 17.3402 11.8301 17.5615C11.9972 17.7828 11.9557 18.0979 11.7375 18.2653L10.0562 19.5556C9.95228 19.6354 9.82118 19.6704 9.69131 19.6531L7.17407 19.3173C7.04237 19.2998 6.92278 19.2298 6.84191 19.1231L5.29629 17.0825C5.2159 16.9764 5.18038 16.8426 5.19754 16.7106L5.52894 14.1605Z" fill="#EF7D00"/>
</svg>
