<svg width="24" height="24" viewBox="0 0 24 24" fill="none" xmlns="http://www.w3.org/2000/svg">
<path fill-rule="evenodd" clip-rule="evenodd" d="M7.7405 5.5H11.8038V6.5H7.7405V5.5Z" fill="#EF7C00"/>
<path fill-rule="evenodd" clip-rule="evenodd" d="M3.48373 9.0235L3.98373 8.5235H15.6401L16.1401 9.0235V17.7758L15.6401 18.2758H3.98373L3.48373 17.7758V9.0235ZM4.48373 9.5235V17.2758H15.1401V9.5235H4.48373Z" fill="#EF7C00"/>
<path fill-rule="evenodd" clip-rule="evenodd" d="M2.39241 10.0009C1.91267 10.0009 1.5 10.4136 1.5 10.8933C1.5 11.3731 1.91267 11.7857 2.39241 11.7857H3.48373V10.0009H2.39241ZM0.5 10.8933C0.5 9.8613 1.36039 9.00092 2.39241 9.00092H3.98373L4.48373 9.50092V12.2857L3.98373 12.7857H2.39241C1.36039 12.7857 0.5 11.9253 0.5 10.8933Z" fill="#EF7C00"/>
<path fill-rule="evenodd" clip-rule="evenodd" d="M20.4529 7.56456L20.7722 7.4494H22.8409L23.2395 8.25127L16.0387 17.7594L15.2415 17.1557L21.835 8.4494H20.9525L15.9593 12.591L15.3209 11.8213L20.4529 7.56456Z" fill="#EF7C00"/>
<path fill-rule="evenodd" clip-rule="evenodd" d="M9.33182 9.02351V6H10.3318V9.02351H9.33182Z" fill="#EF7C00"/>
<path fill-rule="evenodd" clip-rule="evenodd" d="M22.4177 13.6236L21.9657 13.8373L21.5121 13.6267L22.4177 13.6236ZM21.9685 15.0724C21.9493 15.1183 21.93 15.1647 21.9107 15.2116C21.7832 15.5205 21.6586 15.8398 21.5666 16.112C21.5206 16.2483 21.4848 16.3668 21.4611 16.4627C21.4493 16.5105 21.4413 16.549 21.4365 16.5788C21.4319 16.6071 21.4314 16.6205 21.4313 16.622C21.4313 16.6222 21.4313 16.6221 21.4313 16.622C21.4313 16.9028 21.6848 17.1565 21.9657 17.1565C22.2465 17.1565 22.5 16.9029 22.5 16.6221C22.5 16.5661 22.4641 16.3915 22.3643 16.0942C22.2727 15.8212 22.1485 15.5039 22.0212 15.198C22.0036 15.1557 21.986 15.1138 21.9685 15.0724ZM23.3124 15.7762C23.4066 16.0571 23.5 16.3797 23.5 16.6221C23.5 17.4552 22.7988 18.1565 21.9657 18.1565C21.1325 18.1565 20.4313 17.4552 20.4313 16.6221C20.4313 16.4901 20.4596 16.3466 20.4904 16.2224C20.5232 16.0899 20.5682 15.9429 20.6192 15.792C20.7212 15.4899 20.8552 15.1477 20.9863 14.8301C21.1179 14.5112 21.2492 14.2108 21.3473 13.9905C21.3965 13.8803 21.4375 13.7897 21.4663 13.7266L21.4999 13.6533L21.5089 13.6338L21.5121 13.6267C21.5122 13.6267 21.5121 13.6267 21.9657 13.8373L22.4177 13.6236L22.421 13.6307L22.43 13.6499L22.4637 13.7221C22.4926 13.7844 22.5336 13.8736 22.5829 13.9825C22.6812 14.1999 22.8126 14.497 22.9445 14.8139C23.0758 15.1295 23.2101 15.4712 23.3124 15.7762Z" fill="#EF7C00"/>
</svg>
