<svg width="24" height="24" viewBox="0 0 24 24" fill="none" xmlns="http://www.w3.org/2000/svg">
<path d="M7.12492 12.756C7.72402 12.756 8.20969 12.2703 8.20969 11.6712C8.20969 11.0721 7.72402 10.5864 7.12492 10.5864C6.52583 10.5864 6.04016 11.0721 6.04016 11.6712C6.04016 12.2703 6.52583 12.756 7.12492 12.756Z" fill="#EF7D00"/>
<path d="M13.892 12.756C14.491 12.756 14.9767 12.2703 14.9767 11.6712C14.9767 11.0721 14.491 10.5864 13.892 10.5864C13.2929 10.5864 12.8072 11.0721 12.8072 11.6712C12.8072 12.2703 13.2929 12.756 13.892 12.756Z" fill="#EF7D00"/>
<path d="M10.4877 12.7559C10.7022 12.7559 10.9119 12.6923 11.0903 12.5731C11.2687 12.4539 11.4077 12.2845 11.4898 12.0863C11.5719 11.8881 11.5934 11.67 11.5516 11.4596C11.5097 11.2491 11.4064 11.0559 11.2547 10.9041C11.103 10.7524 10.9097 10.6491 10.6993 10.6073C10.4889 10.5654 10.2707 10.5869 10.0725 10.669C9.87432 10.7511 9.7049 10.8901 9.58571 11.0685C9.46651 11.2469 9.40289 11.4566 9.40289 11.6712C9.40289 11.9589 9.51718 12.2348 9.72061 12.4382C9.92404 12.6417 10.2 12.7559 10.4877 12.7559Z" fill="#EF7D00"/>
<path d="M10.4877 19.9777C12.1955 19.9828 13.8644 19.4676 15.2722 18.5006C16.0418 19.3067 17.0704 19.8165 18.1779 19.9408C18.4486 19.9792 18.7216 19.9985 18.995 19.9985C20.0193 20.0317 21.0229 19.705 21.8315 19.0753L22 18.6991L21.5176 18.2167C20.6582 18.2165 19.8325 17.8818 19.2156 17.2834C18.5987 16.685 18.239 15.8699 18.2126 15.0109C18.9734 13.3423 19.1735 11.4722 18.7828 9.68045C18.3922 7.88869 17.4318 6.27162 16.0453 5.07124C14.6589 3.87086 12.9211 3.15173 11.0919 3.02145C9.26265 2.89118 7.44042 3.35678 5.8979 4.34856C4.35537 5.34035 3.1755 6.805 2.53485 8.52331C1.8942 10.2416 1.82723 12.1212 2.34395 13.8807C2.86067 15.6403 3.93331 17.1852 5.40133 18.2843C6.86935 19.3833 8.65381 19.9774 10.4877 19.9777ZM10.4877 3.96706C11.7554 3.96781 13.0023 4.28875 14.1129 4.9001C15.2234 5.51145 16.1616 6.39341 16.8402 7.46414C17.5189 8.53487 17.9161 9.75968 17.995 11.0249C18.074 12.2902 17.832 13.5548 17.2917 14.7016L17.2455 14.9093C17.2457 15.7785 17.5109 16.627 18.0058 17.3417C18.5006 18.0563 19.2015 18.6031 20.0151 18.9091C19.4545 19.0443 18.873 19.0702 18.3026 18.9853C17.1878 18.8283 16.2254 18.2929 15.7638 17.5704L15.0714 17.4527C13.7601 18.4693 12.1468 19.0184 10.4877 19.013C9.48866 19.0305 8.49616 18.8488 7.56811 18.4786C6.64005 18.1084 5.79503 17.557 5.08235 16.8567C4.36967 16.1564 3.80362 15.3212 3.41721 14.3998C3.03081 13.4783 2.8318 12.4892 2.8318 11.49C2.8318 10.4908 3.03081 9.50168 3.41721 8.58025C3.80362 7.65882 4.36967 6.82358 5.08235 6.12328C5.79503 5.42297 6.64005 4.87163 7.56811 4.50142C8.49616 4.13122 9.48866 3.94956 10.4877 3.96706Z" fill="#EF7D00"/>
</svg>
