<svg width="24" height="24" viewBox="0 0 24 24" fill="none" xmlns="http://www.w3.org/2000/svg">
<path fill-rule="evenodd" clip-rule="evenodd" d="M6.57558 15.3827L7.00892 16.5902L6.01811 19.2893L9.73143 16.8486L10.4047 16.6919C10.9228 16.7567 11.4778 16.7895 12 16.7895C17.1899 16.7895 21 13.4858 21 9.89474C21 6.30368 17.1899 3 12 3C6.81012 3 3 6.30368 3 9.89474C3 12.0488 4.34208 14.0745 6.57558 15.3827ZM4.03509 21.7895L6.07018 16.2456C3.61404 14.807 2 12.4912 2 9.89474C2 5.54386 6.49123 2 12 2C17.5088 2 22 5.54386 22 9.89474C22 14.2456 17.5088 17.7895 12 17.7895C11.4386 17.7895 10.8421 17.7544 10.2807 17.6842L4.03509 21.7895Z" fill="#EF7D00"/>
</svg>
