<svg width="24" height="24" viewBox="0 0 24 24" fill="none" xmlns="http://www.w3.org/2000/svg">
<path fill-rule="evenodd" clip-rule="evenodd" d="M5.46678 13.2824C5.4669 13.0063 5.69085 12.7825 5.967 12.7827L10.7147 12.7847C10.9908 12.7848 11.2145 13.0086 11.2145 13.2847L11.2145 18.0301C11.2145 18.3063 10.9907 18.5301 10.7145 18.5301C10.4384 18.5301 10.2145 18.3063 10.2145 18.0301L10.2145 14.4917L7.01299 17.6928C6.81771 17.8881 6.50112 17.8881 6.30586 17.6928C6.1106 17.4976 6.11061 17.181 6.30589 16.9857L9.50783 13.7842L5.96658 13.7826C5.69043 13.7825 5.46666 13.5586 5.46678 13.2824Z" fill="#EF7D00"/>
<path fill-rule="evenodd" clip-rule="evenodd" d="M18.5333 10.7176C18.5332 10.9938 18.3092 11.2175 18.0331 11.2174L13.2853 11.2154C13.0093 11.2153 12.7855 10.9914 12.7855 10.7154L12.7855 5.96992C12.7855 5.69378 13.0094 5.46993 13.2855 5.46993C13.5617 5.46993 13.7856 5.69378 13.7856 5.96992L13.7856 9.50834L16.987 6.30717C17.1823 6.11192 17.4989 6.11193 17.6941 6.30719C17.8894 6.50245 17.8894 6.81902 17.6941 7.01428L14.4922 10.2159L18.0335 10.2174C18.3096 10.2175 18.5334 10.4415 18.5333 10.7176Z" fill="#EF7D00"/>
</svg>
