<svg width="24" height="24" viewBox="0 0 24 24" fill="none" xmlns="http://www.w3.org/2000/svg">
<path d="M13.2857 5.57142C13.2857 6.2815 12.7101 6.85713 12 6.85713C11.2899 6.85713 10.7143 6.2815 10.7143 5.57142C10.7143 4.86134 11.2899 4.28571 12 4.28571C12.7101 4.28571 13.2857 4.86134 13.2857 5.57142Z" fill="#EF7D00"/>
<path d="M13.2857 12C13.2857 12.7101 12.7101 13.2857 12 13.2857C11.2899 13.2857 10.7143 12.7101 10.7143 12C10.7143 11.2899 11.2899 10.7143 12 10.7143C12.7101 10.7143 13.2857 11.2899 13.2857 12Z" fill="#EF7D00"/>
<path d="M13.2857 18.4286C13.2857 19.1387 12.7101 19.7143 12 19.7143C11.2899 19.7143 10.7143 19.1387 10.7143 18.4286C10.7143 17.7185 11.2899 17.1429 12 17.1429C12.7101 17.1429 13.2857 17.7185 13.2857 18.4286Z" fill="#EF7D00"/>
</svg>
