<svg width="24" height="24" viewBox="0 0 24 24" fill="none" xmlns="http://www.w3.org/2000/svg">
<path fill-rule="evenodd" clip-rule="evenodd" d="M10.1507 6.92901L21.8238 2.5321L22.5001 3.00001V18.8366L21.8238 19.3045L10.1507 14.9077L9.8269 14.4398V7.39692L10.1507 6.92901ZM10.8269 7.74288V14.0938L21.5001 18.1139V3.72264L10.8269 7.74288Z" fill="#EF7D00"/>
<path fill-rule="evenodd" clip-rule="evenodd" d="M3.0564 7.82495L3.5564 7.32495H10.3268L10.8268 7.82495V13.9339L10.3268 14.4339H3.5564L3.0564 13.9339V7.82495ZM4.0564 8.32495V13.4339H9.82682V8.32495H4.0564Z" fill="#EF7D00"/>
<path fill-rule="evenodd" clip-rule="evenodd" d="M1.5 8.91437L2 8.41437H3.55642L4.05642 8.91437V12.7276L3.55642 13.2276H2L1.5 12.7276V8.91437ZM2.5 9.41437V12.2276H3.05642V9.41437H2.5Z" fill="#EF7D00"/>
<path fill-rule="evenodd" clip-rule="evenodd" d="M5.2019 14.0068L5.69656 13.4339H8.34247L8.83757 13.8641L9.6936 19.9341L9.1985 20.5039H6.5915L6.09685 20.0768L5.2019 14.0068ZM6.27568 14.4339L7.02318 19.5039H8.62304L7.90804 14.4339H6.27568Z" fill="#EF7D00"/>
</svg>
