<svg width="24" height="24" viewBox="0 0 24 24" fill="none" xmlns="http://www.w3.org/2000/svg">
<path fill-rule="evenodd" clip-rule="evenodd" d="M7.86536 8.58976L14.1889 2.63599L15.0079 2.84768L19.1126 15.6796L18.5681 16.3273L9.98878 15.144L9.58153 14.803L7.73254 9.1082L7.86536 8.58976ZM8.78149 9.10069L10.4359 14.1962L17.9183 15.2282L14.297 3.90767L8.78149 9.10069Z" fill="#EF7D00"/>
<path fill-rule="evenodd" clip-rule="evenodd" d="M1.65223 11.1154L1.97578 10.4866L8.10334 8.52282L8.73209 8.84637L10.504 14.3752L10.1805 15.004L4.05291 16.9678L3.42416 16.6442L1.65223 11.1154ZM2.75713 11.2863L4.22386 15.8629L9.39912 14.2043L7.93239 9.62772L2.75713 11.2863Z" fill="#EF7D00"/>
<path fill-rule="evenodd" clip-rule="evenodd" d="M0.523888 12.5462L0.847488 11.9175L2.25612 11.4662L2.88482 11.7898L3.99049 15.2409L3.66688 15.8696L2.25825 16.3209L1.62955 15.9973L0.523888 12.5462ZM1.62874 12.7173L2.4293 15.216L2.88563 15.0698L2.08507 12.5711L1.62874 12.7173Z" fill="#EF7D00"/>
<path fill-rule="evenodd" clip-rule="evenodd" d="M6.50715 16.1674L8.61737 20.4795L10.055 20.0372L7.94835 15.7017L6.50715 16.1674ZM5.65073 15.3932L8.05442 14.6166L8.65786 14.8738L11.2095 20.1249L10.9068 20.8214L8.5031 21.5609L7.90695 21.3028L5.35535 16.0887L5.65073 15.3932Z" fill="#EF7D00"/>
<path fill-rule="evenodd" clip-rule="evenodd" d="M21.7109 8.28339L18.6046 9.28183L18.2986 8.32979L21.4049 7.33136L21.7109 8.28339Z" fill="#EF7D00"/>
<path fill-rule="evenodd" clip-rule="evenodd" d="M23 12.7449H19.5609V11.7449H23V12.7449Z" fill="#EF7D00"/>
<path fill-rule="evenodd" clip-rule="evenodd" d="M20.4422 3.7774L17.6317 5.77427L17.0525 4.95909L19.863 2.96222L20.4422 3.7774Z" fill="#EF7D00"/>
</svg>
