<svg width="24" height="24" viewBox="0 0 24 24" fill="none" xmlns="http://www.w3.org/2000/svg">
<path d="M3.54021 16.8438C3.33194 16.6098 3.21773 16.3069 3.21963 15.9937V5.79263C3.21962 5.60959 3.25926 5.42873 3.33582 5.26247C3.41238 5.09622 3.52406 4.94852 3.66315 4.82955C3.7998 4.71274 3.95973 4.62634 4.13233 4.57609C4.30494 4.52584 4.48625 4.51289 4.66425 4.53809C7.28014 4.97225 9.67317 6.27591 11.4565 8.23834V9.38299M8.38145 18.3756C9.64219 19.0162 10.4911 19.9363 11.4565 20.9991V15.3005" stroke="#EF7D00" stroke-linecap="round" stroke-linejoin="round"/>
<path d="M11.4565 15.3004V21C13.3127 18.9565 15.8299 17.6328 18.5656 17.2617C18.877 17.2273 19.1645 17.0787 19.3728 16.8447C19.5811 16.6107 19.6953 16.3078 19.6934 15.9945V7.25038M11.4565 9.15022V8.2392C12.5942 6.98723 13.7669 5.96734 15.3004 5.30634" stroke="#EF7D00" stroke-linecap="round" stroke-linejoin="round"/>
<path d="M3 20.6819L20.6819 3" stroke="#EF7D00" stroke-linecap="round" stroke-linejoin="round"/>
</svg>
