<svg width="24" height="24" viewBox="0 0 24 24" fill="none" xmlns="http://www.w3.org/2000/svg">
<path d="M21.1 10.7V19.1L20.6 19.6H1.5L1 19.1V7L1.5 6.5H17L16 7.5H2V9.1H14.3L13.3 10.1H2V11.5H11.9L10.9 12.5H2V18.6H20.1V12.5H19.3L20.1 11.7L20.3 11.5L21.1 10.7Z" fill="#EF7C00"/>
<path d="M23.2 8.4V5L22.7 4.5H19.1L19.5 4H23.5L23.2 8.4Z" fill="white"/>
<path d="M23.2 5V9.6H22.2V6.2L21.1 7.2L20.1 8.2L19.2 9.1L18.2 10.1L16.8 11.5L15.9 12.5L15.4 13L14.9 12.5L14.7 12.3L15.4 11.5L16.8 10.1L17.8 9.1L19.5 7.5L20.5 6.5L21.5 5.5H18V4.5H22.7L23.2 5Z" fill="#EF7C00"/>
</svg>
