<svg width="24" height="24" viewBox="0 0 24 24" fill="none" xmlns="http://www.w3.org/2000/svg">
<path fill-rule="evenodd" clip-rule="evenodd" d="M4.61646 1.50793L10.0558 2.31374L10.4794 2.75257L11.0349 7.702L10.8358 8.15943L8.18958 10.1213C8.24827 10.2945 8.33724 10.5348 8.465 10.8284C8.74858 11.48 9.22291 12.3935 9.98076 13.4203C10.7396 14.4484 11.4719 15.1799 12.0103 15.6518C12.2507 15.8625 12.4523 16.0213 12.6001 16.1314L15.2402 14.1742L15.7349 14.1163L20.3308 16.0859L20.6278 16.6233L19.7692 22.0777L19.2823 22.4999L19.2753 21.9999C19.2823 22.4999 19.2825 22.4999 19.2823 22.4999L19.281 22.4999L19.2791 22.4999L19.2734 22.5L19.254 22.5C19.2377 22.5 19.2145 22.4999 19.1849 22.4994C19.1255 22.4984 19.0401 22.4961 18.9309 22.4907C18.7125 22.48 18.3987 22.4571 18.0084 22.4085C17.2283 22.3113 16.1398 22.1109 14.8945 21.698C12.4023 20.8716 9.27644 19.1911 6.75244 15.7824L6.75097 15.7804C4.25306 12.3718 3.56275 8.88195 3.5042 6.25376C3.47494 4.9404 3.60323 3.83967 3.7433 3.06644C3.81332 2.6799 3.88668 2.37301 3.94575 2.16014C3.97505 2.05455 4.002 1.96789 4.02453 1.90414C4.03501 1.87446 4.04823 1.83916 4.06327 1.80652C4.06855 1.79505 4.08555 1.75816 4.11304 1.71844C4.11324 1.71816 4.11345 1.71784 4.11369 1.7175C4.1233 1.70358 4.16533 1.64267 4.24046 1.59027C4.28059 1.56228 4.37029 1.50819 4.49877 1.50083C4.53928 1.49851 4.57868 1.5011 4.61646 1.50793ZM18.8502 21.4846L19.5795 16.8519L15.605 15.1486L12.9065 17.1491L12.345 17.1723L12.6087 16.7475C12.345 17.1723 12.3452 17.1724 12.345 17.1723L12.3438 17.1715L12.3421 17.1705L12.337 17.1673L12.3206 17.1567C12.3069 17.1479 12.2878 17.1354 12.2636 17.1191C12.2153 17.0866 12.1465 17.039 12.0602 16.9758C11.8874 16.8494 11.6439 16.6604 11.3512 16.4038C10.7658 15.8908 9.98294 15.1072 9.17619 14.0142C8.36841 12.9197 7.8579 11.9394 7.54806 11.2274C7.39313 10.8714 7.28829 10.5823 7.22147 10.3793C7.18806 10.2778 7.16414 10.1978 7.14821 10.1417C7.14025 10.1136 7.13428 10.0915 7.13012 10.0756L7.12522 10.0566L7.12374 10.0507L7.12323 10.0487L7.12296 10.0475C7.12292 10.0474 7.12288 10.0472 7.60881 9.92941L7.12296 10.0475L7.31103 9.52776L10.0091 7.52752L9.52855 3.24655L4.87491 2.55713C4.83045 2.73152 4.77831 2.96298 4.72728 3.24469C4.59747 3.96133 4.47639 4.99439 4.50395 6.23149C4.55903 8.70394 5.20695 11.9812 7.55683 15.1883C9.93161 18.395 12.8659 19.9718 15.2092 20.7488C16.3819 21.1377 17.405 21.3256 18.1321 21.4162C18.4221 21.4523 18.6646 21.4729 18.8502 21.4846ZM4.1745 2.35384L4.45441 2.4947C4.34401 2.47841 4.24658 2.42591 4.1745 2.35384Z" fill="#EF7D00"/>
</svg>
