<svg width="24" height="24" viewBox="0 0 24 24" fill="none" xmlns="http://www.w3.org/2000/svg">
<path d="M17.4775 15.3299L14.8487 11.2007C15.1153 10.7453 15.2586 10.2283 15.2644 9.7006C15.2703 9.17293 15.1385 8.65285 14.8821 8.19162L16.6897 5.33299L16.7566 5.08432L16.6709 2.78571L16.4619 2.43047L15.7661 2L15.1684 2.14001L12.337 6.62648C12.2973 6.62648 12.2576 6.62648 12.2158 6.62648C12.174 6.62648 12.1343 6.62648 12.0925 6.62648L9.261 2.14628L8.66127 2.00627L7.96751 2.43674L7.75854 2.79198L7.67287 5.09059L7.73974 5.33925L9.55564 8.19162C9.28943 8.66806 9.15703 9.20764 9.17248 9.75319C9.18793 10.2987 9.35065 10.83 9.6434 11.2906L7.06687 15.3299L7 15.5555V21.5528L7.43674 21.9916H9.7646L10.2013 21.5528V16.3496L12.2722 13.0772L14.3409 16.3496V21.5612L14.7777 22H17.1076L17.5444 21.5612V15.5555L17.4775 15.3299ZM15.6783 2.97795L15.8079 3.05736L15.8768 4.97984L14.3117 7.45816C14.0082 7.17096 13.649 6.94906 13.2564 6.80619L15.6783 2.97795ZM14.3911 9.66482C14.3919 10.0952 14.265 10.5162 14.0265 10.8745C13.788 11.2328 13.4485 11.5122 13.0511 11.6775C12.6537 11.8428 12.2162 11.8865 11.7939 11.803C11.3717 11.7196 10.9837 11.5127 10.6791 11.2087C10.3744 10.9046 10.1668 10.517 10.0825 10.0949C9.99827 9.67284 10.0411 9.23524 10.2056 8.83751C10.3701 8.43978 10.649 8.09979 11.0068 7.86058C11.3646 7.62137 11.7853 7.49368 12.2158 7.49368C12.7925 7.49423 13.3455 7.7236 13.7533 8.13143C14.1612 8.53926 14.3905 9.09224 14.3911 9.669V9.66482ZM8.62366 3.05736L8.75321 2.97795L11.173 6.80619C10.7842 6.95059 10.4288 7.17239 10.1282 7.45816L8.55261 4.97984L8.62366 3.05736ZM9.39683 15.9902L9.32996 16.2221V21.1244H7.88392V15.6914L10.2327 11.9822C10.6031 12.2978 11.0438 12.5199 11.5178 12.63L9.39683 15.9902ZM16.6709 21.1244H15.2081V16.2221L15.1413 15.9902L13.0119 12.6112C13.479 12.4828 13.9088 12.245 14.2657 11.9175L16.6709 15.6914V21.1244Z" fill="#EF7D00"/>
<path d="M12.2157 10.4902C12.3782 10.4906 12.5372 10.4428 12.6725 10.3528C12.8078 10.2629 12.9134 10.1348 12.9759 9.98473C13.0383 9.8347 13.0549 9.66952 13.0235 9.51008C12.992 9.35064 12.914 9.20411 12.7992 9.08905C12.6844 8.97399 12.5381 8.89557 12.3787 8.86371C12.2194 8.83185 12.0541 8.848 11.904 8.91009C11.7538 8.97219 11.6254 9.07744 11.5351 9.21254C11.4447 9.34763 11.3965 9.50649 11.3965 9.66901C11.3962 9.77675 11.4172 9.88349 11.4583 9.98312C11.4993 10.0827 11.5596 10.1733 11.6357 10.2496C11.7118 10.3259 11.8022 10.3864 11.9017 10.4277C12.0012 10.469 12.1079 10.4902 12.2157 10.4902Z" fill="#EF7D00"/>
</svg>
