<svg width="24" height="24" viewBox="0 0 24 24" fill="none" xmlns="http://www.w3.org/2000/svg">
<path fill-rule="evenodd" clip-rule="evenodd" d="M12 3.78571C12.2761 3.78571 12.5 4.00956 12.5 4.28571L12.5 19.7143C12.5 19.9904 12.2761 20.2143 12 20.2143C11.7239 20.2143 11.5 19.9904 11.5 19.7143L11.5 4.28571C11.5 4.00956 11.7239 3.78571 12 3.78571Z" fill="#EF7D00"/>
<path fill-rule="evenodd" clip-rule="evenodd" d="M3.78577 12C3.78577 11.7239 4.00962 11.5 4.28577 11.5H19.7143C19.9905 11.5 20.2143 11.7239 20.2143 12C20.2143 12.2761 19.9905 12.5 19.7143 12.5H4.28577C4.00962 12.5 3.78577 12.2761 3.78577 12Z" fill="#EF7D00"/>
</svg>
