<svg width="24" height="24" viewBox="0 0 24 24" fill="none" xmlns="http://www.w3.org/2000/svg">
<path d="M7.47847 2V7.61403" stroke="#EF7C00" stroke-miterlimit="10"/>
<path d="M15.5805 2V7.61403" stroke="#EF7C00" stroke-miterlimit="10"/>
<path d="M11.4019 5.57257H14.0813L16.059 8.28389L12.9968 17.0877H11.5933H11.4338H10.0622L7 8.28389L8.97766 5.57257H11.6252" stroke="#EF7C00" stroke-miterlimit="10"/>
<path d="M11.5295 11.3142C12.4632 11.3142 13.2201 10.5573 13.2201 9.62357C13.2201 8.68988 12.4632 7.93298 11.5295 7.93298C10.5958 7.93298 9.83888 8.68988 9.83888 9.62357C9.83888 10.5573 10.5958 11.3142 11.5295 11.3142Z" stroke="#EF7C00" stroke-miterlimit="10"/>
<path d="M12.2632 16.992L9.99837 19.1292V20.5646" stroke="#EF7C00" stroke-miterlimit="10"/>
<path d="M9.99837 20.5646C9.99837 21.362 10.6363 22 11.4338 22C12.2312 22 12.8692 21.362 12.8692 20.5646" stroke="#EF7C00" stroke-miterlimit="10"/>
</svg>
