<svg width="24" height="24" viewBox="0 0 24 24" fill="none" xmlns="http://www.w3.org/2000/svg">
<path d="M12.6522 17.3623L12.6884 17.3985V18.4493L12.6522 18.4855H11.6014L11.5652 18.4493V17.3985L11.6014 17.3623H12.6522ZM13.087 16.3116H12.6522H11.6014H11.1666L10.8768 16.6014L10.8406 16.6377L10.5507 16.9275V17.3623V18.413V18.8478L10.8406 19.1377L10.8768 19.1739L11.1666 19.4638H11.6014H12.6522H13.087L13.3768 19.1739L13.413 19.1377L13.7029 18.8478V18.413V17.3623V16.9275L13.413 16.6377L13.3768 16.6014L13.087 16.3116Z" fill="#EF7D00"/>
<path d="M12 3.08696C16.9275 3.08696 20.913 7.07246 20.913 12C20.913 16.9275 16.9275 20.913 12 20.913C7.07248 20.913 3.08696 16.9275 3.08696 12C3.08696 7.07246 7.07248 3.08696 12 3.08696ZM12 2C6.49277 2 2 6.49275 2 12C2 17.5072 6.49277 22 12 22C17.5073 22 22 17.5072 22 12C22 6.49275 17.5073 2 12 2Z" fill="#EF7D00"/>
<path d="M12 6.09418C12.3985 6.09418 12.8333 6.16665 13.2681 6.31157C14.5725 6.78259 15.4058 8.01447 15.442 9.39128C15.5145 11.529 14.0652 12.3623 12.6522 12.8333V14.1014L12.6159 14.1377H11.5652L11.529 14.1014V11.9637L11.5652 11.9275C12.8696 11.9275 14.3188 11.0217 14.3551 9.53621C14.3913 8.2681 13.3768 7.18114 12.1087 7.07244C12.0362 7.07244 12 7.07244 11.9275 7.07244C10.5869 7.07244 9.53622 8.12317 9.49998 9.46375L9.46376 9.49998H9.02897H8.52172L8.4855 9.46375C8.55796 7.61592 10.0797 6.09418 12 6.09418ZM12 5.04346C9.53623 5.04346 7.50724 7.03621 7.47101 9.49998V9.93476L7.76086 10.2609L7.79708 10.2971L8.08693 10.6232H8.52172H9.02897H9.46376H9.89853L10.2246 10.2971L10.2608 10.2609L10.5507 9.971V9.53621C10.5507 8.77534 11.1667 8.19563 11.9275 8.19563C11.9638 8.19563 12 8.19563 12.0362 8.19563C12.7246 8.23186 13.3043 8.88404 13.3043 9.57244C13.3043 10.1159 12.7246 10.913 11.5652 10.913H11.1304L10.8406 11.2029L10.8043 11.2391L10.5145 11.529V11.9637V14.1014V14.5362L10.8406 14.8261L10.8768 14.8623L11.2029 15.1522H11.6377H12.6884H13.1232L13.413 14.8623L13.4493 14.8261L13.7753 14.5362V14.1014V13.558C15.6956 12.7246 16.6377 11.3116 16.5652 9.35505C16.4927 7.54346 15.3333 5.91302 13.7029 5.29708C13.0869 5.15215 12.5435 5.04346 12 5.04346Z" fill="#EF7D00"/>
</svg>
