<svg width="24" height="24" viewBox="0 0 24 24" fill="none" xmlns="http://www.w3.org/2000/svg">
<path d="M16.3402 7.44259L16.3682 7.41674C16.6657 7.12392 16.9023 6.77509 17.0643 6.39038C17.2264 6.00567 17.3107 5.59269 17.3123 5.17525C17.314 4.75781 17.233 4.34417 17.074 3.95818C16.915 3.5722 16.6812 3.22151 16.386 2.92633C16.0908 2.63115 15.7401 2.39733 15.3541 2.23835C14.9682 2.07936 14.5545 1.99837 14.1371 2.00002C13.7196 2.00168 13.3067 2.08596 12.922 2.24801C12.5372 2.41005 12.1884 2.64665 11.8956 2.94417L3.93501 10.9155C3.61957 11.2278 3.3736 11.6032 3.21318 12.0171C3.05276 12.4309 2.98151 12.874 3.00408 13.3173C3.02665 13.7606 3.14254 14.1942 3.34417 14.5896C3.5458 14.9851 3.82862 15.3335 4.17416 15.6121L10.4845 22H11.1308L20.6964 12.4796V11.8333L16.3402 7.44259ZM12.5333 3.57972C12.965 3.19601 13.5272 2.99197 14.1045 3.00944C14.6818 3.02691 15.2306 3.26456 15.6384 3.67367C16.0461 4.08278 16.2819 4.63237 16.2974 5.20976C16.3129 5.78715 16.107 6.3486 15.7218 6.77903L9.32537 13.1863V13.154C9.32423 12.3149 8.99043 11.5106 8.39715 10.9173C7.80388 10.3241 6.99955 9.99025 6.16053 9.98911H6.1239L12.5333 3.57972ZM3.89624 13.154C3.89624 12.7061 4.02903 12.2683 4.27784 11.896C4.52664 11.5236 4.88028 11.2334 5.29402 11.062C5.70777 10.8906 6.16304 10.8458 6.60227 10.9332C7.0415 11.0205 7.44496 11.2362 7.76163 11.5529C8.0783 11.8695 8.29395 12.273 8.38132 12.7122C8.46869 13.1514 8.42384 13.6067 8.25247 14.0205C8.08109 14.4342 7.79087 14.7878 7.4185 15.0366C7.04614 15.2855 6.60836 15.4183 6.16053 15.4183C5.56018 15.4177 4.98458 15.1789 4.56006 14.7544C4.13555 14.3299 3.89681 13.7543 3.89624 13.154ZM10.8076 21.0456L6.13468 16.3188H6.16053C6.58596 16.3184 7.00694 16.2322 7.39824 16.0652C7.78954 15.8983 8.14311 15.654 8.43775 15.3472L15.7046 8.0803L19.7355 12.1608L10.8076 21.0456Z" fill="#EF7D00"/>
<path d="M6.16049 13.9662C6.32174 13.9666 6.47948 13.9192 6.61374 13.8299C6.74799 13.7405 6.8527 13.6134 6.91461 13.4645C6.97651 13.3156 6.99282 13.1517 6.96147 12.9935C6.93011 12.8353 6.85251 12.69 6.73849 12.576C6.62446 12.462 6.47916 12.3844 6.32099 12.353C6.16281 12.3217 5.99889 12.338 5.85 12.3999C5.7011 12.4618 5.57394 12.5665 5.48462 12.7007C5.3953 12.835 5.34784 12.9927 5.34827 13.154C5.34884 13.3692 5.43459 13.5755 5.58679 13.7277C5.73899 13.8799 5.94525 13.9656 6.16049 13.9662ZM6.16049 13.0657C6.17309 13.0637 6.18598 13.0644 6.19826 13.0679C6.21055 13.0714 6.22193 13.0775 6.23163 13.0858C6.24133 13.0941 6.24912 13.1044 6.25446 13.1159C6.2598 13.1275 6.26257 13.1401 6.26257 13.1529C6.26257 13.1657 6.2598 13.1783 6.25446 13.1899C6.24912 13.2015 6.24133 13.2118 6.23163 13.2201C6.22193 13.2283 6.21055 13.2344 6.19826 13.2379C6.18598 13.2414 6.17309 13.2422 6.16049 13.2402C6.1397 13.2369 6.12077 13.2263 6.10709 13.2103C6.09342 13.1943 6.08591 13.174 6.08591 13.1529C6.08591 13.1319 6.09342 13.1115 6.10709 13.0955C6.12077 13.0795 6.1397 13.0689 6.16049 13.0657Z" fill="#EF7D00"/>
</svg>
