<svg width="24" height="24" viewBox="0 0 24 24" fill="none" xmlns="http://www.w3.org/2000/svg">
<path d="M21.7297 9.03338H14.8289C15.1467 8.46027 15.2466 7.7916 15.1101 7.15066C14.9737 6.50971 14.6101 5.9397 14.0864 5.54572C13.5628 5.15174 12.9143 4.96036 12.2607 5.00685C11.607 5.05334 10.9922 5.33458 10.5296 5.79871L2.80676 13.5216C2.42724 13.8967 2.16662 14.3753 2.05745 14.8977C1.94828 15.42 1.99539 15.9629 2.19289 16.4587C2.3904 16.9544 2.72955 17.381 3.16801 17.6851C3.60646 17.9893 4.1248 18.1576 4.65831 18.169H13.3236L13.5976 18.056L22 9.69439L21.7297 9.03338ZM11.0758 6.34677C11.2562 6.166 11.4705 6.02258 11.7064 5.92473C11.9423 5.82688 12.1952 5.77651 12.4506 5.77651C12.706 5.77651 12.9589 5.82688 13.1948 5.92473C13.4307 6.02258 13.645 6.166 13.8254 6.34677C14.189 6.71154 14.3932 7.20558 14.3932 7.72063C14.3932 8.23567 14.189 8.72971 13.8254 9.09448L7.43935 15.4768C7.43935 15.4768 7.43935 15.4583 7.43935 15.449C7.43788 14.7278 7.15059 14.0365 6.64043 13.5267C6.13026 13.0169 5.43881 12.7301 4.71756 12.7291H4.68794L11.0758 6.34677ZM2.77343 15.4546C2.77343 15.0697 2.88756 14.6935 3.10139 14.3734C3.31521 14.0534 3.61914 13.804 3.97472 13.6567C4.3303 13.5094 4.72157 13.4709 5.09906 13.546C5.47654 13.6211 5.82328 13.8064 6.09544 14.0786C6.36759 14.3507 6.55292 14.6975 6.62801 15.0749C6.7031 15.4524 6.66456 15.8437 6.51727 16.1993C6.36999 16.5549 6.12056 16.8588 5.80055 17.0726C5.48053 17.2864 5.10429 17.4006 4.71941 17.4006C4.20346 17.4001 3.70877 17.1949 3.34394 16.8301C2.9791 16.4652 2.77392 15.9705 2.77343 15.4546ZM13.1644 17.4006H6.61726L6.67466 17.3413L14.2086 9.80733H20.7928L13.1644 17.4006Z" fill="#EF7D00"/>
<path d="M4.71938 14.7565C4.5814 14.7569 4.44662 14.7981 4.33208 14.8751C4.21753 14.952 4.12835 15.0611 4.0758 15.1887C4.02325 15.3163 4.00969 15.4566 4.03683 15.5919C4.06398 15.7272 4.1306 15.8514 4.2283 15.9488C4.32599 16.0462 4.45038 16.1125 4.58573 16.1393C4.72109 16.1661 4.86134 16.1522 4.98878 16.0993C5.11623 16.0464 5.22514 15.9569 5.30176 15.8422C5.37838 15.7274 5.41927 15.5925 5.41927 15.4546C5.41927 15.3627 5.40115 15.2718 5.36596 15.187C5.33076 15.1022 5.27918 15.0252 5.21416 14.9603C5.14915 14.8955 5.07198 14.8441 4.98708 14.8091C4.90217 14.7742 4.8112 14.7563 4.71938 14.7565ZM4.71938 15.5305C4.70437 15.5305 4.68969 15.526 4.6772 15.5177C4.66472 15.5093 4.65499 15.4975 4.64924 15.4836C4.6435 15.4697 4.642 15.4545 4.64492 15.4398C4.64785 15.425 4.65508 15.4115 4.6657 15.4009C4.67632 15.3903 4.68984 15.383 4.70457 15.3801C4.7193 15.3772 4.73456 15.3787 4.74843 15.3844C4.7623 15.3902 4.77416 15.3999 4.7825 15.4124C4.79084 15.4249 4.79529 15.4396 4.79529 15.4546C4.79529 15.4645 4.79333 15.4744 4.78952 15.4836C4.7857 15.4928 4.78011 15.5012 4.77306 15.5082C4.76601 15.5153 4.75764 15.5209 4.74843 15.5247C4.73922 15.5285 4.72935 15.5305 4.71938 15.5305Z" fill="#EF7D00"/>
</svg>
