<svg width="24" height="24" viewBox="0 0 24 24" fill="none" xmlns="http://www.w3.org/2000/svg">
<path d="M8.55548 5.11657C9.75378 5.11657 10.7254 4.88738 10.7254 4.61832C10.7254 4.34926 9.75378 4.12006 8.55548 4.12006C7.35717 4.12006 6.38806 4.34926 6.38806 4.61832C6.38806 4.88738 7.36963 5.11657 8.55548 5.11657Z" fill="#EF7D00"/>
<path d="M20.0678 2H8.56801C5.39412 2 3 3.14599 3 4.66567V19.3343C3 20.854 5.39412 22 8.56801 22C11.1515 22 13.2167 21.2526 13.8944 20.1365H20.0678L20.5884 19.6158V2.53313L20.0678 2ZM8.56801 3.03139C11.3283 3.03139 13.0922 3.99302 13.0922 4.6557C13.0922 5.31839 11.3283 6.28251 8.56801 6.28251C5.80767 6.28251 4.04136 5.31839 4.04136 4.6557C4.04136 3.99302 5.81515 3.03139 8.56801 3.03139ZM8.56801 20.9487C7.82613 20.9523 7.08604 20.8755 6.36074 20.7195V10.8839H5.31689V20.4131C4.49975 20.0867 4.03886 19.6657 4.03886 19.3343V6.25511C4.43658 6.51127 4.86627 6.71398 5.31689 6.858V9.78525H6.35824V7.12955C7.0857 7.26864 7.8249 7.33705 8.56552 7.33383C10.4738 7.33383 12.0957 6.9153 13.0897 6.25511V19.3343C13.0922 19.997 11.3283 20.9686 8.56801 20.9686V20.9487ZM19.5471 19.0852H14.1335V4.66567C14.1335 4.04285 13.7275 3.4848 13.0349 3.04136H19.5471V19.0852Z" fill="#EF7D00"/>
</svg>
