<svg width="24" height="24" viewBox="0 0 24 24" fill="none" xmlns="http://www.w3.org/2000/svg">
<path d="M19.8763 4.90453C18.7131 4.31062 17.7943 4.52577 16.9068 4.73644C16.0193 4.94711 15.1811 5.14209 13.9574 4.60197C13.7064 3.80637 12.7024 3.15867 11.1941 2.82698V2.76871C11.1941 2.23532 10.5217 2 9.01121 2C7.50067 2 6.83057 2.23532 6.83057 2.76871V2.82698C5.08023 3.21246 4 4.03048 4 5.0009V18.1945C4 19.1829 5.12057 19.9874 6.82609 20.3684V21.2313C6.82609 21.7647 7.49843 22 9.00672 22C10.515 22 11.1896 21.7647 11.1896 21.2313V20.3684C12.2026 20.1443 13.0117 19.7656 13.498 19.286C14.1201 19.5848 14.8003 19.7432 15.4904 19.7499C16.0405 19.7346 16.5867 19.6533 17.1174 19.5078C17.9399 19.3129 18.5899 19.1605 19.446 19.5975L20.1183 19.1806V5.32138L19.8763 4.90453ZM9.01121 3.53743C9.42814 3.54421 9.84492 3.51648 10.2573 3.4545V4.41372C9.84651 4.49039 9.42899 4.52493 9.01121 4.51681C8.59416 4.52498 8.17738 4.49044 7.76737 4.41372V3.4545C8.17899 3.5164 8.59502 3.54414 9.01121 3.53743ZM10.2573 20.9646C9.84651 21.0413 9.42899 21.0758 9.01121 21.0677C8.59416 21.0759 8.17738 21.0413 7.76737 20.9646V20.5164C8.59459 20.612 9.43007 20.612 10.2573 20.5164V20.9646ZM13.0834 18.1945C13.0834 18.7907 11.4966 19.6558 9.01121 19.6558C6.52577 19.6558 4.94128 18.7907 4.94128 18.1945V6.42851C5.83774 7.02465 7.29449 7.39892 9.01121 7.39892C10.7279 7.39892 12.1892 7.02465 13.0834 6.42851V18.1945ZM9.01121 6.46212C6.52801 6.46212 4.94128 5.59704 4.94128 5.0009C4.94128 4.6199 5.60242 4.10444 6.83057 3.79068V4.68714C6.83057 5.22053 7.50291 5.45809 9.01121 5.45809C10.5195 5.45809 11.1941 5.22053 11.1941 4.68714V3.79068C12.4245 4.09771 13.0834 4.61766 13.0834 5.00314C13.0834 5.59704 11.4966 6.46212 9.01121 6.46212ZM19.195 18.4993C18.3411 18.2618 17.6127 18.4321 16.9068 18.6002C16.026 18.8086 15.1945 19.0013 13.9933 18.4792C14.0146 18.3873 14.0259 18.2933 14.0269 18.199V5.64859C15.3111 6.09682 16.268 5.8727 17.1286 5.66204C17.866 5.48723 18.4733 5.34603 19.2017 5.63738L19.195 18.4993Z" fill="#EF7D00"/>
</svg>
