<svg width="24" height="24" viewBox="0 0 24 24" fill="none" xmlns="http://www.w3.org/2000/svg">
<path d="M21.5163 9.25582H20.3535V8.48605L19.8651 8H4.12558L3.62791 8.48605V9.25582H2.46512L2 9.74186V11.8977L2.48605 12.3837H3.64884V12.7186L3.7814 13.0605L5.91163 15.1907L6.25349 15.3326H9.1907L9.52791 15.1954L11.0419 13.7326L11.1651 13.5372L11.7907 11.6768H12.2186L12.8674 13.5628L12.9907 13.7558L14.4977 15.2023L14.8349 15.3372H17.7465L18.0884 15.1954L20.2186 13.0605L20.3628 12.7163V12.3791H21.5256L22 11.8977V9.74186L21.5163 9.25582ZM2.96977 11.407V10.2279H3.62791V11.407H2.96977ZM19.3884 12.5116L17.5442 14.3581H15.0233L13.7419 13.1279L13.0186 11.0349L12.5535 10.707H11.4302L10.9651 11.0395L10.2674 13.1326L8.9814 14.3768H6.45581L4.61163 12.5302V8.97209H19.3884V12.5116ZM21.0302 11.407H20.3721V10.2279H21.0395L21.0302 11.407Z" fill="#EF7D00"/>
</svg>
