<svg width="24" height="24" viewBox="0 0 24 24" fill="none" xmlns="http://www.w3.org/2000/svg">
<path fill-rule="evenodd" clip-rule="evenodd" d="M10.7143 16.1428C13.7125 16.1428 16.1429 13.7124 16.1429 10.7143C16.1429 7.71616 13.7125 5.28571 10.7143 5.28571C7.71622 5.28571 5.28577 7.71616 5.28577 10.7143C5.28577 13.7124 7.71622 16.1428 10.7143 16.1428ZM10.7143 17.1428C14.2647 17.1428 17.1429 14.2647 17.1429 10.7143C17.1429 7.16388 14.2647 4.28571 10.7143 4.28571C7.16394 4.28571 4.28577 7.16388 4.28577 10.7143C4.28577 14.2647 7.16394 17.1428 10.7143 17.1428Z" fill="#EF7D00"/>
<path fill-rule="evenodd" clip-rule="evenodd" d="M14.8607 14.8607C15.0559 14.6655 15.3725 14.6655 15.5678 14.8607L20.0678 19.3607C20.263 19.556 20.263 19.8726 20.0678 20.0678C19.8725 20.2631 19.5559 20.2631 19.3607 20.0678L14.8607 15.5678C14.6654 15.3726 14.6654 15.056 14.8607 14.8607Z" fill="#EF7D00"/>
</svg>
