<svg width="24" height="24" viewBox="0 0 24 24" fill="none" xmlns="http://www.w3.org/2000/svg">
<path fill-rule="evenodd" clip-rule="evenodd" d="M15.8572 6.71429C15.0682 6.71429 14.4286 7.35389 14.4286 8.14287C14.4286 8.93184 15.0682 9.57144 15.8572 9.57144C16.6461 9.57144 17.2857 8.93184 17.2857 8.14287C17.2857 7.35389 16.6461 6.71429 15.8572 6.71429ZM13.4286 8.14287C13.4286 6.8016 14.5159 5.71429 15.8572 5.71429C17.1984 5.71429 18.2857 6.8016 18.2857 8.14287C18.2857 9.48413 17.1984 10.5714 15.8572 10.5714C14.5159 10.5714 13.4286 9.48413 13.4286 8.14287Z" fill="#EF7D00"/>
<path fill-rule="evenodd" clip-rule="evenodd" d="M15.8572 14.4286C15.0682 14.4286 14.4286 15.0682 14.4286 15.8572C14.4286 16.6461 15.0682 17.2857 15.8572 17.2857C16.6461 17.2857 17.2857 16.6461 17.2857 15.8572C17.2857 15.0682 16.6461 14.4286 15.8572 14.4286ZM13.4286 15.8572C13.4286 14.5159 14.5159 13.4286 15.8572 13.4286C17.1984 13.4286 18.2857 14.5159 18.2857 15.8572C18.2857 17.1984 17.1984 18.2857 15.8572 18.2857C14.5159 18.2857 13.4286 17.1984 13.4286 15.8572Z" fill="#EF7D00"/>
<path fill-rule="evenodd" clip-rule="evenodd" d="M8.14287 10.5714C7.35389 10.5714 6.71429 11.211 6.71429 12C6.71429 12.789 7.35389 13.4286 8.14287 13.4286C8.93184 13.4286 9.57144 12.789 9.57144 12C9.57144 11.211 8.93184 10.5714 8.14287 10.5714ZM5.71429 12C5.71429 10.6587 6.8016 9.57141 8.14287 9.57141C9.48413 9.57141 10.5714 10.6587 10.5714 12C10.5714 13.3412 9.48413 14.4286 8.14287 14.4286C6.8016 14.4286 5.71429 13.3412 5.71429 12Z" fill="#EF7D00"/>
<path fill-rule="evenodd" clip-rule="evenodd" d="M14.1522 9.55434L10.2951 11.4829L9.84784 10.5885L13.705 8.65991L14.1522 9.55434Z" fill="#EF7D00"/>
<path fill-rule="evenodd" clip-rule="evenodd" d="M13.705 15.3401L9.84784 13.4115L10.2951 12.5171L14.1522 14.4457L13.705 15.3401Z" fill="#EF7D00"/>
</svg>
