<svg width="24" height="24" viewBox="0 0 24 24" fill="none" xmlns="http://www.w3.org/2000/svg">
<path d="M10.3746 12.4819C9.89399 11.9756 9.62664 11.3038 9.62791 10.6058V6.86622C9.7931 7.64214 10.2419 8.3285 10.8864 8.79099L11.4004 8.06973C11.1468 7.88927 10.9329 7.65881 10.7717 7.39253C10.6106 7.12626 10.5056 6.82981 10.4634 6.52145H12.0878L12.5108 6.07727V4.27307L12.0878 3.82889H7.41125L7.08129 3.97906L5.77625 5.44273L5.70011 5.91018L6.53136 7.85399V9.22882L6.45944 9.27324L5.77414 10.6396C5.26591 11.6601 5.00094 12.7844 5 13.9244V21.5579L5.44206 22H12.6335L13.0756 21.5579V16.7777C13.0776 15.8539 12.7239 14.9647 12.0878 14.2946L10.3746 12.4819ZM7.41337 8.20933H8.74167V9.03846H7.41548L7.41337 8.20933ZM7.60796 4.71513H11.6267V5.63733H9.84154C9.5504 5.63733 9.27118 5.75298 9.06531 5.95885C8.85944 6.16472 8.74379 6.44394 8.74379 6.73508V7.32309H7.26319L6.62865 5.82346L7.60796 4.71513ZM12.1936 21.1159H5.88413V13.9244C5.88517 12.9217 6.11828 11.9328 6.5652 11.0351L7.12783 9.91413H8.74379V10.6058C8.7418 11.5297 9.09551 12.4189 9.73156 13.0889L11.4533 14.9016C11.9337 15.408 12.201 16.0797 12.1999 16.7777L12.1936 21.1159Z" fill="#EF7D00"/>
<path d="M15.8838 2.82324L15.0632 3.02921L15.2785 3.88673L16.0991 3.68076L15.8838 2.82324Z" fill="#EF7D00"/>
<path d="M14.2412 3.23479L13.4205 3.44061L13.6356 4.29818L14.4563 4.09235L14.2412 3.23479Z" fill="#EF7D00"/>
<path d="M19.1652 1.99999L18.3445 2.20581L18.5596 3.06337L19.3803 2.85755L19.1652 1.99999Z" fill="#EF7D00"/>
<path d="M17.5235 2.41067L16.7029 2.61664L16.9181 3.47416L17.7387 3.2682L17.5235 2.41067Z" fill="#EF7D00"/>
<path d="M18.5617 7.58885L18.3464 8.44638L19.167 8.65235L19.3823 7.79482L18.5617 7.58885Z" fill="#EF7D00"/>
<path d="M15.2788 6.76522L15.0635 7.62274L15.8841 7.82871L16.0994 6.97118L15.2788 6.76522Z" fill="#EF7D00"/>
<path d="M16.9203 7.17678L16.7051 8.0343L17.5257 8.24027L17.7409 7.38274L16.9203 7.17678Z" fill="#EF7D00"/>
<path d="M13.6373 6.35313L13.4221 7.21066L14.2427 7.41663L14.4579 6.5591L13.6373 6.35313Z" fill="#EF7D00"/>
<path d="M16.2145 4.8822H15.3685V5.76633H16.2145V4.8822Z" fill="#EF7D00"/>
<path d="M17.9067 4.8822H17.0606V5.76633H17.9067V4.8822Z" fill="#EF7D00"/>
<path d="M19.5987 4.8822H18.7526V5.76633H19.5987V4.8822Z" fill="#EF7D00"/>
<path d="M14.5223 4.8822H13.6763V5.76633H14.5223V4.8822Z" fill="#EF7D00"/>
</svg>
