<svg width="24" height="24" viewBox="0 0 24 24" fill="none" xmlns="http://www.w3.org/2000/svg">
<path d="M18.464 7.746V7.232C18.4614 6.86151 18.3131 6.50693 18.0511 6.24494C17.7891 5.98296 17.4345 5.83462 17.064 5.832H13.132V6.67H14.07V8.238H13.378L12.96 8.656V10.492C12.6376 10.553 12.3344 10.6904 12.0759 10.8925C11.8174 11.0947 11.611 11.3558 11.474 11.654L10.084 10.184C9.6272 9.70277 9.37422 9.06351 9.378 8.4V4.74C9.378 4.68696 9.39908 4.63609 9.43658 4.59858C9.47409 4.56107 9.52496 4.54 9.578 4.54H9.932C9.97476 4.96516 10.1074 5.37638 10.3212 5.74636C10.535 6.11634 10.825 6.43664 11.172 6.686L11.652 6C11.4126 5.82894 11.2106 5.61091 11.0583 5.35921C10.906 5.1075 10.8065 4.82741 10.766 4.536H11.692L12.11 4.116V2.412L11.692 2H7.914C7.66347 1.99976 7.41537 2.04912 7.18401 2.14523C6.95265 2.24135 6.74261 2.38231 6.566 2.56L6.188 2.936C5.83065 3.29441 5.62997 3.77988 5.62997 4.286C5.62997 4.79212 5.83065 5.27759 6.188 5.636L6.448 5.896V7.096L6.38 7.138L5.732 8.434C5.2515 9.39894 5.00096 10.462 5 11.54V18.758L5.418 19.176H11.284V21.576L11.706 22H17.27L17.692 21.578V12.498C17.6913 12.0196 17.5233 11.5564 17.2173 11.1887C16.9113 10.8209 16.4863 10.5717 16.016 10.484V8.648L15.598 8.23H14.906V6.662H17.056C17.2074 6.662 17.3526 6.72199 17.4598 6.82883C17.567 6.93567 17.6275 7.08064 17.628 7.232V7.746H18.464ZM6.78 3.522L7.156 3.144C7.25548 3.04437 7.37364 2.96534 7.50371 2.91146C7.63378 2.85758 7.77321 2.8299 7.914 2.83H11.274V3.702H9.578C9.30306 3.70253 9.03955 3.81212 8.84532 4.00673C8.65109 4.20134 8.542 4.46505 8.542 4.74V5.298H7.04L6.78 5.038C6.57897 4.83696 6.46604 4.5643 6.46604 4.28C6.46604 3.9957 6.57897 3.72304 6.78 3.522ZM8.542 6.134V6.91H7.284V6.134H8.542ZM11.284 18.334H5.836V11.534C5.83708 10.585 6.05821 9.64914 6.482 8.8L7.012 7.738H8.542V8.4C8.54013 9.27359 8.87458 10.1144 9.476 10.748L11.096 12.462C11.163 12.5336 11.2258 12.609 11.284 12.688V18.334ZM15.642 11.284C15.9635 11.2851 16.2714 11.4134 16.4986 11.6409C16.7257 11.8684 16.8535 12.1765 16.854 12.498V21.17H12.132V12.498C12.1325 12.1786 12.2587 11.8722 12.4832 11.6451C12.7077 11.4179 13.0126 11.2882 13.332 11.284H15.642ZM15.178 9.066V10.448H13.798V9.066H15.178Z" fill="#EF7D00"/>
</svg>
