<svg width="24" height="24" viewBox="0 0 24 24" fill="none" xmlns="http://www.w3.org/2000/svg">
<path d="M19.0043 8.70323L16.9871 7.29032V5.09247L16.5376 4.64301H14.3871L13.9376 5.09247V7.28602L11.871 8.70108L11.6667 9.07097V12.0817L10.4624 10.8086C9.97375 10.2938 9.70193 9.61081 9.70322 8.90108V4.95269C9.70322 4.89565 9.72588 4.84095 9.76621 4.80062C9.80654 4.76029 9.86124 4.73763 9.91828 4.73763H10.2903C10.3353 5.19505 10.4776 5.63756 10.7075 6.03553C10.9375 6.43349 11.2498 6.77772 11.6237 7.04516L12.1462 6.31398C11.8891 6.12951 11.6722 5.89461 11.5088 5.6236C11.3454 5.35259 11.2388 5.05115 11.1957 4.73763H12.1892L12.6409 4.28817V2.44946L12.1892 2H7.45806L7.12043 2.15054L5.7957 3.64301L5.71828 4.11828L6.56344 6.09462V7.48817L6.48817 7.53548L5.79355 8.92473C5.27458 9.96174 5.00296 11.1049 5 12.2645V20.0258L5.44946 20.4753H11.6667V21.5505L12.1161 22H18.7462L19.1957 21.5505V9.07097L19.0043 8.70323ZM14.828 5.55269H16.0882V7.08602H14.828V5.55269ZM14.5183 7.97419H16.3978L17.3226 8.61935H13.5699L14.5183 7.97419ZM12.5656 12.5054H14.9828V17.4258H12.5656V12.5054ZM7.45376 6.45161H8.8043V7.28602H7.45376V6.45161ZM7.65161 2.89892H11.7376V3.83226H9.92043C9.62459 3.83283 9.34103 3.9506 9.13183 4.15979C8.92264 4.36898 8.80487 4.65255 8.8043 4.94839V5.55269H7.29892L6.65376 4.02796L7.65161 2.89892ZM11.6667 19.5763H5.89677V12.2645C5.89752 11.245 6.13455 10.2394 6.58925 9.32688L7.16129 8.18495H8.8043V8.89032C8.80228 9.82967 9.16191 10.7338 9.8086 11.4151L11.5527 13.2581C11.5914 13.3011 11.6301 13.3462 11.6667 13.3914V19.5763ZM18.2968 21.1097H12.5656V18.314H15.4323L15.8817 17.8753V12.0559L15.4323 11.6043H12.5656V9.52043H18.2968V21.1097Z" fill="#EF7D00"/>
</svg>
