<svg width="24" height="24" viewBox="0 0 24 24" fill="none" xmlns="http://www.w3.org/2000/svg">
<path d="M15.7999 13.5113L13.9151 11.5288C13.3858 10.9722 13.0915 10.2329 13.0937 9.46481V5.33915C13.2754 6.19215 13.7681 6.94697 14.4759 7.45666L15.0413 6.66318C14.763 6.46396 14.5281 6.21023 14.3509 5.91742C14.1737 5.62461 14.0579 5.29882 14.0105 4.95986H15.7859L16.2723 4.47353V2.48633L15.7859 2H10.6667L10.3013 2.16289L8.86795 3.77545L8.78418 4.2897L9.69866 6.42816V7.93834L9.61722 7.9872L8.86562 9.49273C8.30118 10.614 8.00486 11.8511 8 13.1065V21.502L8.48866 22H16.4002L16.8889 21.5137V16.2432C16.8904 15.2264 16.5005 14.2482 15.7999 13.5113ZM10.6597 6.81675H12.121V7.7196H10.6597V6.81675ZM10.8714 2.97266H15.2926V3.9872H13.3287C13.0086 3.98782 12.7018 4.11525 12.4754 4.3416C12.2491 4.56795 12.1216 4.87477 12.121 5.19488V5.8441H10.4921L9.79407 4.19197L10.8714 2.97266ZM15.9139 21.0157H8.97499V13.1041C8.97554 12.0009 9.23202 10.9129 9.72426 9.92554L10.3502 8.69226H12.128V9.45317C12.1258 10.4696 12.5149 11.4478 13.2147 12.185L15.0995 14.1792C15.6282 14.7362 15.9223 15.4752 15.9209 16.2432L15.9139 21.0157Z" fill="#EF7D00"/>
</svg>
