<svg width="24" height="24" viewBox="0 0 24 24" fill="none" xmlns="http://www.w3.org/2000/svg">
<path d="M9.87747 2L2.09189 5.12699L2 6.07147L13.2597 13.3925L13.7473 13.441L21.9158 10.217L22 9.26484L10.3574 2.04084L9.87747 2ZM13.612 12.3484L3.44225 5.73452L10.023 3.08998L20.5424 9.612L13.612 12.3484Z" fill="#EF7D00"/>
<path d="M13.612 16.328L2.582 9.15765L2 10.0511L13.2597 17.3746L13.7473 17.4231L21.9234 14.1966L21.5303 13.2036L13.612 16.328Z" fill="#EF7D00"/>
<path d="M13.612 20.4863L2.582 13.3134L2 14.2093L13.2597 21.5303L13.7473 21.5788L21.9234 18.3523L21.5303 17.3593L13.612 20.4863Z" fill="#EF7D00"/>
</svg>
