<svg width="24" height="24" viewBox="0 0 24 24" fill="none" xmlns="http://www.w3.org/2000/svg">
<path d="M15.9033 11.695L18.3523 3.54458L18.0516 2.97744L14.7669 2L14.2084 2.30075L11.9184 9.92266L11.435 7.01611L11.3469 6.81633L9.95919 5.01826L9.17938 5.14715L8.44683 7.29538L8.42965 7.5102L8.49194 7.884L7.09345 6.6101L6.34586 6.87433L6 9.12567L6.02148 9.34049L6.85285 11.6907H6.80559L6.35661 12.1396V21.5467L6.80559 22H16.2148L16.6638 21.551V12.1439L16.2148 11.695H15.9033ZM14.9388 2.98818L17.362 3.71643L17.0677 4.69603L15.8281 4.32868L15.5704 5.18797L16.8099 5.55532L16.5328 6.47261L15.3126 6.10741L15.0548 6.9667L16.275 7.33405L15.9871 8.29645L14.7669 7.92911L14.5091 8.7884L15.7272 9.1536L15.4415 10.1139L14.2578 9.75725L13.9979 10.6165L15.1837 10.9731L14.9689 11.695H12.3244L14.9388 2.98818ZM9.99785 11.4264L9.38346 7.81096L10.6165 7.59613L11.2954 11.6778H10.0838L9.99785 11.4264ZM9.76799 6.22771L10.1976 6.77121L9.55317 6.87648L9.76799 6.22771ZM7.10634 7.84533L7.61332 8.30505L7.00322 8.51987L7.10634 7.84533ZM7.02041 9.46939L8.19979 9.05263L9.11708 11.652V11.695H7.80451L7.02041 9.46939ZM15.768 21.102H7.25671V12.5929H15.7658L15.768 21.102Z" fill="#EF7D00"/>
</svg>
