<svg width="24" height="24" viewBox="0 0 24 24" fill="none" xmlns="http://www.w3.org/2000/svg">
<path d="M19.0122 15.5268L18.6933 15.3944H16.7405C17.3119 14.1141 17.4571 12.6841 17.1548 11.315C16.8525 9.94593 16.1186 8.71009 15.0611 7.78943L12.9781 5.70646C11.7325 4.5743 10.0995 3.96398 8.41665 4.00165C6.7338 4.03931 5.12974 4.72209 3.93601 5.90885C2.74228 7.09562 2.05013 8.69566 2.00262 10.3783C1.9551 12.0609 2.55586 13.6974 3.68071 14.9496L6.08047 17.3711L6.09566 17.3559C7.20793 18.4765 8.6871 19.1583 10.2616 19.2761V19.2957H21.6789L22 18.5211L19.0122 15.5268ZM2.89526 10.5602C2.8943 9.46586 3.21093 8.39473 3.80674 7.47678C4.40255 6.55883 5.25194 5.8335 6.25187 5.38878C7.25179 4.94406 8.35928 4.79906 9.43999 4.97138C10.5207 5.1437 11.5282 5.62593 12.3402 6.35956C11.2339 6.08274 10.0746 6.09903 8.97656 6.40682C7.8785 6.71462 6.87961 7.30329 6.0784 8.1148C5.27719 8.92631 4.70132 9.93262 4.40757 11.0345C4.11381 12.1364 4.11232 13.2959 4.40324 14.3985C3.4342 13.3552 2.89551 11.9841 2.89526 10.5602ZM10.752 18.3887C9.83848 18.3903 8.93821 18.1706 8.12807 17.7486C7.31792 17.3266 6.62199 16.7147 6.09973 15.9652C5.57747 15.2158 5.24442 14.351 5.12902 13.4448C5.01362 12.5387 5.11931 11.618 5.43707 10.7616C5.75482 9.90517 6.27518 9.13839 6.9537 8.52679C7.63221 7.91518 8.44871 7.47693 9.33342 7.24947C10.2181 7.02202 11.1447 7.01213 12.0341 7.22065C12.9235 7.42916 13.7491 7.84989 14.4406 8.44687L14.7487 8.75498L14.7617 8.74196C15.5502 9.53427 16.0863 10.5424 16.3023 11.6392C16.5183 12.736 16.4044 13.8721 15.9752 14.9042C15.546 15.9364 14.8205 16.8182 13.8905 17.4383C12.9605 18.0585 11.8676 18.3892 10.7498 18.3887H10.752ZM14.076 18.3887C14.95 17.8688 15.6925 17.1546 16.2458 16.3014H18.5067L20.594 18.3887H14.076Z" fill="#EF7D00"/>
<path d="M10.7519 9.15857C10.0455 9.15857 9.35505 9.36803 8.76773 9.76046C8.18041 10.1529 7.72265 10.7107 7.45234 11.3633C7.18203 12.0159 7.1113 12.734 7.24911 13.4267C7.38691 14.1195 7.72706 14.7559 8.22653 15.2554C8.726 15.7548 9.36237 16.095 10.0552 16.2328C10.7479 16.3706 11.466 16.2999 12.1186 16.0296C12.7712 15.7592 13.329 15.3015 13.7214 14.7142C14.1139 14.1269 14.3233 13.4364 14.3233 12.73C14.3222 11.7831 13.9455 10.8754 13.276 10.2059C12.6065 9.53636 11.6988 9.15972 10.7519 9.15857ZM10.7519 10.0655C11.0543 10.0666 11.3543 10.1186 11.6393 10.2196C11.808 10.6936 11.8387 11.2056 11.728 11.6964C11.6174 12.1871 11.3698 12.6364 11.0141 12.9922C10.6583 13.3479 10.209 13.5954 9.71829 13.7061C9.22754 13.8168 8.71547 13.786 8.2415 13.6174C8.09856 13.2157 8.05427 12.7855 8.11238 12.3631C8.17049 11.9407 8.32928 11.5385 8.57537 11.1903C8.82147 10.8421 9.14765 10.5582 9.52644 10.3624C9.90523 10.1667 10.3255 10.0649 10.7519 10.0655ZM10.7519 15.3945C10.0748 15.3942 9.4235 15.1349 8.93148 14.6698C8.99657 14.6698 9.06166 14.6698 9.12893 14.6698C10.0743 14.6686 10.9807 14.2932 11.65 13.6255C12.3193 12.9579 12.6969 12.0524 12.7004 11.107C12.7004 11.0397 12.7004 10.9747 12.7004 10.9096C13.0569 11.2878 13.2949 11.7622 13.3848 12.2742C13.4747 12.7861 13.4127 13.3132 13.2063 13.7903C13 14.2674 12.6584 14.6736 12.2237 14.9587C11.789 15.2438 11.2804 15.3953 10.7606 15.3945H10.7519Z" fill="#EF7D00"/>
</svg>
