<svg width="24" height="24" viewBox="0 0 24 24" fill="none" xmlns="http://www.w3.org/2000/svg">
<path d="M12.0013 3C6.47427 3 2.11844 5.40821 2 8.50336V15.9043C2 19.0626 6.39532 21.5393 12.0013 21.5393C12.2356 21.5393 12.4672 21.5393 12.6961 21.5393H17.96L18.3732 20.626L18.16 20.3839C20.5103 19.3627 22 17.7519 22 15.9096V8.63495C22.0026 5.47401 17.6152 3 12.0013 3ZM12.1355 20.426H12.0013C7.17173 20.426 3.09225 18.3494 3.09225 15.8912V11.2406C4.7372 13.0592 8.06922 14.2699 12.0013 14.2699H16.6809L15.7597 15.2332L15.7781 16.0096L17.152 17.3256L15.7966 18.4994L15.7439 19.289L16.7519 20.4286L12.1355 20.426ZM20.8972 15.9043C20.8972 17.3414 19.5023 18.6468 17.3783 19.4837L16.9256 18.9574L18.3179 17.7519L18.3364 16.9387L16.923 15.5859L18.3679 14.112L17.9758 13.1856C19.0847 12.76 20.0865 12.096 20.9104 11.2406L20.8972 15.9043ZM12.0013 13.1698C7.17173 13.1698 3.09225 11.0932 3.09225 8.63495C3.09225 6.17673 7.17173 4.11067 12.0013 4.11067C16.8309 4.11067 20.9104 6.18726 20.9104 8.64548C20.9104 11.1037 16.8309 13.1698 12.0013 13.1698Z" fill="#EF7D00"/>
<path d="M12.0014 6.30042C9.43002 6.30042 7.49292 7.30318 7.49292 8.63493C7.49292 9.96669 9.43002 10.9694 12.0014 10.9694C14.5728 10.9694 16.5099 9.96669 16.5099 8.63493C16.5099 7.30318 14.5728 6.30042 12.0014 6.30042ZM12.0014 9.86931C9.95114 9.86931 8.5799 9.1271 8.5799 8.63493C8.5799 8.14276 9.93798 7.40056 12.0014 7.40056C14.0648 7.40056 15.4229 8.14276 15.4229 8.63493C15.4229 9.1271 14.0517 9.86931 12.0014 9.86931Z" fill="#EF7D00"/>
</svg>
