<svg width="24" height="24" viewBox="0 0 24 24" fill="none" xmlns="http://www.w3.org/2000/svg">
<path d="M22 5.67251L21.6859 5.01734H9.98921C9.76953 5.00578 9.54793 5 9.32248 5C5.27585 5 2.08671 6.76125 2 9.02929V14.4537C2 16.7661 5.21996 18.5793 9.32248 18.5793C13.425 18.5793 16.645 16.768 16.645 14.4537V11.1355H21.6801L21.9942 10.4803L20.0673 8.07737L22 5.67251ZM9.32248 5.81896C12.8585 5.81896 15.851 7.33163 15.851 9.13142C15.851 10.9312 12.8585 12.4516 9.32248 12.4516C5.78649 12.4516 2.79969 10.9312 2.79969 9.13142C2.79969 7.33163 5.78842 5.81896 9.32248 5.81896ZM4.60141 12.309L2.79969 14.1049V11.0391C3.31143 11.5762 3.92356 12.0076 4.60141 12.309ZM2.94036 15.1147L5.41266 12.6385C6.09545 12.874 6.79955 13.0424 7.51498 13.1414L4.18133 16.4674C3.64279 16.1494 3.21086 15.6786 2.94036 15.1147ZM8.55747 13.2359C8.8099 13.2493 9.06619 13.2571 9.32826 13.2571C9.99393 13.2579 10.6587 13.2083 11.3169 13.1087L6.8945 17.5253C6.21154 17.3853 5.54689 17.1674 4.91358 16.8759L8.55747 13.2359ZM7.87533 17.6872L12.7679 12.7869C14.0339 12.415 15.0803 11.8407 15.7528 11.1355H15.851V12.1992L10.311 17.7334C9.98728 17.7604 9.65777 17.7739 9.32248 17.7739C8.83752 17.7736 8.353 17.7447 7.87147 17.6872H7.87533ZM15.851 14.4537C15.851 15.8411 14.0744 17.0628 11.6406 17.5484L15.851 13.3341V14.4537ZM20.8612 10.33H16.6507V9.13142C16.6507 7.76327 15.5254 6.57048 13.7603 5.82282H20.8515L19.2464 7.82494V8.32402L20.8612 10.33Z" fill="#EF7D00"/>
<path d="M9.32247 10.8406C11.2051 10.8406 12.6253 10.1064 12.6253 9.1314C12.6253 8.15635 11.2051 7.42218 9.32247 7.42218C7.43982 7.42218 6.0235 8.15635 6.0235 9.1314C6.0235 10.1064 7.44175 10.8406 9.32247 10.8406ZM9.32247 8.22765C10.8236 8.22765 11.8275 8.77106 11.8275 9.1314C11.8275 9.49174 10.8313 10.0351 9.32247 10.0351C7.81365 10.0351 6.82704 9.49174 6.82704 9.1314C6.82704 8.77106 7.82329 8.22765 9.32247 8.22765Z" fill="#EF7D00"/>
</svg>
