<svg width="24" height="24" viewBox="0 0 24 24" fill="none" xmlns="http://www.w3.org/2000/svg">
<path d="M8.05019 19.9361H15.6866L16.1881 19.5273L16.6621 17.4358H18.558L19.0596 17.0471L20.1455 12.9743L19.6439 12.3148H17.8483L18.217 10.6897L17.7154 10.0477H6.04393L5.54236 10.6897L7.54863 19.5273L8.05019 19.9361ZM18.9718 13.3631L18.1643 16.3875H16.9104L17.5975 13.3631H18.9718ZM17.0358 11.106L15.2677 18.8878H8.469L6.70098 11.096L17.0358 11.106Z" fill="#EF7D00"/>
<path d="M19.7392 20.9517H4V22H19.7392V20.9517Z" fill="#EF7D00"/>
<path d="M12.5242 6.33354C12.5538 7.07301 12.7648 7.79386 13.1386 8.4326L14.0339 7.88589C13.7656 7.41038 13.6119 6.87886 13.585 6.33354C13.598 5.98537 13.6834 5.64373 13.8358 5.33041C14.0174 4.93646 14.118 4.51006 14.1317 4.07649C14.1317 3.10094 13.5599 2.04514 13.5348 2L12.6145 2.50157C12.8783 2.98744 13.038 3.52296 13.0834 4.07398C13.0605 4.38059 12.9751 4.67928 12.8326 4.95172C12.6352 5.38599 12.5302 5.85654 12.5242 6.33354Z" fill="#EF7D00"/>
<path d="M9.84576 6.33354C9.87541 7.07301 10.0864 7.79386 10.4602 8.4326L11.3555 7.88589C11.0828 7.41147 10.9248 6.87988 10.894 6.33354C10.907 5.98537 10.9925 5.64373 11.1448 5.33041C11.3264 4.93646 11.427 4.51006 11.4408 4.07649C11.4408 3.10094 10.869 2.04514 10.8439 2L9.92351 2.50157C10.1864 2.98766 10.3453 3.52316 10.39 4.07398C10.3751 4.37505 10.3 4.67009 10.1693 4.94169C9.96655 5.37835 9.8564 5.85224 9.84576 6.33354Z" fill="#EF7D00"/>
</svg>
