<svg width="24" height="24" viewBox="0 0 24 24" fill="none" xmlns="http://www.w3.org/2000/svg">
<path fill-rule="evenodd" clip-rule="evenodd" d="M3.78577 5.57141C3.78577 5.29527 4.00962 5.07141 4.28577 5.07141H13.2858C13.5619 5.07141 13.7858 5.29527 13.7858 5.57141V13.2857C13.7858 13.5618 13.5619 13.7857 13.2858 13.7857H4.28577C4.00962 13.7857 3.78577 13.5618 3.78577 13.2857V5.57141ZM4.78577 6.07141V12.7857H12.7858V6.07141H4.78577Z" fill="#EF7D00"/>
<path fill-rule="evenodd" clip-rule="evenodd" d="M14.0714 6.85712C14.0714 6.58097 14.2953 6.35712 14.5714 6.35712H16.2857C16.3939 6.35712 16.4991 6.39221 16.5857 6.45712L20.0143 9.02855C20.1402 9.12297 20.2143 9.27117 20.2143 9.42855V13.2857C20.2143 13.5618 19.9904 13.7857 19.7143 13.7857H14.5714C14.2953 13.7857 14.0714 13.5618 14.0714 13.2857C14.0714 13.0095 14.2953 12.7857 14.5714 12.7857H19.2143V9.67855L16.119 7.35712H14.5714C14.2953 7.35712 14.0714 7.13326 14.0714 6.85712Z" fill="#EF7D00"/>
<path fill-rule="evenodd" clip-rule="evenodd" d="M17.1429 15.0714C16.709 15.0714 16.3572 15.4232 16.3572 15.8571C16.3572 16.2911 16.709 16.6428 17.1429 16.6428C17.5768 16.6428 17.9286 16.2911 17.9286 15.8571C17.9286 15.4232 17.5768 15.0714 17.1429 15.0714ZM15.3572 15.8571C15.3572 14.8709 16.1567 14.0714 17.1429 14.0714C18.1291 14.0714 18.9286 14.8709 18.9286 15.8571C18.9286 16.8433 18.1291 17.6428 17.1429 17.6428C16.1567 17.6428 15.3572 16.8433 15.3572 15.8571Z" fill="#EF7D00"/>
<path fill-rule="evenodd" clip-rule="evenodd" d="M7.49998 13.7857C6.711 13.7857 6.07141 14.4253 6.07141 15.2143C6.07141 16.0033 6.711 16.6428 7.49998 16.6428C8.28896 16.6428 8.92855 16.0033 8.92855 15.2143C8.92855 14.4253 8.28896 13.7857 7.49998 13.7857ZM5.07141 15.2143C5.07141 13.873 6.15872 12.7857 7.49998 12.7857C8.84125 12.7857 9.92855 13.873 9.92855 15.2143C9.92855 16.5555 8.84125 17.6428 7.49998 17.6428C6.15872 17.6428 5.07141 16.5555 5.07141 15.2143Z" fill="#EF7D00"/>
</svg>
