<svg width="24" height="24" viewBox="0 0 24 24" fill="none" xmlns="http://www.w3.org/2000/svg">
<path d="M9.11576 4.85656C10.2198 4.85656 11.1149 4.64539 11.1149 4.38489C11.1149 4.12439 10.2198 3.91321 9.11576 3.91321C8.01167 3.91321 7.11664 4.12439 7.11664 4.38489C7.11664 4.64539 8.01167 4.85656 9.11576 4.85656Z" fill="#EF7D00"/>
<path d="M15.7721 11.266C15.2561 11.2655 14.7406 11.3001 14.2292 11.3696V4.43994C14.2292 3.04915 12.0251 2 9.11351 2C6.2019 2 4 3.04915 4 4.43994V17.9731C4 19.3639 6.2041 20.413 9.11572 20.413C9.701 20.4153 10.2855 20.3703 10.8636 20.2786C11.4785 21.2969 13.3829 22 15.7721 22C18.6881 22 20.8878 20.9508 20.8878 19.5601V13.7082C20.8878 12.3152 18.6881 11.266 15.7721 11.266ZM15.7721 12.1873C18.3707 12.1873 19.9599 13.069 19.9599 13.7082C19.9599 14.3474 18.3641 15.2268 15.7721 15.2268C13.1801 15.2268 11.5843 14.3452 11.5843 13.7082C11.5843 13.0712 13.1735 12.1873 15.7721 12.1873ZM9.11572 2.93013C11.7143 2.93013 13.3035 3.81177 13.3035 4.44876C13.3035 5.08574 11.7077 5.96958 9.11572 5.96958C6.52369 5.96958 4.92793 5.08794 4.92793 4.44876C4.92793 3.80957 6.51708 2.92131 9.11572 2.92131V2.93013ZM7.0615 19.2735V10.1772H6.14018V19.0068C5.35773 18.7005 4.92131 18.3037 4.92131 17.9731V5.8726C5.29872 6.12093 5.70897 6.31531 6.14018 6.45008V9.16553H7.0615V6.69032C7.7384 6.82067 8.42638 6.88489 9.11572 6.88208C10.8922 6.88208 12.402 6.49195 13.3035 5.8726V11.5592C11.6967 11.9603 10.6586 12.7582 10.6586 13.7192V19.3881C10.1481 19.4664 9.6322 19.5047 9.11572 19.5028C8.42468 19.5012 7.73587 19.4244 7.0615 19.2735ZM19.9665 19.5512C19.9665 20.1838 18.3707 21.0699 15.7787 21.0699C15.088 21.0715 14.3992 20.9976 13.7245 20.8495V18.0789H12.7944V20.596C12.0141 20.2896 11.5777 19.8929 11.5777 19.5623V15.1541C11.9553 15.4006 12.3646 15.5948 12.7944 15.7315V16.9438H13.7179V15.9674C14.3948 16.0979 15.0828 16.1622 15.7721 16.1591C17.5486 16.1591 19.0562 15.769 19.9599 15.1519L19.9665 19.5512Z" fill="#EF7D00"/>
<path d="M15.7721 14.1226C16.8742 14.1226 17.7712 13.9132 17.7712 13.6509C17.7712 13.3886 16.8764 13.1792 15.7721 13.1792C14.6679 13.1792 13.7664 13.3908 13.7664 13.6509C13.7664 13.911 14.6679 14.1226 15.7721 14.1226Z" fill="#EF7D00"/>
</svg>
