<svg width="24" height="24" viewBox="0 0 24 24" fill="none" xmlns="http://www.w3.org/2000/svg">
<path fill-rule="evenodd" clip-rule="evenodd" d="M12.0001 6.5C10.694 6.5 9.63513 7.55882 9.63513 8.86494C9.63513 10.1711 10.694 11.2299 12.0001 11.2299C13.3062 11.2299 14.365 10.1711 14.365 8.86494C14.365 7.55882 13.3062 6.5 12.0001 6.5ZM8.63513 8.86494C8.63513 7.00653 10.1417 5.5 12.0001 5.5C13.8585 5.5 15.365 7.00653 15.365 8.86494C15.365 10.7233 13.8585 12.2299 12.0001 12.2299C10.1417 12.2299 8.63513 10.7233 8.63513 8.86494Z" fill="#EF7C00"/>
<path fill-rule="evenodd" clip-rule="evenodd" d="M9.71735 12.1408L9.9584 12.3149C10.5111 12.7141 11.2225 12.963 12.0001 12.963C12.738 12.963 13.4544 12.7165 14.0521 12.3076L14.2884 12.1459L14.5474 12.2678C16.5179 13.1951 17.8695 15.1652 17.9467 17.4429L17.9541 17.6598L17.8006 17.8134C17.7721 17.8418 17.7462 17.8645 17.7236 17.8831L17.6145 18.1013H6.52286L6.08142 17.6598L6.08878 17.4429C6.16594 15.1665 7.51606 13.1974 9.44929 12.2695L9.71735 12.1408ZM14.3637 13.2949C13.6687 13.7102 12.8539 13.963 12.0001 13.963C11.1249 13.963 10.3085 13.7157 9.63325 13.2995C8.26625 14.0565 7.29391 15.4628 7.115 17.1013H16.9205C16.7411 15.4594 15.7632 14.0508 14.3637 13.2949Z" fill="#EF7C00"/>
<path fill-rule="evenodd" clip-rule="evenodd" d="M5.31515 7.27814C4.32157 7.27814 3.51611 8.08359 3.51611 9.07717C3.51611 10.0708 4.32157 10.8762 5.31515 10.8762C6.30873 10.8762 7.11418 10.0708 7.11418 9.07717C7.11418 8.08359 6.30873 7.27814 5.31515 7.27814ZM2.51611 9.07717C2.51611 7.53131 3.76928 6.27814 5.31515 6.27814C6.86101 6.27814 8.11418 7.53131 8.11418 9.07717C8.11418 10.623 6.86101 11.8762 5.31515 11.8762C3.76928 11.8762 2.51611 10.623 2.51611 9.07717Z" fill="#EF7C00"/>
<path fill-rule="evenodd" clip-rule="evenodd" d="M3.51742 11.9348L3.75327 12.092C4.20547 12.3935 4.74629 12.574 5.35052 12.574C5.95474 12.574 6.49556 12.3935 6.94776 12.092L7.17312 11.9418L7.42207 12.0485C7.99397 12.2936 8.51055 12.6942 8.90377 13.1267L8.16383 13.7994C7.90652 13.5163 7.58962 13.2593 7.25346 13.077C6.69766 13.3905 6.05345 13.574 5.35052 13.574C4.65108 13.574 4.00977 13.3923 3.45585 13.0817C2.44644 13.6536 1.71587 14.6964 1.53789 15.9341H6.72994V16.9341H0.899037L0.491333 16.5264L0.500467 16.3072C0.578842 14.4262 1.67711 12.809 3.26139 12.0564L3.51742 11.9348Z" fill="#EF7C00"/>
<path fill-rule="evenodd" clip-rule="evenodd" d="M18.6495 7.27814C17.6559 7.27814 16.8505 8.08359 16.8505 9.07717C16.8505 10.0708 17.6559 10.8762 18.6495 10.8762C19.6431 10.8762 20.4485 10.0708 20.4485 9.07717C20.4485 8.08359 19.6431 7.27814 18.6495 7.27814ZM15.8505 9.07717C15.8505 7.53131 17.1036 6.27814 18.6495 6.27814C20.1954 6.27814 21.4485 7.53131 21.4485 9.07717C21.4485 10.623 20.1954 11.8762 18.6495 11.8762C17.1036 11.8762 15.8505 10.623 15.8505 9.07717Z" fill="#EF7C00"/>
<path fill-rule="evenodd" clip-rule="evenodd" d="M20.4827 11.9348L20.7387 12.0564C22.323 12.809 23.4212 14.4262 23.4996 16.3072L23.5087 16.5264L23.101 16.9341H17.2701V15.9341H22.4622C22.2842 14.6964 21.5536 13.6536 20.5442 13.0817C19.9903 13.3923 19.349 13.574 18.6496 13.574C17.9466 13.574 17.3024 13.3905 16.7466 13.077C16.4105 13.2593 16.0936 13.5163 15.8363 13.7994L15.0963 13.1267C15.4895 12.6942 16.0061 12.2936 16.578 12.0485L16.827 11.9418L17.0523 12.092C17.5045 12.3935 18.0453 12.574 18.6496 12.574C19.2538 12.574 19.7946 12.3935 20.2468 12.092L20.4827 11.9348Z" fill="#EF7C00"/>
</svg>
