<svg width="24" height="24" viewBox="0 0 24 24" fill="none" xmlns="http://www.w3.org/2000/svg">
<path fill-rule="evenodd" clip-rule="evenodd" d="M12.0726 2.5C9.44321 2.5 7.29419 4.64902 7.29419 7.27845C7.29419 9.90788 9.44321 12.0569 12.0726 12.0569C14.7021 12.0569 16.8511 9.90788 16.8511 7.27845C16.8511 4.64902 14.7021 2.5 12.0726 2.5ZM6.29419 7.27845C6.29419 4.09674 8.89093 1.5 12.0726 1.5C15.2543 1.5 17.8511 4.09673 17.8511 7.27845C17.8511 10.4602 15.2544 13.0569 12.0726 13.0569C8.89092 13.0569 6.29419 10.4602 6.29419 7.27845Z" fill="#EF7C00"/>
<path fill-rule="evenodd" clip-rule="evenodd" d="M7.71035 13.0449L7.95049 13.2112C9.12683 14.0256 10.5289 14.4782 12.0242 14.4782C13.5614 14.4782 14.9659 13.981 16.1014 13.2088L16.3406 13.0461L16.6009 13.1724C20.0497 14.8461 22.5 18.3041 22.5 22.3874V22.5945L21.965 23.1295H2.03504L1.6877 22.7822L1.68571 22.7802C1.6817 22.7762 1.68399 22.7785 1.68571 22.7802L1.49481 22.5893L1.50017 22.3749C1.6019 18.3058 3.99374 14.8486 7.44758 13.1724L7.71035 13.0449ZM2.51038 22.1295H21.4964C21.3988 18.674 19.3455 15.7253 16.4153 14.1984C15.1746 14.9799 13.6686 15.4782 12.0242 15.4782C10.4277 15.4782 8.91973 15.0236 7.63099 14.1996C4.71187 15.7231 2.69341 18.6672 2.51038 22.1295Z" fill="#EF7C00"/>
</svg>
