<svg width="24" height="24" viewBox="0 0 24 24" fill="none" xmlns="http://www.w3.org/2000/svg">
<path d="M21.6071 9.52144H17.8978L17.5123 9.90694V10.3035H16.0164L15.2786 8.47192L15.072 8.26164L12.1208 7H11.8257L8.85973 8.19524L8.64945 8.40183L7.83049 10.3109H5.39758L5.17071 9.92723L4.83685 9.74278H3.1934L2.85954 9.92723L2.03505 11.3659V11.7349L2.80052 13.0611L2 14.5551L2.33939 14.7396L2.68062 14.924L3.51065 13.3654H4.84054L5.1744 13.1809L5.32934 12.9116H7.88583L8.57383 14.6289L8.78041 14.8392L11.7316 16.1008H12.0267L15.0038 14.9092L15.2141 14.7027L15.9832 12.908H17.5086V13.1902L17.8978 13.5794H21.6145L22 13.1939V9.91432L21.6071 9.52144ZM4.61736 12.5944H3.41474L2.81158 11.5504L3.41474 10.5064H4.61736L5.2242 11.5504L4.61736 12.5944ZM5.77386 12.1333L6.00258 11.7349V11.3659L5.84395 11.0893H7.50401L7.38412 11.3493V11.6445L7.57964 12.1333H5.77386ZM11.9733 7.77838L14.2088 8.73199L11.9013 11.0339L9.59753 8.73015L11.9733 7.77838ZM8.15697 11.5061L9.09398 9.31855L11.3553 11.5799L9.09213 13.8413L8.15697 11.5061ZM11.8847 15.3224L9.65655 14.3688L11.9013 12.1259L14.1793 14.4039L11.8847 15.3224ZM14.7289 13.8634L12.4454 11.5799L14.7622 9.25952L15.6973 11.5947L14.7289 13.8634ZM17.5049 12.1333H16.3097L16.472 11.7515V11.4563L16.3226 11.0874H17.5012L17.5049 12.1333ZM21.2179 12.801H18.2667V10.2998H21.2179V12.801Z" fill="#EF7D00"/>
</svg>
