<svg width="24" height="24" viewBox="0 0 24 24" fill="none" xmlns="http://www.w3.org/2000/svg">
<path d="M21.168 5V10.8C21.1649 11.2764 20.9742 11.7324 20.6373 12.0693C20.3004 12.4062 19.8444 12.5969 19.368 12.6H16.868L17.118 12.016V11.696L16.898 11.144H19.164L19.582 10.726V5H18.746V10.316H16.566L15.83 8.48L15.6 8.246L12.41 6.88H12.09L8.862 8.166L8.634 8.39L7.8 10.316H4.64C3.93962 10.3176 3.26845 10.5968 2.77358 11.0924C2.27871 11.588 2.00053 12.2596 2 12.96V18.76H2.836V12.96C2.83914 12.4836 3.0298 12.0276 3.36668 11.6907C3.70357 11.3538 4.15958 11.1631 4.636 11.16H7.436L7.252 11.594V11.914L7.532 12.616H4.832L4.414 13.034V18.76H5.25V13.444H7.876L8.554 15.134L8.778 15.362L9.01 15.462L9.12 15.572L9.164 15.528L11.974 16.728H12.294L15.246 15.546L15.264 15.564L15.306 15.52L15.52 15.436L15.75 15.212L15.85 14.978L16.506 13.444H19.36C20.0604 13.4424 20.7316 13.1632 21.2264 12.6676C21.7213 12.172 21.9995 11.5004 22 10.8V5H21.168ZM12.24 7.714L14.728 8.78L12.2 11.316L9.634 8.758L12.24 7.714ZM9.146 14.362L8.102 11.762L9.102 9.42L11.6 11.908L9.146 14.362ZM12.146 15.894L9.8 14.892L12.2 12.492L14.6 14.91L12.146 15.894ZM15.218 14.342L12.784 11.908L15.298 9.394L16.282 11.854L15.218 14.342Z" fill="#EF7D00"/>
</svg>
