<svg width="24" height="24" viewBox="0 0 24 24" fill="none" xmlns="http://www.w3.org/2000/svg">
<path d="M22 16.3881V15.4338H17.5251V14.8493L17.0479 14.379H15.1804V10.0411L14.7032 9.56165H14.0776V6.31735H17.8881C18.3174 6.30142 18.7238 6.1197 19.0218 5.81038C19.3199 5.50106 19.4864 5.08823 19.4864 4.65868C19.4864 4.22912 19.3199 3.8163 19.0218 3.50697C18.7238 3.19765 18.3174 3.01593 17.8881 3H6.11187C5.68261 3.01593 5.27625 3.19765 4.97819 3.50697C4.68013 3.8163 4.5136 4.22912 4.5136 4.65868C4.5136 5.08823 4.68013 5.50106 4.97819 5.81038C5.27625 6.1197 5.68261 6.30142 6.11187 6.31735H9.92237V9.54338H9.2968L8.81963 10.0228V14.379H6.95205L6.4726 14.8562V15.4406H2V16.3881H6.4726V18.6324H2V19.5868H6.4726V20.258L6.95205 20.7352H17.0479L17.5251 20.258V19.5868H22V18.6324H17.5251V16.3881H22ZM6.11187 5.36301C5.932 5.35277 5.76287 5.2741 5.63915 5.14314C5.51543 5.01217 5.44651 4.83884 5.44651 4.65868C5.44651 4.47852 5.51543 4.30518 5.63915 4.17422C5.76287 4.04325 5.932 3.96458 6.11187 3.95434H17.8881C18.068 3.96458 18.2371 4.04325 18.3608 4.17422C18.4846 4.30518 18.5535 4.47852 18.5535 4.65868C18.5535 4.83884 18.4846 5.01217 18.3608 5.14314C18.2371 5.2741 18.068 5.35277 17.8881 5.36301H6.11187ZM10.8767 6.31735H13.1233V9.54338H10.8767V6.31735ZM16.5708 19.7877H7.43379V15.3265H9.30137L9.77854 14.8493V10.4977H14.2306V14.8356L14.7078 15.3128H16.5662L16.5708 19.7877Z" fill="#EF7D00"/>
</svg>
