<svg width="24" height="24" viewBox="0 0 24 24" fill="none" xmlns="http://www.w3.org/2000/svg">
<path d="M21.6071 9.52144H17.8978L17.5123 9.90694V10.3035H16.0164L15.2786 8.47192L15.072 8.26164L12.1208 7H11.8257L8.85973 8.19524L8.64945 8.40183L7.83049 10.3109H5.39758L5.17071 9.92723L4.83685 9.74278H3.1934L2.85954 9.92723L2.03505 11.3659V11.7349L2.80052 13.0611L2 14.5551L2.33939 14.7396L2.68062 14.924L3.51065 13.3654H4.84054L5.1744 13.1809L5.32934 12.9116H7.88583L8.57383 14.6289L8.78041 14.8392L11.7316 16.1008H12.0267L15.0038 14.9092L15.2141 14.7027L15.9832 12.908H17.5086V13.1902L17.8978 13.5794H21.6145L22 13.1939V9.91432L21.6071 9.52144ZM4.61736 12.5944H3.41474L2.81158 11.5504L3.41474 10.5064H4.61736L5.2242 11.5504L4.61736 12.5944ZM5.77386 12.1333L6.00258 11.7349V11.3659L5.84395 11.0893H7.50401L7.38412 11.3493V11.6445L7.57964 12.1333H5.77386ZM11.9733 7.77838L14.2088 8.73199L12.9453 9.99548C12.6388 9.79048 12.2784 9.68105 11.9096 9.68105C11.5409 9.68105 11.1804 9.79048 10.8739 9.99548L9.59753 8.73015L11.9733 7.77838ZM13.0025 11.5504C13.0029 11.7676 12.9388 11.9801 12.8183 12.1608C12.6978 12.3416 12.5265 12.4825 12.3258 12.5658C12.1252 12.6491 11.9044 12.671 11.6914 12.6287C11.4783 12.5864 11.2826 12.4819 11.129 12.3283C10.9754 12.1747 10.8708 11.979 10.8285 11.7659C10.7862 11.5528 10.8081 11.332 10.8914 11.1314C10.9747 10.9308 11.1157 10.7594 11.2964 10.639C11.4772 10.5185 11.6896 10.4544 11.9069 10.4548C12.1973 10.4553 12.4757 10.5708 12.681 10.7762C12.8864 10.9816 13.002 11.26 13.0025 11.5504ZM8.15697 11.5061L9.09398 9.31855L10.3353 10.5544C10.1403 10.8577 10.0384 11.2115 10.0423 11.5722C10.0463 11.9328 10.1558 12.2843 10.3575 12.5833L9.09767 13.8413L8.15697 11.5061ZM11.8847 15.3224L9.65655 14.3688L10.9034 13.1219C11.2019 13.3128 11.5488 13.4143 11.9032 13.4143C12.2575 13.4143 12.6044 13.3128 12.9029 13.1219L14.1793 14.3983L11.8847 15.3224ZM14.7289 13.8634L13.4562 12.5889C13.6581 12.2872 13.7671 11.9331 13.7697 11.5701C13.7724 11.2072 13.6685 10.8515 13.471 10.547L14.7622 9.25583L15.6973 11.591L14.7289 13.8634ZM17.5049 12.1333H16.3097L16.472 11.7515V11.4563L16.3226 11.0874H17.5012L17.5049 12.1333ZM21.2179 12.801H18.2667V10.2998H21.2179V12.801Z" fill="#EF7D00"/>
</svg>
