<svg width="24" height="24" viewBox="0 0 24 24" fill="none" xmlns="http://www.w3.org/2000/svg">
<path fill-rule="evenodd" clip-rule="evenodd" d="M9.35303 5.67639C9.62917 5.67639 9.85303 5.90025 9.85303 6.17639V12.5293C9.85303 12.8055 9.62917 13.0293 9.35303 13.0293C9.07688 13.0293 8.85303 12.8055 8.85303 12.5293V6.17639C8.85303 5.90025 9.07688 5.67639 9.35303 5.67639Z" fill="#EF7D00"/>
<path fill-rule="evenodd" clip-rule="evenodd" d="M13.0294 9.35278C13.0294 9.62893 12.8056 9.85278 12.5294 9.85278L6.17648 9.85278C5.90033 9.85278 5.67648 9.62893 5.67648 9.35278C5.67648 9.07664 5.90033 8.85278 6.17648 8.85278L12.5294 8.85278C12.8056 8.85278 13.0294 9.07664 13.0294 9.35278Z" fill="#EF7D00"/>
<path fill-rule="evenodd" clip-rule="evenodd" d="M9.35294 14.7059C12.3093 14.7059 14.7059 12.3093 14.7059 9.35294C14.7059 6.39659 12.3093 4 9.35294 4C6.39659 4 4 6.39659 4 9.35294C4 12.3093 6.39659 14.7059 9.35294 14.7059ZM9.35294 15.7059C12.8616 15.7059 15.7059 12.8616 15.7059 9.35294C15.7059 5.84431 12.8616 3 9.35294 3C5.84431 3 3 5.84431 3 9.35294C3 12.8616 5.84431 15.7059 9.35294 15.7059Z" fill="#EF7D00"/>
<path fill-rule="evenodd" clip-rule="evenodd" d="M13.2347 13.2346C13.43 13.0394 13.7465 13.0394 13.9418 13.2346L19.2359 18.5288C19.4312 18.724 19.4312 19.0406 19.2359 19.2359C19.0407 19.4311 18.7241 19.4311 18.5288 19.2359L13.2347 13.9417C13.0394 13.7465 13.0394 13.4299 13.2347 13.2346Z" fill="#EF7D00"/>
<path fill-rule="evenodd" clip-rule="evenodd" d="M14.1168 14.1168C14.4097 13.8239 14.8845 13.8239 15.1774 14.1168L19.4127 18.3521C19.7056 18.645 19.7056 19.1198 19.4127 19.4127C19.1198 19.7056 18.645 19.7056 18.3521 19.4127L14.1168 15.1774C13.8239 14.8845 13.8239 14.4097 14.1168 14.1168Z" fill="#EF7D00"/>
</svg>
