<svg width="24" height="24" viewBox="0 0 24 24" fill="none" xmlns="http://www.w3.org/2000/svg">
<path d="M14.5278 5.98022V2H13.9014V5.98022H8.3132L8 6.29492V21.6868L8.3132 22H15.6203L15.9335 21.6868V6.29492L15.6203 5.98022H14.5278ZM15.3071 21.3736H8.62641V6.60513H15.3071V21.3736Z" fill="#EF7D00"/>
<path d="M14.2371 11.8741L14.5503 11.5609V7.72904L14.2371 7.41583H9.69638L9.38318 7.72904V11.5609L9.69638 11.8741H14.2371ZM10.0096 8.04374H13.9239V11.2507H10.0096V8.04374Z" fill="#EF7D00"/>
<path d="M10.7049 12.8976H9.52551V13.524H10.7049V12.8976Z" fill="#EF7D00"/>
<path d="M14.4079 12.8976H13.2285V13.524H14.4079V12.8976Z" fill="#EF7D00"/>
<path d="M12.5557 12.8976H11.3763V13.524H12.5557V12.8976Z" fill="#EF7D00"/>
<path d="M11.9667 16.6545C11.6763 16.6545 11.3923 16.7407 11.1508 16.902C10.9093 17.0634 10.7211 17.2928 10.6099 17.5611C10.4987 17.8295 10.4697 18.1248 10.5263 18.4097C10.583 18.6945 10.7229 18.9562 10.9283 19.1616C11.1336 19.367 11.3953 19.5069 11.6802 19.5635C11.9651 19.6202 12.2604 19.5911 12.5287 19.48C12.7971 19.3688 13.0264 19.1806 13.1878 18.9391C13.3492 18.6975 13.4353 18.4136 13.4353 18.1231C13.4345 17.7339 13.2795 17.3608 13.0043 17.0856C12.7291 16.8103 12.356 16.6553 11.9667 16.6545ZM11.9667 18.9653C11.8001 18.9653 11.6373 18.916 11.4988 18.8234C11.3603 18.7309 11.2524 18.5993 11.1886 18.4454C11.1249 18.2916 11.1082 18.1222 11.1407 17.9588C11.1732 17.7955 11.2534 17.6454 11.3712 17.5276C11.489 17.4098 11.639 17.3296 11.8024 17.2971C11.9658 17.2646 12.1351 17.2813 12.289 17.3451C12.4429 17.4088 12.5744 17.5167 12.667 17.6552C12.7595 17.7937 12.8089 17.9566 12.8089 18.1231C12.8089 18.3465 12.7202 18.5607 12.5622 18.7187C12.4043 18.8766 12.1901 18.9653 11.9667 18.9653Z" fill="#EF7D00"/>
</svg>
