<svg width="24" height="24" viewBox="0 0 24 24" fill="none" xmlns="http://www.w3.org/2000/svg">
<path d="M14.5278 5.98172V2H13.9014V5.98172H8.3132L8 6.29492V21.6868L8.3132 22H15.6203L15.9335 21.6868V6.29492L15.6203 5.98172H14.5278ZM15.3071 21.3736H8.62641V6.60513H15.3071V21.3736Z" fill="#EF7D00"/>
<path d="M10.7049 15.3673H9.52551V15.9937H10.7049V15.3673Z" fill="#EF7D00"/>
<path d="M14.4079 15.3673H13.2285V15.9937H14.4079V15.3673Z" fill="#EF7D00"/>
<path d="M12.5557 15.3673H11.3763V15.9937H12.5557V15.3673Z" fill="#EF7D00"/>
<path d="M11.9667 17.281C11.6763 17.281 11.3923 17.3671 11.1508 17.5285C10.9093 17.6899 10.7211 17.9192 10.6099 18.1876C10.4987 18.4559 10.4697 18.7512 10.5263 19.0361C10.583 19.321 10.7229 19.5826 10.9283 19.788C11.1336 19.9934 11.3953 20.1333 11.6802 20.19C11.9651 20.2466 12.2604 20.2175 12.5287 20.1064C12.7971 19.9952 13.0264 19.807 13.1878 19.5655C13.3492 19.324 13.4353 19.04 13.4353 18.7496C13.4345 18.3603 13.2795 17.9872 13.0043 17.712C12.7291 17.4367 12.356 17.2818 11.9667 17.281ZM11.9667 19.5918C11.8004 19.5918 11.6378 19.5425 11.4994 19.4502C11.3611 19.358 11.2531 19.2268 11.1892 19.0732C11.1253 18.9197 11.1083 18.7507 11.1403 18.5875C11.1723 18.4243 11.2519 18.2742 11.3691 18.1562C11.4863 18.0382 11.6358 17.9575 11.7988 17.9243C11.9617 17.8911 12.1309 17.907 12.2849 17.9698C12.4389 18.0326 12.5708 18.1396 12.6641 18.2773C12.7573 18.415 12.8077 18.5773 12.8089 18.7436C12.8097 18.8547 12.7885 18.9648 12.7465 19.0677C12.7046 19.1706 12.6427 19.2641 12.5644 19.343C12.4861 19.4218 12.393 19.4844 12.2904 19.5271C12.1878 19.5698 12.0778 19.5918 11.9667 19.5918Z" fill="#EF7D00"/>
<path d="M11.8409 14.074C11.9246 14.082 12.0089 14.082 12.0926 14.074C12.6429 14.0416 13.16 13.8003 13.5385 13.3996C13.917 12.9988 14.1282 12.4688 14.1292 11.9176C14.1292 10.7921 13.6496 9.94093 11.7989 7.77399L11.2474 7.97779C11.2474 9.22761 10.8518 9.75211 10.4682 10.2481C10.1415 10.6767 9.8028 11.1203 9.8028 11.9176C9.80377 12.469 10.0153 12.9993 10.394 13.4001C10.7728 13.8009 11.2903 14.0419 11.8409 14.074ZM11.3553 12.8422C11.3553 12.5305 11.4542 12.3177 11.9802 11.6748C12.0628 11.867 12.1751 12.045 12.3129 12.2023C12.3981 12.2855 12.4655 12.3851 12.511 12.4951C12.5566 12.6051 12.5795 12.7231 12.5782 12.8422C12.5782 13.0043 12.5137 13.1599 12.3991 13.2745C12.2844 13.3892 12.1289 13.4536 11.9667 13.4536C11.8046 13.4536 11.6491 13.3892 11.5344 13.2745C11.4197 13.1599 11.3553 13.0043 11.3553 12.8422ZM10.9687 10.6273C11.4197 10.0994 11.7136 9.45561 11.8169 8.76904C13.2315 10.4834 13.5013 11.1278 13.5013 11.9161C13.4996 12.24 13.3946 12.555 13.2016 12.8152C13.1999 12.4386 13.0566 12.0764 12.7999 11.8007C12.6915 11.689 12.6074 11.5562 12.5527 11.4105C12.498 11.2648 12.474 11.1094 12.4822 10.954L11.9293 10.7502C11.0451 11.7857 10.7304 12.1828 10.7304 12.8152C10.538 12.5547 10.433 12.2399 10.4307 11.9161C10.4307 11.3316 10.6675 11.0214 10.9687 10.6273Z" fill="#EF7D00"/>
</svg>
