<svg width="24" height="24" viewBox="0 0 24 24" fill="none" xmlns="http://www.w3.org/2000/svg">
<path d="M20.3634 20.5137L18.1712 18.3192L17.8264 18.1771H6.68142L6.33663 18.3192L4.14444 20.5137L4 20.8585V22H4.97379V21.0588L6.88409 19.1509H17.6237L19.534 21.0588V22H20.5078V20.8585L20.3634 20.5137Z" fill="#EF7D00"/>
<path d="M11.0356 17.0704L11.3524 16.1619C11.1321 16.0419 10.9481 15.8648 10.8198 15.6492C10.6915 15.4335 10.6236 15.1874 10.6232 14.9365C10.6232 14.431 11.3478 13.159 12.021 12.1572C12.6943 13.159 13.4188 14.431 13.4188 14.9365C13.4187 15.1871 13.3511 15.4332 13.2232 15.6487C13.0954 15.8643 12.9119 16.0416 12.692 16.1619L13.0088 17.0704C14.3634 16.8406 15.5926 16.138 16.4781 15.0875C17.3636 14.0369 17.8479 12.7065 17.8451 11.3325C17.8451 7.16481 12.5778 2.21666 12.3542 2H11.6809C11.6809 2 11.632 2.04659 11.5434 2.13745L11.406 2.5498C11.4932 3.16717 11.5361 3.79 11.5341 4.41351C11.5341 6.32847 10.6372 8.01746 10.1084 8.83982C9.62995 8.0981 9.25455 7.29479 8.99249 6.45194L8.11888 6.32381C6.8469 8.25741 6.19693 9.94174 6.19693 11.3325C6.1942 12.7068 6.67889 14.0375 7.56483 15.0881C8.45078 16.1387 9.68057 16.8411 11.0356 17.0704ZM8.41008 7.70529C8.74741 8.52936 9.19151 9.30555 9.73099 10.014H10.4881C10.5697 9.91146 12.5102 7.47931 12.5102 4.42283C12.5102 4.11531 12.5103 3.81246 12.4823 3.51194C13.9337 5.04484 16.8713 8.50668 16.8713 11.3325C16.8733 12.2143 16.6341 13.0798 16.1795 13.8353C15.7249 14.5909 15.0724 15.2077 14.2924 15.6191C14.3589 15.3976 14.3927 15.1677 14.3926 14.9365C14.3926 13.7973 12.7455 11.4723 12.4171 11.018H11.6273C11.2988 11.484 9.65178 13.7973 9.65178 14.9365C9.65172 15.1677 9.68547 15.3976 9.75196 15.6191C8.97203 15.2077 8.31946 14.5909 7.86489 13.8353C7.41033 13.0798 7.17108 12.2143 7.17304 11.3325C7.17304 10.3308 7.59471 9.11472 8.41008 7.70529Z" fill="#EF7D00"/>
</svg>
