<svg width="24" height="24" viewBox="0 0 24 24" fill="none" xmlns="http://www.w3.org/2000/svg">
<path d="M17.5869 10.0971L16.7603 10.2019C16.7141 10.3625 16.6328 10.5108 16.5222 10.6361C16.4116 10.7613 16.2744 10.8604 16.1208 10.926C16.0265 10.9651 15.9251 10.984 15.823 10.9817C15.721 10.9794 15.6205 10.9559 15.5281 10.9127C15.1961 10.7344 15.1827 10.5205 15.2585 9.50223C15.3372 8.65468 15.3447 7.80201 15.2807 6.95321C15.0936 4.69385 13.3601 2.79545 10.7509 2L10.3632 2.83779C10.3966 2.86007 11.1876 3.39483 11.1876 4.74064C11.1898 5.99733 10.049 7.09804 8.72326 8.39037C6.97861 10.0793 5 12 5 14.9211C5 18.7892 8.05259 21.4563 10.9225 22L11.3681 21.2469C9.44964 18.9184 9.56105 16.5521 10.5058 14.6738C10.4519 15.3592 10.5974 16.0456 10.9247 16.6502C11.3168 17.3476 11.9407 17.7932 12.5267 17.7932C13.6029 17.7932 14.2781 17.3164 14.6725 16.2335C15.4701 17.8824 14.8017 20.0036 13.8436 21.1043L14.3583 21.8485C17.5022 20.6698 18.8748 17.8623 19.111 15.6252C19.2469 14.2393 19.2625 12.5637 17.5869 10.0971ZM18.1751 15.5183C18.0798 16.4398 17.7926 17.3312 17.3321 18.1352C16.8717 18.9391 16.248 19.6378 15.5013 20.1863C16.3547 18.1988 15.9336 16.0196 14.8128 14.803L14.0107 15.0258C13.6876 16.8574 13.0637 16.8574 12.5267 16.8574C12.3596 16.8574 12.0053 16.6524 11.7447 16.1889C11.484 15.7255 11.0227 14.4733 12.2348 12.4234L11.5196 11.844C8.25089 14.8543 8.48262 18.2567 9.85294 20.6898C7.95009 19.8342 5.93137 17.8445 5.93137 14.9211C5.93137 12.3899 7.68048 10.6876 9.36943 9.06105C10.7865 7.6885 12.1257 6.38725 12.1257 4.74064C12.1293 4.32405 12.063 3.90981 11.9296 3.51515C13.3445 4.33512 14.238 5.60071 14.3561 7.03119C14.4161 7.83105 14.4086 8.63455 14.3338 9.43316C14.258 10.4514 14.1979 11.2536 15.0914 11.7348C15.3021 11.841 15.533 11.9014 15.7687 11.9122C16.0045 11.9229 16.2399 11.8838 16.4594 11.7972C16.7543 11.6826 17.0156 11.4957 17.2193 11.2536C18.32 13.1141 18.2955 14.3752 18.1751 15.5183Z" fill="#EF7D00"/>
</svg>
