<svg width="24" height="24" viewBox="0 0 24 24" fill="none" xmlns="http://www.w3.org/2000/svg">
<path d="M19.026 16.5299H15.2893V15.7318L14.803 15.2525H13.3092V13.5982C14.6889 13.2222 15.8852 12.3583 16.6758 11.1668C17.4665 9.97532 17.7977 8.53735 17.6081 7.12004C17.4184 5.70272 16.7208 4.40244 15.6447 3.46075C14.5686 2.51906 13.1873 2 11.7573 2C10.3274 2 8.94605 2.51906 7.86996 3.46075C6.79387 4.40244 6.0962 5.70272 5.90655 7.12004C5.7169 8.53735 6.04818 9.97532 6.83883 11.1668C7.62948 12.3583 8.82575 13.2222 10.2054 13.5982V15.2525H8.71163L8.22534 15.7388V16.5368H4.48861L4 17.0231V20.2247L4.48861 20.711H8.22534V21.5091L8.71163 22H14.803L15.2893 21.5137V20.7156H19.026L19.5146 20.2294V17.0161L19.026 16.5299ZM8.22534 19.7314H4.96792V17.5024H8.22534V19.7314ZM6.85257 8.39095H8.19509V7.41838H6.85257C6.94921 6.45063 7.33058 5.53325 7.94846 4.78219L8.90009 5.73382L9.59811 5.0358L8.6395 4.08417C9.38881 3.46711 10.3049 3.08721 11.271 2.99293V4.33778H12.2436V2.99759C13.3774 3.11113 14.4371 3.61337 15.2429 4.41912C16.0486 5.22488 16.5509 6.28454 16.6644 7.41838H15.3195V8.39095H16.6621C16.5934 9.07626 16.3816 9.73954 16.0406 10.3379C15.6995 10.9363 15.2367 11.4564 14.682 11.8648C14.3582 11.3863 13.9221 10.9946 13.4118 10.7237C12.9016 10.4529 12.3327 10.3113 11.755 10.3113C11.1773 10.3113 10.6084 10.4529 10.0981 10.7237C9.58786 10.9946 9.15174 11.3863 8.82797 11.8648C8.27406 11.4561 7.81204 10.9358 7.47178 10.3374C7.13151 9.73903 6.92057 9.07593 6.85257 8.39095ZM9.66326 12.3604C9.89941 12.0243 10.213 11.75 10.5774 11.5607C10.9419 11.3713 11.3466 11.2725 11.7573 11.2725C12.168 11.2725 12.5727 11.3713 12.9372 11.5607C13.3017 11.75 13.6152 12.0243 13.8514 12.3604C13.1975 12.6727 12.482 12.8348 11.7573 12.8348C11.0326 12.8348 10.3172 12.6727 9.66326 12.3604ZM11.1803 13.7773C11.3688 13.7959 11.5619 13.8076 11.7573 13.8076C11.9528 13.8076 12.1459 13.7959 12.3343 13.7797V15.2525H11.171L11.1803 13.7773ZM14.3167 21.0158H9.19792V16.2181H14.3167V21.0158ZM18.5397 19.7314H15.2823V17.5024H18.5397V19.7314Z" fill="#EF7D00"/>
<path d="M11.7572 9.45432C12.0231 9.4576 12.2853 9.39221 12.5184 9.26449C12.7516 9.13677 12.9479 8.95103 13.0883 8.72526C13.2286 8.49948 13.3084 8.24129 13.3198 7.97567C13.3312 7.71006 13.2738 7.446 13.1533 7.20903L14.6773 5.68269L14.3166 5.34066L13.9723 4.99631L12.4553 6.52032C12.2393 6.40952 12 6.35208 11.7572 6.35279C11.5485 6.34471 11.3404 6.37883 11.1451 6.45312C10.9499 6.52741 10.7718 6.64034 10.6212 6.78514C10.4707 6.92994 10.351 7.10363 10.2692 7.29581C10.1874 7.48799 10.1452 7.6947 10.1452 7.90356C10.1452 8.11242 10.1874 8.31913 10.2692 8.51131C10.351 8.70349 10.4707 8.87718 10.6212 9.02198C10.7718 9.16678 10.9499 9.2797 11.1451 9.35399C11.3404 9.42829 11.5485 9.46241 11.7572 9.45432ZM11.7572 7.32537C11.8719 7.3249 11.9842 7.35849 12.0797 7.42187C12.1753 7.48525 12.2499 7.57557 12.2942 7.68139C12.3384 7.78722 12.3502 7.90378 12.3281 8.01632C12.306 8.12885 12.251 8.2323 12.1701 8.31356C12.0891 8.39482 11.9859 8.45023 11.8735 8.47277C11.761 8.49531 11.6444 8.48398 11.5384 8.4402C11.4324 8.39641 11.3418 8.32216 11.278 8.22684C11.2143 8.13151 11.1802 8.01941 11.1802 7.90472C11.1802 7.75147 11.2409 7.60446 11.3491 7.49588C11.4572 7.38729 11.604 7.32598 11.7572 7.32537Z" fill="#EF7D00"/>
</svg>
