<svg width="24" height="24" viewBox="0 0 24 24" fill="none" xmlns="http://www.w3.org/2000/svg">
<path d="M19.4804 15.533V16.0715H15.4455C15.3361 16.0715 15.2311 16.0287 15.153 15.9522C15.0749 15.8757 15.0298 15.7716 15.0276 15.6622V12.3878H15.4864V11.4873H15.0276V8.25592C15.0259 6.74811 14.4261 5.30254 13.3599 4.23635C12.2938 3.17017 10.8482 2.57043 9.34037 2.56872H4.89186V2H4V8.46273H4.90047V7.87678H9.1034C9.21424 7.87678 9.32055 7.92081 9.39892 7.99918C9.4773 8.07756 9.52133 8.18386 9.52133 8.2947V11.4873H9.01939V12.3878H9.52133V15.701C9.52304 17.2075 10.122 18.6519 11.1868 19.7175C12.2517 20.7832 13.6956 21.3832 15.2021 21.386H19.4761V22H20.3723V15.5373L19.4804 15.533ZM9.1034 6.9763H4.89186V3.46489H9.34037C10.609 3.46603 11.8253 3.97048 12.7223 4.86752C13.6194 5.76455 14.1238 6.98086 14.1249 8.24946V11.4808H10.4218V8.2947C10.4212 7.94521 10.2821 7.61021 10.035 7.36308C9.7879 7.11596 9.45289 6.97687 9.1034 6.9763ZM15.2021 20.4856C13.9344 20.4827 12.7195 19.9776 11.8235 19.0808C10.9276 18.184 10.4235 16.9687 10.4218 15.701V12.3878H14.1249V15.6622C14.1255 16.0121 14.2649 16.3474 14.5125 16.5946C14.7601 16.8418 15.0956 16.9806 15.4455 16.9806H19.4804V20.4942L15.2021 20.4856Z" fill="#EF7D00"/>
</svg>
