<svg width="24" height="24" viewBox="0 0 24 24" fill="none" xmlns="http://www.w3.org/2000/svg">
<path d="M21.6176 14.8811H17.0631V14.3449L16.6789 13.9625H14.6478L14.2653 14.3449V14.8811H11.1546L8.81793 13.7832L7.90302 11.4264V8.86093H8.36048L8.74291 8.4785V6.83166H8.94236L9.32479 6.44922V3.38243L8.94236 3H2.38243L2 3.38243V6.44556L2.38243 6.828H2.58188V8.47484L2.96432 8.85727H3.43641V11.8545L3.56267 12.6029L4.98262 16.2461L5.05947 16.3687L5.99817 17.3678L6.11528 17.452L9.70906 19.1318L10.5691 19.3312H10.6532H14.2653V19.7246L14.6478 20.107H16.6789L17.0631 19.7246V19.2653H21.6176L22 18.8811V15.2635L21.6176 14.8811ZM8.55261 6.06862H7.29369V3.76487H8.55261V6.06862ZM6.52882 6.06862H4.82159V3.76487H6.52882V6.06862ZM2.76487 6.06862V3.76487H4.05672V6.06862H2.76487ZM3.34675 8.10156V6.828H7.97438V8.09607L3.34675 8.10156ZM14.2653 18.581H10.6935L9.98719 18.4199L6.51052 16.7896L5.6688 15.8984L4.31473 12.4328L4.20677 11.8198V8.86093H7.13449V11.505L7.16011 11.6423L8.15553 14.204L8.34035 14.4181L10.9021 15.6112L11.065 15.6459H14.2672L14.2653 18.581ZM16.2964 19.3568H15.0302V14.7274H16.2964V19.3568ZM17.1235 15.6459H17.9872V18.5114H17.1235V15.6459ZM18.7521 15.6459H19.6139V18.5114H18.7521V15.6459ZM21.2351 18.5114H20.3751V15.6459H21.2351V18.5114Z" fill="#EF7D00"/>
</svg>
