<svg width="24" height="24" viewBox="0 0 24 24" fill="none" xmlns="http://www.w3.org/2000/svg">
<path d="M21.4767 13.8238H19.4336L18.9104 14.347V14.8478H14.8443C14.4779 14.4617 14.0368 14.1543 13.5478 13.9442C13.0589 13.7341 12.5322 13.6257 12 13.6257C11.4678 13.6257 10.9411 13.7341 10.4521 13.9442C9.96316 14.1543 9.52206 14.4617 9.15573 14.8478H5.08963V14.347L4.56635 13.8238H2.52328L2 14.347V20.7191L2.52328 21.2449H4.56635L5.08963 20.7216V20.2209H9.15573C9.52206 20.6069 9.96316 20.9144 10.4521 21.1245C10.9411 21.3346 11.4678 21.4429 12 21.4429C12.5322 21.4429 13.0589 21.3346 13.5478 21.1245C14.0368 20.9144 14.4779 20.6069 14.8443 20.2209H18.9104V20.7216L19.4336 21.2449H21.4767L22 20.7216V14.347L21.4767 13.8238ZM20.9534 20.1958H19.9519V19.6951L19.4286 19.1718H14.6089L14.2083 19.3596C13.9386 19.6833 13.6009 19.9438 13.2193 20.1226C12.8377 20.3014 12.4214 20.394 12 20.394C11.5786 20.394 11.1623 20.3014 10.7807 20.1226C10.3991 19.9438 10.0614 19.6833 9.79169 19.3596L9.38858 19.1718H4.56635L4.04306 19.6951V20.1958H3.04156V14.8703H4.04306V15.3586L4.56635 15.8818H9.38858L9.79169 15.6941C10.0614 15.3703 10.3991 15.1098 10.7807 14.931C11.1623 14.7523 11.5786 14.6596 12 14.6596C12.4214 14.6596 12.8377 14.7523 13.2193 14.931C13.6009 15.1098 13.9386 15.3703 14.2083 15.6941L14.6089 15.8818H19.4336L19.9569 15.3586V14.8703H20.9584L20.9534 20.1958Z" fill="#EF7D00"/>
<path d="M12.5258 8.09264C12.5641 8.95356 12.8134 9.79188 13.2519 10.5338L14.1357 9.97796C13.8004 9.39973 13.6073 8.75011 13.5723 8.08262C13.5861 7.66181 13.6867 7.24839 13.8678 6.8683C14.0784 6.41128 14.1951 5.9166 14.2108 5.41362C14.2108 4.28192 13.5448 3.05008 13.5173 3L12.5984 3.50075C12.7561 3.78868 13.1642 4.69504 13.1642 5.41362C13.1467 5.78372 13.0548 6.14649 12.8938 6.48022C12.6616 6.98669 12.5363 7.53558 12.5258 8.09264Z" fill="#EF7D00"/>
<path d="M9.34601 8.09264C9.38127 8.9527 9.62716 9.79096 10.0621 10.5338L10.9559 9.97796C10.6228 9.39894 10.4307 8.74966 10.3951 8.08262C10.408 7.66198 10.5077 7.24855 10.688 6.8683C10.8987 6.41128 11.0153 5.9166 11.031 5.41362C11.031 4.28192 10.365 3.05008 10.3375 3L9.41862 3.50075C9.57635 3.78868 9.98447 4.69504 9.98447 5.41362C9.96644 5.78335 9.87539 6.14585 9.71656 6.48022C9.48351 6.9865 9.35736 7.5354 9.34601 8.09264Z" fill="#EF7D00"/>
</svg>
