<svg width="24" height="24" viewBox="0 0 24 24" fill="none" xmlns="http://www.w3.org/2000/svg">
<path d="M22 16.095V15.1588H19.0855V14.0986L18.614 13.6271H16.1123L15.6409 14.0986V14.4753H14.6731V12.4451H15.025L15.4965 11.9736V9.46064L15.025 8.98917H13.9287V6.43334H18.2148C18.67 6.43334 19.1067 6.25248 19.4286 5.93054C19.7506 5.6086 19.9314 5.17196 19.9314 4.71667C19.9314 4.26138 19.7506 3.82474 19.4286 3.5028C19.1067 3.18086 18.67 3 18.2148 3H5.8078C5.35252 3 4.91587 3.18086 4.59394 3.5028C4.272 3.82474 4.09113 4.26138 4.09113 4.71667C4.09113 5.17196 4.272 5.6086 4.59394 5.93054C4.91587 6.25248 5.35252 6.43334 5.8078 6.43334H10.0938V8.98917H8.97496L8.5035 9.46064V11.9623L8.97496 12.4338H9.32687V14.464H8.35912V14.0986L7.88766 13.6271H5.38597L4.9145 14.0986V15.1588H2V16.095H4.9145V18.0665H2V19.0275H4.9145V20.1554L5.38597 20.6269H7.88766L8.35912 20.1554V19.8328H15.6409V20.1554L16.1123 20.6269H18.614L19.0855 20.1554V19.0275H22V18.0733H19.0855V16.095H22ZM7.4162 14.9468V19.684H5.85743V14.57H7.4162V14.9468ZM5.79201 5.49267C5.5868 5.49267 5.39 5.41115 5.2449 5.26605C5.09979 5.12094 5.01827 4.92414 5.01827 4.71893C5.01827 4.51372 5.09979 4.31691 5.2449 4.17181C5.39 4.0267 5.5868 3.94518 5.79201 3.94518H18.199C18.3006 3.94518 18.4012 3.9652 18.4951 4.00408C18.5889 4.04297 18.6742 4.09996 18.7461 4.17181C18.8179 4.24366 18.8749 4.32895 18.9138 4.42283C18.9527 4.5167 18.9727 4.61732 18.9727 4.71893C18.9727 4.82054 18.9527 4.92115 18.9138 5.01502C18.8749 5.1089 18.8179 5.1942 18.7461 5.26605C18.6742 5.33789 18.5889 5.39489 18.4951 5.43377C18.4012 5.47266 18.3006 5.49267 18.199 5.49267H5.79201ZM11.0142 6.4356H12.9858V8.98917H11.0142V6.4356ZM9.44868 9.9321H14.5513V11.4909H9.44868V9.9321ZM15.6409 18.8809H8.35912V15.4182H9.79833L10.2698 14.9468V12.4338H13.7302V14.9468L14.2017 15.4182H15.6409V18.8809ZM18.1426 19.6749H16.5838V14.57H18.1426V19.6749Z" fill="#EF7D00"/>
</svg>
