<svg width="24" height="24" viewBox="0 0 24 24" fill="none" xmlns="http://www.w3.org/2000/svg">
<path d="M14.5917 2.30178L17.5858 9.80868L14.5917 13.5404H12.3787H10.1657L7.17163 9.80868L10.1657 2.30178H12.3787H14.5917ZM14.5917 1H12.3787H10.1657L8.9941 1.82444L6 9.33135L6.17358 10.5897L9.16768 14.3215L10.1657 14.7988H12.3787H14.5917L15.5897 14.3215L18.5838 10.5897L18.7574 9.33135L15.7633 1.82444L14.5917 1Z" fill="#EF7C00"/>
<path d="M13.29 4.51477H11.5109L9.60161 9.33133L11.2071 11.3274H13.5937L15.1993 9.33133L13.29 4.51477Z" stroke="#EF7C00" stroke-miterlimit="10" stroke-linecap="square"/>
<path d="M8.4734 19.3984V20.3964C8.4734 21.8284 9.68837 23 11.1637 23C12.6391 23 13.854 21.8284 13.854 20.3964V19.3116V16.925H12.3787V14.3649" stroke="#EF7C00" stroke-miterlimit="10" stroke-linecap="square" stroke-linejoin="bevel"/>
</svg>
