<svg width="24" height="24" viewBox="0 0 24 24" fill="none" xmlns="http://www.w3.org/2000/svg">
<path d="M12.5804 14.8281C12.5804 15.8632 11.7302 16.7135 10.695 16.7135C9.65992 16.7135 8.8096 15.8632 8.8096 14.8281C8.8096 13.793 10.695 9.72644 10.695 9.72644C10.695 9.72644 12.5804 13.793 12.5804 14.8281Z" stroke="#EF7C00" stroke-miterlimit="10" stroke-linecap="round" stroke-linejoin="bevel"/>
<path d="M7.2939 6.0296H12.6913L17.6081 11.1313V22H6V11.1313L7.2939 6.0296Z" stroke="#EF7C00" stroke-miterlimit="10" stroke-linecap="round" stroke-linejoin="bevel"/>
<path d="M12.1738 2.18484C12.0998 2.11091 12.0629 2.07394 11.9889 2H9.21629H8.03327C7.95933 2.07394 7.92237 2.11091 7.84843 2.18484V4.29206H12.1368V2.18484H12.1738Z" stroke="#EF7C00" stroke-miterlimit="10" stroke-linecap="round"/>
<path d="M10.695 2V4.14418" stroke="#EF7C00" stroke-miterlimit="10" stroke-linecap="round"/>
<path d="M9.25325 2V4.14418" stroke="#EF7C00" stroke-miterlimit="10" stroke-linecap="round"/>
</svg>
