<svg width="24" height="24" viewBox="0 0 24 24" fill="none" xmlns="http://www.w3.org/2000/svg">
<path d="M11.4694 4H2V7.83672H11.4694V4Z" stroke="#EF7C00" stroke-miterlimit="10" stroke-linecap="square" stroke-linejoin="bevel"/>
<path d="M8.81635 7.87756H4.57144V20.0816H8.81635V7.87756Z" stroke="#EF7C00" stroke-miterlimit="10" stroke-linecap="square" stroke-linejoin="bevel"/>
<path d="M13.1837 11.6326V16.6939L17.5919 19.2653L22 16.6939V11.6326L17.5919 9.06122L13.1837 11.6326Z" stroke="#EF7C00" stroke-miterlimit="10" stroke-linecap="square" stroke-linejoin="bevel"/>
<path d="M17.5919 16.0408C18.6288 16.0408 19.4694 15.2002 19.4694 14.1632C19.4694 13.1263 18.6288 12.2857 17.5919 12.2857C16.5549 12.2857 15.7143 13.1263 15.7143 14.1632C15.7143 15.2002 16.5549 16.0408 17.5919 16.0408Z" stroke="#EF7C00" stroke-miterlimit="10" stroke-linecap="square" stroke-linejoin="bevel"/>
<path d="M8.28572 4V7.87755" stroke="#EF7C00" stroke-miterlimit="10" stroke-linecap="square" stroke-linejoin="bevel"/>
<path d="M5.14288 4V7.87755" stroke="#EF7C00" stroke-miterlimit="10" stroke-linecap="square" stroke-linejoin="bevel"/>
<path d="M3.71432 13.5102L9.63268 10.2449" stroke="#EF7C00" stroke-miterlimit="10" stroke-linecap="square" stroke-linejoin="bevel"/>
<path d="M3.71432 15.6734L9.63268 12.4081" stroke="#EF7C00" stroke-miterlimit="10" stroke-linecap="square" stroke-linejoin="bevel"/>
<path d="M3.71432 17.8367L9.63268 14.6122" stroke="#EF7C00" stroke-miterlimit="10" stroke-linecap="square" stroke-linejoin="bevel"/>
</svg>
