<svg width="24" height="24" viewBox="0 0 24 24" fill="none" xmlns="http://www.w3.org/2000/svg">
<path d="M21.9657 16.9152H12.4801V14.6203C12.8957 14.5554 13.2916 14.399 13.6392 14.1622C13.9868 13.9255 14.2774 13.6144 14.49 13.2515C14.5435 13.1592 14.6204 13.0826 14.7129 13.0293C14.8054 12.9761 14.9102 12.9481 15.0169 12.9481C15.5205 12.9466 16.0149 12.8128 16.4506 12.5601C16.8862 12.3074 17.2478 11.9447 17.4992 11.5083C17.7505 11.0719 17.8828 10.5771 17.8828 10.0735C17.8827 9.56988 17.7504 9.07511 17.499 8.63874C17.4468 8.5457 17.4194 8.44084 17.4194 8.33419C17.4194 8.22753 17.4468 8.12266 17.499 8.02963C17.748 7.59333 17.8784 7.09943 17.8772 6.59708C17.876 6.09473 17.7433 5.60145 17.4923 5.16631C17.2413 4.73118 16.8807 4.36936 16.4464 4.11687C16.0121 3.86437 15.5193 3.73001 15.0169 3.72714C14.9108 3.72695 14.8065 3.69934 14.7142 3.64698C14.6218 3.59462 14.5446 3.51929 14.49 3.42829C14.2367 2.9937 13.8739 2.63312 13.4378 2.3825C13.0017 2.13189 12.5075 2 12.0045 2C11.5015 2 11.0073 2.13189 10.5712 2.3825C10.1351 2.63312 9.7723 2.9937 9.51904 3.42829C9.46525 3.52056 9.38838 3.59725 9.29599 3.65085C9.2036 3.70444 9.09887 3.73309 8.99206 3.73398C8.49149 3.73909 8.00092 3.87475 7.56884 4.12753C7.13675 4.38031 6.77811 4.74147 6.52836 5.17531C6.2786 5.60915 6.14639 6.10066 6.14477 6.60125C6.14316 7.10184 6.2722 7.59419 6.51915 8.02963C6.57195 8.12245 6.59971 8.2274 6.59971 8.33419C6.59971 8.44097 6.57195 8.54592 6.51915 8.63874C6.27053 9.07437 6.14013 9.56744 6.14089 10.069C6.14165 10.5706 6.27355 11.0633 6.5235 11.4982C6.77345 11.933 7.13276 12.295 7.56578 12.5481C7.99881 12.8013 8.4905 12.9368 8.99206 12.9412C9.09812 12.9405 9.20253 12.9675 9.29495 13.0195C9.38738 13.0715 9.46462 13.1468 9.51904 13.2378C9.73109 13.6007 10.0213 13.9117 10.3685 14.1485C10.7157 14.3853 11.1113 14.5417 11.5266 14.6066V16.9152H2.04327V17.8688H21.9657V16.9152ZM10.3449 12.7656C10.207 12.53 10.0102 12.3344 9.7738 12.198C9.5374 12.0616 9.26955 11.9891 8.99663 11.9877C8.66062 11.986 8.33089 11.8964 8.0403 11.7277C7.74972 11.559 7.5084 11.3171 7.3404 11.0261C7.1724 10.7351 7.08358 10.4051 7.08278 10.0691C7.08198 9.73311 7.16924 9.40276 7.33585 9.11096C7.47152 8.87415 7.54289 8.60597 7.54289 8.33304C7.54289 8.06012 7.47152 7.79194 7.33585 7.55513C7.16907 7.2635 7.0817 6.93324 7.08244 6.59729C7.08318 6.26135 7.17202 5.93147 7.34009 5.64059C7.50815 5.3497 7.74957 5.10798 8.04024 4.93955C8.33092 4.77112 8.66068 4.68187 8.99663 4.68071C9.26946 4.67881 9.53713 4.60613 9.77346 4.46977C10.0098 4.33341 10.2067 4.13805 10.3449 3.90279C10.514 3.6126 10.7562 3.37181 11.0474 3.20446C11.3386 3.0371 11.6686 2.94904 12.0045 2.94904C12.3404 2.94904 12.6704 3.0371 12.9616 3.20446C13.2528 3.37181 13.495 3.6126 13.6641 3.90279C13.8023 4.13805 13.9992 4.33341 14.2355 4.46977C14.4719 4.60613 14.7395 4.67881 15.0124 4.68071C15.3483 4.68187 15.6781 4.77112 15.9688 4.93955C16.2594 5.10798 16.5008 5.3497 16.6689 5.64059C16.837 5.93147 16.9258 6.26135 16.9266 6.59729C16.9273 6.93324 16.8399 7.2635 16.6731 7.55513C16.5375 7.79194 16.4661 8.06012 16.4661 8.33304C16.4661 8.60597 16.5375 8.87415 16.6731 9.11096C16.8398 9.40276 16.927 9.73311 16.9262 10.0691C16.9254 10.4051 16.8366 10.7351 16.6686 11.0261C16.5006 11.3171 16.2593 11.559 15.9687 11.7277C15.6781 11.8964 15.3484 11.986 15.0124 11.9877C14.7394 11.9891 14.4716 12.0616 14.2352 12.198C13.9988 12.3344 13.802 12.53 13.6641 12.7656C13.5356 12.9842 13.3646 13.175 13.1613 13.3266C12.958 13.4782 12.7264 13.5876 12.4801 13.6484V10.393L14.8025 8.07298L14.1181 7.38859L12.471 9.03568V6.00386H11.538V9.0448L9.88176 7.39772L9.19738 8.0821L11.538 10.393V13.6484C11.2901 13.5887 11.0567 13.4798 10.8518 13.3281C10.6468 13.1765 10.4744 12.9852 10.3449 12.7656V12.7656Z" fill="#EF7D00"/>
<path d="M19.8875 19.7668H19.137C18.8836 20.0897 18.5592 20.3499 18.1891 20.5271C17.8189 20.7043 17.4128 20.7939 17.0024 20.7888C16.592 20.7837 16.1883 20.6842 15.8226 20.4978C15.457 20.3115 15.1391 20.0434 14.8938 19.7144H14.1296C13.8847 20.043 13.5675 20.3108 13.2026 20.4972C12.8376 20.6836 12.4347 20.7836 12.0249 20.7893C11.6151 20.795 11.2095 20.7064 10.8395 20.5303C10.4695 20.3542 10.1449 20.0953 9.89095 19.7737H9.14498C8.89078 20.0953 8.56602 20.3542 8.1958 20.5303C7.82559 20.7064 7.41983 20.795 7.0099 20.7893C6.59998 20.7836 6.19686 20.6837 5.83171 20.4973C5.46656 20.3109 5.14917 20.043 4.90407 19.7144H4.14212C3.89391 20.0484 3.57082 20.3197 3.1988 20.5063C2.82678 20.6929 2.41619 20.7897 2 20.7889V21.7447C2.94299 21.7483 3.84945 21.3803 4.5231 20.7204C5.18982 21.3684 6.08026 21.735 7.00992 21.7443C7.93959 21.7537 8.83721 21.405 9.51682 20.7706C10.1963 21.4025 11.0924 21.7496 12.0203 21.7402C12.9481 21.7309 13.8371 21.3659 14.5037 20.7204C15.1722 21.3751 16.0683 21.7456 17.0039 21.7541C17.9396 21.7626 18.8422 21.4085 19.5225 20.766C20.1932 21.3964 21.0795 21.7466 22 21.7447V20.7889C21.5931 20.7916 21.1911 20.7008 20.8249 20.5236C20.4586 20.3464 20.1379 20.0875 19.8875 19.7668V19.7668Z" fill="#EF7D00"/>
</svg>
