<svg width="24" height="24" viewBox="0 0 24 24" fill="none" xmlns="http://www.w3.org/2000/svg">
<path d="M11.9232 22L12.4655 21.4577V19.0057C12.9222 18.8736 13.3197 18.5888 13.5916 18.1988L13.9834 17.6383C14.0763 17.5067 14.198 17.3978 14.3391 17.3201C14.4802 17.2423 14.6372 17.1976 14.7981 17.1894L15.4805 17.1453C15.8205 17.1237 16.1501 17.0194 16.4406 16.8415C16.7311 16.6635 16.9737 16.4173 17.1474 16.1242C17.321 15.8311 17.4205 15.5 17.437 15.1598C17.4536 14.8195 17.3867 14.4803 17.2424 14.1718L16.9517 13.5568C16.8814 13.4107 16.8448 13.2506 16.8448 13.0885C16.8448 12.9263 16.8814 12.7662 16.9517 12.6201L17.2683 12C17.4196 11.6948 17.4941 11.3572 17.4852 11.0167C17.4763 10.6761 17.3844 10.3429 17.2173 10.0459C17.0503 9.74902 16.8133 9.49739 16.5269 9.31293C16.2405 9.12847 15.9134 9.01677 15.574 8.98755L14.8941 8.93046C14.7327 8.91705 14.5763 8.8671 14.437 8.78439C14.2976 8.70168 14.1789 8.58838 14.0898 8.45304L13.711 7.88479C13.5221 7.60127 13.2668 7.36819 12.9673 7.20581C12.6678 7.04343 12.3331 6.95668 11.9925 6.9531C11.6518 6.94952 11.3154 7.02922 11.0126 7.18527C10.7097 7.34131 10.4496 7.56898 10.2548 7.84847L9.863 8.40893C9.77061 8.54194 9.64933 8.65235 9.50824 8.73188C9.36715 8.81141 9.20991 8.85801 9.04826 8.86819L8.36586 8.9097C8.02587 8.93127 7.69629 9.03557 7.40579 9.21353C7.11529 9.39148 6.87267 9.63771 6.69901 9.9308C6.52536 10.2239 6.42593 10.555 6.40938 10.8952C6.39283 11.2355 6.45966 11.5747 6.60405 11.8832L6.89466 12.5034C6.96516 12.649 7.00179 12.8086 7.00179 12.9704C7.00179 13.1322 6.96516 13.2919 6.89466 13.4375L6.5781 14.0498C6.4268 14.355 6.35235 14.6926 6.36123 15.0332C6.37011 15.3737 6.46205 15.7069 6.62906 16.0039C6.79606 16.3008 7.03308 16.5524 7.31949 16.7369C7.6059 16.9213 7.93303 17.033 8.27245 17.0623L8.95226 17.1194C9.11375 17.1328 9.27008 17.1827 9.40943 17.2654C9.54878 17.3481 9.6675 17.4614 9.75662 17.5968L10.1354 18.1676C10.4271 18.6036 10.8714 18.9147 11.3809 19.0394V20.9154H4.08718V9.44681L11.9232 3.11832L19.7592 9.44681V20.9154H14.3103V22H20.2782L20.8231 21.4577V9.18734L20.6207 8.7644L12.2631 2H11.5833L3.20239 8.7644L3 9.18734V21.4577L3.54489 22H11.9232ZM10.9813 17.6046L10.6025 17.0363C10.4299 16.7743 10.2001 16.5548 9.93047 16.3944C9.66082 16.2339 9.3583 16.1367 9.04567 16.11L8.36326 16.0503C8.18748 16.0362 8.01789 15.979 7.86945 15.8838C7.72101 15.7886 7.59829 15.6583 7.51213 15.5044C7.42597 15.3506 7.37901 15.1779 7.3754 15.0016C7.37179 14.8253 7.41164 14.6508 7.49144 14.4935L7.79762 13.8786C7.93852 13.5972 8.01361 13.2875 8.01721 12.9728C8.02081 12.6582 7.95281 12.3468 7.81837 12.0623L7.5122 11.4525C7.43786 11.2936 7.4035 11.1189 7.41209 10.9436C7.42068 10.7684 7.47197 10.5979 7.56149 10.447C7.65101 10.296 7.77606 10.1693 7.92574 10.0777C8.07543 9.98619 8.24522 9.9326 8.42035 9.92164L9.10275 9.88013C9.4165 9.86028 9.72174 9.76996 9.99577 9.61588C10.2698 9.46179 10.5056 9.24791 10.6855 8.99014L11.0773 8.42968C11.1748 8.28645 11.306 8.1694 11.4594 8.08886C11.6128 8.00831 11.7837 7.96675 11.9569 7.96783H11.9725C12.1478 7.96831 12.3203 8.01244 12.4743 8.09625C12.6283 8.18005 12.7591 8.30089 12.8547 8.44785L13.2335 9.01609C13.4061 9.27811 13.6359 9.4976 13.9056 9.65804C14.1752 9.81848 14.4777 9.9157 14.7904 9.9424L15.4728 10.0021C15.6483 10.0168 15.8175 10.0744 15.9655 10.1697C16.1136 10.2651 16.2361 10.3953 16.3221 10.549C16.4082 10.7026 16.4552 10.8751 16.4591 11.0511C16.463 11.2272 16.4237 11.4016 16.3446 11.5589L16.0384 12.1713C15.8975 12.4526 15.8224 12.7623 15.8188 13.077C15.8152 13.3917 15.8832 13.703 16.0177 13.9875L16.3342 14.5947C16.4085 14.7536 16.4429 14.9283 16.4343 15.1036C16.4257 15.2789 16.3744 15.4494 16.2849 15.6003C16.1954 15.7512 16.0703 15.8779 15.9207 15.9695C15.771 16.061 15.6012 16.1146 15.4261 16.1256L14.7437 16.1697C14.4299 16.1881 14.1243 16.2776 13.8502 16.4313C13.576 16.585 13.3403 16.799 13.1609 17.0571L12.7691 17.6175C12.6909 17.7316 12.5914 17.8295 12.4759 17.9056V16.2423L14.863 14.1847L14.1547 13.3622L12.4759 14.8101V13.5698L13.7395 12.4826L13.0778 11.7042L12.4785 12.2231V10.0618H11.3809V12.2309L10.7815 11.712L10.1199 12.4904L11.3809 13.5776V14.8179L9.70213 13.37L8.99378 14.1925L11.3809 16.2501V17.9678C11.218 17.8841 11.0801 17.7588 10.9813 17.6046Z" fill="#EF7D00"/>
</svg>
