<svg width="24" height="24" viewBox="0 0 24 24" fill="none" xmlns="http://www.w3.org/2000/svg">
<path d="M18.0385 8.22585C18.0546 8.04796 18.0639 7.87008 18.0639 7.6945C18.057 6.29446 17.5372 4.9455 16.6027 3.90295C15.6682 2.8604 14.3839 2.19661 12.993 2.03722C11.602 1.87783 10.2009 2.2339 9.0548 3.03804C7.90871 3.84217 7.09718 5.03857 6.77382 6.40078C5.76705 6.45375 4.79933 6.80753 3.99577 7.41636C3.1922 8.02519 2.58976 8.86109 2.26633 9.81596C1.9429 10.7708 1.91335 11.8008 2.18151 12.7726C2.44967 13.7445 3.0032 14.6135 3.77053 15.2674L4.08472 15.3829H20.1893L20.5335 15.2397C21.079 14.6863 21.4575 13.9905 21.6257 13.2319C21.794 12.4733 21.7451 11.6827 21.4847 10.9506C21.2242 10.2186 20.7628 9.57467 20.1533 9.09275C19.5438 8.61083 18.8109 8.31039 18.0385 8.22585V8.22585ZM19.9744 14.4172H4.26492C3.66689 13.8602 3.25029 13.136 3.0693 12.339C2.88831 11.542 2.95129 10.709 3.25005 9.9482C3.54882 9.18746 4.06955 8.53419 4.74454 8.07335C5.41954 7.6125 6.21757 7.36539 7.03487 7.36414H7.07646H7.1527L7.64477 6.95523C7.73861 6.32786 7.95703 5.72562 8.28719 5.18396C8.61735 4.64231 9.05256 4.1722 9.5672 3.80133C10.0818 3.43045 10.6655 3.16631 11.2838 3.02446C11.902 2.88262 12.5425 2.86593 13.1673 2.97539C13.7921 3.08485 14.3887 3.31823 14.922 3.6618C15.4552 4.00538 15.9143 4.45218 16.2722 4.97591C16.6302 5.49963 16.8797 6.08969 17.006 6.71132C17.1324 7.33295 17.1331 7.97358 17.0081 8.59549L17.4979 9.17073H17.581C18.1896 9.17015 18.7854 9.34477 19.2974 9.67372C19.8094 10.0027 20.2158 10.472 20.4682 11.0258C20.7206 11.5795 20.8083 12.1942 20.7207 12.7964C20.6331 13.3987 20.3741 13.9629 19.9744 14.4219V14.4172Z" fill="#EF7D00"/>
<path d="M8.19673 17.3088L5.7941 21.4413L6.62458 21.9242L9.02721 17.7916L8.19673 17.3088Z" fill="#EF7D00"/>
<path d="M16.4734 17.3631L14.0511 21.5132L14.8852 22L17.3074 17.8499L16.4734 17.3631Z" fill="#EF7D00"/>
<path d="M12.2431 17.3233L9.84048 21.4558L10.671 21.9386L13.0736 17.8061L12.2431 17.3233Z" fill="#EF7D00"/>
</svg>
