<svg width="24" height="24" viewBox="0 0 24 24" fill="none" xmlns="http://www.w3.org/2000/svg">
<path d="M22.0023 12.4781V11.5241H17.7184C17.6629 10.837 17.4827 10.1657 17.1866 9.54308L20.9022 7.39313L20.4229 6.56693L16.705 8.71916C16.3147 8.1619 15.8296 7.67753 15.2717 7.28814L17.4125 3.57709L16.5863 3.10008L14.4455 6.81114C13.8264 6.52149 13.1598 6.34672 12.4781 6.29533V2H11.5241V6.29533C10.8429 6.35256 10.1774 6.53111 9.55905 6.82255L7.41595 3.10008L6.58975 3.57709L8.73514 7.29499C8.17749 7.68299 7.693 8.1667 7.30412 8.72372L3.59078 6.56693L3.11149 7.39313L6.82483 9.54764C6.52977 10.1689 6.35034 10.8386 6.29533 11.5241H2V12.4781H6.29533C6.35193 13.1629 6.5321 13.8318 6.82711 14.4524L3.11149 16.6092L3.59078 17.4354L7.30868 15.2763C7.6968 15.8325 8.18054 16.3155 8.73742 16.7027L6.58975 20.4275L7.41595 20.9022L9.56362 17.182C10.1802 17.4737 10.8443 17.6515 11.5241 17.707V22H12.4781V17.707C13.1586 17.6527 13.8236 17.4756 14.4409 17.1843L16.5863 20.9022L17.4125 20.4252L15.2694 16.7096C15.8272 16.321 16.3124 15.8374 16.7027 15.2808L20.4115 17.4354L20.8908 16.6092L17.1843 14.4569C17.4803 13.835 17.6612 13.1646 17.7184 12.4781H22.0023ZM12.0011 16.7758C11.0563 16.7731 10.1335 16.4903 9.34924 15.9634C8.56501 15.4364 7.95458 14.6887 7.59509 13.815C7.2356 12.9412 7.14318 11.9804 7.32949 11.0542C7.51581 10.1279 7.97252 9.27759 8.6419 8.61076C9.31128 7.94393 10.1633 7.49048 11.0903 7.30769C12.0173 7.12491 12.9777 7.221 13.8501 7.58382C14.7225 7.94665 15.4677 8.55992 15.9917 9.34616C16.5157 10.1324 16.7949 11.0563 16.794 12.0011C16.7892 13.2691 16.2821 14.4835 15.3838 15.3784C14.4855 16.2733 13.2691 16.7758 12.0011 16.7758V16.7758Z" fill="#EF7D00"/>
</svg>
