<svg width="24" height="24" viewBox="0 0 24 24" fill="none" xmlns="http://www.w3.org/2000/svg">
<path d="M22 18.9733H12.4775V16.6694C12.8947 16.6043 13.2921 16.4472 13.6411 16.2096C13.99 15.9719 14.2818 15.6596 14.4951 15.2953C14.5489 15.2026 14.6261 15.1257 14.7189 15.0723C14.8118 15.0188 14.917 14.9907 15.0242 14.9907C15.5297 14.9892 16.026 14.8549 16.4634 14.6012C16.9007 14.3475 17.2637 13.9834 17.516 13.5453C17.7684 13.1072 17.9012 12.6105 17.9011 12.1049C17.9011 11.5993 17.7682 11.1026 17.5159 10.6646C17.4635 10.5712 17.436 10.4659 17.436 10.3588C17.436 10.2518 17.4635 10.1465 17.5159 10.0531C17.7658 9.6151 17.8967 9.11928 17.8956 8.61498C17.8944 8.11067 17.7612 7.61547 17.5092 7.17864C17.2572 6.74181 16.8952 6.37858 16.4592 6.12511C16.0232 5.87163 15.5285 5.73674 15.0242 5.73386C14.9176 5.73367 14.8129 5.70595 14.7202 5.65339C14.6275 5.60082 14.55 5.5252 14.4951 5.43385C14.2409 4.99757 13.8767 4.63558 13.4389 4.38399C13.0011 4.1324 12.505 4 12 4C11.495 4 10.9989 4.1324 10.5611 4.38399C10.1233 4.63558 9.75911 4.99757 9.50487 5.43385C9.45086 5.52648 9.3737 5.60347 9.28095 5.65727C9.1882 5.71108 9.08306 5.73984 8.97584 5.74073C8.47332 5.74586 7.98084 5.88204 7.54707 6.13581C7.11331 6.38957 6.75327 6.75214 6.50254 7.18767C6.25182 7.6232 6.11909 8.11662 6.11746 8.61916C6.11584 9.1217 6.24539 9.61596 6.4933 10.0531C6.54631 10.1463 6.57417 10.2516 6.57417 10.3588C6.57417 10.466 6.54631 10.5714 6.4933 10.6646C6.24371 11.1019 6.1128 11.5969 6.11356 12.1004C6.11433 12.604 6.24674 13.0986 6.49766 13.5351C6.74859 13.9717 7.1093 14.3351 7.54401 14.5892C7.97872 14.8433 8.47232 14.9794 8.97584 14.9838C9.08231 14.9831 9.18712 15.0102 9.27991 15.0624C9.37269 15.1146 9.45024 15.1902 9.50487 15.2815C9.71774 15.6458 10.009 15.9581 10.3576 16.1958C10.7062 16.4335 11.1034 16.5906 11.5202 16.6556V18.9733H2V19.9306H22V18.9733ZM10.3339 14.8075C10.1955 14.571 9.99794 14.3746 9.76062 14.2377C9.5233 14.1008 9.25441 14.028 8.98042 14.0265C8.6431 14.0249 8.3121 13.9349 8.02038 13.7656C7.72865 13.5962 7.4864 13.3534 7.31775 13.0612C7.14909 12.7691 7.05992 12.4379 7.05912 12.1005C7.05832 11.7632 7.14592 11.4316 7.31318 11.1386C7.44937 10.9009 7.52103 10.6317 7.52103 10.3577C7.52103 10.0837 7.44937 9.81449 7.31318 9.57675C7.14575 9.28399 7.05803 8.95244 7.05878 8.61519C7.05953 8.27793 7.14871 7.94677 7.31743 7.65476C7.48615 7.36274 7.72851 7.12008 8.02031 6.951C8.31212 6.78191 8.64317 6.69231 8.98042 6.69115C9.25432 6.68924 9.52303 6.61627 9.76028 6.47938C9.99752 6.3425 10.1952 6.14638 10.3339 5.9102C10.5037 5.61887 10.7468 5.37715 11.0392 5.20915C11.3315 5.04114 11.6628 4.95273 12 4.95273C12.3372 4.95273 12.6685 5.04114 12.9608 5.20915C13.2532 5.37715 13.4963 5.61887 13.6661 5.9102C13.8048 6.14638 14.0025 6.3425 14.2397 6.47938C14.477 6.61627 14.7457 6.68924 15.0196 6.69115C15.3568 6.69231 15.6879 6.78191 15.9797 6.951C16.2715 7.12008 16.5138 7.36274 16.6826 7.65476C16.8513 7.94677 16.9405 8.27793 16.9412 8.61519C16.942 8.95244 16.8542 9.28399 16.6868 9.57675C16.5506 9.81449 16.479 10.0837 16.479 10.3577C16.479 10.6317 16.5506 10.9009 16.6868 11.1386C16.8541 11.4316 16.9417 11.7632 16.9409 12.1005C16.9401 12.4379 16.8509 12.7691 16.6823 13.0612C16.5136 13.3534 16.2713 13.5962 15.9796 13.7656C15.6879 13.9349 15.3569 14.0249 15.0196 14.0265C14.7456 14.028 14.4767 14.1008 14.2394 14.2377C14.0021 14.3746 13.8045 14.571 13.6661 14.8075C13.5371 15.027 13.3654 15.2185 13.1613 15.3707C12.9572 15.5229 12.7247 15.6327 12.4775 15.6938V12.4257L14.8089 10.0966L14.1218 9.40957L12.4683 11.0631V8.01944H11.5317V11.0722L9.869 9.41873L9.18195 10.1058L11.5317 12.4257V15.6938C11.2828 15.6338 11.0486 15.5245 10.8428 15.3722C10.637 15.22 10.464 15.0279 10.3339 14.8075V14.8075Z" fill="#EF7D00"/>
</svg>
