<svg width="24" height="24" viewBox="0 0 24 24" fill="none" xmlns="http://www.w3.org/2000/svg">
<path fill-rule="evenodd" clip-rule="evenodd" d="M4.7076 4.46676C6.49673 3.04989 8.79089 2.47726 10.9693 2.50069L10.9705 2.5007C12.7709 2.52408 14.5249 2.9105 16.0599 3.89768C17.5605 4.86278 18.8125 6.377 19.6969 8.59575L22.241 9.99498L22.5 10.4331V12.37L22 12.87H17.2703V11.87H21.5V10.7287L19.0563 9.38469L18.8305 9.12576C18.0065 6.97888 16.8516 5.5958 15.519 4.73875C14.1824 3.87919 12.6259 3.52236 10.958 3.50062C8.94749 3.47911 6.89503 4.01007 5.32844 5.25071C3.77792 6.47862 2.65471 8.43924 2.54503 11.3886C2.54465 11.5048 2.53738 11.6252 2.52926 11.7368L14.2991 11.7799L14.2955 12.7799L1.99817 12.7349L1.5 12.2349C1.5 12.0804 1.51251 11.9178 1.52329 11.7778L1.524 11.7686C1.5356 11.6178 1.54505 11.4913 1.54505 11.379L1.54538 11.3607C1.66279 8.14372 2.90377 5.89528 4.7076 4.46676Z" fill="#EF7D00"/>
<path fill-rule="evenodd" clip-rule="evenodd" d="M14.1622 10.2123H2.09009V9.21231H14.1622V10.2123Z" fill="#EF7D00"/>
<path d="M15.964 11.8294L17 12.8655L10.4685 19.397L6.99999 15.9286L8.03603 14.8925L10.5135 17.37L15.964 11.8294ZM15.018 10.8835L10.4685 15.433L8.93693 13.9015H7.04503L6.009 14.9376V16.8295L9.47747 20.2979H9.52251H10.4234H11.3694H11.4144L17.9459 13.7664V11.8745L16.9099 10.8384H15.018V10.8835Z" fill="#EF7C00"/>
</svg>
