<svg width="24" height="24" viewBox="0 0 24 24" fill="none" xmlns="http://www.w3.org/2000/svg">
<path d="M21.7161 7.57831L16.4217 2.28392L15.7235 2H8.26018L7.56202 2.28392L2.28392 7.57831L2 8.27647V15.7398L2.28392 16.438L7.57831 21.7161L8.27647 22H15.7398L16.438 21.7161L21.7161 16.4217L22 15.7235V8.26018L21.7161 7.57831ZM21.0179 15.7445L15.7398 21.0272H8.26018L2.97277 15.7398V8.26018L8.26018 2.97277H15.7398L21.0272 8.26018L21.0179 15.7445Z" fill="#EF7D00"/>
<path d="M6.73579 7.66674V11.623C6.7343 12.62 6.95542 13.6047 7.38299 14.5054C7.81057 15.406 8.43382 16.1999 9.20728 16.8289L11.3948 18.6232H12.6283L14.8158 16.8289C15.5841 16.1983 16.2024 15.4046 16.6259 14.5054C17.0493 13.6061 17.2673 12.6239 17.2641 11.63V7.67372L16.2913 6.69397H7.70856L6.73579 7.66674ZM16.2913 11.623C16.2921 12.4729 16.1047 13.3125 15.7425 14.0814C15.3804 14.8503 14.8525 15.5295 14.1968 16.0703L11.9999 17.8715L9.81235 16.0773C9.15662 15.5365 8.62874 14.8573 8.26661 14.0884C7.90448 13.3195 7.71708 12.4799 7.71787 11.63V7.67372H16.2913V11.623Z" fill="#EF7D00"/>
<path d="M11.4833 14.2923L15.2487 10.5269L14.5598 9.83801L11.1388 13.2613L9.70063 11.8231L9.01178 12.5096L10.7944 14.2923H11.4833Z" fill="#EF7D00"/>
</svg>
