<svg width="24" height="24" viewBox="0 0 24 24" fill="none" xmlns="http://www.w3.org/2000/svg">
<path d="M17.733 13.6946L15.7224 13.6816L12.4619 10.4341V5.45429L11.9989 5H3.45212L3 5.50211L3.61732 11.3275L3.00217 16.679V19.0461L3.46081 19.5004L9.34271 19.4635L9.79483 19.0092V18.7462L12.6858 19.5635L12.8119 19.5808L20.5479 19.5417L21 19.0853V17.2398C21 15.1966 19.6263 13.7055 17.733 13.6946ZM11.5446 5.90859V7.7388H9.98611V7.16496H9.07753V9.22123H9.98611V8.64739H11.5446V10.295L10.5534 10.7297L10.323 10.2037L9.49052 10.5732L10.3187 12.4534L11.1512 12.0883L10.9121 11.5644L11.8707 11.1427L13.364 12.6252L12.4771 13.4012L12.0989 12.9664L11.4142 13.5642L12.7749 15.1162L13.4596 14.5184L13.0814 14.0837L14.0161 13.2686L15.2137 14.4641L15.5311 14.5967L17.7287 14.6097C18.8785 14.6097 19.7632 15.4053 20.0153 16.566H13.0162L9.64485 15.5509C9.46444 13.6272 7.81029 11.0862 4.4846 10.8906L3.95641 5.90859H11.5446ZM4.47808 11.7992C7.3147 11.9839 8.48847 14.1011 8.71018 15.4379H4.05857L4.47808 11.7992ZM12.8684 18.6723L9.46226 17.7093L8.88407 18.1441V18.5527L3.90859 18.594V16.7573L3.95641 16.3465H9.14056L12.8184 17.4333L12.9488 17.4528H20.0892V18.6244L12.8684 18.6723Z" fill="#EF7D00"/>
</svg>
