<svg width="24" height="24" viewBox="0 0 24 24" fill="none" xmlns="http://www.w3.org/2000/svg">
<path d="M19.6175 13.8895H19.124L18.7724 11.5036L18.9112 11.1782C19.1148 10.7025 19.2197 10.1905 19.2196 9.67303V5.15587C19.2196 5.01898 19.1926 4.88343 19.1401 4.75702C19.0876 4.6306 19.0106 4.51581 18.9136 4.41922C18.8165 4.32264 18.7014 4.24617 18.5748 4.19421C18.4481 4.14224 18.3125 4.1158 18.1756 4.11641C18.0406 4.11625 17.9069 4.14299 17.7823 4.19507V3.68922C17.7714 3.52237 17.7203 3.36063 17.6334 3.21776C17.5466 3.07489 17.4265 2.95513 17.2834 2.86866C17.1403 2.78218 16.9784 2.73157 16.8115 2.72111C16.6446 2.71066 16.4777 2.74068 16.3249 2.80861C16.2678 2.55673 16.1189 2.33517 15.9072 2.18721C15.6956 2.03925 15.4363 1.97553 15.1802 2.00849C14.924 2.04145 14.6894 2.16872 14.522 2.36544C14.3547 2.56217 14.2667 2.81421 14.2753 3.07233C14.1502 3.02013 14.016 2.99339 13.8805 2.99368C13.6049 2.99409 13.3408 3.10373 13.1459 3.29858C12.9511 3.49343 12.8414 3.75758 12.841 4.03313V6.61944L12.6868 6.29094C12.6306 6.17091 12.5514 6.06312 12.4535 5.97373C12.3557 5.88435 12.2412 5.81512 12.1166 5.77C11.992 5.72489 11.8597 5.70477 11.7273 5.7108C11.595 5.71683 11.4651 5.74889 11.3451 5.80515L11.2895 5.83136C11.0274 5.9532 10.7544 6.07966 10.6542 6.35418C10.6263 6.43715 10.6156 6.52492 10.6228 6.61216C10.6299 6.69939 10.6548 6.78425 10.6958 6.86157L11.3266 8.19096L11.9095 7.91336L11.2788 6.58551V6.57009C11.3706 6.51009 11.4676 6.45847 11.5687 6.41586L11.6258 6.38965C11.6691 6.3689 11.7162 6.35699 11.7642 6.35461C11.8122 6.35223 11.8603 6.35944 11.9055 6.3758C11.9507 6.39216 11.9922 6.41736 12.0276 6.44992C12.063 6.48248 12.0915 6.52176 12.1116 6.56546L12.8827 8.18942L13.0276 8.34364L14.741 9.20883L15.6386 11.1721L16.2247 10.9037L15.2808 8.83715L15.1266 8.68293L13.5643 7.88868H17.4631L17.7854 7.56636V5.15587C17.782 5.10205 17.7897 5.04811 17.808 4.99738C17.8263 4.94665 17.8547 4.9002 17.8917 4.8609C17.9286 4.82159 17.9732 4.79027 18.0226 4.76886C18.0721 4.74745 18.1255 4.7364 18.1794 4.7364C18.2333 4.7364 18.2867 4.74745 18.3362 4.76886C18.3857 4.79027 18.4303 4.82159 18.4672 4.8609C18.5041 4.9002 18.5326 4.94665 18.5509 4.99738C18.5691 5.04811 18.5768 5.10205 18.5735 5.15587V9.67303C18.5739 10.1035 18.4868 10.5296 18.3174 10.9253L18.1432 11.334L18.1216 11.5083L18.4732 13.8895H14.4434V14.5341H19.2952V15.8805H14.485V16.5267H19.6175L19.9399 16.2028V14.2118L19.6175 13.8895ZM13.4872 7.24404V4.02851C13.4838 3.97469 13.4915 3.92075 13.5098 3.87002C13.5281 3.81929 13.5566 3.77284 13.5935 3.73353C13.6304 3.69423 13.675 3.66291 13.7245 3.64149C13.774 3.62008 13.8273 3.60904 13.8812 3.60904C13.9352 3.60904 13.9885 3.62008 14.038 3.64149C14.0875 3.66291 14.1321 3.69423 14.169 3.73353C14.2059 3.77284 14.2344 3.81929 14.2527 3.87002C14.271 3.92075 14.2787 3.97469 14.2753 4.02851V7.24404H13.4872ZM14.9199 7.24404V3.07233C14.9262 2.97209 14.9705 2.878 15.0437 2.80924C15.1169 2.74047 15.2135 2.70219 15.314 2.70219C15.4144 2.70219 15.5111 2.74047 15.5843 2.80924C15.6575 2.878 15.7017 2.97209 15.708 3.07233V7.24404H14.9199ZM17.1407 7.24404H16.3527V3.75399C16.3527 3.64955 16.394 3.54936 16.4677 3.47536C16.5415 3.40137 16.6415 3.35959 16.7459 3.35918C16.8407 3.3566 16.9331 3.38872 17.0058 3.4495C17.0785 3.51028 17.1265 3.59553 17.1407 3.68922V7.23633V7.24404Z" fill="#EF7D00"/>
<path d="M13.4486 19.3643L13.1525 17.3595L13.2913 17.0356C13.495 16.5594 13.6 16.0468 13.5997 15.5288V11.0071C13.5999 10.8359 13.5578 10.6673 13.4772 10.5163C13.3966 10.3653 13.2799 10.2365 13.1375 10.1414C12.9951 10.0464 12.8315 9.98795 12.6611 9.97134C12.4907 9.95474 12.3189 9.98047 12.1608 10.0463V9.54966C12.1515 9.38085 12.1012 9.21688 12.0141 9.07198C11.927 8.92708 11.8058 8.80566 11.6611 8.71825C11.5164 8.63085 11.3525 8.58012 11.1837 8.57047C11.015 8.56082 10.8464 8.59254 10.6926 8.66288C10.6288 8.4193 10.4786 8.20723 10.27 8.06619C10.0614 7.92515 9.80859 7.86476 9.55875 7.89628C9.30892 7.92779 9.07907 8.04905 8.91201 8.23747C8.74496 8.42589 8.6521 8.66862 8.65074 8.92043C8.49351 8.85763 8.32331 8.83418 8.15495 8.85213C7.98659 8.87009 7.82517 8.92889 7.68471 9.02344C7.54426 9.11799 7.42902 9.24542 7.34903 9.39465C7.26904 9.54387 7.22671 9.71038 7.22573 9.87969V12.4691L7.07151 12.1406C6.95746 11.8983 6.75204 11.7112 6.50025 11.6201C6.24846 11.5291 5.97085 11.5415 5.72823 11.6548L5.67271 11.6795C5.41054 11.8013 5.13911 11.9278 5.03886 12.2038C5.00909 12.2856 4.9962 12.3726 5.00097 12.4596C5.00574 12.5465 5.02807 12.6316 5.06662 12.7097L6.79699 16.3802L6.84172 16.4511L7.62671 17.3857L7.3599 19.3643H7.04066L6.7168 19.6867V21.6777L7.04066 22H13.683L14.0069 21.6777V19.6867L13.683 19.3643H13.4486ZM8.21892 17.0803L7.36761 16.0686L5.65729 12.4352C5.65692 12.43 5.65692 12.4249 5.65729 12.4197C5.74802 12.3588 5.84464 12.3071 5.94569 12.2655L6.00275 12.2377C6.04629 12.2175 6.0934 12.206 6.14138 12.2039C6.18937 12.2019 6.23729 12.2093 6.28241 12.2257C6.32752 12.2422 6.36895 12.2674 6.40432 12.2999C6.43969 12.3324 6.46832 12.3715 6.48855 12.4151L7.25966 14.0391L7.87655 13.9003V9.87969C7.88282 9.77945 7.92707 9.68536 8.00027 9.6166C8.07348 9.54783 8.17014 9.50955 8.27058 9.50955C8.37103 9.50955 8.46769 9.54783 8.5409 9.6166C8.6141 9.68536 8.65835 9.77945 8.66462 9.87969V12.3997H8.67542V13.4669H9.32007L9.30002 8.93277C9.30629 8.83252 9.35054 8.73844 9.42374 8.66967C9.49695 8.6009 9.59361 8.56262 9.69405 8.56262C9.79449 8.56262 9.89116 8.6009 9.96437 8.66967C10.0376 8.73844 10.0818 8.83252 10.0881 8.93277V13.4191H10.7327V12.2501V9.60518C10.7331 9.50073 10.7749 9.40071 10.8489 9.327C10.9229 9.25329 11.0231 9.21191 11.1275 9.21191C11.2233 9.20961 11.3164 9.24286 11.3891 9.30523C11.4617 9.36761 11.5086 9.45469 11.5208 9.54966V13.4206H12.1608V12.2917V11.0071C12.1671 10.9068 12.2114 10.8127 12.2846 10.744C12.3578 10.6752 12.4544 10.6369 12.5549 10.6369C12.6553 10.6369 12.752 10.6752 12.8252 10.744C12.8984 10.8127 12.9426 10.9068 12.9489 11.0071V15.5242C12.9494 15.9552 12.8623 16.3818 12.6929 16.778L12.5186 17.1867L12.497 17.3595L12.7931 19.3643H8.01226L8.28678 17.3302L8.21892 17.0803ZM13.3607 21.3554H7.36299V20.009H13.3607V21.3554Z" fill="#EF7D00"/>
</svg>
