<svg width="24" height="24" viewBox="0 0 24 24" fill="none" xmlns="http://www.w3.org/2000/svg">
<path d="M13.7412 21H10.7765C8.02353 21 5.73651 18.7553 5.73651 15.96V3H18.7388V15.96C18.7812 18.7553 16.4941 21 13.7412 21Z" stroke="#EF7C00" stroke-miterlimit="10" stroke-linejoin="bevel"/>
<path d="M16.1976 7.65882H8.27765V9.90355H16.1976V7.65882Z" stroke="#EF7C00" stroke-miterlimit="10" stroke-linejoin="bevel"/>
<path d="M5.73651 6.00705H4V11.6824H5.73651V6.00705Z" stroke="#EF7C00" stroke-miterlimit="10" stroke-linejoin="bevel"/>
<path d="M20.5177 6.00705H18.7812V11.6824H20.5177V6.00705Z" stroke="#EF7C00" stroke-miterlimit="10" stroke-linejoin="bevel"/>
<path d="M10.3106 12.233C10.3106 12.5294 10.0565 12.7835 9.76002 12.7835C9.46355 12.7835 9.20941 12.5294 9.20941 12.233C9.20941 11.9365 9.46355 11.6824 9.76002 11.6824C10.0565 11.6824 10.3106 11.8941 10.3106 12.233Z" fill="#EF7C00"/>
<path d="M12.8094 12.233C12.8094 12.5294 12.5553 12.7835 12.2588 12.7835C11.9623 12.7835 11.7083 12.5294 11.7083 12.233C11.7083 11.9365 11.9623 11.6824 12.2588 11.6824C12.5553 11.6824 12.8094 11.8941 12.8094 12.233Z" fill="#EF7C00"/>
<path d="M15.3083 12.233C15.3083 12.5294 15.0541 12.7835 14.7576 12.7835C14.4612 12.7835 14.2071 12.5294 14.2071 12.233C14.2071 11.9365 14.4612 11.6824 14.7576 11.6824C15.0541 11.6824 15.3083 11.8941 15.3083 12.233Z" fill="#EF7C00"/>
</svg>
