<svg width="24" height="24" viewBox="0 0 24 24" fill="none" xmlns="http://www.w3.org/2000/svg">
<path d="M17.3637 9.43052L15.7548 7.20137V2.40956L15.3413 2H13.6446L13.237 2.40956V6.7372H11.1989V2.40956L10.7913 2H9.10044L8.69283 2.40956V7.20137L7.07801 9.43052L7 9.6626V21.5904L7.40761 22H10.7016L11.1073 21.6392L11.9498 14.5168C11.9577 14.4505 11.9897 14.3894 12.0397 14.3451C12.0896 14.3008 12.1541 14.2764 12.2209 14.2764C12.2876 14.2764 12.3521 14.3008 12.4021 14.3451C12.452 14.3894 12.484 14.4505 12.492 14.5168L13.3345 21.6392L13.7401 22H17.0341L17.4417 21.5904V9.6626L17.3637 9.43052ZM9.42613 7.57192L9.50414 7.33398V2.81716H10.3837V7.13896L10.7913 7.54656H13.6504L14.058 7.13896V2.81716H14.9376V7.33398L15.0156 7.57192L16.2365 9.26085H8.20527L9.42613 7.57192ZM7.81521 21.1887V18.3881H10.6724L10.3408 21.1887H7.81521ZM12.2209 13.4656C11.9543 13.4657 11.697 13.5637 11.4978 13.7409C11.2986 13.9181 11.1715 14.1623 11.1404 14.4271L10.7679 17.5729H7.81521V10.0761H11.8406V12.0029H12.6558V10.0761H16.6265V17.5729H13.6738L13.3013 14.4271C13.2703 14.1623 13.1431 13.9181 12.9439 13.7409C12.7448 13.5637 12.4875 13.4657 12.2209 13.4656ZM14.1009 21.1887L13.7694 18.3881H16.6265V21.1887H14.1009Z" fill="#EF7D00"/>
</svg>
