<svg width="24" height="24" viewBox="0 0 24 24" fill="none" xmlns="http://www.w3.org/2000/svg">
<path fill-rule="evenodd" clip-rule="evenodd" d="M11.6237 4.7274C11.8056 4.51958 12.1214 4.49852 12.3293 4.68036L19.8721 11.2804C19.9806 11.3753 20.0429 11.5125 20.0429 11.6566C20.0429 11.8008 19.9806 11.938 19.8721 12.0329L12.3293 18.6329C12.1214 18.8148 11.8056 18.7937 11.6237 18.5859C11.4419 18.3781 11.4629 18.0622 11.6708 17.8804L18.7836 11.6566L11.6708 5.43294C11.4629 5.25109 11.4419 4.93521 11.6237 4.7274Z" fill="#EF7D00"/>
<path fill-rule="evenodd" clip-rule="evenodd" d="M3.95715 11.6566C3.95715 11.3805 4.18101 11.1566 4.45715 11.1566L19.5429 11.1566C19.819 11.1566 20.0429 11.3805 20.0429 11.6566C20.0429 11.9328 19.819 12.1566 19.5429 12.1566L4.45715 12.1566C4.18101 12.1566 3.95715 11.9328 3.95715 11.6566Z" fill="#EF7D00"/>
</svg>
