<svg width="24" height="24" viewBox="0 0 24 24" fill="none" xmlns="http://www.w3.org/2000/svg">
<path fill-rule="evenodd" clip-rule="evenodd" d="M12.3763 18.5871C12.1944 18.7949 11.8786 18.8159 11.6707 18.6341L4.12788 12.0341C4.01938 11.9392 3.95714 11.802 3.95714 11.6578C3.95714 11.5136 4.01938 11.3765 4.12788 11.2815L11.6707 4.68152C11.8786 4.49968 12.1944 4.52074 12.3763 4.72855C12.5581 4.93637 12.5371 5.25225 12.3292 5.43409L5.21643 11.6578L12.3292 17.8815C12.5371 18.0634 12.5581 18.3792 12.3763 18.5871Z" fill="#EF7D00"/>
<path fill-rule="evenodd" clip-rule="evenodd" d="M3.95715 11.6578C3.95715 11.3817 4.18101 11.1578 4.45715 11.1578H19.5429C19.819 11.1578 20.0429 11.3817 20.0429 11.6578C20.0429 11.934 19.819 12.1578 19.5429 12.1578H4.45715C4.18101 12.1578 3.95715 11.934 3.95715 11.6578Z" fill="#EF7D00"/>
</svg>
