<svg width="24" height="24" viewBox="0 0 24 24" fill="none" xmlns="http://www.w3.org/2000/svg">
<path fill-rule="evenodd" clip-rule="evenodd" d="M3.14288 4.28571C3.14288 4.00956 3.36674 3.78571 3.64288 3.78571H5.16171C5.88751 3.78571 6.5092 4.30537 6.63793 5.01967L6.89911 6.46894H20.3572C20.5058 6.46894 20.6468 6.53508 20.7418 6.64941C20.8367 6.76375 20.8759 6.91442 20.8487 7.06056L19.6924 13.2642C19.6482 13.5009 19.4416 13.6726 19.2008 13.6726H8.24717L8.47377 14.8943H19.2429C19.519 14.8943 19.7429 15.1181 19.7429 15.3943C19.7429 15.6704 19.519 15.8943 19.2429 15.8943H8.05798C7.817 15.8943 7.61031 15.7224 7.56636 15.4855L7.15449 13.2648L7.15429 13.2637L5.98907 7.05762L5.65378 5.19703C5.61087 4.95893 5.40364 4.78571 5.16171 4.78571H3.64288C3.36674 4.78571 3.14288 4.56185 3.14288 4.28571ZM8.06076 12.6726H18.7854L19.7554 7.46894H7.08377L8.06076 12.6726ZM8.84576 17.5469C9.3784 16.9885 10.2696 16.9885 10.8023 17.5469C11.3005 18.0692 11.3005 18.8908 10.8023 19.4131C10.2696 19.9715 9.3784 19.9715 8.84576 19.4131C8.34752 18.8908 8.34752 18.0692 8.84576 17.5469ZM10.0787 18.2371C9.94002 18.0917 9.70801 18.0917 9.56936 18.2371C9.43966 18.3731 9.43966 18.5869 9.56936 18.7229C9.70801 18.8683 9.94002 18.8683 10.0787 18.7229C10.2084 18.5869 10.2084 18.3731 10.0787 18.2371ZM16.2043 17.5469C16.7369 16.9885 17.6281 16.9885 18.1608 17.5469C18.659 18.0692 18.659 18.8908 18.1608 19.4131C17.6281 19.9715 16.7369 19.9715 16.2043 19.4131C15.706 18.8908 15.706 18.0692 16.2043 17.5469ZM17.4372 18.2371C17.2985 18.0917 17.0665 18.0917 16.9278 18.2371C16.7981 18.3731 16.7981 18.5869 16.9278 18.7229C17.0665 18.8683 17.2985 18.8683 17.4372 18.7229C17.5669 18.5869 17.5669 18.3731 17.4372 18.2371Z" fill="#EF7D00"/>
</svg>
