<svg width="24" height="24" viewBox="0 0 24 24" fill="none" xmlns="http://www.w3.org/2000/svg">
<path d="M12.0001 20C10.1973 18.0152 7.75242 16.7296 5.09542 16.3692C4.79299 16.3357 4.51368 16.1914 4.31139 15.9641C4.1091 15.7368 3.99818 15.4427 4.00002 15.1384V5.23063C4.00001 5.05286 4.03851 4.87719 4.11287 4.71572C4.18724 4.55424 4.2957 4.41079 4.4308 4.29524C4.56351 4.18179 4.71885 4.09787 4.88649 4.04906C5.05413 4.00026 5.23024 3.98768 5.40311 4.01216C7.9438 4.43383 10.268 5.70002 12.0001 7.60604V20Z" stroke="#EF7D00" stroke-linecap="round" stroke-linejoin="round"/>
<path d="M12.0002 20C13.803 18.0152 16.2479 16.7296 18.9049 16.3692C19.2073 16.3357 19.4866 16.1914 19.6889 15.9641C19.8912 15.7368 20.0021 15.4427 20.0003 15.1384V5.23063C20.0003 5.05286 19.9618 4.87719 19.8874 4.71572C19.813 4.55424 19.7046 4.41079 19.5695 4.29524C19.4368 4.18179 19.2814 4.09787 19.1138 4.04906C18.9461 4.00026 18.77 3.98768 18.5972 4.01216C16.0565 4.43383 13.7322 5.70002 12.0002 7.60604V20Z" stroke="#EF7D00" stroke-linecap="round" stroke-linejoin="round"/>
</svg>
