<svg width="24" height="24" viewBox="0 0 24 24" fill="none" xmlns="http://www.w3.org/2000/svg">
<path fill-rule="evenodd" clip-rule="evenodd" d="M4.1391 3.8797L4.6391 3.3797H18.1353L18.6353 3.8797V22L18.1353 22.5H4.6391L4.1391 22V3.8797ZM5.1391 4.3797V21.5H17.6353V4.3797H5.1391Z" fill="#EF7D00"/>
<path fill-rule="evenodd" clip-rule="evenodd" d="M6.5827 2L7.0827 1.5H20.5789L21.0789 2V20.1203L20.5789 20.6203H18.1353V19.6203H20.0789V2.5H7.5827V3.8797H6.5827V2Z" fill="#EF7D00"/>
<path fill-rule="evenodd" clip-rule="evenodd" d="M6.80829 6.62408L7.30829 6.12408H15.8421L16.3421 6.62408V12.4887L15.8421 12.9887H7.30829L6.80829 12.4887V6.62408ZM7.80829 7.12408V11.9887H15.3421V7.12408H7.80829Z" fill="#EF7D00"/>
<path fill-rule="evenodd" clip-rule="evenodd" d="M15.1278 15.6955H8.3233V14.6955H15.1278V15.6955Z" fill="#EF7D00"/>
<path fill-rule="evenodd" clip-rule="evenodd" d="M3.5 5.7218C3.5 5.44566 3.72386 5.2218 4 5.2218H5.2406C5.51674 5.2218 5.7406 5.44566 5.7406 5.7218C5.7406 5.99794 5.51674 6.2218 5.2406 6.2218H4C3.72386 6.2218 3.5 5.99794 3.5 5.7218Z" fill="#EF7D00"/>
<path fill-rule="evenodd" clip-rule="evenodd" d="M3.5 8.12781C3.5 7.85167 3.72386 7.62781 4 7.62781H5.2406C5.51674 7.62781 5.7406 7.85167 5.7406 8.12781C5.7406 8.40395 5.51674 8.62781 5.2406 8.62781H4C3.72386 8.62781 3.5 8.40395 3.5 8.12781Z" fill="#EF7D00"/>
<path fill-rule="evenodd" clip-rule="evenodd" d="M3.5 10.5338C3.5 10.2577 3.72386 10.0338 4 10.0338H5.2406C5.51674 10.0338 5.7406 10.2577 5.7406 10.5338C5.7406 10.81 5.51674 11.0338 5.2406 11.0338H4C3.72386 11.0338 3.5 10.81 3.5 10.5338Z" fill="#EF7D00"/>
<path fill-rule="evenodd" clip-rule="evenodd" d="M3.5 12.9399C3.5 12.6637 3.72386 12.4399 4 12.4399H5.2406C5.51674 12.4399 5.7406 12.6637 5.7406 12.9399C5.7406 13.216 5.51674 13.4399 5.2406 13.4399H4C3.72386 13.4399 3.5 13.216 3.5 12.9399Z" fill="#EF7D00"/>
<path fill-rule="evenodd" clip-rule="evenodd" d="M3.5 15.3459C3.5 15.0697 3.72386 14.8459 4 14.8459H5.2406C5.51674 14.8459 5.7406 15.0697 5.7406 15.3459C5.7406 15.622 5.51674 15.8459 5.2406 15.8459H4C3.72386 15.8459 3.5 15.622 3.5 15.3459Z" fill="#EF7D00"/>
<path fill-rule="evenodd" clip-rule="evenodd" d="M3.5 17.7143C3.5 17.4382 3.72386 17.2143 4 17.2143H5.2406C5.51674 17.2143 5.7406 17.4382 5.7406 17.7143C5.7406 17.9904 5.51674 18.2143 5.2406 18.2143H4C3.72386 18.2143 3.5 17.9904 3.5 17.7143Z" fill="#EF7D00"/>
<path fill-rule="evenodd" clip-rule="evenodd" d="M3.5 20.1203C3.5 19.8442 3.72386 19.6203 4 19.6203H5.2406C5.51674 19.6203 5.7406 19.8442 5.7406 20.1203C5.7406 20.3964 5.51674 20.6203 5.2406 20.6203H4C3.72386 20.6203 3.5 20.3964 3.5 20.1203Z" fill="#EF7D00"/>
<path fill-rule="evenodd" clip-rule="evenodd" d="M15.1278 17.5752H8.3233V16.5752H15.1278V17.5752Z" fill="#EF7D00"/>
<path fill-rule="evenodd" clip-rule="evenodd" d="M15.0902 19.4925H8.3233V18.4925H15.0902V19.4925Z" fill="#EF7D00"/>
</svg>
