<svg width="24" height="24" viewBox="0 0 24 24" fill="none" xmlns="http://www.w3.org/2000/svg">
<path d="M21.8876 13.071L9.93449 9.29858L9.29858 9.92493L13.071 21.8781L13.9675 22L16.1836 18.6005L19.3368 21.7538H20.054L21.7729 20.0349V19.3177L18.6101 16.1836L22.0096 13.9675L21.8876 13.071ZM17.5463 15.6816L17.4674 16.4537L20.7019 19.6906L19.6906 20.7019L16.4561 17.4674L15.6816 17.5463L13.7069 20.58L10.5393 10.5393L20.58 13.7069L17.5463 15.6816Z" fill="#EF7D00"/>
<path d="M5.11352 4.40821L4.40692 5.11481L7.57478 8.28267L8.28138 7.57607L5.11352 4.40821Z" fill="#EF7D00"/>
<path d="M6.48004 10.929H2V11.9283H6.48004V10.929Z" fill="#EF7D00"/>
<path d="M7.57656 14.5763L4.40869 17.7442L5.11529 18.4508L8.28315 15.2829L7.57656 14.5763Z" fill="#EF7D00"/>
<path d="M17.7446 4.40715L14.5768 7.57501L15.2834 8.28161L18.4512 5.11375L17.7446 4.40715Z" fill="#EF7D00"/>
<path d="M11.9282 2H10.929V6.48004H11.9282V2Z" fill="#EF7D00"/>
</svg>
