<svg width="24" height="24" viewBox="0 0 24 24" fill="none" xmlns="http://www.w3.org/2000/svg">
<path fill-rule="evenodd" clip-rule="evenodd" d="M18.7817 5.21788C18.977 5.41314 18.977 5.72973 18.7817 5.92499L5.92483 18.7821C5.72957 18.9774 5.41299 18.9774 5.21773 18.7821C5.02247 18.5869 5.02247 18.2703 5.21773 18.075L18.0746 5.21788C18.2699 5.02261 18.5865 5.02261 18.7817 5.21788Z" fill="#EF7D00"/>
<path fill-rule="evenodd" clip-rule="evenodd" d="M5.21799 5.21786C5.41326 5.0226 5.72984 5.0226 5.9251 5.21786L18.7821 18.0749C18.9774 18.2701 18.9774 18.5867 18.7821 18.782C18.5868 18.9772 18.2703 18.9772 18.075 18.782L5.21799 5.92496C5.02273 5.7297 5.02273 5.41312 5.21799 5.21786Z" fill="#EF7D00"/>
</svg>
