<svg width="24" height="24" viewBox="0 0 24 24" fill="none" xmlns="http://www.w3.org/2000/svg">
<path d="M21.1491 9.93099L19.713 9.75615C19.5542 9.18907 19.3321 8.64166 19.0509 8.12426L19.9275 6.98893L19.8506 5.70206L18.2956 4.1471L17.0087 4.07017L15.9154 4.92342C15.3838 4.62662 14.8198 4.39195 14.2345 4.22404L14.0667 2.85558L13.0992 2H10.9031L9.93565 2.85558L9.7678 4.22404C9.18256 4.39195 8.61857 4.62662 8.08695 4.92342L6.99359 4.07017L5.70672 4.1471L4.15177 5.70206L4.07483 6.98893L4.95372 8.1126C4.67251 8.63001 4.45042 9.17741 4.29164 9.74449L2.85558 9.91934L2 10.8868V13.0829L2.85558 14.0504L4.34526 14.2322C4.50886 14.779 4.73083 15.3065 5.00734 15.8058L4.79753 16.0716L3.14232 17.7408C2.77947 18.162 2.5891 18.7048 2.60934 19.2604C2.62959 19.816 2.85894 20.3435 3.25149 20.7372C3.64404 21.1309 4.17082 21.3619 4.72637 21.3838C5.28192 21.4057 5.82524 21.2169 6.24758 20.8553L7.87947 19.2235L8.21284 18.9647C8.69675 19.2239 9.20611 19.4325 9.73283 19.5871L9.924 21.1444L10.8915 22H13.0875L14.055 21.1444L14.2462 19.5871C14.7729 19.4325 15.2823 19.2239 15.7662 18.9647L17.0087 19.9228L18.2979 19.8436L19.8506 18.2909L19.9298 17.0017L18.9973 15.8035C19.2747 15.3081 19.4982 14.7845 19.6641 14.2415L21.1537 14.0597L22.0093 13.0922V10.8985L21.1491 9.93099ZM5.55985 20.1746C5.38703 20.3447 5.16792 20.46 4.92992 20.5062C4.69191 20.5524 4.44557 20.5274 4.22168 20.4343C3.9978 20.3413 3.8063 20.1843 3.67114 19.9831C3.53597 19.7818 3.46312 19.5452 3.46171 19.3027C3.46049 19.141 3.4914 18.9807 3.55262 18.831C3.61385 18.6813 3.70419 18.5453 3.81839 18.4308L4.14011 18.1091L5.53887 16.7103L9.22928 13.0269L9.35983 12.577C9.27307 12.1808 9.27586 11.7701 9.36798 11.3751C9.46011 10.9801 9.63925 10.6106 9.89234 10.2936C10.1454 9.97667 10.4661 9.72019 10.8309 9.54291C11.1957 9.36562 11.5956 9.27202 12.0012 9.26891C12.4408 9.26795 12.874 9.37524 13.2624 9.5813L11.6048 11.2365V11.9359L12.0711 12.4021H12.7588L14.421 10.7423C14.6636 11.2026 14.7692 11.7227 14.7254 12.2411C14.6816 12.7596 14.4901 13.2546 14.1737 13.6677C13.8574 14.0807 13.4292 14.3944 12.9401 14.5717C12.451 14.749 11.9213 14.7825 11.4137 14.6681L10.9637 14.7987L7.24536 18.4914L5.87691 19.8576L5.55985 20.1746ZM21.0302 13.0945L18.8808 13.358C18.6908 14.258 18.3256 15.1119 17.806 15.8711L19.1628 17.6032L17.6079 19.1582L15.8548 17.7851C15.1007 18.2813 14.2575 18.6265 13.372 18.8015L13.0992 21.0255H10.9031L10.6304 18.8015C10.0315 18.6816 9.45074 18.4841 8.9029 18.214L11.4673 15.6496C12.2052 15.7583 12.9587 15.6414 13.6289 15.314C14.2991 14.9867 14.8547 14.4643 15.2226 13.8155C15.5905 13.1667 15.7536 12.4217 15.6904 11.6786C15.6272 10.9354 15.3408 10.2287 14.8686 9.65124L14.3674 9.62793L14.3441 9.12904C13.767 8.65753 13.0609 8.37153 12.3184 8.30856C11.5758 8.24559 10.8316 8.40861 10.1834 8.77621C9.53516 9.14382 9.01324 9.69882 8.68612 10.3684C8.35899 11.0379 8.24197 11.7908 8.35039 12.528L5.75102 15.1227C5.46349 14.5652 5.2518 13.9716 5.12158 13.358L2.97214 13.0945V10.8985L5.08661 10.6397C5.25497 9.70924 5.61027 8.82259 6.13102 8.03334L4.83949 6.40144L6.40611 4.83483L8.038 6.11004C8.82497 5.56589 9.71522 5.189 10.6537 5.00268L10.9031 2.96515H13.0992L13.3486 5.00268C14.2926 5.18616 15.1886 5.56233 15.9806 6.10771L17.6125 4.8325L19.1628 6.40144L17.8713 8.03334C18.3915 8.82119 18.7467 9.7062 18.9157 10.635L21.0302 10.8938V13.0945Z" fill="#EF7D00"/>
</svg>
