<svg width="24" height="24" viewBox="0 0 24 24" fill="none" xmlns="http://www.w3.org/2000/svg">
<path fill-rule="evenodd" clip-rule="evenodd" d="M15.5464 5.75659H8.85333V4.75659H15.7535L16.1071 4.90304L19.1539 7.9499L19.3003 8.30345V14.0387L19.1539 14.3922L16.1071 17.4391L15.4 16.7319L18.3003 13.8316V8.51056L15.5464 5.75659Z" fill="#EF7D00"/>
<path fill-rule="evenodd" clip-rule="evenodd" d="M9.28978 5.30326L13.2395 1.35353L12.5324 0.646423L8.23095 4.94788L8.22913 5.65315L12.5305 9.99935L13.2413 9.29592L9.28978 5.30326Z" fill="#EF7D00"/>
<path fill-rule="evenodd" clip-rule="evenodd" d="M5.5 10.1684L8.40036 7.26802L7.69325 6.56091L4.64645 9.60772L4.5 9.96127V15.6965L4.64644 16.0501L7.69325 19.0969L8.0468 19.2434H14.947V18.2434H8.25391L5.5 15.4894V10.1684Z" fill="#EF7D00"/>
<path fill-rule="evenodd" clip-rule="evenodd" d="M14.5517 18.6967L10.5609 14.7059L11.268 13.9988L15.6142 18.345L15.6124 19.0539L11.2661 23.3554L10.5627 22.6446L14.5517 18.6967Z" fill="#EF7D00"/>
</svg>
