<svg width="24" height="24" viewBox="0 0 24 24" fill="none" xmlns="http://www.w3.org/2000/svg">
<path fill-rule="evenodd" clip-rule="evenodd" d="M5.68176 5.09088C5.68176 4.81474 5.90562 4.59088 6.18176 4.59088H11.9216C12.0642 4.59088 12.2 4.65173 12.2948 4.75814L16.3732 9.3325C16.4548 9.4241 16.4999 9.54253 16.4999 9.66524V18.1818C16.4999 18.4579 16.2761 18.6818 15.9999 18.6818H6.18176C5.90562 18.6818 5.68176 18.4579 5.68176 18.1818V5.09088ZM6.68176 5.59088V17.6818H15.4999V10.1652H11.9216C11.6455 10.1652 11.4216 9.94138 11.4216 9.66524V5.59088H6.68176ZM12.4216 6.40304L14.8843 9.16524H12.4216V6.40304Z" fill="#EF7D00"/>
</svg>
