<svg width="24" height="24" viewBox="0 0 24 24" fill="none" xmlns="http://www.w3.org/2000/svg">
<path fill-rule="evenodd" clip-rule="evenodd" d="M9.92859 12C9.92859 12.2761 9.70473 12.5 9.42859 12.5C7.73228 12.5 6.35717 11.1249 6.35717 9.42857C6.35717 7.73227 7.73229 6.35714 9.42859 6.35714C9.70473 6.35714 9.92859 6.581 9.92859 6.85714C9.92859 7.13329 9.70473 7.35714 9.42859 7.35714C8.28457 7.35714 7.35717 8.28455 7.35717 9.42857C7.35717 10.5726 8.28457 11.5 9.42859 11.5C9.70473 11.5 9.92859 11.7239 9.92859 12Z" fill="#EF7D00"/>
<path fill-rule="evenodd" clip-rule="evenodd" d="M14.0714 12C14.0714 11.7239 14.2953 11.5 14.5714 11.5C16.2677 11.5 17.6428 12.8751 17.6428 14.5714C17.6428 16.2677 16.2677 17.6429 14.5714 17.6429C14.2953 17.6429 14.0714 17.419 14.0714 17.1429C14.0714 16.8667 14.2953 16.6429 14.5714 16.6429C15.7154 16.6429 16.6428 15.7154 16.6428 14.5714C16.6428 13.4274 15.7154 12.5 14.5714 12.5C14.2953 12.5 14.0714 12.2761 14.0714 12Z" fill="#EF7D00"/>
<path fill-rule="evenodd" clip-rule="evenodd" d="M6.85717 16.6429L14.5715 16.6429C14.8476 16.6429 15.0715 16.8667 15.0715 17.1429C15.0715 17.419 14.8476 17.6429 14.5715 17.6429L6.85717 17.6429C6.58103 17.6429 6.35717 17.419 6.35717 17.1429C6.35717 16.8667 6.58103 16.6429 6.85717 16.6429ZM15.0715 12C15.0715 12.2762 14.8476 12.5 14.5715 12.5L9.4286 12.5C9.15246 12.5 8.9286 12.2762 8.9286 12C8.9286 11.7239 9.15246 11.5 9.4286 11.5L14.5715 11.5C14.8476 11.5 15.0715 11.7239 15.0715 12ZM17.6429 6.85717C17.6429 7.13331 17.419 7.35717 17.1429 7.35717L9.4286 7.35716C9.15246 7.35716 8.9286 7.13331 8.9286 6.85716C8.9286 6.58102 9.15246 6.35716 9.4286 6.35716L17.1429 6.35717C17.419 6.35717 17.6429 6.58102 17.6429 6.85717Z" fill="#EF7D00"/>
<path fill-rule="evenodd" clip-rule="evenodd" d="M12 19.5714C11.7239 19.5714 11.5 19.3476 11.5 19.0714L11.5 4.92855C11.5 4.65241 11.7239 4.42855 12 4.42855C12.2761 4.42855 12.5 4.65241 12.5 4.92855L12.5 19.0714C12.5 19.3476 12.2761 19.5714 12 19.5714Z" fill="#EF7D00"/>
</svg>
