<svg width="24" height="24" viewBox="0 0 24 24" fill="none" xmlns="http://www.w3.org/2000/svg">
<path fill-rule="evenodd" clip-rule="evenodd" d="M3.5 6.85712C3.5 6.30483 3.94772 5.85712 4.5 5.85712H19.5C20.0523 5.85712 20.5 6.30483 20.5 6.85712V15.8571C20.5 16.4094 20.0523 16.8571 19.5 16.8571H4.5C3.94772 16.8571 3.5 16.4094 3.5 15.8571V6.85712ZM4.5 6.85712V15.8571H19.5V6.85712H4.5Z" fill="#EF7D00"/>
<path fill-rule="evenodd" clip-rule="evenodd" d="M4.08768 6.5744C4.24385 6.34666 4.55507 6.28863 4.78281 6.4448L12 11.3938L19.2173 6.4448C19.445 6.28863 19.7562 6.34666 19.9124 6.5744C20.0686 6.80214 20.0106 7.11336 19.7828 7.26953L12.2828 12.4124C12.1124 12.5292 11.8877 12.5292 11.7173 12.4124L4.21728 7.26953C3.98954 7.11336 3.93152 6.80214 4.08768 6.5744Z" fill="#EF7D00"/>
</svg>
