<svg width="24" height="24" viewBox="0 0 24 24" fill="none" xmlns="http://www.w3.org/2000/svg">
<path fill-rule="evenodd" clip-rule="evenodd" d="M11.9063 17.3406C11.9062 17.6167 11.6823 17.8405 11.4061 17.8404L6.65838 17.8385C6.38232 17.8383 6.15858 17.6145 6.15857 17.3385L6.15846 12.593C6.15845 12.3169 6.38231 12.093 6.65846 12.093C6.93461 12.093 7.15848 12.3169 7.15848 12.593L7.15857 16.1321L10.3611 12.9324C10.5564 12.7372 10.873 12.7373 11.0682 12.9327C11.2634 13.128 11.2633 13.4446 11.0679 13.6398L7.86594 16.839L11.4065 16.8404C11.6827 16.8405 11.9064 17.0644 11.9063 17.3406Z" fill="#EF7D00"/>
<path fill-rule="evenodd" clip-rule="evenodd" d="M12.0937 6.65942C12.0938 6.38329 12.3177 6.15953 12.5939 6.15964L17.3416 6.16155C17.6177 6.16166 17.8414 6.38547 17.8414 6.66153L17.8415 11.407C17.8415 11.6831 17.6177 11.907 17.3415 11.907C17.0654 11.907 16.8415 11.6832 16.8415 11.407L16.8414 7.86788L13.639 11.0675C13.4437 11.2627 13.1271 11.2625 12.9319 11.0672C12.7367 10.8719 12.7368 10.5553 12.9322 10.3601L16.1341 7.16104L12.5935 7.15961C12.3173 7.1595 12.0936 6.93556 12.0937 6.65942Z" fill="#EF7D00"/>
</svg>
