<svg width="24" height="24" viewBox="0 0 24 24" fill="none" xmlns="http://www.w3.org/2000/svg">
<path fill-rule="evenodd" clip-rule="evenodd" d="M10.5 8.5H8.5V10.5H10.5V8.5ZM8.5 7.5C7.94772 7.5 7.5 7.94772 7.5 8.5V10.5C7.5 11.0523 7.94772 11.5 8.5 11.5H10.5C11.0523 11.5 11.5 11.0523 11.5 10.5V8.5C11.5 7.94772 11.0523 7.5 10.5 7.5H8.5Z" fill="#EF7D00"/>
<path fill-rule="evenodd" clip-rule="evenodd" d="M15.5 8.5H13.5V10.5H15.5V8.5ZM13.5 7.5C12.9477 7.5 12.5 7.94772 12.5 8.5V10.5C12.5 11.0523 12.9477 11.5 13.5 11.5H15.5C16.0523 11.5 16.5 11.0523 16.5 10.5V8.5C16.5 7.94772 16.0523 7.5 15.5 7.5H13.5Z" fill="#EF7D00"/>
<path fill-rule="evenodd" clip-rule="evenodd" d="M15.5 13.5H13.5V15.5H15.5V13.5ZM13.5 12.5C12.9477 12.5 12.5 12.9477 12.5 13.5V15.5C12.5 16.0523 12.9477 16.5 13.5 16.5H15.5C16.0523 16.5 16.5 16.0523 16.5 15.5V13.5C16.5 12.9477 16.0523 12.5 15.5 12.5H13.5Z" fill="#EF7D00"/>
<path fill-rule="evenodd" clip-rule="evenodd" d="M10.5 13.5H8.5V15.5H10.5V13.5ZM8.5 12.5C7.94772 12.5 7.5 12.9477 7.5 13.5V15.5C7.5 16.0523 7.94772 16.5 8.5 16.5H10.5C11.0523 16.5 11.5 16.0523 11.5 15.5V13.5C11.5 12.9477 11.0523 12.5 10.5 12.5H8.5Z" fill="#EF7D00"/>
</svg>
