<svg width="24" height="24" viewBox="0 0 24 24" fill="none" xmlns="http://www.w3.org/2000/svg">
<path fill-rule="evenodd" clip-rule="evenodd" d="M12 6.07141C9.06273 6.07141 6.62436 8.20749 6.15357 11.011L7.22267 10.2982C7.45243 10.1451 7.76287 10.2072 7.91604 10.4369C8.06922 10.6667 8.00713 10.9771 7.77737 11.1303L5.8488 12.416C5.68085 12.528 5.46205 12.528 5.2941 12.416L3.36553 11.1303C3.13576 10.9771 3.07367 10.6667 3.22685 10.4369C3.38003 10.2072 3.69046 10.1451 3.92023 10.2982L5.12885 11.104C5.56827 7.7007 8.47709 5.07141 12 5.07141C15.8266 5.07141 18.9286 8.17344 18.9286 12C18.9286 15.8265 15.8266 18.9286 12 18.9286C9.58958 18.9286 7.46695 17.6972 6.22651 15.8316C6.07362 15.6016 6.13609 15.2913 6.36604 15.1384C6.59599 14.9855 6.90635 15.048 7.05924 15.2779C8.12221 16.8766 9.93838 17.9286 12 17.9286C15.2743 17.9286 17.9286 15.2742 17.9286 12C17.9286 8.72572 15.2743 6.07141 12 6.07141ZM12 7.64284C12.2762 7.64284 12.5 7.8667 12.5 8.14284V11.7929L14.2821 13.575C14.4774 13.7703 14.4774 14.0868 14.2821 14.2821C14.0869 14.4774 13.7703 14.4774 13.575 14.2821L11.6465 12.3535C11.5527 12.2598 11.5 12.1326 11.5 12V8.14284C11.5 7.8667 11.7239 7.64284 12 7.64284Z" fill="#EF7D00"/>
</svg>
