<svg width="24" height="24" viewBox="0 0 24 24" fill="none" xmlns="http://www.w3.org/2000/svg">
<path fill-rule="evenodd" clip-rule="evenodd" d="M6.35718 5.57141C6.35718 5.29527 6.58104 5.07141 6.85718 5.07141H17.1429C17.419 5.07141 17.6429 5.29527 17.6429 5.57141V7.31441C17.6429 7.97745 17.3795 8.61334 16.9107 9.08218L13.9929 12L16.9107 14.9178C17.3795 15.3866 17.6429 16.0225 17.6429 16.6856V18.4286C17.6429 18.7047 17.419 18.9286 17.1429 18.9286H6.85718C6.58104 18.9286 6.35718 18.7047 6.35718 18.4286V16.6856C6.35718 16.0225 6.62057 15.3866 7.08941 14.9178L10.0072 12L7.08941 9.08218C6.62057 8.61334 6.35718 7.97745 6.35718 7.31441V5.57141ZM7.35718 6.07141V7.31441C7.35718 7.71224 7.51521 8.09377 7.79652 8.37507L11.0679 11.6464C11.1616 11.7402 11.2143 11.8674 11.2143 12C11.2143 12.1326 11.1616 12.2598 11.0679 12.3535L7.79652 15.6249C7.51521 15.9062 7.35718 16.2877 7.35718 16.6856V17.9286H16.6429V16.6856C16.6429 16.2877 16.4849 15.9062 16.2036 15.6249L12.9322 12.3535C12.8384 12.2598 12.7857 12.1326 12.7857 12C12.7857 11.8674 12.8384 11.7402 12.9322 11.6464L16.2036 8.37507C16.4849 8.09377 16.6429 7.71224 16.6429 7.31441V6.07141H7.35718ZM9.96874 8.59627C10.0456 8.40841 10.2285 8.2857 10.4315 8.2857H13.5686C13.7716 8.2857 13.9544 8.40841 14.0313 8.59627C14.1082 8.78412 14.0639 8.99982 13.9192 9.14216L12.3507 10.685C12.1561 10.8764 11.844 10.8764 11.6494 10.685L10.0808 9.14216C9.93613 8.99982 9.89183 8.78412 9.96874 8.59627ZM11.6528 9.2857L12 9.62722L12.3472 9.2857H11.6528ZM11.2786 16H12.7215L12 15.2785L11.2786 16ZM11.6465 14.2179C11.8417 14.0226 12.1583 14.0226 12.3536 14.2179L14.2822 16.1464C14.4252 16.2894 14.4679 16.5045 14.3905 16.6913C14.3132 16.8782 14.1308 17 13.9286 17H10.0715C9.86923 17 9.68691 16.8782 9.60952 16.6913C9.53213 16.5045 9.57491 16.2894 9.71791 16.1464L11.6465 14.2179Z" fill="#EF7D00"/>
</svg>
