<svg width="24" height="24" viewBox="0 0 24 24" fill="none" xmlns="http://www.w3.org/2000/svg">
<path fill-rule="evenodd" clip-rule="evenodd" d="M9.80261 4.98889L10.3026 4.48889H13.4022L13.9022 4.98889V8.08853L13.4022 8.58853H10.3026L9.80261 8.08853V4.98889ZM10.8026 5.48889V7.58853H12.9022V5.48889H10.8026Z" fill="#EF7D00"/>
<path fill-rule="evenodd" clip-rule="evenodd" d="M9.80261 10.7085L10.3026 10.2085H13.4022L13.9022 10.7085V18.9742L13.4022 19.4742H10.3026L9.80261 18.9742V10.7085ZM10.8026 11.2085V18.4742H12.9022V11.2085H10.8026Z" fill="#EF7D00"/>
<path fill-rule="evenodd" clip-rule="evenodd" d="M1.5 2L2 1.5H21.7417L22.2417 2V22L21.7417 22.5H2L1.5 22V2ZM2.5 2.5V21.5H21.2417V2.5H2.5Z" fill="#EF7D00"/>
</svg>
