<svg width="24" height="24" viewBox="0 0 24 24" fill="none" xmlns="http://www.w3.org/2000/svg">
<path d="M12.4478 2H11.5522V8.18599H12.4478V2Z" fill="#EF7D00"/>
<path d="M5.24465 4.61338L4.61133 5.2467L8.90367 9.53905L9.53699 8.90572L5.24465 4.61338Z" fill="#EF7D00"/>
<path d="M8.18599 11.5522H2V12.4478H8.18599V11.5522Z" fill="#EF7D00"/>
<path d="M22 11.5522H15.814V12.4478H22V11.5522Z" fill="#EF7D00"/>
<path d="M18.755 4.61281L14.4626 8.90515L15.096 9.53847L19.3883 5.24613L18.755 4.61281Z" fill="#EF7D00"/>
<path d="M12.4478 15.7369H11.5522V21.9229H12.4478V15.7369Z" fill="#EF7D00"/>
<path d="M8.9055 14.3866L4.61316 18.6789L5.24648 19.3122L9.53882 15.0199L8.9055 14.3866Z" fill="#EF7D00"/>
<path d="M15.0941 14.3853L14.4608 15.0186L18.7531 19.311L19.3864 18.6776L15.0941 14.3853Z" fill="#EF7D00"/>
</svg>
