<svg width="24" height="24" viewBox="0 0 24 24" fill="none" xmlns="http://www.w3.org/2000/svg">
<path fill-rule="evenodd" clip-rule="evenodd" d="M12 4.78571C8.72572 4.78571 6.07141 7.44002 6.07141 10.7143C6.07141 13.0723 7.54964 15.0363 9.12018 16.4498C9.89751 17.1494 10.677 17.6953 11.263 18.0664C11.5555 18.2517 11.7985 18.3925 11.9671 18.4865C11.9784 18.4928 11.9894 18.4989 12 18.5047C12.0106 18.4989 12.0216 18.4928 12.0329 18.4865C12.2015 18.3925 12.4444 18.2517 12.7369 18.0664C13.3229 17.6953 14.1025 17.1494 14.8798 16.4498C16.4503 15.0363 17.9286 13.0723 17.9286 10.7143C17.9286 7.44002 15.2742 4.78571 12 4.78571ZM12 19.0714C11.7764 19.5186 11.7762 19.5186 11.776 19.5185L11.7755 19.5182L11.7741 19.5175L11.7695 19.5151L11.7534 19.5069C11.7396 19.4999 11.72 19.4897 11.6948 19.4765C11.6444 19.4499 11.5719 19.411 11.4804 19.36C11.2974 19.2581 11.0382 19.1077 10.728 18.9112C10.1086 18.519 9.28102 17.9399 8.45121 17.1931C6.80747 15.7137 5.07141 13.4991 5.07141 10.7143C5.07141 6.88773 8.17344 3.78571 12 3.78571C15.8265 3.78571 18.9286 6.88773 18.9286 10.7143C18.9286 13.4991 17.1925 15.7137 15.5488 17.1931C14.7189 17.9399 13.8913 18.519 13.272 18.9112C12.9618 19.1077 12.7025 19.2581 12.5196 19.36C12.4281 19.411 12.3555 19.4499 12.3052 19.4765C12.28 19.4897 12.2603 19.4999 12.2466 19.5069L12.2305 19.5151L12.2259 19.5175L12.2244 19.5182L12.2239 19.5185C12.2238 19.5186 12.2236 19.5186 12 19.0714ZM12 19.0714L12.2236 19.5186C12.0828 19.589 11.9171 19.589 11.7764 19.5186L12 19.0714Z" fill="#EF7D00"/>
<path fill-rule="evenodd" clip-rule="evenodd" d="M12 13.5714C13.5779 13.5714 14.8571 12.2922 14.8571 10.7143C14.8571 9.1363 13.5779 7.85712 12 7.85712C10.422 7.85712 9.14282 9.1363 9.14282 10.7143C9.14282 12.2922 10.422 13.5714 12 13.5714ZM12 14.5714C14.1302 14.5714 15.8571 12.8445 15.8571 10.7143C15.8571 8.58402 14.1302 6.85712 12 6.85712C9.86972 6.85712 8.14282 8.58402 8.14282 10.7143C8.14282 12.8445 9.86972 14.5714 12 14.5714Z" fill="#EF7D00"/>
</svg>
