<svg width="24" height="24" viewBox="0 0 24 24" fill="none" xmlns="http://www.w3.org/2000/svg">
<path fill-rule="evenodd" clip-rule="evenodd" d="M9.49753 5.88377C8.94582 6.5734 8.64281 7.57625 8.64281 8.78571V10.8571L15.3571 10.8571V8.78571C15.3571 7.57625 15.0541 6.5734 14.5024 5.88377C13.9627 5.20915 13.1475 4.78571 11.9999 4.78571C10.8524 4.78571 10.0372 5.20915 9.49753 5.88377ZM16.3571 10.8571V8.78571C16.3571 7.42373 16.0172 6.17658 15.2832 5.25907C14.5372 4.32654 13.4238 3.78571 11.9999 3.78571C10.5761 3.78571 9.46268 4.32654 8.71666 5.25907C7.98265 6.17658 7.6428 7.42373 7.6428 8.78571V10.8571L6.21423 10.8571C6.08163 10.8571 5.95445 10.9098 5.86068 11.0036C5.76691 11.0973 5.71423 11.2245 5.71423 11.3571V18.4286C5.71423 18.7047 5.93809 18.9286 6.21423 18.9286H17.7857C18.0618 18.9286 18.2857 18.7047 18.2857 18.4286V11.3571C18.2857 11.081 18.0618 10.8571 17.7857 10.8571L16.3571 10.8571ZM6.71423 11.8571V17.9286H17.2857V11.8571H6.71423Z" fill="#EF7D00"/>
</svg>
