<svg width="24" height="24" viewBox="0 0 24 24" fill="none" xmlns="http://www.w3.org/2000/svg">
<path fill-rule="evenodd" clip-rule="evenodd" d="M6.5 2L7 1.5H17.8585L18.3585 2V22L17.8585 22.5H7L6.5 22V2ZM7.5 2.5V21.5H17.3585V2.5H7.5Z" fill="#EF7D00"/>
<path fill-rule="evenodd" clip-rule="evenodd" d="M12.4292 18.7877C12.3341 18.7877 12.2332 18.8887 12.2332 18.9838C12.2332 19.0789 12.3341 19.1798 12.4292 19.1798C12.5243 19.1798 12.6253 19.0789 12.6253 18.9838C12.6253 18.8887 12.5243 18.7877 12.4292 18.7877ZM11.2332 18.9838C11.2332 18.3364 11.7818 17.7877 12.4292 17.7877C13.0766 17.7877 13.6253 18.3364 13.6253 18.9838C13.6253 19.6311 13.0766 20.1798 12.4292 20.1798C11.7818 20.1798 11.2332 19.6311 11.2332 18.9838Z" fill="#EF7D00"/>
<path fill-rule="evenodd" clip-rule="evenodd" d="M10.6299 4.92346C10.6299 4.64732 10.8538 4.42346 11.1299 4.42346H13.775C14.0511 4.42346 14.275 4.64732 14.275 4.92346C14.275 5.1996 14.0511 5.42346 13.775 5.42346H11.1299C10.8538 5.42346 10.6299 5.1996 10.6299 4.92346Z" fill="#EF7D00"/>
</svg>
