<svg width="24" height="24" viewBox="0 0 24 24" fill="none" xmlns="http://www.w3.org/2000/svg">
<path fill-rule="evenodd" clip-rule="evenodd" d="M6.89878 6.23714C7.09404 6.43241 7.09404 6.74899 6.89878 6.94425C5.59271 8.25033 4.78577 10.0532 4.78577 12.0455C4.78577 14.0393 5.59387 15.8433 6.9016 17.1496C7.09697 17.3448 7.09715 17.6614 6.90199 17.8567C6.70684 18.0521 6.39025 18.0523 6.19489 17.8571C4.70706 16.3709 3.78577 14.3153 3.78577 12.0455C3.78577 9.77735 4.70573 7.72309 6.19168 6.23714C6.38694 6.04188 6.70352 6.04188 6.89878 6.23714ZM17.1013 6.23714C17.2966 6.04188 17.6132 6.04188 17.8084 6.23714C19.2944 7.72309 20.2143 9.77735 20.2143 12.0455C20.2143 14.3137 19.2944 16.368 17.8084 17.8539C17.6132 18.0492 17.2966 18.0492 17.1013 17.8539C16.9061 17.6586 16.9061 17.3421 17.1013 17.1468C18.4074 15.8407 19.2143 14.0378 19.2143 12.0455C19.2143 10.0532 18.4074 8.25033 17.1013 6.94425C16.9061 6.74899 16.9061 6.43241 17.1013 6.23714Z" fill="#EF7D00"/>
<path fill-rule="evenodd" clip-rule="evenodd" d="M9.09099 8.56202C9.28039 8.76297 9.27103 9.07942 9.07008 9.26882C8.32501 9.97109 7.87146 10.9331 7.87146 11.9898C7.87146 13.0473 8.32567 14.01 9.07169 14.7124C9.27275 14.9017 9.28228 15.2181 9.09299 15.4191C8.90369 15.6202 8.58725 15.6297 8.3862 15.4404C7.45489 14.5636 6.87146 13.3435 6.87146 11.9898C6.87146 10.6371 7.45405 9.41782 8.38419 8.54112C8.58514 8.35171 8.90158 8.36107 9.09099 8.56202ZM14.9091 8.56202C15.0985 8.36107 15.4149 8.35171 15.6159 8.54112C16.546 9.41782 17.1286 10.6371 17.1286 11.9898C17.1286 13.3425 16.546 14.5618 15.6159 15.4385C15.4149 15.6279 15.0985 15.6186 14.9091 15.4176C14.7197 15.2167 14.729 14.9002 14.93 14.7108C15.675 14.0086 16.1286 13.0466 16.1286 11.9898C16.1286 10.9331 15.675 9.97109 14.93 9.26882C14.729 9.07942 14.7197 8.76297 14.9091 8.56202Z" fill="#EF7D00"/>
<path fill-rule="evenodd" clip-rule="evenodd" d="M12 10.9479C11.4241 10.9479 10.9572 11.4148 10.9572 11.9907C10.9572 12.5667 11.4241 13.0336 12 13.0336C12.576 13.0336 13.0429 12.5667 13.0429 11.9907C13.0429 11.4148 12.576 10.9479 12 10.9479ZM9.95715 11.9907C9.95715 10.8625 10.8718 9.94788 12 9.94788C13.1282 9.94788 14.0429 10.8625 14.0429 11.9907C14.0429 13.119 13.1282 14.0336 12 14.0336C10.8718 14.0336 9.95715 13.119 9.95715 11.9907Z" fill="#EF7D00"/>
</svg>
