<svg width="24" height="24" viewBox="0 0 24 24" fill="none" xmlns="http://www.w3.org/2000/svg">
<path fill-rule="evenodd" clip-rule="evenodd" d="M3.78577 7.91602C3.78577 7.63987 4.00962 7.41602 4.28577 7.41602H19.7143C19.9905 7.41602 20.2143 7.63987 20.2143 7.91602V16.9916C20.2143 17.2678 19.9905 17.4916 19.7143 17.4916H17.1429C16.8668 17.4916 16.6429 17.2678 16.6429 16.9916C16.6429 16.7155 16.8668 16.4916 17.1429 16.4916H19.2143V8.41602H4.78577V16.4916H6.8572C7.13334 16.4916 7.3572 16.7155 7.3572 16.9916C7.3572 17.2678 7.13334 17.4916 6.8572 17.4916H4.28577C4.00962 17.4916 3.78577 17.2678 3.78577 16.9916V7.91602Z" fill="#EF7D00"/>
<path fill-rule="evenodd" clip-rule="evenodd" d="M6.35706 13.3611C6.35706 13.085 6.58091 12.8611 6.85706 12.8611H17.1428C17.4189 12.8611 17.6428 13.085 17.6428 13.3611V19.7141C17.6428 19.9902 17.4189 20.2141 17.1428 20.2141H6.85706C6.58091 20.2141 6.35706 19.9902 6.35706 19.7141V13.3611ZM7.35706 13.8611V19.2141H16.6428V13.8611H7.35706Z" fill="#EF7D00"/>
<path fill-rule="evenodd" clip-rule="evenodd" d="M6.35706 4.28571C6.35706 4.00956 6.58091 3.78571 6.85706 3.78571H17.1428C17.4189 3.78571 17.6428 4.00956 17.6428 4.28571V7.91596C17.6428 8.1921 17.4189 8.41596 17.1428 8.41596H6.85706C6.58091 8.41596 6.35706 8.1921 6.35706 7.91596V4.28571ZM7.35706 4.78571V7.41596H16.6428V4.78571H7.35706Z" fill="#EF7D00"/>
<path fill-rule="evenodd" clip-rule="evenodd" d="M4.21436 13.3611C4.21436 13.085 4.43821 12.8611 4.71436 12.8611H19.2858C19.5619 12.8611 19.7858 13.085 19.7858 13.3611C19.7858 13.6373 19.5619 13.8611 19.2858 13.8611H4.71436C4.43821 13.8611 4.21436 13.6373 4.21436 13.3611Z" fill="#EF7D00"/>
</svg>
