<svg width="24" height="24" viewBox="0 0 24 24" fill="none" xmlns="http://www.w3.org/2000/svg">
<path d="M12 3.08696C16.9275 3.08696 20.913 7.07246 20.913 12C20.913 16.9275 16.9275 20.913 12 20.913C7.07246 20.913 3.08696 16.9275 3.08696 12C3.08696 7.07246 7.07246 3.08696 12 3.08696ZM12 2C6.49275 2 2 6.49275 2 12C2 17.5072 6.49275 22 12 22C17.5072 22 22 17.5072 22 12C22 6.49275 17.5072 2 12 2Z" fill="#EF7D00"/>
<path fill-rule="evenodd" clip-rule="evenodd" d="M11.92 8.16665C11.0135 8.16665 10.2378 8.61429 9.84829 9.24942L9.79707 9.32169C9.789 9.33161 9.76645 9.36518 9.72949 9.44467C9.70483 9.49771 9.68695 9.54056 9.66543 9.59217C9.65042 9.62815 9.63364 9.66839 9.61154 9.71931L8.38843 9.18848C8.39625 9.17046 8.40688 9.14515 8.41923 9.11575C8.44823 9.04669 8.48671 8.9551 8.52047 8.88248C8.56858 8.77904 8.63676 8.64541 8.73252 8.51883C9.3881 7.4778 10.6005 6.83331 11.92 6.83331C13.9617 6.83331 15.6666 8.37735 15.6666 10.3387C15.6666 12.0826 14.2901 13.49 12.5866 13.7864V15.5H11.2533V13.1774L11.92 12.5107C13.284 12.5107 14.3333 11.4687 14.3333 10.3387C14.3333 9.20325 13.3182 8.16665 11.92 8.16665Z" fill="#EF7D00"/>
<path fill-rule="evenodd" clip-rule="evenodd" d="M11.3333 17.5V16.5H12.6666V17.5H11.3333Z" fill="#EF7D00"/>
</svg>
