<svg width="24" height="24" viewBox="0 0 24 24" fill="none" xmlns="http://www.w3.org/2000/svg">
<path d="M13.2828 19.1904C13.3568 19.2643 13.3937 19.3013 13.4677 19.3752V20.7061C13.3937 20.78 13.3568 20.817 13.2828 20.8909H11.952L11.7671 20.7061V19.3752C11.8411 19.3013 11.878 19.2643 11.952 19.1904H13.2828ZM13.7265 18.0813H13.2828H11.952H11.5084L11.1756 18.414L11.0647 18.5249L10.9908 18.5989L10.6581 18.9316V19.3752V20.7061V21.1497L10.9908 21.4824L11.1756 21.6673L11.5084 22H11.952H13.2828H13.7265L14.0592 21.6673L14.1331 21.5933L14.244 21.4824L14.5767 21.1497V20.7061V19.3752V18.9316L14.244 18.5989L14.0592 18.414L13.7265 18.0813Z" fill="#EF7D00"/>
<path d="M12.4325 3.10906C12.8022 3.10906 13.1349 3.14603 13.5046 3.21996C16.2033 3.73752 17.9778 6.28835 17.719 9.02403C17.4603 11.7227 15.4639 12.8688 13.4676 13.5342V15.3826C13.3937 15.4566 13.3567 15.4935 13.2828 15.5675H11.9519C11.878 15.4935 11.841 15.4566 11.7671 15.3826V12.2033C13.8004 12.2033 16.0554 10.8355 16.0924 8.54344C16.1294 6.62108 14.6137 4.95749 12.6913 4.77264C12.5804 4.77264 12.4695 4.77264 12.3586 4.77264C10.3623 4.77264 8.73568 6.32533 8.62477 8.32163C8.55083 8.39557 8.51387 8.43253 8.43993 8.50647H7.8854H7.25693C7.18299 8.43253 7.14602 8.39557 7.07209 8.32163C7.18299 5.36414 9.54898 3.10906 12.4325 3.10906ZM12.4325 2C8.95748 2 6.14787 4.73568 6 8.21072V8.69131L6.33271 9.02403L6.44362 9.13494L6.51756 9.20887L6.85027 9.54159H7.2939H7.92236H8.47689H8.92051L9.25323 9.24584L9.43807 9.061L9.73383 8.76525L9.77079 8.32163C9.84472 6.91682 10.9908 5.80776 12.3956 5.80776C12.4695 5.80776 12.5434 5.80776 12.6174 5.80776C13.9482 5.91867 15.0573 7.10166 15.0203 8.4695C14.9834 10.0591 13.3198 11.0573 11.7671 11.0573H10.658V12.1664V15.3457V15.7893L10.9908 16.122L11.0647 16.1959L11.1756 16.3068L11.5083 16.6396H11.9519H13.2828H13.7264L14.0591 16.3068L14.1701 16.1959L14.244 16.122L14.5767 15.7893V15.3457V14.2736C16.0554 13.719 18.5323 12.3512 18.8281 9.09797C19.1608 5.73383 16.9427 2.73937 13.7264 2.11091C13.2828 2.03697 12.8392 2 12.4325 2Z" fill="#EF7D00"/>
</svg>
