<svg width="24" height="24" viewBox="0 0 24 24" fill="none" xmlns="http://www.w3.org/2000/svg">
<path fill-rule="evenodd" clip-rule="evenodd" d="M3.78577 4.28571C3.78577 4.00956 4.00962 3.78571 4.28577 3.78571H16.5001C16.6327 3.78571 16.7598 3.83838 16.8536 3.93215L20.0679 7.14644C20.1617 7.24021 20.2143 7.36738 20.2143 7.49999V19.7143C20.2143 19.9904 19.9905 20.2143 19.7143 20.2143H4.28577C4.00962 20.2143 3.78577 19.9904 3.78577 19.7143V4.28571ZM4.78577 4.78571V19.2143H7.00005V13.2857C7.00005 13.0096 7.22391 12.7857 7.50005 12.7857H16.5001C16.7762 12.7857 17.0001 13.0096 17.0001 13.2857V19.2143H19.2143V7.7071L16.2929 4.78571H15.7143V8.14285C15.7143 8.41899 15.4905 8.64285 15.2143 8.64285H8.78577C8.50962 8.64285 8.28577 8.41899 8.28577 8.14285V4.78571H4.78577ZM9.28577 4.78571V7.64285H14.7143V4.78571H9.28577ZM16.0001 19.2143V13.7857H8.00005V19.2143H16.0001Z" fill="#EF7D00"/>
</svg>
