<svg width="24" height="24" viewBox="0 0 24 24" fill="none" xmlns="http://www.w3.org/2000/svg">
<path d="M11.9095 21.0344H8.62463V22H13.0876L13.5703 21.5172V17.0543H12.6048V20.3622L4.96558 12.7253V9.99492L6.04897 8.91153H8.7794L15.3167 15.4511L15.6586 15.5921H18.7886L19.1305 15.4511L20.3063 14.2754L20.4472 13.9335V10.8034L20.3063 10.4615L12.8104 2.96558H16.0513V2H11.5884L11.1056 2.48279V6.94571H12.0712V3.5939L19.4816 11.0044V13.7325L18.59 14.6265H15.8596L9.31994 8.08686L8.97806 7.94595H5.848L5.50612 8.08686L4.14091 9.45207L4 9.79395V12.924L4.14091 13.2659L11.9095 21.0344Z" fill="#EF7D00"/>
</svg>
