<svg width="24" height="24" viewBox="0 0 24 24" fill="none" xmlns="http://www.w3.org/2000/svg">
<path fill-rule="evenodd" clip-rule="evenodd" d="M3.5 2L4 1.5H19.4135L19.9135 2V22L19.4135 22.5H4L3.5 22V2ZM4.5 2.5V21.5H18.9135V2.5H4.5Z" fill="#EF7D00"/>
<path fill-rule="evenodd" clip-rule="evenodd" d="M17.3083 5.73309H13.5865V4.73309H17.3083V5.73309Z" fill="#EF7D00"/>
<path fill-rule="evenodd" clip-rule="evenodd" d="M17.3083 8.28943H13.5865V7.28943H17.3083V8.28943Z" fill="#EF7D00"/>
<path fill-rule="evenodd" clip-rule="evenodd" d="M17.4963 15.8082H5.9549V14.8082H17.4963V15.8082Z" fill="#EF7D00"/>
<path fill-rule="evenodd" clip-rule="evenodd" d="M17.4963 18.8534H5.9549V17.8534H17.4963V18.8534Z" fill="#EF7D00"/>
<path fill-rule="evenodd" clip-rule="evenodd" d="M7.22499 10.5977H11.5269C11.3031 9.61466 10.4314 8.89099 9.37596 8.89099C8.32057 8.89099 7.44882 9.61466 7.22499 10.5977ZM6.16919 11.0977C6.16919 9.31783 7.59606 7.89099 9.37596 7.89099C11.1559 7.89099 12.5827 9.31783 12.5827 11.0977L12.0827 11.5977H6.66919L6.16919 11.0977Z" fill="#EF7D00"/>
<path fill-rule="evenodd" clip-rule="evenodd" d="M7.2594 6.21049C7.2594 5.0321 8.19754 4.09393 9.37594 4.09393C10.5543 4.09393 11.4925 5.0321 11.4925 6.21049C11.4925 7.38889 10.5543 8.32706 9.37594 8.32706C8.19754 8.32706 7.2594 7.38889 7.2594 6.21049ZM9.37594 5.09393C8.74984 5.09393 8.2594 5.58437 8.2594 6.21049C8.2594 6.83662 8.74984 7.32706 9.37594 7.32706C10.0021 7.32706 10.4925 6.83662 10.4925 6.21049C10.4925 5.58437 10.0021 5.09393 9.37594 5.09393Z" fill="#EF7D00"/>
</svg>
