<svg width="24" height="24" viewBox="0 0 24 24" fill="none" xmlns="http://www.w3.org/2000/svg">
<path d="M18.7737 17.6454H18.0979V18.5871H18.7737V17.6454Z" fill="#EF7D00"/>
<path d="M15.62 17.6454H14.9442V18.5871H15.62V17.6454Z" fill="#EF7D00"/>
<path d="M14.043 17.6454H13.3672V18.5871H14.043V17.6454Z" fill="#EF7D00"/>
<path d="M17.1969 17.6454H16.5211V18.5871H17.1969V17.6454Z" fill="#EF7D00"/>
<path d="M4.93963 18.5871H11.8759L10.9252 22H11.9029L16.2642 6.3681L19.6794 17.9225V18.5803H19.8687L20.8756 21.9932H21.8578L17.8727 8.50372L16.7148 4.53435L16.2642 4.19644H14.3043V2.47083L13.8335 2H10.5242L10.0534 2.47083V4.19644H8.33228L7.88173 4.54111L4.11286 17.9901V18.0036L3 22H3.9777L4.93963 18.5871ZM15.6267 5.13809L12.1394 17.6454H5.2032L8.69047 5.13809H15.6267ZM10.995 2.94391H13.3627V4.19644H10.995V2.94391Z" fill="#EF7D00"/>
</svg>
