<svg width="24" height="24" viewBox="0 0 24 24" fill="none" xmlns="http://www.w3.org/2000/svg">
<path d="M17.967 2H11.5376L11.1666 2.37109V4.39524C9.77568 4.49013 8.47262 5.10926 7.52052 6.1276C6.56841 7.14595 6.0382 8.48764 6.03693 9.88175V16.9698H5.70135L5.33203 17.3125L5 21.6005L5.36932 22H7.44496L7.81605 21.6005L7.48402 17.3125L7.11293 16.9698H6.77912V9.88175C6.78077 8.68475 7.23314 7.53227 8.04617 6.65376C8.8592 5.77525 9.97326 5.23515 11.1666 5.14098V6.04474C10.4507 6.32292 9.83547 6.81074 9.40144 7.44435C8.96741 8.07797 8.73479 8.82786 8.73402 9.59588V21.6218L9.10512 21.9929H15.9837L16.3548 21.6218V9.5941C16.3543 8.82744 16.1231 8.07866 15.6911 7.44528C15.2592 6.81189 14.6465 6.32325 13.9329 6.04297V5.25107L17.6314 6.30398L17.9865 5.6701L16.3885 4.23722L18.0806 3.69034L18.3381 3.33523V2.37642L17.967 2ZM7.05256 21.2543H5.7706L6.04581 17.7031H6.77024L7.05256 21.2543ZM15.6197 21.2543H9.47621V10.4091H15.6126L15.6197 21.2543ZM15.6197 9.59766V9.66868H9.47621V9.59766C9.47621 8.78392 9.79946 8.00352 10.3749 7.42812C10.9503 6.85273 11.7307 6.52947 12.5444 6.52947C13.3581 6.52947 14.1385 6.85273 14.7139 7.42812C15.2893 8.00352 15.6126 8.78392 15.6126 9.59766H15.6197ZM12.5444 5.78374C12.3313 5.78463 12.1186 5.80364 11.9087 5.84055V5.13033H13.1907V5.84055C12.9772 5.80364 12.761 5.78464 12.5444 5.78374ZM14.8384 4.73082L15.5753 4.49467L16.2979 5.14453L14.8384 4.73082ZM17.5959 3.06001L13.5121 4.38104H11.9141V2.74219H17.5959V3.06001Z" fill="#EF7D00"/>
</svg>
