<svg width="24" height="24" viewBox="0 0 24 24" fill="none" xmlns="http://www.w3.org/2000/svg">
<path d="M7.1835 18.5412L7.5523 17.9161C6.95853 17.1969 6.59527 16.2067 6.894 15.1778C6.92868 15.3583 6.99087 15.5324 7.07839 15.6941C7.30705 16.0961 7.67954 16.3561 8.0299 16.3561C8.24576 16.3712 8.46159 16.3261 8.65335 16.2258C8.84511 16.1256 9.00527 15.974 9.11601 15.7881C9.2037 16.1454 9.20301 16.5187 9.11401 16.8756C9.02501 17.2326 8.85038 17.5625 8.60522 17.8368L9.04963 18.4509C9.7447 18.1844 10.3518 17.7297 10.8029 17.1375C11.254 16.5454 11.5313 15.8393 11.6036 15.0985C11.681 14.3609 11.6902 13.4555 10.7922 12.1333L10.1118 12.22C10.0945 12.2847 10.0633 12.3448 10.0203 12.3961C9.97728 12.4474 9.92353 12.4886 9.86283 12.5169C9.83367 12.5292 9.80231 12.5356 9.77063 12.5356C9.73895 12.5356 9.70759 12.5292 9.67843 12.5169C9.59914 12.4745 9.57517 12.4616 9.61574 11.9213C9.65635 11.4736 9.65943 11.0233 9.62496 10.5751C9.52538 9.33967 8.5831 8.30518 7.17059 7.87369L6.85343 8.57072C6.85343 8.57072 7.20563 8.80675 7.20563 9.43002C7.20563 10.0238 6.6303 10.5807 5.96462 11.2242C5.08503 12.078 3.98785 13.1401 3.98785 14.7278C3.9897 16.8079 5.63454 18.2462 7.1835 18.5412ZM6.50307 11.7793C7.26279 11.0417 7.97827 10.352 7.97827 9.43187C7.97869 9.32574 7.9713 9.21973 7.95614 9.1147C8.20505 9.28959 8.41376 9.51561 8.56831 9.77765C8.72286 10.0397 8.81969 10.3317 8.85232 10.6342C8.88135 11.0425 8.87765 11.4526 8.84126 11.8604C8.80069 12.3952 8.76196 12.9004 9.30963 13.1936C9.43689 13.2587 9.57651 13.2959 9.71925 13.3029C9.86199 13.3099 10.0046 13.2865 10.1376 13.2342C10.2509 13.1903 10.3562 13.128 10.4492 13.0498C10.7965 13.6432 10.933 14.3366 10.8365 15.0173C10.755 15.7746 10.4181 16.4815 9.88127 17.0218C10.1062 16.0813 9.85914 15.1317 9.32807 14.5619L8.68083 14.7573C8.53515 15.5834 8.29912 15.5834 8.05203 15.5834C7.98079 15.5548 7.91629 15.5117 7.86264 15.4567C7.80898 15.4018 7.76735 15.3363 7.74039 15.2644C7.60947 15.0007 7.47301 14.4217 8.01883 13.4997L7.42691 13.0203C5.84292 14.4807 5.78944 16.1164 6.3408 17.385C5.86926 17.118 5.47549 16.7327 5.19836 16.267C4.92122 15.8013 4.7703 15.2715 4.76049 14.7297C4.76049 13.4665 5.64745 12.6091 6.50307 11.7793Z" fill="#EF7D00"/>
<path d="M11.515 6.62712V7.39791H13.8716C13.9356 7.70643 14.115 7.97887 14.3732 8.15948C13.8483 8.31355 13.3874 8.63336 13.0594 9.0711C12.7313 9.50884 12.5537 10.041 12.5532 10.588V18.0949L12.9404 18.4803H17.2314L17.6168 18.0949V10.588C17.6159 10.0403 17.4375 9.5076 17.1084 9.06977C16.7793 8.63194 16.3171 8.31256 15.7912 8.15948C16.0036 8.00561 16.1613 7.78787 16.2412 7.53805C16.9209 7.62375 17.5462 7.95436 17.9997 8.46795C18.4532 8.98154 18.7039 9.64286 18.7048 10.328V15.0376L18.323 15.3824L18.0575 18.0581L18.4411 18.4822H19.7319L20.1154 18.0581L19.8462 15.3824L19.4774 15.0413V10.3243C19.4762 9.43423 19.1445 8.57628 18.5465 7.91697C17.9485 7.25765 17.1269 6.84397 16.2412 6.75619C16.1823 6.58048 16.0842 6.42044 15.9544 6.28813C15.8247 6.15582 15.6666 6.05469 15.492 5.99237C15.3175 5.93005 15.1311 5.90816 14.9469 5.92836C14.7626 5.94855 14.5854 6.0103 14.4285 6.10895L14.364 6.06285L14.281 6.0186L11.7271 5.04312L11.4468 5.76412L13.7057 6.62712H11.515ZM18.8726 17.7114L19.057 15.8065H19.1197L19.3041 17.7114H18.8726ZM16.8442 17.7114H13.3184V11.2574H16.8386L16.8442 17.7114ZM16.8442 10.4811H13.3406C13.3756 10.0405 13.5754 9.62932 13.9 9.32946C14.2247 9.02959 14.6504 8.86307 15.0924 8.86307C15.5343 8.86307 15.96 9.02959 16.2847 9.32946C16.6094 9.62932 16.8091 10.0405 16.8442 10.4811ZM15.0776 6.69166C15.1689 6.69129 15.2582 6.71802 15.3342 6.76845C15.4103 6.81888 15.4697 6.89075 15.5048 6.97496C15.54 7.05916 15.5494 7.15191 15.5318 7.24146C15.5142 7.331 15.4705 7.41332 15.4061 7.47797C15.3417 7.54263 15.2595 7.58672 15.1701 7.60466C15.0806 7.62259 14.9878 7.61357 14.9035 7.57874C14.8191 7.5439 14.747 7.48481 14.6963 7.40896C14.6455 7.33311 14.6185 7.24391 14.6185 7.15265C14.6185 7.03071 14.6668 6.91373 14.7528 6.82733C14.8389 6.74093 14.9557 6.69214 15.0776 6.69166Z" fill="#EF7D00"/>
<path d="M21.6146 3H2.3854L2 3.3854V20.5346L2.3854 20.92H21.6146L22 20.5346V3.3854L21.6146 3ZM21.2292 20.1492H2.78001V3.77079H21.2384L21.2292 20.1492Z" fill="#EF7D00"/>
</svg>
